<?xml version="1.0" encoding="utf-8"?>
<!-- Generator: Adobe Illustrator 18.1.1, SVG Export Plug-In . SVG Version: 6.00 Build 0)  -->
<svg version="1.1" id="Welcome" xmlns="http://www.w3.org/2000/svg" xmlns:xlink="http://www.w3.org/1999/xlink" x="0px" y="0px"
	 viewBox="0 0 2048 1536" enable-background="new 0 0 2048 1536" xml:space="preserve">
<g>
	<defs>
		<rect id="SVGID_1_" x="-1" y="-1" width="2048" height="1536"/>
	</defs>
	<clipPath id="SVGID_2_">
		<use xlink:href="#SVGID_1_"  overflow="visible"/>
	</clipPath>
	<g clip-path="url(#SVGID_2_)">
		<defs>
			<rect id="SVGID_3_" y="-3" width="2048" height="1536"/>
		</defs>
		<clipPath id="SVGID_4_">
			<use xlink:href="#SVGID_3_"  overflow="visible"/>
		</clipPath>
		<rect x="-1307.2" y="1243.4" clip-path="url(#SVGID_4_)" fill="#9AE5D7" width="4442.5" height="461.2"/>
		<g opacity="0.4" clip-path="url(#SVGID_4_)">
			<rect x="2243.1" y="172.2" fill="#FFFFFF" width="527.4" height="683.5"/>
			<rect x="2236.6" y="178.6" fill="#EFEFEF" width="527.4" height="683.5"/>
			<circle fill="none" stroke="#A1A5B5" stroke-width="6.7569" stroke-miterlimit="10" cx="2506.8" cy="487.6" r="193.7"/>
			<circle fill="#A1A5B5" stroke="#EFEFEF" stroke-width="16.8921" stroke-miterlimit="10" cx="2313.1" cy="487.6" r="35.9"/>
			<circle fill="#A1A5B5" stroke="#EFEFEF" stroke-width="16.8921" stroke-miterlimit="10" cx="2506.8" cy="294" r="35.9"/>
			<circle fill="#A1A5B5" stroke="#EFEFEF" stroke-width="16.8921" stroke-miterlimit="10" cx="2700.4" cy="487.6" r="35.9"/>
			<circle fill="#A1A5B5" stroke="#EFEFEF" stroke-width="16.8921" stroke-miterlimit="10" cx="2506.8" cy="681.3" r="35.9"/>
			<circle fill="#A1A5B5" stroke="#EFEFEF" stroke-width="16.8921" stroke-miterlimit="10" cx="2369.9" cy="350.7" r="35.9"/>
			<circle fill="#A1A5B5" stroke="#EFEFEF" stroke-width="16.8921" stroke-miterlimit="10" cx="2643.7" cy="350.7" r="35.9"/>
			<circle fill="#A1A5B5" stroke="#EFEFEF" stroke-width="16.8921" stroke-miterlimit="10" cx="2643.7" cy="624.5" r="35.9"/>
			<circle fill="#A1A5B5" stroke="#EFEFEF" stroke-width="16.8921" stroke-miterlimit="10" cx="2369.9" cy="624.5" r="35.9"/>
			<rect x="2619.3" y="780.7" fill="#A1A5B5" width="128.2" height="13.5"/>
			<rect x="2619.3" y="801.6" fill="#A1A5B5" width="128.2" height="13.5"/>
			<rect x="2619.3" y="821.2" fill="#A1A5B5" width="128.2" height="13.5"/>
			<rect x="2470.9" y="780.7" fill="#A1A5B5" width="128.2" height="13.5"/>
			<rect x="2405.7" y="200.4" fill="#A1A5B5" width="202.1" height="31.5"/>
			<rect x="2470.9" y="801.6" fill="#A1A5B5" width="128.2" height="13.5"/>
			<rect x="2470.9" y="821.2" fill="#A1A5B5" width="128.2" height="13.5"/>
			<g>
				<circle fill="#A1A5B5" cx="2506.2" cy="373.1" r="32.4"/>
				<polygon fill="#A1A5B5" points="2492.7,421.8 2519.8,421.8 2518.1,393.4 2494.4,393.4 				"/>
				<path fill="#A1A5B5" d="M2543.3,417h-74.1c-2.7,0-5,2.2-5,5v102c0,2.7,2.2,5,5,5h74.1c2.7,0,5-2.2,5-5V422
					C2548.2,419.3,2546,417,2543.3,417z"/>
				<path fill="#A1A5B5" d="M2482.3,643.2h-5.8c-2.3,0-4.2-1.9-4.2-4.2V523.9c0-2.3,1.9-4.2,4.2-4.2h5.8c2.3,0,4.2,1.9,4.2,4.2V639
					C2486.5,641.3,2484.6,643.2,2482.3,643.2z"/>
				<path fill="#A1A5B5" d="M2575.3,538l-5.6,1.2c-2.3,0.5-4.5-1-5-3.2l-23.8-112.7c-0.5-2.3,1-4.5,3.2-5l5.6-1.2
					c2.3-0.5,4.5,1,5,3.2l23.8,112.7C2579,535.3,2577.5,537.6,2575.3,538z"/>
				<path fill="#A1A5B5" d="M2576.2,539.1l-6.9,1.5c-2.8,0.6-5.5-1.2-6.1-4l-2.6-12.2c-0.6-2.8,1.2-5.5,4-6.1l6.9-1.5
					c2.8-0.6,5.5,1.2,6.1,4l2.6,12.2C2580.7,535.8,2578.9,538.5,2576.2,539.1z"/>
				<path fill="#A1A5B5" d="M2435.8,539.1l6.9,1.5c2.8,0.6,5.5-1.2,6.1-4l2.6-12.2c0.6-2.8-1.2-5.5-4-6.1l-6.9-1.5
					c-2.8-0.6-5.5,1.2-6.1,4l-2.6,12.2C2431.3,535.8,2433,538.5,2435.8,539.1z"/>
				<path fill="#A1A5B5" d="M2436.8,538l5.6,1.2c2.3,0.5,4.5-1,5-3.2l23.8-112.7c0.5-2.3-1-4.5-3.2-5l-5.6-1.2c-2.3-0.5-4.5,1-5,3.2
					l-23.8,112.7C2433.1,535.3,2434.5,537.6,2436.8,538z"/>
				<path fill="#A1A5B5" d="M2536.7,643.2h-5.8c-2.3,0-4.2-1.9-4.2-4.2V523.9c0-2.3,1.9-4.2,4.2-4.2h5.8c2.3,0,4.2,1.9,4.2,4.2V639
					C2540.9,641.3,2539,643.2,2536.7,643.2z"/>
				<path fill="#A1A5B5" d="M2553.5,645.9h-22.4c-2.4,0-4.3-2-4.3-4.3v-6c0-2.4,2-4.3,4.3-4.3h22.4c2.4,0,4.3,2,4.3,4.3v6
					C2557.9,644,2555.9,645.9,2553.5,645.9z"/>
				<path fill="#A1A5B5" d="M2482.4,645.9H2460c-2.4,0-4.3-2-4.3-4.3v-6c0-2.4,2-4.3,4.3-4.3h22.4c2.4,0,4.3,2,4.3,4.3v6
					C2486.7,644,2484.8,645.9,2482.4,645.9z"/>
				<circle fill="#A1A5B5" cx="2435.8" cy="516" r="4.3"/>
				<circle fill="#A1A5B5" cx="2576.3" cy="516.8" r="4.3"/>
			</g>
		</g>
		<g clip-path="url(#SVGID_4_)">
			<rect x="-2078" y="817.7" opacity="0.7" fill="#CCEDED" width="67.9" height="165.5"/>
			<g>
				<polygon fill="#BCBCBC" points="-1578,1316.9 -1566.4,1340.1 -1564.3,1298.4 				"/>
				<polygon fill="#BCBCBC" points="-1626.9,1253.4 -1615.3,1276.6 -1612.7,1234.7 				"/>
				<rect x="-2278.4" y="1021.6" fill="#BCBCBC" width="45.6" height="231.8"/>
				<rect x="-2290" y="1044.8" fill="#CCCCCC" width="45.6" height="231.8"/>
				<polygon fill="#BCBCBC" points="-2232.4,1253.8 -2244,1276.6 -2244,1235.4 				"/>
				<rect x="-2327.4" y="1018.6" fill="#BCBCBC" width="45.6" height="298.4"/>
				<rect x="-2339" y="1041.7" fill="#D8D8D8" width="45.6" height="298.4"/>
				<rect x="-2375.5" y="1023.6" fill="#D8D8D8" width="705.4" height="36.3"/>
				<polygon fill="#BCBCBC" points="-2281.4,1317.3 -2293,1340.1 -2293,1298.9 				"/>
				<rect x="-1626.9" y="1021.6" fill="#BCBCBC" width="45.6" height="231.8"/>
				<rect x="-1615.3" y="1044.8" fill="#CCCCCC" width="45.6" height="231.8"/>
				<rect x="-1578" y="1018.6" fill="#BCBCBC" width="45.6" height="298.4"/>
				<rect x="-1566.4" y="1041.7" fill="#D8D8D8" width="45.6" height="298.4"/>
				<rect x="-2189.7" y="1023.6" fill="#D8D8D8" width="705.4" height="36.3"/>
				<polygon fill="#EFEFEF" points="-1555,960.4 -1555,960 -1555.4,960 -1555.5,960 -1556.1,960 -1670.1,960 -2189.7,960 
					-2303.9,960 -2304.6,960 -2375.5,1024 -2190.3,1024 -1670.1,1024 -1484.2,1024 				"/>
				<polygon fill="#FFFFFF" points="-2278.4,1016.2 -2222.6,965 -2151.5,965 -2199.2,1016.3 				"/>
				<g>
					<polygon fill="#FFFFFF" points="-2278.4,1016.2 -2222.6,965 -2151.5,965 -2199.2,1016.3 					"/>
					<polygon fill="#FFFFFF" points="-2278,1007 -2278,1016 -2262,1011.5 -2259,1002.4 					"/>
					<polygon fill="#FFFFFF" points="-2151,955.5 -2151,964.6 -2161.8,970.3 -2165.1,964.6 					"/>
					<polygon fill="#0AF2D1" points="-2278.4,1007.2 -2222.6,956 -2151.5,956 -2199.2,1007.3 					"/>
					<polygon fill="#E244BD" points="-2163.3,968 -2151.5,956 -2222.6,956 -2236.4,968 					"/>
					<polygon fill="#262626" points="-2273.5,1002 -2278.4,1006.7 -2199.2,1006.6 -2195,1002 					"/>
				</g>
				<g>
					<polygon fill="#FFFFFF" points="-2278.4,1002.4 -2222.6,951 -2151.5,951 -2199.2,1002.5 					"/>
					<polygon fill="#FFFFFF" points="-2278,993.4 -2278,1002.5 -2262,998 -2259,988.9 					"/>
					<polygon fill="#FFFFFF" points="-2151,942 -2151,951.1 -2161.8,956.8 -2165.1,951.1 					"/>
					<polygon fill="#0C83EF" points="-2278.4,993.9 -2222.6,943 -2151.5,943 -2199.2,994.2 					"/>
					<polygon fill="#E0B846" points="-2163.3,955 -2151.5,943 -2222.6,943 -2236.4,955 					"/>
					<polygon fill="#262626" points="-2273.5,988 -2278.4,993 -2199.2,992.8 -2195,988 					"/>
				</g>
				<g>
					<polygon fill="#FFFFFF" points="-2278.4,989.2 -2222.6,938 -2151.5,938 -2199.2,989.3 					"/>
					<polygon fill="#FFFFFF" points="-2278,979.9 -2278,989 -2262,984.5 -2259,975.4 					"/>
					<polygon fill="#FFFFFF" points="-2151,928.5 -2151,937.6 -2161.8,943.2 -2165.1,937.6 					"/>
					<polygon fill="#00FFFF" points="-2278.4,980.1 -2222.6,929 -2151.5,929 -2199.2,980.3 					"/>
					<polygon fill="#A5A5A5" points="-2163.3,941 -2151.5,929 -2222.6,929 -2236.4,941 					"/>
					<polygon fill="#262626" points="-2273.5,975 -2278.4,979.7 -2199.2,979.6 -2195,975 					"/>
				</g>
				<polygon fill="#FFFFFF" points="-1551.8,1011.4 -1607.6,960 -1678.7,960 -1631,1011.4 				"/>
				<polygon fill="#FFFFFF" points="-1551.8,1011.4 -1607.6,960 -1678.7,960 -1631,1011.4 				"/>
				<polygon fill="#FFFFFF" points="-1552,1002.4 -1552,1011.5 -1568,1007 -1571,997.9 				"/>
				<polygon fill="#E53C4C" points="-1664.6,960 -1679,951 -1679,960 -1678.7,960 -1631,1011.4 -1631,960 				"/>
				<polygon fill="#FF454F" points="-1551.8,1002.4 -1607.6,951 -1678.7,951 -1631,1002.4 				"/>
				<polygon fill="#E2DC05" points="-1667,972.7 -1678.5,960.1 -1678.5,951 -1667,951 				"/>
				<polygon fill="#FFFF00" points="-1666.9,963 -1678.7,951 -1607.6,951 -1593.8,963 				"/>
				<polygon fill="#545353" points="-1631.2,997.9 -1635.2,997.9 -1635.2,1007.1 -1631.2,1011.5 				"/>
				<polygon fill="#262626" points="-1556.7,998 -1551.8,1002.4 -1631,1002.5 -1635.2,998 				"/>
			</g>
			<polygon opacity="0.5" fill="#CCEDED" points="-2077.8,893.6 -2091,903.9 -2091,1001.8 -2078,983.3 			"/>
			<polygon opacity="0.7" fill="#CEDDDC" points="-2023,983 -2023,1001.8 -2010.1,983 			"/>
			<g>
				<polygon fill="#FC7C88" points="-2081.1,838 -2084,843.9 -2084,992 -2016.6,992 -2013,986.1 -2013,838 				"/>
				<rect x="-2083.9" y="843.9" fill="#FF454F" width="67.9" height="147.8"/>
				<rect x="-2083.9" y="979.7" fill="#545353" width="67.9" height="12"/>
				<rect x="-2076.9" y="852.1" fill="#FFFFFF" width="53.8" height="119.3"/>
			</g>
			<polygon opacity="0.5" fill="#C6CCCB" points="-2078,983 -2090.7,1002 -2023,1002 -2023,983 			"/>
			<g>
				<polygon fill="#FC7C88" points="-2086.2,843 -2089,849 -2089,997 -2021.6,997 -2018,991.1 -2018,843 				"/>
				<rect x="-2089" y="849" fill="#FF454F" width="67.9" height="147.8"/>
				<rect x="-2089" y="984.8" fill="#545353" width="67.9" height="12"/>
				<rect x="-2081.9" y="857.1" fill="#FFFFFF" width="53.8" height="119.3"/>
			</g>
			<polygon opacity="0.5" fill="#CCEDED" points="-2010.1,893.6 -2023,903.9 -2023,1001.8 -2010.1,983.3 			"/>
			<polygon opacity="0.5" fill="#CCEDED" points="-2078,983 -2090.7,1002 -2023,1002 -2023,983 			"/>
			<rect x="-2090.7" y="903.9" opacity="0.3" fill="#CCEDED" width="67.9" height="98"/>
			<polygon opacity="0.5" fill="#CCEDED" points="-2023,983 -2023,904 -2091,904 -2091,1001.8 -2078,983 			"/>
			<rect x="-1990.2" y="817.7" opacity="0.7" fill="#CCEDED" width="67.9" height="165.5"/>
			<polygon opacity="0.5" fill="#CCEDED" points="-1989.9,893.6 -2003,903.9 -2003,1001.8 -1990,983.3 			"/>
			<polygon opacity="0.7" fill="#CEDDDC" points="-1935,983 -1935,1001.8 -1922.3,983 			"/>
			<g>
				<polygon fill="#AEEFF4" points="-1993.3,838 -1996,843.9 -1996,992 -1928.7,992 -1925,986.1 -1925,838 				"/>
				<rect x="-1996.1" y="843.9" fill="#48E9FF" width="67.9" height="147.8"/>
				<rect x="-1996.1" y="979.7" fill="#545353" width="67.9" height="12"/>
				<rect x="-1989" y="852.1" fill="#FFFFFF" width="53.8" height="119.3"/>
			</g>
			<polygon opacity="0.5" fill="#C6CCCB" points="-1990.2,983 -2002.8,1002 -1935,1002 -1935,983 			"/>
			<g>
				<polygon fill="#AEEFF4" points="-1998.3,843 -2001,849 -2001,997 -1933.8,997 -1930,991.1 -1930,843 				"/>
				<rect x="-2001.1" y="849" fill="#48E9FF" width="67.9" height="147.8"/>
				<rect x="-2001.1" y="984.8" fill="#545353" width="67.9" height="12"/>
				<rect x="-1994.1" y="857.1" fill="#FFFFFF" width="53.8" height="119.3"/>
			</g>
			<polygon opacity="0.5" fill="#CCEDED" points="-1922.1,893.6 -1935,903.9 -1935,1001.8 -1922.1,983.3 			"/>
			<polygon opacity="0.5" fill="#CCEDED" points="-1990.2,983 -2002.8,1002 -1935,1002 -1935,983 			"/>
			<rect x="-2002.8" y="903.9" opacity="0.3" fill="#CCEDED" width="67.9" height="98"/>
			<polygon opacity="0.5" fill="#CCEDED" points="-1935,983 -1935,904 -2003,904 -2003,1001.8 -1990.2,983 			"/>
		</g>
		<g opacity="0.4" clip-path="url(#SVGID_4_)">
			<rect x="2824.5" y="179.6" fill="#E5E5E5" width="529.1" height="685.8"/>
			<circle fill="#A1A5B5" cx="3089.1" cy="496.1" r="194.4"/>
			<rect x="3202" y="790.2" fill="#A1A5B5" width="128.6" height="13.5"/>
			<rect x="3202" y="811.2" fill="#A1A5B5" width="128.6" height="13.5"/>
			<rect x="3202" y="830.8" fill="#A1A5B5" width="128.6" height="13.5"/>
			<rect x="3053.1" y="790.2" fill="#A1A5B5" width="128.6" height="13.5"/>
			<rect x="2987.7" y="207.9" fill="#A1A5B5" width="202.8" height="31.6"/>
			<rect x="3053.1" y="811.2" fill="#A1A5B5" width="128.6" height="13.5"/>
			<rect x="3053.1" y="830.8" fill="#A1A5B5" width="128.6" height="13.5"/>
			<path fill="#81848C" d="M3283,496.1c0-107.3-87-194.4-194-194.4v194.8l137.2,137.1C3261.4,598.6,3283,549.9,3283,496.1z"/>
		</g>
		<g clip-path="url(#SVGID_4_)">
			<path fill="#CECECE" d="M-2606,1036l-32.8,46.1l32.8,3.9v147v13c0,24.3,20.3,45,44.7,45h115.7l20.5,30.2l32.6-46.3
				c1.7-2,3.2-4.3,4.5-6.6l-0.4-0.1c3.8-6.5,5.5-14.1,5.5-22.1v-13v-164.1V1036H-2606z"/>
			<ellipse fill="#B72376" cx="-2530.2" cy="1263.8" rx="53.4" ry="25"/>
			<polygon fill="#848484" points="-2414.9,1081.9 -2638.8,1081.9 -2606,1035.6 -2382.1,1035.6 			"/>
			<g>
				<polyline fill="#2D2D2D" points="-2527,1209.8 -2506.5,990.7 -2399.7,1011.1 -2461.3,1222.6 				"/>
				
					<ellipse transform="matrix(-0.9823 -0.1874 0.1874 -0.9823 -5049.6719 1522.1864)" cx="-2452.9" cy="999.8" rx="54.4" ry="15.7"/>
				<path fill="none" stroke="#000000" stroke-width="11.8245" stroke-miterlimit="10" d="M-2451.8,994.3l20.6-108.1
					c0,0,16.2-74.7-24.6-71.8c-38.8,2.7-25.7,55.4-25.7,55.4"/>
			</g>
			<g>
				<polyline fill="#B74288" points="-2526.3,1214.2 -2531,994.2 -2639.1,1006.9 -2592.7,1222.3 				"/>
				
					<ellipse transform="matrix(0.9932 -0.1164 0.1164 0.9932 -133.9406 -294.1995)" fill="#B72376" cx="-2585.2" cy="999.4" rx="54.4" ry="15.7"/>
				<path fill="none" stroke="#B79C76" stroke-width="11.8245" stroke-miterlimit="10" d="M-2585.9,993.9l-12.8-109.3
					c0,0-10.7-75.6,29.7-69.9c38.5,5.5,21.6,57.1,21.6,57.1"/>
			</g>
			<g>
				<polyline fill="#627DA8" points="-2484,1205.8 -2463,987 -2571.8,987 -2550.9,1206.2 				"/>
				<ellipse fill="#4D6289" cx="-2517.4" cy="985.4" rx="54.4" ry="15.7"/>
				<path fill="none" stroke="#B79C76" stroke-width="12" stroke-miterlimit="10" d="M-2517,980V869.8c0,0-2.1-76.4,37.4-65.9
					c37.6,9.9,14.9,59.3,14.9,59.3"/>
			</g>
			<path fill="#A8A8A8" d="M-2638,1081v34.3v164.1v13c0,24.3,19.5,43.6,43.9,43.6h135.3c24.3,0,43.8-19.3,43.8-43.6v-13v-164.1V1081
				H-2638z"/>
		</g>
		<g opacity="0.3" clip-path="url(#SVGID_4_)">
			<g>
				<rect x="-84.7" y="234.9" fill="#C9C9C0" width="281.1" height="373.7"/>
				<path fill="#353530" d="M188.7,242.7v358.2H-77V242.7H188.7 M204.1,227.2h-15.5H-77h-15.5v15.5v358.2v15.5H-77h265.7h15.5v-15.5
					V242.7V227.2L204.1,227.2z"/>
			</g>
			<rect x="-56.2" y="266" fill="#FFFFFF" width="224" height="311.5"/>
			<circle fill="#969696" cx="55.8" cy="445.8" r="36.3"/>
			<circle fill="#777777" cx="55.8" cy="445.8" r="28.8"/>
			<path fill="#545454" d="M55.8,474.6c-15.9,0-28.8-12.9-28.8-28.8S39.9,417,55.8,417"/>
			<circle fill="#969696" cx="55.8" cy="526.9" r="36.3"/>
			<circle fill="#777777" cx="55.8" cy="526.9" r="28.8"/>
			<path fill="#545454" d="M55.8,555.7c-15.9,0-28.8-12.9-28.8-28.8c0-15.9,12.9-28.8,28.8-28.8"/>
			<rect x="-36.6" y="296.2" fill="#545454" width="182.5" height="15.1"/>
			<rect x="-36.6" y="320.8" fill="#545454" width="182.5" height="15.1"/>
			<rect x="-36.6" y="349.2" fill="#545454" width="86.8" height="7.6"/>
			<rect x="59.7" y="349.2" fill="#545454" width="86.8" height="7.6"/>
			<rect x="-36.6" y="363.3" fill="#545454" width="86.8" height="7.6"/>
			<rect x="59.7" y="363.3" fill="#545454" width="86.8" height="7.6"/>
			<rect x="-36.6" y="376.4" fill="#545454" width="86.8" height="7.6"/>
			<rect x="-36.6" y="390.5" fill="#545454" width="86.8" height="7.6"/>
			<rect x="59.7" y="376.4" fill="#545454" width="86.8" height="7.6"/>
		</g>
		<g opacity="0.3" clip-path="url(#SVGID_4_)">
			<g>
				<rect x="-893.8" y="199.2" fill="#C9C9C0" width="335.3" height="445.7"/>
				<g>
					<path fill="#353530" d="M-567.6,208.3v427.4h-317V208.3H-567.6 M-549.3,190h-18.3h-317h-18.3v18.3v427.4v18.3h18.3h317h18.3
						v-18.3V208.3V190L-549.3,190z"/>
				</g>
			</g>
			<rect x="-859.8" y="236.2" fill="#FFFFFF" width="267.3" height="371.7"/>
			<circle fill="#969696" cx="-726.1" cy="392.1" r="58.6"/>
			<path fill="#777777" d="M-726.2,450.7c-16.5,0-31.4-6.8-42-17.8l-5.3,92.3l47.5,12.1v-86.6C-726,450.7-726.1,450.7-726.2,450.7z"
				/>
			<path fill="#545454" d="M-725.9,450.7l-0.2,86.6l47.4-12.5l-5.3-92C-694.6,443.8-709.5,450.6-725.9,450.7z"/>
			<circle fill="#777777" cx="-726.1" cy="392.1" r="46.5"/>
			<path fill="#545454" d="M-726.1,438.6c-25.7,0-46.5-20.8-46.5-46.5s20.8-46.5,46.5-46.5"/>
			<rect x="-836.5" y="581.7" fill="#545454" width="103.6" height="9"/>
		</g>
		<ellipse clip-path="url(#SVGID_4_)" fill="#8ED6C8" cx="-2070.1" cy="1401.9" rx="187.5" ry="17.9"/>
		<rect x="-1" y="-1" clip-path="url(#SVGID_4_)" fill="#F0F7F7" width="2048" height="1536"/>
	</g>
	<g opacity="0.4" clip-path="url(#SVGID_2_)">
		<rect x="1765.7" y="233.8" fill="#E5E5E5" width="497.8" height="645.2"/>
		<circle fill="#A1A5B5" cx="2014.6" cy="531.6" r="182.9"/>
		<rect x="2120.9" y="808.2" fill="#A1A5B5" width="121" height="12.7"/>
		<rect x="2120.9" y="827.9" fill="#A1A5B5" width="121" height="12.7"/>
		<rect x="2120.9" y="846.4" fill="#A1A5B5" width="121" height="12.7"/>
		<rect x="1980.8" y="808.2" fill="#A1A5B5" width="121" height="12.7"/>
		<rect x="1919.2" y="260.4" fill="#A1A5B5" width="190.8" height="29.7"/>
		<rect x="1980.8" y="827.9" fill="#A1A5B5" width="121" height="12.7"/>
		<rect x="1980.8" y="846.4" fill="#A1A5B5" width="121" height="12.7"/>
		<path fill="#81848C" d="M2197.3,531.6c0-101-82.3-182.9-182.3-182.9V532l129,129C2177.1,627.9,2197.3,582.1,2197.3,531.6z"/>
	</g>
	<rect x="-1308.2" y="1245.4" clip-path="url(#SVGID_2_)" fill="#9AE5D7" width="4442.5" height="290.6"/>
	<g opacity="0.4" clip-path="url(#SVGID_2_)">
		<rect x="1762.1" y="1512.2" fill="#FFFFFF" width="527.4" height="683.5"/>
		<rect x="1755.6" y="1518.6" fill="#EFEFEF" width="527.4" height="683.5"/>
		<circle fill="none" stroke="#A1A5B5" stroke-width="6.7569" stroke-miterlimit="10" cx="2025.8" cy="1827.6" r="193.7"/>
		<circle fill="#A1A5B5" stroke="#EFEFEF" stroke-width="16.8921" stroke-miterlimit="10" cx="1832.1" cy="1827.6" r="35.9"/>
		<circle fill="#A1A5B5" stroke="#EFEFEF" stroke-width="16.8921" stroke-miterlimit="10" cx="2025.8" cy="1634" r="35.9"/>
		<circle fill="#A1A5B5" stroke="#EFEFEF" stroke-width="16.8921" stroke-miterlimit="10" cx="2219.4" cy="1827.6" r="35.9"/>
		<circle fill="#A1A5B5" stroke="#EFEFEF" stroke-width="16.8921" stroke-miterlimit="10" cx="2025.8" cy="2021.3" r="35.9"/>
		<circle fill="#A1A5B5" stroke="#EFEFEF" stroke-width="16.8921" stroke-miterlimit="10" cx="1888.9" cy="1690.7" r="35.9"/>
		<circle fill="#A1A5B5" stroke="#EFEFEF" stroke-width="16.8921" stroke-miterlimit="10" cx="2162.7" cy="1690.7" r="35.9"/>
		<circle fill="#A1A5B5" stroke="#EFEFEF" stroke-width="16.8921" stroke-miterlimit="10" cx="2162.7" cy="1964.5" r="35.9"/>
		<circle fill="#A1A5B5" stroke="#EFEFEF" stroke-width="16.8921" stroke-miterlimit="10" cx="1888.9" cy="1964.5" r="35.9"/>
		<rect x="2138.3" y="2120.7" fill="#A1A5B5" width="128.2" height="13.5"/>
		<rect x="2138.3" y="2141.6" fill="#A1A5B5" width="128.2" height="13.5"/>
		<rect x="2138.3" y="2161.2" fill="#A1A5B5" width="128.2" height="13.5"/>
		<rect x="1989.9" y="2120.7" fill="#A1A5B5" width="128.2" height="13.5"/>
		<rect x="1924.7" y="1540.4" fill="#A1A5B5" width="202.1" height="31.5"/>
		<rect x="1989.9" y="2141.6" fill="#A1A5B5" width="128.2" height="13.5"/>
		<rect x="1989.9" y="2161.2" fill="#A1A5B5" width="128.2" height="13.5"/>
		<g>
			<circle fill="#A1A5B5" cx="2025.2" cy="1713.1" r="32.4"/>
			<polygon fill="#A1A5B5" points="2011.7,1761.8 2038.8,1761.8 2037.1,1733.4 2013.4,1733.4 			"/>
			<path fill="#A1A5B5" d="M2062.3,1757h-74.1c-2.7,0-5,2.2-5,5v102c0,2.7,2.2,5,5,5h74.1c2.7,0,5-2.2,5-5v-102
				C2067.2,1759.3,2065,1757,2062.3,1757z"/>
			<path fill="#A1A5B5" d="M2001.3,1983.2h-5.8c-2.3,0-4.2-1.9-4.2-4.2v-115.1c0-2.3,1.9-4.2,4.2-4.2h5.8c2.3,0,4.2,1.9,4.2,4.2
				V1979C2005.5,1981.3,2003.6,1983.2,2001.3,1983.2z"/>
			<path fill="#A1A5B5" d="M2094.3,1878l-5.6,1.2c-2.3,0.5-4.5-1-5-3.2l-23.8-112.7c-0.5-2.3,1-4.5,3.2-5l5.6-1.2
				c2.3-0.5,4.5,1,5,3.2l23.8,112.7C2098,1875.3,2096.5,1877.6,2094.3,1878z"/>
			<path fill="#A1A5B5" d="M2095.2,1879.1l-6.9,1.5c-2.8,0.6-5.5-1.2-6.1-4l-2.6-12.2c-0.6-2.8,1.2-5.5,4-6.1l6.9-1.5
				c2.8-0.6,5.5,1.2,6.1,4l2.6,12.2C2099.7,1875.8,2097.9,1878.5,2095.2,1879.1z"/>
			<path fill="#A1A5B5" d="M1954.8,1879.1l6.9,1.5c2.8,0.6,5.5-1.2,6.1-4l2.6-12.2c0.6-2.8-1.2-5.5-4-6.1l-6.9-1.5
				c-2.8-0.6-5.5,1.2-6.1,4l-2.6,12.2C1950.3,1875.8,1952,1878.5,1954.8,1879.1z"/>
			<path fill="#A1A5B5" d="M1955.8,1878l5.6,1.2c2.3,0.5,4.5-1,5-3.2l23.8-112.7c0.5-2.3-1-4.5-3.2-5l-5.6-1.2c-2.3-0.5-4.5,1-5,3.2
				l-23.8,112.7C1952.1,1875.3,1953.5,1877.6,1955.8,1878z"/>
			<path fill="#A1A5B5" d="M2055.7,1983.2h-5.8c-2.3,0-4.2-1.9-4.2-4.2v-115.1c0-2.3,1.9-4.2,4.2-4.2h5.8c2.3,0,4.2,1.9,4.2,4.2
				V1979C2059.9,1981.3,2058,1983.2,2055.7,1983.2z"/>
			<path fill="#A1A5B5" d="M2072.5,1985.9h-22.4c-2.4,0-4.3-2-4.3-4.3v-6c0-2.4,2-4.3,4.3-4.3h22.4c2.4,0,4.3,2,4.3,4.3v6
				C2076.9,1984,2074.9,1985.9,2072.5,1985.9z"/>
			<path fill="#A1A5B5" d="M2001.4,1985.9H1979c-2.4,0-4.3-2-4.3-4.3v-6c0-2.4,2-4.3,4.3-4.3h22.4c2.4,0,4.3,2,4.3,4.3v6
				C2005.7,1984,2003.8,1985.9,2001.4,1985.9z"/>
			<circle fill="#A1A5B5" cx="1954.8" cy="1856" r="4.3"/>
			<circle fill="#A1A5B5" cx="2095.3" cy="1856.8" r="4.3"/>
		</g>
	</g>
	<g clip-path="url(#SVGID_2_)">
		<rect x="-2079" y="819.7" opacity="0.7" fill="#CCEDED" width="67.9" height="165.5"/>
		<g>
			<polygon fill="#BCBCBC" points="-1579,1318.9 -1567.4,1342.1 -1565.3,1300.4 			"/>
			<polygon fill="#BCBCBC" points="-1627.9,1255.4 -1616.3,1278.6 -1613.7,1236.7 			"/>
			<rect x="-2279.4" y="1023.6" fill="#BCBCBC" width="45.6" height="231.8"/>
			<rect x="-2291" y="1046.8" fill="#CCCCCC" width="45.6" height="231.8"/>
			<polygon fill="#BCBCBC" points="-2233.4,1255.8 -2245,1278.6 -2245,1237.4 			"/>
			<rect x="-2328.4" y="1020.6" fill="#BCBCBC" width="45.6" height="298.4"/>
			<rect x="-2340" y="1043.7" fill="#D8D8D8" width="45.6" height="298.4"/>
			<rect x="-2376.5" y="1025.6" fill="#D8D8D8" width="705.4" height="36.3"/>
			<polygon fill="#BCBCBC" points="-2282.4,1319.3 -2294,1342.1 -2294,1300.9 			"/>
			<rect x="-1627.9" y="1023.6" fill="#BCBCBC" width="45.6" height="231.8"/>
			<rect x="-1616.3" y="1046.8" fill="#CCCCCC" width="45.6" height="231.8"/>
			<rect x="-1579" y="1020.6" fill="#BCBCBC" width="45.6" height="298.4"/>
			<rect x="-1567.4" y="1043.7" fill="#D8D8D8" width="45.6" height="298.4"/>
			<rect x="-2190.7" y="1025.6" fill="#D8D8D8" width="705.4" height="36.3"/>
			<polygon fill="#EFEFEF" points="-1556,962.4 -1556,962 -1556.4,962 -1556.5,962 -1557.1,962 -1671.1,962 -2190.7,962 
				-2304.9,962 -2305.6,962 -2376.5,1026 -2191.3,1026 -1671.1,1026 -1485.2,1026 			"/>
			<polygon fill="#FFFFFF" points="-2279.4,1018.2 -2223.6,967 -2152.5,967 -2200.2,1018.3 			"/>
			<g>
				<polygon fill="#FFFFFF" points="-2279.4,1018.2 -2223.6,967 -2152.5,967 -2200.2,1018.3 				"/>
				<polygon fill="#FFFFFF" points="-2279,1009 -2279,1018 -2263,1013.5 -2260,1004.4 				"/>
				<polygon fill="#FFFFFF" points="-2152,957.5 -2152,966.6 -2162.8,972.3 -2166.1,966.6 				"/>
				<polygon fill="#0AF2D1" points="-2279.4,1009.2 -2223.6,958 -2152.5,958 -2200.2,1009.3 				"/>
				<polygon fill="#E244BD" points="-2164.3,970 -2152.5,958 -2223.6,958 -2237.4,970 				"/>
				<polygon fill="#262626" points="-2274.5,1004 -2279.4,1008.7 -2200.2,1008.6 -2196,1004 				"/>
			</g>
			<g>
				<polygon fill="#FFFFFF" points="-2279.4,1004.4 -2223.6,953 -2152.5,953 -2200.2,1004.5 				"/>
				<polygon fill="#FFFFFF" points="-2279,995.4 -2279,1004.5 -2263,1000 -2260,990.9 				"/>
				<polygon fill="#FFFFFF" points="-2152,944 -2152,953.1 -2162.8,958.8 -2166.1,953.1 				"/>
				<polygon fill="#0C83EF" points="-2279.4,995.9 -2223.6,945 -2152.5,945 -2200.2,996.2 				"/>
				<polygon fill="#E0B846" points="-2164.3,957 -2152.5,945 -2223.6,945 -2237.4,957 				"/>
				<polygon fill="#262626" points="-2274.5,990 -2279.4,995 -2200.2,994.8 -2196,990 				"/>
			</g>
			<g>
				<polygon fill="#FFFFFF" points="-2279.4,991.2 -2223.6,940 -2152.5,940 -2200.2,991.3 				"/>
				<polygon fill="#FFFFFF" points="-2279,981.9 -2279,991 -2263,986.5 -2260,977.4 				"/>
				<polygon fill="#FFFFFF" points="-2152,930.5 -2152,939.6 -2162.8,945.2 -2166.1,939.6 				"/>
				<polygon fill="#00FFFF" points="-2279.4,982.1 -2223.6,931 -2152.5,931 -2200.2,982.3 				"/>
				<polygon fill="#A5A5A5" points="-2164.3,943 -2152.5,931 -2223.6,931 -2237.4,943 				"/>
				<polygon fill="#262626" points="-2274.5,977 -2279.4,981.7 -2200.2,981.6 -2196,977 				"/>
			</g>
			<polygon fill="#FFFFFF" points="-1552.8,1013.4 -1608.6,962 -1679.7,962 -1632,1013.4 			"/>
			<polygon fill="#FFFFFF" points="-1552.8,1013.4 -1608.6,962 -1679.7,962 -1632,1013.4 			"/>
			<polygon fill="#FFFFFF" points="-1553,1004.4 -1553,1013.5 -1569,1009 -1572,999.9 			"/>
			<polygon fill="#E53C4C" points="-1665.6,962 -1680,953 -1680,962 -1679.7,962 -1632,1013.4 -1632,962 			"/>
			<polygon fill="#FF454F" points="-1552.8,1004.4 -1608.6,953 -1679.7,953 -1632,1004.4 			"/>
			<polygon fill="#E2DC05" points="-1668,974.7 -1679.5,962.1 -1679.5,953 -1668,953 			"/>
			<polygon fill="#FFFF00" points="-1667.9,965 -1679.7,953 -1608.6,953 -1594.8,965 			"/>
			<polygon fill="#545353" points="-1632.2,999.9 -1636.2,999.9 -1636.2,1009.1 -1632.2,1013.5 			"/>
			<polygon fill="#262626" points="-1557.7,1000 -1552.8,1004.4 -1632,1004.5 -1636.2,1000 			"/>
		</g>
		<polygon opacity="0.5" fill="#CCEDED" points="-2078.8,895.6 -2092,905.9 -2092,1003.8 -2079,985.3 		"/>
		<polygon opacity="0.7" fill="#CEDDDC" points="-2024,985 -2024,1003.8 -2011.1,985 		"/>
		<g>
			<polygon fill="#FC7C88" points="-2082.1,840 -2085,845.9 -2085,994 -2017.6,994 -2014,988.1 -2014,840 			"/>
			<rect x="-2084.9" y="845.9" fill="#FF454F" width="67.9" height="147.8"/>
			<rect x="-2084.9" y="981.7" fill="#545353" width="67.9" height="12"/>
			<rect x="-2077.9" y="854.1" fill="#FFFFFF" width="53.8" height="119.3"/>
		</g>
		<polygon opacity="0.5" fill="#C6CCCB" points="-2079,985 -2091.7,1004 -2024,1004 -2024,985 		"/>
		<g>
			<polygon fill="#FC7C88" points="-2087.2,845 -2090,851 -2090,999 -2022.6,999 -2019,993.1 -2019,845 			"/>
			<rect x="-2090" y="851" fill="#FF454F" width="67.9" height="147.8"/>
			<rect x="-2090" y="986.8" fill="#545353" width="67.9" height="12"/>
			<rect x="-2082.9" y="859.1" fill="#FFFFFF" width="53.8" height="119.3"/>
		</g>
		<polygon opacity="0.5" fill="#CCEDED" points="-2011.1,895.6 -2024,905.9 -2024,1003.8 -2011.1,985.3 		"/>
		<polygon opacity="0.5" fill="#CCEDED" points="-2079,985 -2091.7,1004 -2024,1004 -2024,985 		"/>
		<rect x="-2091.7" y="905.9" opacity="0.3" fill="#CCEDED" width="67.9" height="98"/>
		<polygon opacity="0.5" fill="#CCEDED" points="-2024,985 -2024,906 -2092,906 -2092,1003.8 -2079,985 		"/>
		<rect x="-1991.2" y="819.7" opacity="0.7" fill="#CCEDED" width="67.9" height="165.5"/>
		<polygon opacity="0.5" fill="#CCEDED" points="-1990.9,895.6 -2004,905.9 -2004,1003.8 -1991,985.3 		"/>
		<polygon opacity="0.7" fill="#CEDDDC" points="-1936,985 -1936,1003.8 -1923.3,985 		"/>
		<g>
			<polygon fill="#AEEFF4" points="-1994.3,840 -1997,845.9 -1997,994 -1929.7,994 -1926,988.1 -1926,840 			"/>
			<rect x="-1997.1" y="845.9" fill="#48E9FF" width="67.9" height="147.8"/>
			<rect x="-1997.1" y="981.7" fill="#545353" width="67.9" height="12"/>
			<rect x="-1990" y="854.1" fill="#FFFFFF" width="53.8" height="119.3"/>
		</g>
		<polygon opacity="0.5" fill="#C6CCCB" points="-1991.2,985 -2003.8,1004 -1936,1004 -1936,985 		"/>
		<g>
			<polygon fill="#AEEFF4" points="-1999.3,845 -2002,851 -2002,999 -1934.8,999 -1931,993.1 -1931,845 			"/>
			<rect x="-2002.1" y="851" fill="#48E9FF" width="67.9" height="147.8"/>
			<rect x="-2002.1" y="986.8" fill="#545353" width="67.9" height="12"/>
			<rect x="-1995.1" y="859.1" fill="#FFFFFF" width="53.8" height="119.3"/>
		</g>
		<polygon opacity="0.5" fill="#CCEDED" points="-1923.1,895.6 -1936,905.9 -1936,1003.8 -1923.1,985.3 		"/>
		<polygon opacity="0.5" fill="#CCEDED" points="-1991.2,985 -2003.8,1004 -1936,1004 -1936,985 		"/>
		<rect x="-2003.8" y="905.9" opacity="0.3" fill="#CCEDED" width="67.9" height="98"/>
		<polygon opacity="0.5" fill="#CCEDED" points="-1936,985 -1936,906 -2004,906 -2004,1003.8 -1991.2,985 		"/>
	</g>
	<g opacity="0.4" clip-path="url(#SVGID_2_)">
		<rect x="2823.5" y="181.6" fill="#E5E5E5" width="529.1" height="685.8"/>
		<circle fill="#A1A5B5" cx="3088.1" cy="498.1" r="194.4"/>
		<rect x="3201" y="792.2" fill="#A1A5B5" width="128.6" height="13.5"/>
		<rect x="3201" y="813.2" fill="#A1A5B5" width="128.6" height="13.5"/>
		<rect x="3201" y="832.8" fill="#A1A5B5" width="128.6" height="13.5"/>
		<rect x="3052.1" y="792.2" fill="#A1A5B5" width="128.6" height="13.5"/>
		<rect x="2986.7" y="209.9" fill="#A1A5B5" width="202.8" height="31.6"/>
		<rect x="3052.1" y="813.2" fill="#A1A5B5" width="128.6" height="13.5"/>
		<rect x="3052.1" y="832.8" fill="#A1A5B5" width="128.6" height="13.5"/>
		<path fill="#81848C" d="M3282,498.1c0-107.3-87-194.4-194-194.4v194.8l137.2,137.1C3260.4,600.6,3282,551.9,3282,498.1z"/>
	</g>
	<g clip-path="url(#SVGID_2_)">
		<path fill="#CECECE" d="M-2607,1038l-32.8,46.1l32.8,3.9v147v13c0,24.3,20.3,45,44.7,45h115.7l20.5,30.2l32.6-46.3
			c1.7-2,3.2-4.3,4.5-6.6l-0.4-0.1c3.8-6.5,5.5-14.1,5.5-22.1v-13v-164.1V1038H-2607z"/>
		<ellipse fill="#B72376" cx="-2531.2" cy="1265.8" rx="53.4" ry="25"/>
		<polygon fill="#848484" points="-2415.9,1083.9 -2639.8,1083.9 -2607,1037.6 -2383.1,1037.6 		"/>
		<g>
			<polyline fill="#2D2D2D" points="-2528,1211.8 -2507.5,992.7 -2400.7,1013.1 -2462.3,1224.6 			"/>
			
				<ellipse transform="matrix(-0.9823 -0.1874 0.1874 -0.9823 -5052.0293 1525.9636)" cx="-2453.9" cy="1001.8" rx="54.4" ry="15.7"/>
			<path fill="none" stroke="#000000" stroke-width="11.8245" stroke-miterlimit="10" d="M-2452.8,996.3l20.6-108.1
				c0,0,16.2-74.7-24.6-71.8c-38.8,2.7-25.7,55.4-25.7,55.4"/>
		</g>
		<g>
			<polyline fill="#B74288" points="-2527.3,1216.2 -2532,996.2 -2640.1,1008.9 -2593.7,1224.3 			"/>
			
				<ellipse transform="matrix(0.9932 -0.1164 0.1164 0.9932 -134.1803 -294.3023)" fill="#B72376" cx="-2586.2" cy="1001.4" rx="54.4" ry="15.7"/>
			<path fill="none" stroke="#B79C76" stroke-width="11.8245" stroke-miterlimit="10" d="M-2586.9,995.9l-12.8-109.3
				c0,0-10.7-75.6,29.7-69.9c38.5,5.5,21.6,57.1,21.6,57.1"/>
		</g>
		<g>
			<polyline fill="#627DA8" points="-2485,1207.8 -2464,989 -2572.8,989 -2551.9,1208.2 			"/>
			<ellipse fill="#4D6289" cx="-2518.4" cy="987.4" rx="54.4" ry="15.7"/>
			<path fill="none" stroke="#B79C76" stroke-width="12" stroke-miterlimit="10" d="M-2518,982V871.8c0,0-2.1-76.4,37.4-65.9
				c37.6,9.9,14.9,59.3,14.9,59.3"/>
		</g>
		<path fill="#A8A8A8" d="M-2639,1083v34.3v164.1v13c0,24.3,19.5,43.6,43.9,43.6h135.3c24.3,0,43.8-19.3,43.8-43.6v-13v-164.1V1083
			H-2639z"/>
	</g>
	<g opacity="0.3" clip-path="url(#SVGID_2_)">
		<g>
			<rect x="-894.8" y="201.2" fill="#C9C9C0" width="335.3" height="445.7"/>
			<g>
				<path fill="#353530" d="M-568.6,210.3v427.4h-317V210.3H-568.6 M-550.3,192h-18.3h-317h-18.3v18.3v427.4v18.3h18.3h317h18.3
					v-18.3V210.3V192L-550.3,192z"/>
			</g>
		</g>
		<rect x="-860.8" y="238.2" fill="#FFFFFF" width="267.3" height="371.7"/>
		<circle fill="#969696" cx="-727.1" cy="394.1" r="58.6"/>
		<path fill="#777777" d="M-727.2,452.7c-16.5,0-31.4-6.8-42-17.8l-5.3,92.3l47.5,12.1v-86.6C-727,452.7-727.1,452.7-727.2,452.7z"
			/>
		<path fill="#545454" d="M-726.9,452.7l-0.2,86.6l47.4-12.5l-5.3-92C-695.6,445.8-710.5,452.6-726.9,452.7z"/>
		<circle fill="#777777" cx="-727.1" cy="394.1" r="46.5"/>
		<path fill="#545454" d="M-727.1,440.6c-25.7,0-46.5-20.8-46.5-46.5s20.8-46.5,46.5-46.5"/>
		<rect x="-837.5" y="583.7" fill="#545454" width="103.6" height="9"/>
	</g>
	<ellipse clip-path="url(#SVGID_2_)" fill="#8ED6C8" cx="-2071.1" cy="1403.9" rx="187.5" ry="17.9"/>
	<g opacity="0.3" clip-path="url(#SVGID_2_)">
		<g>
			<rect x="-511.7" y="206.8" fill="#C9C9C0" width="347.9" height="462.5"/>
			<path fill="#353530" d="M-173.4,216.4v443.3h-328.8V216.4H-173.4 M-154.2,197.3h-19.1h-328.8h-19.1v19.1v443.3v19.1h19.1h328.8
				h19.1v-19.1V216.4V197.3L-154.2,197.3z"/>
		</g>
		<rect x="-476.4" y="245.3" fill="#FFFFFF" width="277.3" height="385.6"/>
		<circle fill="#969696" cx="-261.9" cy="568.1" r="44.9"/>
		<circle fill="#777777" cx="-261.9" cy="568.1" r="35.7"/>
		<path fill="#545454" d="M-261.9,603.8c-19.7,0-35.7-16-35.7-35.7s16-35.7,35.7-35.7"/>
		<rect x="-452.1" y="282.6" fill="#545454" width="225.9" height="18.6"/>
		<rect x="-452.1" y="313.1" fill="#545454" width="225.9" height="18.6"/>
		<rect x="-452.1" y="348.2" fill="#545454" width="107.5" height="9.4"/>
		<rect x="-333" y="348.2" fill="#545454" width="107.5" height="9.4"/>
		<rect x="-452.1" y="365.7" fill="#545454" width="107.5" height="9.4"/>
		<rect x="-333" y="365.7" fill="#545454" width="107.5" height="9.4"/>
		<rect x="-452.1" y="381.9" fill="#545454" width="107.5" height="9.4"/>
		<rect x="-452.1" y="399.4" fill="#545454" width="107.5" height="9.4"/>
		<rect x="-452.1" y="416.9" fill="#545454" width="107.5" height="9.4"/>
		<rect x="-452.1" y="433.1" fill="#545454" width="107.5" height="9.4"/>
		<rect x="-333" y="381.9" fill="#545454" width="107.5" height="9.4"/>
		<g>
			<g>
				<path fill="none" stroke="#FFBC00" stroke-width="0.6602" stroke-miterlimit="10" d="M-574.8,189"/>
			</g>
		</g>
	</g>
	<g opacity="0.3" clip-path="url(#SVGID_2_)">
		<g>
			<rect x="-47.9" y="205.9" fill="#C9C9C0" width="348.6" height="463.4"/>
			<path fill="#353530" d="M291.2,215.5v444.2H-38.3V215.5H291.2 M310.3,196.4h-19.2H-38.3h-19.2v19.2v444.2v19.2h19.2h329.4h19.2
				v-19.2V215.5V196.4L310.3,196.4z"/>
		</g>
		<rect x="-12.5" y="244.5" fill="#FFFFFF" width="277.8" height="386.3"/>
		<circle fill="#969696" cx="126.4" cy="467.4" r="45"/>
		<circle fill="#777777" cx="126.4" cy="467.4" r="35.7"/>
		<path fill="#545454" d="M126.4,503.1c-19.7,0-35.7-16-35.7-35.7c0-19.7,16-35.7,35.7-35.7"/>
		<circle fill="#969696" cx="126.4" cy="568" r="45"/>
		<circle fill="#777777" cx="126.4" cy="568" r="35.7"/>
		<path fill="#545454" d="M126.4,603.7c-19.7,0-35.7-16-35.7-35.7c0-19.7,16-35.7,35.7-35.7"/>
		<rect x="11.9" y="281.9" fill="#545454" width="226.4" height="18.7"/>
		<rect x="11.9" y="312.4" fill="#545454" width="226.4" height="18.7"/>
		<rect x="11.9" y="347.6" fill="#545454" width="107.7" height="9.4"/>
		<rect x="131.2" y="347.6" fill="#545454" width="107.7" height="9.4"/>
		<rect x="11.9" y="365.1" fill="#545454" width="107.7" height="9.4"/>
		<rect x="131.2" y="365.1" fill="#545454" width="107.7" height="9.4"/>
		<rect x="11.9" y="381.4" fill="#545454" width="107.7" height="9.4"/>
		<rect x="11.9" y="398.9" fill="#545454" width="107.7" height="9.4"/>
		<rect x="131.2" y="381.4" fill="#545454" width="107.7" height="9.4"/>
	</g>
	<g opacity="0.3" clip-path="url(#SVGID_2_)">
		<g>
			<rect x="357.9" y="202.4" fill="#C9C9C0" width="351.2" height="466.9"/>
			<g>
				<path fill="#353530" d="M699.6,212v447.7H367.5V212H699.6 M718.8,192.8h-19.2H367.5h-19.2V212v447.7v19.2h19.2h332.1h19.2v-19.2
					V212V192.8L718.8,192.8z"/>
			</g>
		</g>
		<rect x="393.5" y="241.2" fill="#FFFFFF" width="280" height="389.4"/>
		<circle fill="#969696" cx="533.5" cy="404.5" r="61.3"/>
		<path fill="#777777" d="M533.1,465.9c-17.3,0-32.7-7.2-43.8-18.7l-5.8,96.7l49.5,12.7v-90.7C533,465.9,533.2,465.9,533.1,465.9z"
			/>
		<path fill="#545454" d="M533.8,465.9l-0.2,90.7l49.7-13l-5.5-96.4C566.6,458.6,551,465.8,533.8,465.9z"/>
		<circle fill="#777777" cx="533.5" cy="404.5" r="48.7"/>
		<path fill="#545454" d="M533.5,453.2c-26.9,0-48.7-21.8-48.7-48.7c0-26.9,21.8-48.7,48.7-48.7"/>
		<rect x="417.9" y="603.1" fill="#545454" width="108.5" height="9.5"/>
	</g>
</g>
<g id="Layer_3">
	<ellipse fill="#8ED6C8" cx="798.9" cy="1412.9" rx="187.5" ry="17.9"/>
	<rect x="671.2" y="1332.8" fill="#BCBCBC" width="40.7" height="52.9"/>
	<g>
		
			<rect x="667.8" y="1399.8" transform="matrix(-0.9974 -7.168140e-02 7.168140e-02 -0.9974 1357.1049 2851.6501)" fill="#EAEAEA" width="123.9" height="3.4"/>
		
			<rect x="658.4" y="1396.2" transform="matrix(-0.9974 -7.168140e-02 7.168140e-02 -0.9974 1257.2432 2845.6289)" fill="#EAEAEA" width="42.6" height="8.2"/>
		<path fill="#EAEAEA" d="M681.8,1383.7l34.9,2.5c2.9,0.2,5.1,2.7,4.9,5.6l-0.7,10.2c-0.2,2.9-2.7,5.1-5.6,4.9l-34.9-2.5
			c-2.9-0.2-5.1-2.7-4.9-5.6l0.7-10.2C676.3,1385.7,678.9,1383.5,681.8,1383.7z"/>
		<path fill="#FFFFFF" d="M791.7,1404.2c0,0-10.5-32.6-65.1-36.5c-54.6-3.9-67.9,27-67.9,27L791.7,1404.2z"/>
	</g>
	<rect x="807.5" y="1332.8" fill="#BCBCBC" width="40.7" height="52.9"/>
	<rect x="664.3" y="1016.5" fill="#1E6A77" width="54.6" height="331.8"/>
	<rect x="664.3" y="1016.5" opacity="0.1" width="27.3" height="331.8"/>
	<rect x="800.5" y="1016.5" fill="#1E6A77" width="54.6" height="331.8"/>
	<rect x="800.5" y="1016.5" opacity="0.1" width="27.3" height="331.8"/>
	<g>
		
			<rect x="803.7" y="1399.8" transform="matrix(-0.9974 -7.168140e-02 7.168140e-02 -0.9974 1628.5574 2861.3918)" fill="#EAEAEA" width="123.9" height="3.4"/>
		
			<rect x="794.3" y="1396.2" transform="matrix(-0.9974 -7.168140e-02 7.168140e-02 -0.9974 1528.6957 2855.3706)" fill="#EAEAEA" width="42.6" height="8.2"/>
		<path fill="#EAEAEA" d="M817.7,1383.7l34.9,2.5c2.9,0.2,5.1,2.7,4.9,5.6l-0.7,10.2c-0.2,2.9-2.7,5.1-5.6,4.9l-34.9-2.5
			c-2.9-0.2-5.1-2.7-4.9-5.6l0.7-10.2C812.2,1385.7,814.8,1383.5,817.7,1383.7z"/>
		<path fill="#FFFFFF" d="M927.6,1404.2c0,0-10.5-32.6-65.1-36.5c-54.6-3.9-67.9,27-67.9,27L927.6,1404.2z"/>
	</g>
	<path fill="#C1AE9D" d="M847,989.8h17c4.5,0,8.2-3.7,8.2-8.2V693.3c0-4.5-3.7-8.2-8.2-8.2h-17c-4.5,0-8.2,3.7-8.2,8.2v288.2
		C838.8,986.1,842.5,989.8,847,989.8z"/>
	<path fill="#C1AE9D" d="M868.6,953.7h-20.1c-5.4,0-9.8,4.4-9.8,9.8v48.6c0,5.4,4.4,9.8,9.8,9.8h20.1c5.4,0,9.8-4.4,9.8-9.8v-48.6
		C878.4,958.1,874,953.7,868.6,953.7z"/>
	<path fill="#C1AE9D" d="M881.3,951h-9.2c-2.5,0-4.5,2-4.5,4.5v9.2c0,2.5,2,4.5,4.5,4.5h9.2c2.5,0,4.5-2,4.5-4.5v-9.2
		C885.8,953,883.8,951,881.3,951z"/>
	<path fill="#2BA3BF" d="M853.4,640h4.1c13.4,0,24.6,11.5,24.6,24.8v41.5l0,0V736h-53v-29.7l0,0v-41.5C829,651.5,840,640,853.4,640z
		"/>
	<path fill="#1E6A77" d="M881.2,739.4h-47.7c-1.3,0-2.3-1-2.3-2.3v-3.5c0-1.3,1-2.3,2.3-2.3h47.7c1.3,0,2.3,1,2.3,2.3v3.5
		C883.5,738.4,882.4,739.4,881.2,739.4z"/>
	<path fill="#231A13" d="M657,640.5V653h194.7c0,0-14.6-72.4-12.8-101.8S689,538.6,689,538.6L657,640.5z"/>
	<path opacity="0.1" fill="#FFFFFF" d="M830,568.9c-1.2,20.2,5.3,61.1,9.5,84.1h12.2c0,0-14.6-72.4-12.8-101.8
		c1.8-29.3-150.4-12.6-150.4-12.6l-5.5,17.3C704.9,553.7,831.6,542.1,830,568.9z"/>
	<polygon fill="#C1AE9D" points="799.6,639.1 726.7,639.1 731.2,562.9 795,562.9 	"/>
	<polygon opacity="0.1" fill="#443E3B" points="799.6,639.1 726.7,639.1 731.2,562.9 795,562.9 	"/>
	<path fill="#C1AE9D" d="M659.2,653.6c15.2-34.1,79.1-34.6,79.1-34.6h2.8h42.7h2.8c0,0,63.9,0.5,79.1,34.6
		c15.2,34.1-85.4,123.3-85.4,123.3L755,814.6l-20-7l-40.6,4.5C694.4,812.1,644.1,687.7,659.2,653.6z"/>
	<path fill="#2BA3BF" d="M665.9,727c0,0-0.2,195.9,0.7,156.5c0.5-23.6-10.2-222.9-7.2-229.7c8.2-18.6,30.8-27.1,49.8-31l53.1,81.3
		l54.2-81.2c18.8,4,41.1,12.5,49.3,30.9c15.2,34.1,4,73.2,4,73.2H665.9z"/>
	<rect x="648.6" y="719" fill="#2BA3BF" width="210.9" height="322.1"/>
	<g opacity="5.000000e-02">
		<path d="M762,704.1l-53-81.3c-19,3.9-41.5,12-49.7,30.5c-1.1,2.5-0.3,29.7,1,64.7H649v323h113V704.1z"/>
	</g>
	<g>
		<defs>
			<path id="SVGID_5_" d="M659.2,653.6c15.2-34.1,79.1-34.6,79.1-34.6h2.8h42.7h2.8c0,0,63.9,0.5,79.1,34.6
				c15.2,34.1-85.4,123.3-85.4,123.3L755,814.6l-20-7l-40.6,4.5C694.4,812.1,644.1,687.7,659.2,653.6z"/>
		</defs>
		<clipPath id="SVGID_6_">
			<use xlink:href="#SVGID_5_"  overflow="visible"/>
		</clipPath>
		<polyline clip-path="url(#SVGID_6_)" fill="none" stroke="#1E6A77" stroke-width="12.3546" stroke-miterlimit="10" points="
			706.8,619.4 762.3,704.1 818.9,619.4 		"/>
	</g>
	<g>
		<g>
			<defs>
				<polygon id="SVGID_7_" points="798.7,611.8 799.5,625.2 821,631.4 794.5,678.1 790,717 790,739.4 810.8,739.1 829.3,657.4 
					839,633.8 830.7,611.4 				"/>
			</defs>
			<clipPath id="SVGID_8_">
				<use xlink:href="#SVGID_7_"  overflow="visible"/>
			</clipPath>
			<path clip-path="url(#SVGID_8_)" fill="none" stroke="#09234C" stroke-width="7.0598" stroke-miterlimit="10" d="M800.8,738.2
				c0,0-3.4-51.2,24-93.5c10.8-16.7,14.4-29.4-60.9-29.4"/>
		</g>
		<g>
			<path fill="none" stroke="#7C7C7C" stroke-width="3.2281" stroke-miterlimit="10" d="M800.4,739.1c0,0-33.9,6.9-33.9,43.2
				c0,36.3,56.9,96.8,56.9,96.8"/>
			<path fill="none" stroke="#7C7C7C" stroke-width="3.2281" stroke-miterlimit="10" d="M800.8,739.1c0,0,33.9,6.9,33.9,43.2
				c0,36.3-56.9,96.8-56.9,96.8"/>
			<ellipse fill="#7C7C7C" cx="800.4" cy="738.4" rx="5" ry="2.3"/>
			<ellipse fill="#7C7C7C" cx="800.4" cy="734.9" rx="5" ry="2.3"/>
			<circle fill="#FFFFFF" stroke="#7C7C7C" stroke-width="1.6141" stroke-miterlimit="10" cx="823" cy="879.6" r="4.2"/>
			<circle fill="#FFFFFF" stroke="#7C7C7C" stroke-width="1.6141" stroke-miterlimit="10" cx="777.8" cy="879.6" r="4.2"/>
			<rect x="795.4" y="734.9" fill="#7C7C7C" width="10" height="7.5"/>
			<ellipse fill="#666666" cx="800.4" cy="740.8" rx="7.9" ry="4.2"/>
		</g>
	</g>
	<g>
		<g>
			<defs>
				<polygon id="SVGID_9_" points="727.4,611.8 726.6,625.2 705.1,631.4 732,678.1 737,717 737,811.7 715.8,811.5 697.1,657.4 
					687.2,633.8 695.5,611.4 				"/>
			</defs>
			<clipPath id="SVGID_10_">
				<use xlink:href="#SVGID_9_"  overflow="visible"/>
			</clipPath>
			<path clip-path="url(#SVGID_10_)" fill="none" stroke="#09234C" stroke-width="7.0598" stroke-miterlimit="10" d="M722.7,809.2
				c0,0,22.9-105.1-21.4-164.5c-11.9-15.9-14.4-29.4,60.9-29.4"/>
		</g>
	</g>
	<g>
		
			<ellipse transform="matrix(-0.9781 -0.208 0.208 -0.9781 1277.7524 1784.6422)" fill="#B2B2B2" cx="732.7" cy="825.1" rx="5.5" ry="13.9"/>
		
			<ellipse transform="matrix(-0.9781 -0.208 0.208 -0.9781 1271.5669 1782.631)" fill="#B2B2B2" cx="729.5" cy="824.4" rx="4.8" ry="12.3"/>
		
			<ellipse transform="matrix(-0.9781 -0.208 0.208 -0.9781 1248.8864 1775.2565)" fill="#B2B2B2" cx="717.8" cy="822" rx="2.9" ry="7.4"/>
		
			<ellipse transform="matrix(-0.9781 -0.208 0.208 -0.9781 1266.7609 1781.0684)" fill="#B2B2B2" cx="727" cy="823.9" rx="6.8" ry="10.9"/>
		
			<rect x="719.9" y="808.3" transform="matrix(0.9781 0.208 -0.208 0.9781 185.4087 -132.6304)" fill="#7C7C7C" width="6.6" height="13.6"/>
		
			<ellipse transform="matrix(0.208 -0.9781 0.9781 0.208 -217.2883 1349.2523)" fill="#7C7C7C" cx="724.6" cy="808.8" rx="1.6" ry="4.6"/>
		
			<ellipse transform="matrix(-0.9781 -0.208 0.208 -0.9781 1277.7524 1784.6422)" fill="#7C7C7C" cx="732.7" cy="825.1" rx="4.3" ry="10.9"/>
		<polygon fill="#B2B2B2" points="719.5,814.8 727.1,813.4 722.8,833.6 716.3,829.1 		"/>
	</g>
	<circle fill="#84705B" cx="773.7" cy="499.9" r="97.1"/>
	<circle fill="#84705B" cx="773.7" cy="499.9" r="97.1"/>
	<g>
		<path fill="#C1AE9D" d="M721.8,902.6l-6.5,6.6c-1.7,1.8-1.7,4.6,0,6.4l6.6,6.5c1.8,1.7,4.6,1.7,6.4,0l6.5-6.6
			c1.7-1.8,1.7-4.6,0-6.4l-6.6-6.5C726.4,900.8,723.5,900.8,721.8,902.6z"/>
		<g>
			
				<rect x="770.8" y="865.4" transform="matrix(0.8916 0.4528 -0.4528 0.8916 484.7103 -271.0614)" fill="#A5A5A5" width="75.4" height="23"/>
			
				<rect x="781.5" y="871.3" transform="matrix(0.8916 0.4528 -0.4528 0.8916 484.3939 -271.3708)" fill="#838484" width="55" height="9.4"/>
			<path fill="#C6C6C6" d="M837.9,866.8l-8.6-4.4c0,0,0.1-0.2,0.1-0.2c3.6-7,1.7-15.2-4.1-18.2c-5.8-3-13.5,0.4-17.1,7.4
				c0,0-0.1,0.2-0.1,0.2l-8.8-4.4l-6,4.1l-7.7,15.3l45,22.8l7.7-15.3L837.9,866.8z M815.3,863.7c-3.2-1.6-4.2-6.1-2.3-9.9
				c2-3.9,6.1-5.7,9.3-4s4.2,6.1,2.3,9.9C822.7,863.5,818.5,865.3,815.3,863.7z"/>
			
				<rect x="715.7" y="856" transform="matrix(0.8916 0.4528 -0.4528 0.8916 515.4891 -244.8781)" fill="#998A77" width="107" height="196.6"/>
		</g>
		<path fill="#C1AE9D" d="M716.8,915.5l-15.5,15.7c-3.8,3.8-3.7,10,0.1,13.8l29.9,29.5c3.8,3.8,10,3.7,13.8-0.1l15.5-15.7
			c3.8-3.8,3.7-10-0.1-13.8l-29.9-29.5C726.8,911.6,720.5,911.7,716.8,915.5z"/>
		<path fill="#C1AE9D" d="M723,944.1l8.4-10.6c2.8-3.5,2.3-8.8-1.3-11.6l-66.5-53.2c-3.5-2.8-8.8-2.3-11.6,1.3l-8.4,10.6
			c-2.8,3.5-2.3,8.8,1.3,11.6l66.5,53.2C714.9,948.2,720.1,947.7,723,944.1z"/>
		<path fill="#C1AE9D" d="M648.9,892.2h17c4.5,0,8.2-3.7,8.2-8.2V667.7c0-4.5-3.7-8.2-8.2-8.2h-17c-4.5,0-8.2,3.7-8.2,8.2V884
			C640.6,888.5,644.3,892.2,648.9,892.2z"/>
	</g>
	<path fill="#278FAF" d="M763.3,704.1"/>
	<path fill="#2BA3BF" d="M655.7,640h4.1c13.4,0,24.2,11.5,24.2,24.8v41.5l0,0V736h-52v-29.7l0,0v-41.5
		C632,651.5,642.3,640,655.7,640z"/>
	<circle fill="#C1AE9D" cx="773.7" cy="499.9" r="97.1"/>
	<path opacity="5.000000e-02" d="M801.9,591.7c-53.6,0-97.1-43.5-97.1-97.1c0-42.4,27.2-78.5,65.2-91.7c-51.9,1.9-93.4,44.6-93.4,97
		c0,53.6,43.5,97.1,97.1,97.1c11.2,0,21.9-1.9,31.9-5.4C804.4,591.7,803.2,591.7,801.9,591.7z"/>
	<g>
		<g>
			<path d="M758,487.9c0,0,0.1-0.4,0.3-1.1c0.2-0.7,0.5-1.6,1-2.7c0.2-0.5,0.5-1.1,0.8-1.7c0.3-0.6,0.7-1.2,1.1-1.9
				c0.4-0.6,0.9-1.3,1.4-1.9c0.5-0.6,1-1.2,1.6-1.8l0.9-0.8c0.3-0.3,0.6-0.5,1-0.8c0.6-0.5,1.3-0.9,2-1.3c0.7-0.4,1.4-0.6,2-0.9
				c0.3-0.1,0.7-0.2,1-0.3c0.3-0.1,0.6-0.1,0.9-0.2c0.6-0.1,1.2-0.2,1.6-0.2c0.5,0,0.9,0,1.3,0c0.7,0,1.1,0.1,1.1,0.1l0,0.2
				c0,0-0.4,0.2-1,0.4c-0.3,0.1-0.7,0.2-1.2,0.4c-0.5,0.1-0.9,0.4-1.5,0.6c-0.5,0.2-1.1,0.4-1.7,0.7c-0.6,0.3-1.2,0.5-1.8,0.9
				c-0.6,0.3-1.3,0.6-1.9,1.1c-0.3,0.2-0.6,0.4-0.9,0.6l-0.9,0.7c-0.6,0.5-1.1,1-1.7,1.5c-0.5,0.5-1,1.1-1.5,1.7
				c-0.4,0.6-0.9,1.1-1.2,1.7c-0.4,0.5-0.7,1.1-1,1.6c-0.6,1-1,1.9-1.3,2.5c-0.3,0.6-0.4,1-0.4,1L758,487.9z"/>
		</g>
		<path fill="#1E1A16" d="M773.6,499.7c2.8-0.2,5.4,0.2,7.6,0.9c0.7-2,1.1-4.3,1-6.8c-0.4-7-4.8-12.4-9.7-12.1s-8.6,6.2-8.2,13.1
			c0.1,2.5,0.8,4.8,1.8,6.7C768.2,500.5,770.8,499.8,773.6,499.7z"/>
		<path fill="#FFFFFF" d="M772.4,484.2c-0.3-0.1,4,0.3,5.5,4.9C777.9,489.1,774.8,485.2,772.4,484.2z"/>
		<g>
			<g>
				<path d="M847.3,482.6c0,0-0.2-0.4-0.5-0.9c-0.3-0.6-0.9-1.4-1.6-2.4c-0.3-0.5-0.7-1-1.2-1.5c-0.4-0.5-0.9-1-1.4-1.5
					c-0.5-0.5-1.1-1-1.7-1.5c-0.6-0.5-1.2-0.9-1.8-1.3l-1-0.6c-0.3-0.2-0.7-0.3-1-0.5c-0.7-0.3-1.3-0.6-2-0.8
					c-0.6-0.3-1.3-0.5-1.9-0.7c-0.6-0.2-1.2-0.4-1.8-0.5c-0.6-0.1-1.1-0.3-1.5-0.4c-0.5-0.1-0.9-0.2-1.2-0.2
					c-0.7-0.1-1.1-0.3-1.1-0.3l0-0.2c0,0,0.4-0.1,1.1-0.2c0.4-0.1,0.8-0.1,1.3-0.2c0.5-0.1,1.1,0,1.7,0c0.3,0,0.6,0,1,0.1
					c0.3,0,0.7,0.1,1,0.2c0.7,0.2,1.4,0.3,2.1,0.6c0.7,0.3,1.5,0.6,2.1,1.1c0.3,0.2,0.7,0.4,1,0.6l1,0.7c0.7,0.5,1.3,1,1.8,1.6
					c0.6,0.5,1.1,1.1,1.6,1.7c0.5,0.6,1,1.1,1.3,1.7c0.4,0.6,0.7,1.1,1,1.6c0.6,1,1,1.9,1.3,2.6c0.3,0.6,0.4,1,0.4,1L847.3,482.6z"
					/>
			</g>
			<path fill="#1E1A16" d="M833.5,496.1c2.8-0.2,5.4,0.2,7.6,0.9c0.7-2,1.1-4.3,1-6.8c-0.4-7-4.8-12.4-9.7-12.1s-8.6,6.2-8.2,13.1
				c0.1,2.5,0.8,4.8,1.8,6.7C828.1,496.9,830.7,496.2,833.5,496.1z"/>
			<path fill="#FFFFFF" d="M832.3,480.6c-0.3-0.1,4,0.3,5.5,4.9C837.8,485.5,834.7,481.6,832.3,480.6z"/>
		</g>
		<g opacity="0.44">
			<path d="M806.3,506.8c0,0,1.7,1.7,4,4.5c1.1,1.4,2.4,3.1,3.6,5c1.2,1.9,2.4,4.1,3.2,6.5c0.4,1.2,0.6,2.5,0.7,3.8
				c0,1.3-0.3,2.7-0.9,3.8c-0.6,1.2-1.6,2.1-2.6,2.7c-0.5,0.3-1,0.6-1.5,0.8c-0.5,0.2-1,0.4-1.4,0.6c-0.9,0.2-1.8,0.5-2.6,0.6
				c-0.8,0.1-1.4,0.3-2,0.3c-1.1,0.1-1.7,0.2-1.7,0.2c-0.9,0.1-1.6-0.6-1.7-1.4c-0.1-0.9,0.6-1.9,1.4-1.9c0,0,0.1-0.2,0.1-0.2h0.1
				c0,0,0.6,0.2,1.6,0.2c0.5,0,1.1,0.1,1.8,0c0.7,0,1.4-0.1,2.2-0.3c0.4-0.1,0.8-0.2,1.2-0.3c0.4-0.1,0.8-0.3,1.2-0.5
				c0.7-0.5,1.5-1,2-1.8c0.5-0.8,0.8-1.7,0.9-2.8c0-1.1-0.1-2.2-0.3-3.3c-0.5-2.2-1.5-4.4-2.5-6.4c-1-2-2.2-3.7-3.2-5.2
				C807.8,508.7,806.3,506.8,806.3,506.8z"/>
		</g>
	</g>
	<g>
		<g>
			<path fill="#1E1A16" d="M825.6,548.4c0,0,0.3,0.3,0.7,0.8c0.4,0.5,0.9,1.3,1.2,2.1c0.1,0.4,0.3,0.9,0.3,1.3c0,0.2,0,0.4-0.1,0.6
				c0,0.2-0.1,0.4-0.2,0.5c-0.1,0.3-0.3,0.6-0.5,0.7c-0.1,0.2-0.2,0.2-0.2,0.2l-0.1,0c0,0,0-0.1-0.1-0.3c0-0.1,0-0.2-0.1-0.3
				c0-0.1,0-0.3-0.1-0.4c0-0.3-0.1-0.6-0.1-1c0-0.3,0.1-0.7,0-1.1c-0.1-0.8-0.3-1.6-0.6-2.1C825.7,548.8,825.5,548.4,825.6,548.4
				L825.6,548.4z"/>
		</g>
		<g>
			<path fill="#1E1A16" d="M790.4,551.2c0,0-0.2,0.4-0.3,1c-0.1,0.6-0.3,1.4-0.2,2.2c0,0.4,0.1,0.8,0.2,1.1c0,0.3,0,0.7,0.1,1
				c0,0.1,0,0.3,0,0.4c0,0.1,0,0.2,0,0.3c0,0.2,0,0.3,0,0.3l-0.1,0.1c0,0-0.1-0.1-0.3-0.2c-0.2-0.1-0.4-0.3-0.6-0.6
				c-0.1-0.1-0.2-0.3-0.3-0.5c-0.1-0.2-0.1-0.4-0.2-0.6c-0.1-0.4,0-0.9,0.1-1.4c0.1-0.9,0.5-1.7,0.8-2.3c0.3-0.6,0.6-0.9,0.6-0.9
				L790.4,551.2z"/>
		</g>
		<g>
			<path fill="#1E1A16" d="M827.1,551.5c0,0-0.5,0.4-1.4,1c-0.9,0.6-2.2,1.4-3.8,2.2c-0.8,0.4-1.7,0.9-2.7,1.3c-1,0.4-2,0.8-3.1,1.2
				c-0.5,0.2-1.1,0.4-1.7,0.5c-0.6,0.2-1.2,0.3-1.8,0.5c-1.2,0.3-2.4,0.5-3.7,0.6l-0.5,0l-0.5,0l-0.9,0c-0.6,0-1.3,0-1.9,0
				c-1.2,0-2.4-0.2-3.6-0.3c-1.1-0.2-2.2-0.4-3.3-0.6c-1-0.2-2-0.5-2.9-0.8c-3.5-1.1-5.7-2.3-5.7-2.3s2.4,0.4,6,0.8
				c0.9,0.1,1.9,0.2,2.9,0.3c1,0.1,2.1,0.2,3.2,0.3c0.6,0,1.1,0.1,1.7,0.1c0.6,0,1.1,0,1.7,0c0.6,0,1.1,0,1.7,0
				c0.6,0,1.3-0.1,1.7-0.1c1.1-0.1,2.3-0.3,3.4-0.5c1.1-0.2,2.2-0.4,3.3-0.7c1.1-0.3,2.1-0.5,3.1-0.8c1-0.3,1.9-0.6,2.8-0.8
				C824.8,552.2,827.1,551.5,827.1,551.5z"/>
		</g>
		<g>
			<path fill="#1E1A16" d="M820.7,560.6c0,0-0.3,0.3-0.8,0.9c-0.6,0.6-1.3,1.4-2.4,2.2c-1,0.9-2.3,1.8-3.8,2.6
				c-0.8,0.4-1.5,0.8-2.4,1.1c-0.4,0.2-0.9,0.3-1.3,0.4c-0.4,0.1-0.9,0.2-1.4,0.3l-0.4,0l-0.4,0l-0.7,0c-0.5,0-0.9-0.1-1.4-0.1
				c-0.9-0.1-1.8-0.3-2.6-0.6c-1.6-0.5-3.1-1.2-4.2-1.9c-1.2-0.7-2.1-1.3-2.7-1.8c-0.6-0.5-1-0.8-1-0.8s0.4,0.2,1.1,0.6
				c0.7,0.4,1.7,0.8,2.9,1.3c1.2,0.5,2.7,1,4.2,1.4c0.8,0.2,1.6,0.3,2.4,0.5c0.4,0,0.8,0.1,1.2,0.1l0.7,0l0.3,0l0.3,0
				c0.4,0,0.8-0.1,1.2-0.2c0.4-0.1,0.8-0.2,1.2-0.4c0.8-0.3,1.6-0.6,2.3-0.9c1.5-0.7,2.8-1.5,3.9-2.2c1.1-0.7,2-1.3,2.6-1.8
				C820.4,560.8,820.7,560.6,820.7,560.6z"/>
		</g>
	</g>
	<path fill="#1E6A77" d="M685,739.4h-54.9c-1.3,0-2.3-1-2.3-2.3v-3.5c0-1.3,1-2.3,2.3-2.3H685c1.3,0,2.3,1,2.3,2.3v3.5
		C687.3,738.4,686.3,739.4,685,739.4z"/>
	<path fill="#231A13" d="M748.9,399.5c0,0-24.7-0.3-50.6,14.9c-25.8,15.2-46.1,40.7-32,90.8s-10.7,135.3-10.7,135.3
		s59.8-137.4,66.4-188.5C749.6,438.9,755.8,410.2,748.9,399.5z"/>
	<path fill="#231A13" d="M772.3,423.7c0,0,2.5,11.2,15.8,17.3c13.4,6.2,20.3,6.2,20.3,6.2s-20.8-9.9-24.5-19.4
		c13.1,9.3,38.8,17.8,46.9,17.7c8.2-0.2,33.2,19.6,33.2,19.6v-27.4l-112.5-38.2l-33.4,38.4v27.2c0,0,19.5-16.6,21.5-22.9
		C741.6,435.9,752.8,441.6,772.3,423.7z"/>
	<path fill="#231A13" d="M740.9,400.1c0,0,13.3-18.4,50.2-14.7c36.9,3.7,65.9,27,72.9,52.3c7.1,25.4,0,27.4,0,27.4L823.9,425
		L740.9,400.1z"/>
	<path opacity="0.1" fill="#FFFFFF" d="M864,437.7c-7.1-25.4-36.1-48.6-72.9-52.3c-24.9-2.5-39.1,5.1-45.6,10.2
		c7.8-4.4,20.8-8.7,40.3-6.7c36.9,3.7,65.9,27,72.9,52.3c3.1,11,3.5,17.6,3,21.6l2.3,2.3C864,465.1,871.1,463.1,864,437.7z"/>
	<path opacity="0.1" fill="#FFFFFF" d="M710.2,462.8c0.3,15.3-54.5,177.7-54.5,177.7S708,520.3,720.2,463
		C714.7,458.5,710.1,456.5,710.2,462.8z"/>
</g>
<g id="Layer_2">
	<ellipse fill="#8ED6C8" cx="417.9" cy="1404.9" rx="187.5" ry="17.9"/>
	<rect x="305.4" y="1329.8" fill="#BCBCBC" width="41.2" height="53.7"/>
	<path fill="#84705B" d="M492.5,881.8h13c4.5,0,8.2-3.7,8.2-8.2V675.8c0-4.5-3.7-8.2-8.2-8.2h-13c-4.5,0-8.2,3.7-8.2,8.2v197.7
		C484.2,878,487.9,881.8,492.5,881.8z"/>
	<path fill="#E0D0BA" d="M545.5,895.2l-9.6,12c-3.4,4.2-2.7,10.4,1.5,13.7l25.2,20.2c4.2,3.4,10.4,2.7,13.7-1.5l9.6-12
		c3.4-4.2,2.7-10.4-1.5-13.7l-25.2-20.2C555,890.3,548.9,891,545.5,895.2z"/>
	<path fill="#84705B" d="M561.6,929.1l11.4-14.3c2.8-3.5,2.3-8.8-1.3-11.6L505.2,850c-3.5-2.8-8.8-2.3-11.6,1.3l-11.4,14.3
		c-2.8,3.5-2.3,8.8,1.3,11.6l66.5,53.2C553.5,933.2,558.7,932.7,561.6,929.1z"/>
	<g>
		
			<rect x="301.9" y="1397.7" transform="matrix(-0.9974 -7.168140e-02 7.168140e-02 -0.9974 628.1149 2821.3237)" fill="#EAEAEA" width="125.6" height="3.5"/>
		
			<rect x="292.4" y="1394" transform="matrix(-0.9974 -7.168140e-02 7.168140e-02 -0.9974 526.909 2815.2214)" fill="#EAEAEA" width="43.2" height="8.3"/>
		<path fill="#EAEAEA" d="M316,1381.4l35.5,2.5c2.9,0.2,5.1,2.7,4.9,5.6l-0.8,10.5c-0.2,2.9-2.7,5.1-5.6,4.9l-35.5-2.5
			c-2.9-0.2-5.1-2.7-4.9-5.6l0.8-10.5C310.6,1383.4,313.1,1381.2,316,1381.4z"/>
		<path fill="#FFFFFF" d="M427.4,1402.2c0,0-10.6-33-65.9-37s-68.8,27.3-68.8,27.3L427.4,1402.2z"/>
	</g>
	<rect x="443.5" y="1329.8" fill="#BCBCBC" width="41.2" height="53.7"/>
	<rect x="298.3" y="1009.2" fill="#1E6A77" width="55.3" height="336.3"/>
	<rect x="298.3" y="1009.2" opacity="0.1" width="27.6" height="336.3"/>
	<rect x="436.4" y="1009.2" fill="#1E6A77" width="55.3" height="336.3"/>
	<rect x="436.4" y="1009.2" opacity="0.1" width="27.6" height="336.3"/>
	<polygon fill="#C1AE9D" points="432.6,626.8 358.8,626.8 363.4,549.5 428,549.5 	"/>
	<polygon fill="#756454" points="432.6,626.8 358.8,626.8 363.4,549.5 428,549.5 	"/>
	<path fill="#2BA3BF" d="M496.4,628h3.6c11.8,0,22,9.9,22,21.7v36.7l0,0V734h-46v-47.7l0,0v-36.7C476,637.9,484.6,628,496.4,628z"/>
	<path fill="#1E6A77" d="M522.9,735.6h-48.5c-1.3,0-2.3-1-2.3-2.3v-3.6c0-1.3,1-2.3,2.3-2.3h48.5c1.3,0,2.3,1,2.3,2.3v3.6
		C525.1,734.6,524.1,735.6,522.9,735.6z"/>
	<path fill="#84705B" d="M291.5,641.8c15.4-34.6,80.2-34.8,80.2-34.8h2.8h43.3h2.8c0,0,64.8,0.2,80.2,34.8
		c15.4,34.6-86.6,124.8-86.6,124.8l-25.6,38.1l-20.3-7.2l-41.1,4.7C327.1,802.2,276.1,676.3,291.5,641.8z"/>
	<g>
		<ellipse fill="#84705B" cx="406" cy="487.5" rx="89.4" ry="98.4"/>
		<path opacity="0.7" fill="#756454" d="M338.2,473.8c0-27.4,8.9-52.5,23.8-71.9c-27.1,16.9-45.4,48.9-45.4,85.6
			c0,54.3,40,98.4,89.4,98.4c5.6,0,11.2-0.6,16.5-1.7C374.6,575,338.2,529.1,338.2,473.8z"/>
		<path fill="#AAAAAA" d="M354.7,470.4c0,0-1.5-30.5-29.2-25.9c-11.8,1.9-23.1,48.7-15.4,65.5c5.6,12.4,25.4,38.1,25.4,38.1
			l-2.8-63.7c0,0,10.6-12,16.3,2.1C354.8,500.7,362.8,494.9,354.7,470.4z"/>
		<g opacity="0.3">
			<path fill="#F4F4F4" d="M354.7,470.4c0,0-1.5-30.5-29.2-25.9c-1.1,0.2-2.1,0.7-3.2,1.6c26-3,27.4,26.1,27.4,26.1
				c3.3,10.1,3.9,17.1,3.1,20.7C357.5,497.3,361,489.6,354.7,470.4z"/>
		</g>
		<ellipse fill="#84705B" cx="340.1" cy="497.6" rx="12.7" ry="20.9"/>
		<g>
			<path fill="#BABABA" d="M373.9,408.2c0,0,1.2-2.7,3.9-6.1c0.7-0.9,1.5-1.8,2.3-2.7c0.9-0.9,1.8-1.8,2.9-2.7
				c1.1-0.9,2.2-1.7,3.4-2.5c1.2-0.8,2.5-1.5,3.8-2.2c1.3-0.7,2.6-1.3,4-1.8c1.3-0.5,2.7-0.9,4-1.2c0.7-0.2,1.3-0.3,2-0.4
				c0.7-0.1,1.3-0.2,1.9-0.2c1.2-0.1,2.4-0.1,3.5-0.1c0.5,0,1.1,0,1.6,0.1c0.5,0.1,1,0.1,1.4,0.2c0.9,0.2,1.6,0.3,2.2,0.4
				c1.2,0.3,1.9,0.5,1.9,0.5l0,0.2c0,0-0.7-0.1-1.9-0.4c-0.6-0.1-1.4-0.2-2.2-0.3c-0.4,0-0.9,0-1.4-0.1c-0.5,0-1,0-1.5,0
				c-1.1,0-2.2,0.1-3.4,0.3c-0.6,0.1-1.2,0.2-1.8,0.3c-0.6,0.2-1.3,0.3-1.9,0.5c-1.3,0.4-2.6,0.8-3.8,1.4c-1.3,0.5-2.5,1.2-3.8,1.9
				c-1.2,0.7-2.4,1.5-3.5,2.3c-1.1,0.8-2.2,1.7-3.2,2.6c-1,0.8-2,1.7-2.9,2.5c-0.9,0.8-1.7,1.6-2.5,2.4c-3,3-4.8,5.2-4.8,5.2
				L373.9,408.2z"/>
		</g>
		<g>
			<path fill="#BABABA" d="M380.4,408.2c0,0,0.7-2.5,2.7-5.8c1-1.6,2.3-3.5,4-5.2c0.9-0.9,1.8-1.7,2.8-2.5c1-0.8,2.1-1.5,3.2-2.2
				c1.1-0.7,2.3-1.2,3.4-1.8c0.6-0.3,1.2-0.5,1.7-0.7c0.6-0.2,1.2-0.4,1.8-0.5c1.2-0.3,2.3-0.5,3.4-0.7c0.5,0,1.1-0.1,1.6-0.1
				c0.5,0,1,0,1.5,0c1,0,1.8,0.1,2.6,0.1c0.8,0.1,1.4,0.2,2,0.3c1.1,0.2,1.7,0.3,1.7,0.3l0,0.2c0,0-0.6-0.1-1.7-0.2
				c-0.5-0.1-1.2-0.1-2-0.1c-0.8,0-1.6,0-2.5,0.1c-0.5,0-0.9,0.1-1.4,0.1c-0.5,0.1-1,0.2-1.5,0.3c-0.5,0.1-1,0.2-1.6,0.4
				c-0.5,0.1-1.1,0.3-1.6,0.5c-0.5,0.2-1.1,0.4-1.6,0.6c-0.5,0.2-1.1,0.5-1.6,0.7c-1.1,0.6-2.1,1.2-3.2,1.9c-1,0.7-2,1.5-2.9,2.2
				c-0.9,0.8-1.8,1.6-2.5,2.5c-0.8,0.8-1.6,1.6-2.3,2.4c-0.7,0.8-1.3,1.6-1.9,2.3c-2.3,2.9-3.7,5-3.7,5L380.4,408.2z"/>
		</g>
		<g>
			<path fill="#BABABA" d="M385.3,408.2c0,0,0.1-0.6,0.4-1.5c0.3-1,0.7-2.3,1.5-3.8c0.4-0.8,0.8-1.6,1.4-2.4
				c0.5-0.8,1.1-1.7,1.8-2.5c0.7-0.8,1.5-1.6,2.4-2.4c0.9-0.7,1.8-1.5,2.7-2.1c0.9-0.7,1.9-1.2,2.9-1.7c1-0.5,2-0.9,3.1-1.3
				c1-0.3,2-0.6,3-0.8c1-0.2,1.9-0.3,2.7-0.4c0.8,0,1.6-0.1,2.3-0.1c0.7,0,1.3,0,1.8,0.1c1,0.1,1.5,0.2,1.5,0.2l0,0.2
				c0,0-0.6,0-1.5,0c-0.5,0-1.1,0-1.8,0.1c-0.7,0-1.4,0.1-2.3,0.2c-0.8,0.1-1.7,0.3-2.6,0.6c-0.9,0.2-1.9,0.5-2.8,0.9
				c-1,0.4-1.9,0.9-2.8,1.4c-0.9,0.5-1.8,1.1-2.7,1.8c-0.9,0.7-1.7,1.4-2.4,2.2c-0.7,0.8-1.4,1.5-2.1,2.3c-1.3,1.5-2.5,3.1-3.4,4.4
				c-1.9,2.7-2.9,4.7-2.9,4.7L385.3,408.2z"/>
		</g>
		<g>
			<path fill="#BABABA" d="M367.4,408.1c0,0,0.4-0.7,1.2-1.9c0.8-1.2,2.1-2.8,3.8-4.6c0.8-0.9,1.8-1.8,2.9-2.8
				c1.1-0.9,2.2-1.9,3.5-2.8c1.3-0.9,2.6-1.7,4-2.5c1.4-0.8,2.9-1.5,4.4-2.1c1.5-0.7,3.1-1.2,4.6-1.7c0.8-0.2,1.6-0.4,2.3-0.6
				c0.8-0.2,1.5-0.3,2.3-0.5c0.8-0.1,1.5-0.2,2.2-0.3c0.7-0.1,1.5-0.1,2.2-0.2c0.7,0,1.4,0,2,0c0.7,0,1.3,0,1.9,0.1
				c1.2,0.1,2.3,0.2,3.3,0.3c1,0.2,1.8,0.3,2.5,0.4c1.4,0.3,2.2,0.5,2.2,0.5l0,0.2c0,0-0.8-0.1-2.2-0.4c-0.7-0.1-1.6-0.2-2.5-0.3
				c-1-0.1-2.1-0.1-3.3-0.1c-0.6,0-1.2,0-1.9,0c-0.6,0.1-1.3,0.1-2,0.2c-0.7,0.1-1.4,0.2-2.1,0.3c-0.7,0.1-1.4,0.3-2.2,0.4
				c-0.7,0.2-1.5,0.4-2.2,0.5c-0.7,0.2-1.5,0.5-2.2,0.7c-1.5,0.5-3,1.1-4.4,1.8c-1.4,0.7-2.8,1.5-4.2,2.3c-1.3,0.8-2.6,1.7-3.8,2.6
				c-1.2,0.8-2.4,1.8-3.4,2.6c-1.1,0.9-2.1,1.7-3,2.5c-3.6,3.2-5.8,5.5-5.8,5.5L367.4,408.1z"/>
		</g>
		<g>
			<path fill="#BABABA" d="M362.5,408.2c0,0,0.4-0.8,1.3-2.1c0.4-0.7,1-1.4,1.7-2.3c0.7-0.8,1.5-1.8,2.4-2.8c0.9-1,2-2,3.2-3
				c1.2-1,2.5-2,3.9-2.9c1.4-0.9,2.9-1.8,4.5-2.6c1.6-0.8,3.3-1.5,5-2.1c1.7-0.6,3.4-1.1,5.2-1.5c0.4-0.1,0.9-0.2,1.3-0.3
				c0.4-0.1,0.9-0.2,1.3-0.2c0.9-0.2,1.7-0.3,2.5-0.4c0.8-0.1,1.7-0.2,2.5-0.2c0.4,0,0.8,0,1.2-0.1c0.4,0,0.8,0,1.2,0
				c1.5,0,3,0.1,4.3,0.2c1.3,0.2,2.6,0.3,3.6,0.5c1.1,0.2,2,0.3,2.8,0.5c1.5,0.4,2.4,0.6,2.4,0.6l0,0.2c0,0-0.9-0.2-2.4-0.4
				c-0.8-0.2-1.7-0.2-2.8-0.4c-1.1-0.2-2.3-0.2-3.6-0.3c-1.3,0-2.8-0.1-4.3,0c-0.8,0-1.5,0.1-2.3,0.2c-0.8,0.1-1.6,0.2-2.4,0.3
				c-0.8,0.1-1.6,0.3-2.5,0.4c-0.4,0.1-0.8,0.2-1.2,0.3c-0.4,0.1-0.8,0.2-1.2,0.3c-1.7,0.4-3.3,1-4.9,1.7c-1.6,0.7-3.2,1.4-4.7,2.3
				c-1.5,0.8-2.9,1.7-4.3,2.6c-2.7,1.8-5.1,3.7-7.1,5.4c-1,0.9-1.9,1.7-2.7,2.4c-0.8,0.8-1.4,1.4-2,2c-1.1,1.1-1.6,1.8-1.6,1.8
				L362.5,408.2z"/>
		</g>
	</g>
	<path fill="#2BA3BF" d="M298.2,716c0,0-0.2,198.5,0.7,158.5c0.5-23.9-10.4-225.9-7.3-232.9c8.4-18.8,31.2-27.5,50.5-31.5l53.8,82.4
		l54.9-82.3c19.1,4,41.7,12.8,50,31.4c15.4,34.6,4,74.3,4,74.3H298.2z"/>
	<rect x="280.7" y="707.7" fill="#2BA3BF" width="213.7" height="326.4"/>
	<rect x="280.7" y="707.7" fill="#2BA3BF" width="213.7" height="326.4"/>
	<path fill="#278FAF" d="M395.9,692.6"/>
	<g opacity="5.000000e-02">
		<path d="M395,692.6l-53.4-82.4c-19.2,4-41.9,12.3-50.2,31.1c-1.1,2.5-0.2,29.7,1.1,65.7H281v327h114V692.6z"/>
	</g>
	<g>
		<defs>
			<path id="SVGID_11_" d="M291.5,641.8c15.4-34.6,80.2-34.8,80.2-34.8h2.8h43.3h2.8c0,0,64.8,0.2,80.2,34.8
				c15.4,34.6-86.6,124.8-86.6,124.8l-25.6,38.1l-20.3-7.2l-41.1,4.7C327.1,802.2,276.1,676.3,291.5,641.8z"/>
		</defs>
		<clipPath id="SVGID_12_">
			<use xlink:href="#SVGID_11_"  overflow="visible"/>
		</clipPath>
		<polyline clip-path="url(#SVGID_12_)" fill="none" stroke="#1E6A77" stroke-width="12.5209" stroke-miterlimit="10" points="
			339.7,606.7 395.9,692.6 453.3,606.7 		"/>
	</g>
	<g>
		
			<rect x="439.6" y="1397.7" transform="matrix(-0.9974 -7.168140e-02 7.168140e-02 -0.9974 903.2213 2831.1965)" fill="#EAEAEA" width="125.6" height="3.5"/>
		
			<rect x="430.1" y="1394" transform="matrix(-0.9974 -7.168140e-02 7.168140e-02 -0.9974 802.0154 2825.094)" fill="#EAEAEA" width="43.2" height="8.3"/>
		<path fill="#EAEAEA" d="M453.7,1381.4l35.5,2.5c2.9,0.2,5.1,2.7,4.9,5.6l-0.8,10.5c-0.2,2.9-2.7,5.1-5.6,4.9l-35.5-2.5
			c-2.9-0.2-5.1-2.7-4.9-5.6l0.8-10.5C448.3,1383.4,450.8,1381.2,453.7,1381.4z"/>
		<path fill="#FFFFFF" d="M565.2,1402.2c0,0-10.6-33-65.9-37s-68.8,27.3-68.8,27.3L565.2,1402.2z"/>
	</g>
	<g>
		<g>
			<defs>
				<polygon id="SVGID_13_" points="361.4,599.1 360.6,612.6 338.8,619 366.1,666.3 371,705.7 371,728.4 349.6,728.1 330.6,645.3 
					320.7,621.4 329.1,598.7 				"/>
			</defs>
			<clipPath id="SVGID_14_">
				<use xlink:href="#SVGID_13_"  overflow="visible"/>
			</clipPath>
			<path clip-path="url(#SVGID_14_)" fill="none" stroke="#09234C" stroke-width="7.1548" stroke-miterlimit="10" d="M359.3,727.2
				c0,0,3.5-51.9-24.3-94.8c-11-16.9-14.6-29.8,61.7-29.8"/>
		</g>
		<g>
			<path fill="none" stroke="#7C7C7C" stroke-width="3.2716" stroke-miterlimit="10" d="M359.7,728.1c0,0,34.4,7,34.4,43.8
				c0,36.8-57.7,98.1-57.7,98.1"/>
			<path fill="none" stroke="#7C7C7C" stroke-width="3.2716" stroke-miterlimit="10" d="M359.3,728.1c0,0-34.4,7-34.4,43.8
				c0,36.8,57.7,98.1,57.7,98.1"/>
			<ellipse fill="#7C7C7C" cx="359.7" cy="727.4" rx="5.1" ry="2.3"/>
			<ellipse fill="#7C7C7C" cx="359.7" cy="723.9" rx="5.1" ry="2.3"/>
			<circle fill="#FFFFFF" stroke="#7C7C7C" stroke-width="1.6358" stroke-miterlimit="10" cx="336.8" cy="870.5" r="4.2"/>
			<circle fill="#FFFFFF" stroke="#7C7C7C" stroke-width="1.6358" stroke-miterlimit="10" cx="382.6" cy="870.5" r="4.2"/>
			<rect x="354.6" y="723.9" fill="#7C7C7C" width="10.2" height="7.6"/>
			<ellipse fill="#666666" cx="359.7" cy="729.8" rx="8.1" ry="4.2"/>
		</g>
	</g>
	<g>
		<g>
			<defs>
				<polygon id="SVGID_15_" points="430.9,599.1 431.7,612.6 453.5,619 426.6,666.3 422,705.7 422,801.7 443.1,801.5 461.9,645.3 
					471.8,621.4 463.3,598.7 				"/>
			</defs>
			<clipPath id="SVGID_16_">
				<use xlink:href="#SVGID_15_"  overflow="visible"/>
			</clipPath>
			<path clip-path="url(#SVGID_16_)" fill="none" stroke="#09234C" stroke-width="7.1548" stroke-miterlimit="10" d="M435.6,799.1
				c0,0-23.3-106.5,21.7-166.7c12.1-16.2,14.6-29.8-61.7-29.8"/>
		</g>
	</g>
	<g>
		
			<ellipse transform="matrix(0.9781 -0.208 0.208 0.9781 -160.2689 106.7406)" fill="#B2B2B2" cx="427.3" cy="815.3" rx="5.5" ry="14.1"/>
		
			<ellipse transform="matrix(0.9781 -0.208 0.208 0.9781 -160.0545 107.3999)" fill="#B2B2B2" cx="430.6" cy="814.6" rx="4.9" ry="12.4"/>
		
			<ellipse transform="matrix(0.9781 -0.208 0.208 0.9781 -159.2684 109.8174)" fill="#B2B2B2" cx="442.4" cy="812.1" rx="2.9" ry="7.5"/>
		
			<ellipse transform="matrix(0.9781 -0.208 0.208 0.9781 -159.8879 107.9122)" fill="#B2B2B2" cx="433.1" cy="814.1" rx="6.9" ry="11"/>
		
			<rect x="433.6" y="798.3" transform="matrix(-0.9781 0.208 -0.208 -0.9781 1031.8175 1501.7582)" fill="#7C7C7C" width="6.7" height="13.8"/>
		
			<ellipse transform="matrix(-0.208 -0.9781 0.9781 -0.208 -255.0746 1390.9724)" fill="#7C7C7C" cx="435.6" cy="798.7" rx="1.6" ry="4.7"/>
		
			<ellipse transform="matrix(0.9781 -0.208 0.208 0.9781 -160.2689 106.7406)" fill="#7C7C7C" cx="427.3" cy="815.3" rx="4.3" ry="11"/>
		<polygon fill="#B2B2B2" points="440.7,804.8 433,803.4 437.3,823.9 444,819.4 		"/>
	</g>
	<g>
		<path fill="#84705B" d="M338,877l-5.7,4.2c-2,1.5-2.4,4.3-0.9,6.3l4.2,5.7c1.5,2,4.3,2.4,6.3,0.9l5.7-4.2c2-1.5,2.4-4.3,0.9-6.3
			l-4.2-5.7C342.8,876,340,875.6,338,877z"/>
		<g>
			
				<rect x="331.2" y="860.8" transform="matrix(0.8418 0.5398 -0.5398 0.8418 543.1357 -37.6839)" fill="#3E72CE" width="9.3" height="93.9"/>
			
				<rect x="331.6" y="859.5" transform="matrix(0.8418 0.5398 -0.5398 0.8418 542.1512 -36.8282)" fill="#4266A7" width="4.6" height="93.9"/>
			<polygon fill="#999999" points="304.5,956.7 306.6,944.7 311.6,945.6 314.4,949.7 			"/>
			<polygon fill="#C6C6C6" points="305.1,952 304.2,957 308.4,954.1 			"/>
		</g>
		<path fill="#84705B" d="M220.6,867.5l22.7,6.7c4.4,1.3,9-1.2,10.3-5.6l56.2-189.5c1.3-4.4-1.2-9-5.6-10.3l-22.7-6.7
			c-4.4-1.3-9,1.2-10.3,5.6L215,857.2C213.7,861.6,216.2,866.2,220.6,867.5z"/>
		<path fill="#84705B" d="M331.9,888l-18.2,13.5c-4.3,3.2-5.2,9.3-2,13.7l25.7,34.6c3.2,4.3,9.3,5.2,13.7,2l18.2-13.5
			c4.3-3.2,5.2-9.3,2-13.7L345.6,890C342.4,885.7,336.2,884.8,331.9,888z"/>
		<path fill="#2BA3BF" d="M301.7,627.1l4.2,1.2c13.8,4.1,23.3,17,19.9,28.3l-10.4,35.2l0,0l-13.5,45.4l-54.5-16.2l13.5-45.4l0,0
			l10.4-35.2C274.7,629.1,287.9,623,301.7,627.1z"/>
		<path fill="#1E6A77" d="M299.6,738.5l-51.8-15.4c-1.2-0.4-1.9-1.6-1.5-2.8l1-3.5c0.4-1.2,1.6-1.9,2.8-1.5l51.8,15.4
			c1.2,0.4,1.9,1.6,1.5,2.8l-1,3.5C302.1,738.1,300.8,738.8,299.6,738.5z"/>
		<path fill="#84705B" d="M336.5,907.9l6.4-14.7c1.8-4.2-0.1-9-4.3-10.8L237,838.5c-4.2-1.8-9,0.1-10.8,4.3l-6.4,14.7
			c-1.8,4.2,0.1,9,4.3,10.8l101.5,43.9C329.8,914,334.7,912.1,336.5,907.9z"/>
	</g>
	<g>
		
			<rect x="545.3" y="832" transform="matrix(0.8916 0.4528 -0.4528 0.8916 486.1517 -170.3259)" fill="#998A77" width="107" height="196.6"/>
		
			<rect x="551.9" y="844.1" transform="matrix(0.8916 0.4528 -0.4528 0.8916 486.1517 -170.3259)" fill="#FFFFFF" width="93.8" height="172.2"/>
		
			<rect x="600.4" y="841.4" transform="matrix(0.8916 0.4528 -0.4528 0.8916 455.3728 -196.5093)" fill="#A5A5A5" width="75.4" height="23"/>
		
			<rect x="611.1" y="847.3" transform="matrix(0.8916 0.4528 -0.4528 0.8916 455.0565 -196.8187)" fill="#838484" width="55" height="9.4"/>
		<path fill="#C6C6C6" d="M667.5,842.8l-8.6-4.4c0,0,0.1-0.2,0.1-0.2c3.6-7,1.7-15.2-4.1-18.2c-5.8-3-13.5,0.4-17.1,7.4
			c0,0-0.1,0.2-0.1,0.2l-8.8-4.4l-6,4.1l-7.7,15.3l45,22.8l7.7-15.3L667.5,842.8z M644.9,839.7c-3.2-1.6-4.2-6.1-2.3-9.9
			c2-3.9,6.1-5.7,9.3-4s4.2,6.1,2.3,9.9C652.3,839.5,648.1,841.3,644.9,839.7z"/>
		
			<rect x="581" y="881.5" transform="matrix(0.8916 0.4528 -0.4528 0.8916 467.6834 -186.0367)" opacity="0.5" fill="#3E72CE" width="82.8" height="4.6"/>
		
			<rect x="576.4" y="890.6" transform="matrix(0.8916 0.4528 -0.4528 0.8916 471.2927 -182.9664)" opacity="0.5" fill="#3E72CE" width="82.8" height="4.6"/>
		
			<rect x="566.3" y="904" transform="matrix(0.8916 0.4528 -0.4528 0.8916 473.3385 -164.681)" opacity="0.5" fill="#3E72CE" width="28.6" height="4.6"/>
		
			<rect x="559.7" y="923.5" transform="matrix(0.8916 0.4528 -0.4528 0.8916 484.409 -171.8084)" opacity="0.5" fill="#3E72CE" width="82.8" height="4.6"/>
		
			<rect x="555.7" y="931.5" transform="matrix(0.8916 0.4528 -0.4528 0.8916 487.598 -169.1359)" opacity="0.5" fill="#3E72CE" width="82.8" height="4.6"/>
		
			<rect x="551.4" y="939.9" transform="matrix(0.8916 0.4528 -0.4528 0.8916 490.9137 -166.3152)" opacity="0.5" fill="#3E72CE" width="82.8" height="4.6"/>
	</g>
	<path fill="#84705B" d="M553,885.4l-4.4,5.5c-1.5,1.9-1.2,4.8,0.7,6.3l5.5,4.4c1.9,1.5,4.8,1.2,6.3-0.7l4.4-5.5
		c1.5-1.9,1.2-4.8-0.7-6.3l-5.5-4.4C557.4,883.2,554.6,883.5,553,885.4z"/>
	<g>
		<g opacity="0.44">
			<path d="M420.1,557.3c0,0,0.3-0.3,0.8-0.6c0.5-0.4,1.2-0.9,2.2-1.5c0.5-0.3,1-0.6,1.5-0.9c0.5-0.3,1.2-0.5,1.8-0.8
				c0.6-0.2,1.3-0.5,2-0.7c0.7-0.2,1.4-0.4,2.2-0.5l1.1-0.2c0.4,0,0.7,0,1.1-0.1c0.7-0.1,1.5,0,2.2,0.1c0.7,0,1.4,0.3,2,0.4
				c0.3,0.1,0.6,0.2,0.9,0.3c0.3,0.1,0.5,0.3,0.8,0.4c0.5,0.3,1,0.5,1.3,0.7c0.4,0.3,0.7,0.5,0.9,0.7c0.5,0.4,0.8,0.7,0.8,0.7
				l-0.1,0.2c0,0-0.4-0.1-1-0.2c-0.3-0.1-0.7-0.2-1.1-0.3c-0.4-0.1-0.9-0.2-1.4-0.3c-0.5-0.1-1-0.3-1.6-0.3
				c-0.6-0.1-1.2-0.2-1.8-0.3c-0.6-0.1-1.3-0.2-1.9-0.2c-0.3,0-0.7,0-1-0.1l-1,0c-0.7,0-1.4,0.1-2,0.2c-0.7,0.1-1.3,0.3-2,0.4
				c-0.6,0.2-1.2,0.4-1.8,0.6c-0.6,0.2-1.1,0.4-1.6,0.6c-1,0.4-1.7,0.9-2.3,1.2c-0.5,0.3-0.8,0.5-0.8,0.5L420.1,557.3z"/>
		</g>
		<g>
			<g>
				<path d="M389.7,463.6c0,0,0.1-0.4,0.3-1c0.2-0.7,0.6-1.6,1.2-2.7c0.3-0.5,0.6-1.1,1-1.7c0.3-0.6,0.8-1.2,1.2-1.8
					c0.5-0.6,1-1.2,1.5-1.8c0.6-0.6,1.1-1.2,1.8-1.7l0.9-0.8c0.3-0.2,0.7-0.5,1-0.7c0.6-0.5,1.4-0.9,2.1-1.2
					c0.7-0.4,1.4-0.6,2.1-0.8c0.3-0.1,0.7-0.2,1-0.3c0.3,0,0.7-0.1,1-0.1c0.6-0.1,1.2-0.2,1.7-0.1c0.5,0,0.9,0.1,1.3,0.1
					c0.7,0.1,1.1,0.1,1.1,0.1l0,0.2c0,0-0.4,0.1-1.1,0.3c-0.3,0.1-0.7,0.2-1.2,0.3c-0.5,0.1-1,0.3-1.5,0.5c-0.6,0.2-1.1,0.3-1.7,0.6
					c-0.6,0.3-1.3,0.5-1.9,0.8c-0.6,0.3-1.3,0.6-2,1c-0.3,0.2-0.7,0.4-1,0.5l-0.9,0.7c-0.6,0.4-1.2,1-1.8,1.4
					c-0.6,0.5-1.1,1.1-1.6,1.6c-0.5,0.6-0.9,1.1-1.3,1.6c-0.4,0.5-0.8,1.1-1.1,1.5c-0.7,1-1.1,1.9-1.4,2.5c-0.3,0.6-0.5,1-0.5,1
					L389.7,463.6z"/>
			</g>
			<path fill="#1E1A16" d="M404.7,476.5c2.8,0,5.4,0.5,7.6,1.4c0.9-2,1.4-4.3,1.4-6.8c0-7.1-4.1-12.8-9.1-12.8s-9.1,5.7-9.1,12.8
				c0,2.5,0.5,4.9,1.4,6.8C399.2,477,401.8,476.5,404.7,476.5z"/>
			<path fill="#FFFFFF" d="M404.4,460.7c-0.3-0.1,4,0.6,5.3,5.3C409.7,466,406.8,461.9,404.4,460.7z"/>
			<g>
				<g>
					<path d="M480.3,463.7c0,0-0.1-0.4-0.5-1c-0.3-0.6-0.8-1.5-1.4-2.5c-0.3-0.5-0.7-1-1.1-1.5c-0.4-0.5-0.9-1.1-1.3-1.6
						c-0.5-0.5-1-1.1-1.6-1.6c-0.6-0.5-1.1-1-1.8-1.4l-0.9-0.7c-0.3-0.2-0.7-0.4-1-0.5c-0.6-0.4-1.3-0.7-2-1
						c-0.6-0.3-1.3-0.5-1.9-0.8c-0.6-0.3-1.2-0.5-1.7-0.6c-0.6-0.2-1.1-0.4-1.5-0.5c-0.5-0.1-0.9-0.2-1.2-0.3
						c-0.7-0.2-1.1-0.3-1.1-0.3l0-0.2c0,0,0.4-0.1,1.1-0.1c0.4,0,0.8-0.1,1.3-0.1c0.5,0,1.1,0.1,1.7,0.1c0.3,0,0.6,0.1,1,0.1
						c0.3,0.1,0.7,0.2,1,0.3c0.7,0.2,1.4,0.4,2.1,0.8c0.7,0.4,1.4,0.7,2.1,1.2c0.3,0.2,0.7,0.5,1,0.7l0.9,0.8
						c0.6,0.5,1.2,1.1,1.8,1.7c0.6,0.6,1,1.2,1.5,1.8c0.4,0.6,0.9,1.2,1.2,1.8c0.4,0.6,0.7,1.2,1,1.7c0.5,1.1,0.9,2,1.2,2.7
						c0.2,0.7,0.3,1,0.3,1L480.3,463.7z"/>
				</g>
				<path fill="#1E1A16" d="M465.5,476.5c2.8,0,5.4,0.5,7.6,1.4c0.9-2,1.4-4.3,1.4-6.8c0-7.1-4.1-12.8-9.1-12.8s-9.1,5.7-9.1,12.8
					c0,2.5,0.5,4.9,1.4,6.8C460,477,462.7,476.5,465.5,476.5z"/>
				<path fill="#FFFFFF" d="M465.2,460.7c-0.3-0.1,4,0.6,5.3,5.3C470.5,466,467.6,461.9,465.2,460.7z"/>
			</g>
			<g opacity="0.44">
				<path d="M437.3,485.7c0,0,1.6,1.8,3.7,4.8c1.1,1.5,2.2,3.3,3.4,5.3c1.1,2,2.2,4.3,2.8,6.7c0.3,1.2,0.5,2.5,0.5,3.8
					c0,1.3-0.4,2.7-1.1,3.8c-0.7,1.2-1.8,2-2.8,2.6c-0.5,0.2-1,0.5-1.6,0.7c-0.5,0.2-1,0.3-1.5,0.5c-1,0.2-1.9,0.4-2.6,0.5
					c-0.8,0.1-1.5,0.2-2,0.2c-1.1,0-1.8,0-1.8,0c-0.9,0-1.6-0.7-1.6-1.5c0-0.9,0.7-1.6,1.5-1.6c0,0,0.1,0,0.1,0l0.1,0
					c0,0,0.6,0,1.6,0.1c0.5,0,1.1,0,1.8,0c0.7,0,1.5-0.1,2.3-0.2c0.4-0.1,0.8-0.2,1.2-0.3c0.4-0.1,0.8-0.3,1.2-0.5
					c0.8-0.4,1.6-0.9,2.1-1.7c0.5-0.8,0.9-1.7,1.1-2.8c0.1-1.1,0.1-2.2-0.1-3.4c-0.4-2.3-1.2-4.6-2.2-6.6c-0.9-2.1-2-3.9-2.9-5.5
					C438.8,487.7,437.3,485.7,437.3,485.7z"/>
			</g>
		</g>
		<path d="M416,517c0,0,2.1,9.8,12.4,10c10.1,0.2,25.6,0.9,25.6,0.9s-3.7,1.8-2.1,12.5C451.9,540.3,415.5,552.6,416,517z"/>
		<path fill="#7F2000" d="M423.2,535.2c-0.2-0.2,3.4-4.7,13.1,0c0,0,8.5-1.8,11.7,4C448,539.2,431.9,544.4,423.2,535.2z"/>
		<path d="M410.2,521.9c0,0,3.4-4.9,10.6-6.6C420.8,515.3,413.8,514.2,410.2,521.9z"/>
	</g>
</g>
</svg>
