<?xml version="1.0" encoding="utf-8"?>
<!-- Generator: Adobe Illustrator 18.1.1, SVG Export Plug-In . SVG Version: 6.00 Build 0)  -->
<svg version="1.1" id="Welcome" xmlns="http://www.w3.org/2000/svg" xmlns:xlink="http://www.w3.org/1999/xlink" x="0px" y="0px"
	 viewBox="0 0 2048 1536" enable-background="new 0 0 2048 1536" xml:space="preserve">
<g>
	<g>
		<defs>
			<rect id="SVGID_1_" x="-1" y="-1" width="2048" height="1536"/>
		</defs>
		<clipPath id="SVGID_2_">
			<use xlink:href="#SVGID_1_"  overflow="visible"/>
		</clipPath>
		<g clip-path="url(#SVGID_2_)">
			<g>
				<defs>
					<rect id="SVGID_3_" y="-3" width="2048" height="1536"/>
				</defs>
				<defs>
					<rect id="SVGID_4_" y="-3" width="2048" height="1536"/>
				</defs>
				<defs>
					<rect id="SVGID_5_" y="-3" width="2048" height="1536"/>
				</defs>
				<clipPath id="SVGID_6_">
					<use xlink:href="#SVGID_3_"  overflow="visible"/>
				</clipPath>
				<clipPath id="SVGID_7_" clip-path="url(#SVGID_6_)">
					<use xlink:href="#SVGID_4_"  overflow="visible"/>
				</clipPath>
				<clipPath id="SVGID_8_" clip-path="url(#SVGID_7_)">
					<use xlink:href="#SVGID_5_"  overflow="visible"/>
				</clipPath>
				<rect x="-1307.2" y="1243.4" clip-path="url(#SVGID_8_)" fill="#9AE5D7" width="4442.5" height="461.2"/>
				<g opacity="0.3" clip-path="url(#SVGID_8_)">
					<g>
						<rect x="-84.7" y="234.9" fill="#C9C9C0" width="281.1" height="373.7"/>
						<path fill="#353530" d="M188.7,242.7v358.2H-77V242.7H188.7 M204.1,227.2h-15.5H-77h-15.5v15.5v358.2v15.5H-77h265.7h15.5
							v-15.5V242.7v-15.5H204.1z"/>
					</g>
					<rect x="-56.2" y="266" fill="#FFFFFF" width="224" height="311.5"/>
					<circle fill="#969696" cx="55.8" cy="445.8" r="36.3"/>
					<circle fill="#777777" cx="55.8" cy="445.8" r="28.8"/>
					<path fill="#545454" d="M55.8,474.6c-15.9,0-28.8-12.9-28.8-28.8S39.9,417,55.8,417"/>
					<circle fill="#969696" cx="55.8" cy="526.9" r="36.3"/>
					<circle fill="#777777" cx="55.8" cy="526.9" r="28.8"/>
					<path fill="#545454" d="M55.8,555.7c-15.9,0-28.8-12.9-28.8-28.8c0-15.9,12.9-28.8,28.8-28.8"/>
					<rect x="-36.6" y="296.2" fill="#545454" width="182.5" height="15.1"/>
					<rect x="-36.6" y="320.8" fill="#545454" width="182.5" height="15.1"/>
					<rect x="-36.6" y="349.2" fill="#545454" width="86.8" height="7.6"/>
					<rect x="59.7" y="349.2" fill="#545454" width="86.8" height="7.6"/>
					<rect x="-36.6" y="363.3" fill="#545454" width="86.8" height="7.6"/>
					<rect x="59.7" y="363.3" fill="#545454" width="86.8" height="7.6"/>
					<rect x="-36.6" y="376.4" fill="#545454" width="86.8" height="7.6"/>
					<rect x="-36.6" y="390.5" fill="#545454" width="86.8" height="7.6"/>
					<rect x="59.7" y="376.4" fill="#545454" width="86.8" height="7.6"/>
				</g>
				<rect x="-1" y="-1" clip-path="url(#SVGID_8_)" fill="#F0F7F7" width="2048" height="1536"/>
			</g>
			<g>
				<defs>
					<rect id="SVGID_9_" x="-1" y="-1" width="2048" height="1536"/>
				</defs>
				<clipPath id="SVGID_10_">
					<use xlink:href="#SVGID_9_"  overflow="visible"/>
				</clipPath>
				<g opacity="0.4" clip-path="url(#SVGID_10_)">
					<rect x="1765.7" y="233.8" fill="#E5E5E5" width="497.8" height="645.2"/>
					<circle fill="#A1A5B5" cx="2014.6" cy="531.6" r="182.9"/>
					<rect x="1980.8" y="808.2" fill="#A1A5B5" width="121" height="12.7"/>
					<rect x="1919.2" y="260.4" fill="#A1A5B5" width="190.8" height="29.7"/>
					<rect x="1980.8" y="827.9" fill="#A1A5B5" width="121" height="12.7"/>
					<rect x="1980.8" y="846.4" fill="#A1A5B5" width="121" height="12.7"/>
					<path fill="#81848C" d="M2197.3,531.6c0-101-82.3-182.9-182.3-182.9V532l129,129C2177.1,627.9,2197.3,582.1,2197.3,531.6z"/>
				</g>
			</g>
			<g>
				<defs>
					<rect id="SVGID_11_" x="-1" y="-1" width="2048" height="1536"/>
				</defs>
				<clipPath id="SVGID_12_">
					<use xlink:href="#SVGID_11_"  overflow="visible"/>
				</clipPath>
				<rect x="-1308.2" y="1245.4" clip-path="url(#SVGID_12_)" fill="#9AE5D7" width="4442.5" height="290.6"/>
			</g>
			<g>
				<defs>
					<rect id="SVGID_13_" x="-1" y="-1" width="2048" height="1536"/>
				</defs>
				<clipPath id="SVGID_14_">
					<use xlink:href="#SVGID_13_"  overflow="visible"/>
				</clipPath>
				<g opacity="0.3" clip-path="url(#SVGID_14_)">
					<g>
						<rect x="-47.9" y="205.9" fill="#C9C9C0" width="348.6" height="463.4"/>
						<path fill="#353530" d="M291.2,215.5v444.2H-38.3V215.5H291.2 M310.3,196.4h-19.2H-38.3h-19.2v19.2v444.2V679h19.2h329.4h19.2
							v-19.2V215.5L310.3,196.4L310.3,196.4z"/>
					</g>
					<rect x="-12.5" y="244.5" fill="#FFFFFF" width="277.8" height="386.3"/>
					<circle fill="#969696" cx="126.4" cy="467.4" r="45"/>
					<circle fill="#777777" cx="126.4" cy="467.4" r="35.7"/>
					<path fill="#545454" d="M126.4,503.1c-19.7,0-35.7-16-35.7-35.7s16-35.7,35.7-35.7"/>
					<circle fill="#969696" cx="126.4" cy="568" r="45"/>
					<circle fill="#777777" cx="126.4" cy="568" r="35.7"/>
					<path fill="#545454" d="M126.4,603.7c-19.7,0-35.7-16-35.7-35.7s16-35.7,35.7-35.7"/>
					<rect x="11.9" y="281.9" fill="#545454" width="226.4" height="18.7"/>
					<rect x="11.9" y="312.4" fill="#545454" width="226.4" height="18.7"/>
					<rect x="11.9" y="347.6" fill="#545454" width="107.7" height="9.4"/>
					<rect x="131.2" y="347.6" fill="#545454" width="107.7" height="9.4"/>
					<rect x="11.9" y="365.1" fill="#545454" width="107.7" height="9.4"/>
					<rect x="131.2" y="365.1" fill="#545454" width="107.7" height="9.4"/>
					<rect x="11.9" y="381.4" fill="#545454" width="107.7" height="9.4"/>
					<rect x="11.9" y="398.9" fill="#545454" width="107.7" height="9.4"/>
					<rect x="131.2" y="381.4" fill="#545454" width="107.7" height="9.4"/>
				</g>
			</g>
			<g>
				<defs>
					<rect id="SVGID_15_" x="-1" y="-1" width="2048" height="1536"/>
				</defs>
				<clipPath id="SVGID_16_">
					<use xlink:href="#SVGID_15_"  overflow="visible"/>
				</clipPath>
				<g opacity="0.3" clip-path="url(#SVGID_16_)">
					<g>
						<rect x="357.9" y="202.4" fill="#C9C9C0" width="351.2" height="466.9"/>
						<g>
							<path fill="#353530" d="M699.6,212v447.7H367.5V212H699.6 M718.8,192.8h-19.2H367.5h-19.2V212v447.7v19.2h19.2h332.1h19.2
								v-19.2V212V192.8L718.8,192.8z"/>
						</g>
					</g>
					<rect x="393.5" y="241.2" fill="#FFFFFF" width="280" height="389.4"/>
					<circle fill="#969696" cx="533.5" cy="404.5" r="61.3"/>
					<path fill="#777777" d="M533.1,465.9c-17.3,0-32.7-7.2-43.8-18.7l-5.8,96.7l49.5,12.7L533.1,465.9
						C533,465.9,533.2,465.9,533.1,465.9z"/>
					<path fill="#545454" d="M533.8,465.9l-0.2,90.7l49.7-13l-5.5-96.4C566.6,458.6,551,465.8,533.8,465.9z"/>
					<circle fill="#777777" cx="533.5" cy="404.5" r="48.7"/>
					<path fill="#545454" d="M533.5,453.2c-26.9,0-48.7-21.8-48.7-48.7c0-26.9,21.8-48.7,48.7-48.7"/>
					<rect x="417.9" y="603.1" fill="#545454" width="108.5" height="9.5"/>
				</g>
			</g>
		</g>
		<circle clip-path="url(#SVGID_2_)" fill="#2BA3BF" cx="1024.1" cy="494.9" r="29.7"/>
		<circle clip-path="url(#SVGID_2_)" fill="#2BA3BF" cx="1024.1" cy="766.6" r="29.7"/>
		<circle clip-path="url(#SVGID_2_)" fill="#2BA3BF" cx="1024.1" cy="586.9" r="29.7"/>
		<circle clip-path="url(#SVGID_2_)" fill="#2BA3BF" cx="1024.1" cy="676.4" r="29.7"/>
		<g id="Layer_3" clip-path="url(#SVGID_2_)">
			<ellipse fill="#8ED6C8" cx="798.9" cy="1412.9" rx="187.5" ry="17.9"/>
			<rect x="671.2" y="1332.8" fill="#BCBCBC" width="40.7" height="52.9"/>
			<g>
				
					<rect x="667.8" y="1399.8" transform="matrix(0.9974 7.168338e-02 -7.168338e-02 0.9974 102.3404 -48.7029)" fill="#EAEAEA" width="123.9" height="3.4"/>
				
					<rect x="658.4" y="1396.1" transform="matrix(0.9974 7.168338e-02 -7.168338e-02 0.9974 102.123 -45.12)" fill="#EAEAEA" width="42.6" height="8.2"/>
				<path fill="#EAEAEA" d="M681.8,1383.7l34.9,2.5c2.9,0.2,5.1,2.7,4.9,5.6l-0.7,10.2c-0.2,2.9-2.7,5.1-5.6,4.9l-34.9-2.5
					c-2.9-0.2-5.1-2.7-4.9-5.6l0.7-10.2C676.3,1385.7,678.9,1383.5,681.8,1383.7z"/>
				<path fill="#FFFFFF" d="M791.7,1404.2c0,0-10.5-32.6-65.1-36.5s-67.9,27-67.9,27L791.7,1404.2z"/>
			</g>
			<rect x="807.5" y="1332.8" fill="#BCBCBC" width="40.7" height="52.9"/>
			<rect x="664.3" y="1016.5" fill="#1E6A77" width="54.6" height="331.8"/>
			<rect x="664.3" y="1016.5" opacity="0.1" enable-background="new    " width="27.3" height="331.8"/>
			<rect x="800.5" y="1016.5" fill="#1E6A77" width="54.6" height="331.8"/>
			<rect x="800.5" y="1016.5" opacity="0.1" enable-background="new    " width="27.3" height="331.8"/>
			<g>
				
					<rect x="803.7" y="1399.8" transform="matrix(0.9974 7.168338e-02 -7.168338e-02 0.9974 102.69 -58.4451)" fill="#EAEAEA" width="123.9" height="3.4"/>
				
					<rect x="794.3" y="1396.1" transform="matrix(0.9974 7.168338e-02 -7.168338e-02 0.9974 102.4727 -54.8621)" fill="#EAEAEA" width="42.6" height="8.2"/>
				<path fill="#EAEAEA" d="M817.7,1383.7l34.9,2.5c2.9,0.2,5.1,2.7,4.9,5.6l-0.7,10.2c-0.2,2.9-2.7,5.1-5.6,4.9l-34.9-2.5
					c-2.9-0.2-5.1-2.7-4.9-5.6l0.7-10.2C812.2,1385.7,814.8,1383.5,817.7,1383.7z"/>
				<path fill="#FFFFFF" d="M927.6,1404.2c0,0-10.5-32.6-65.1-36.5s-67.9,27-67.9,27L927.6,1404.2z"/>
			</g>
			<path fill="#C1AE9D" d="M847,989.8h17c4.5,0,8.2-3.7,8.2-8.2V693.3c0-4.5-3.7-8.2-8.2-8.2h-17c-4.5,0-8.2,3.7-8.2,8.2v288.2
				C838.8,986.1,842.5,989.8,847,989.8z"/>
			<path fill="#C1AE9D" d="M868.6,953.7h-20.1c-5.4,0-9.8,4.4-9.8,9.8v48.6c0,5.4,4.4,9.8,9.8,9.8h20.1c5.4,0,9.8-4.4,9.8-9.8v-48.6
				C878.4,958.1,874,953.7,868.6,953.7z"/>
			<path fill="#C1AE9D" d="M881.3,951h-9.2c-2.5,0-4.5,2-4.5,4.5v9.2c0,2.5,2,4.5,4.5,4.5h9.2c2.5,0,4.5-2,4.5-4.5v-9.2
				C885.8,953,883.8,951,881.3,951z"/>
			<path fill="#2BA3BF" d="M853.4,640h4.1c13.4,0,24.6,11.5,24.6,24.8v41.5l0,0V736h-53v-29.7l0,0v-41.5
				C829,651.5,840,640,853.4,640z"/>
			<path fill="#1E6A77" d="M881.2,739.4h-47.7c-1.3,0-2.3-1-2.3-2.3v-3.5c0-1.3,1-2.3,2.3-2.3h47.7c1.3,0,2.3,1,2.3,2.3v3.5
				C883.5,738.4,882.4,739.4,881.2,739.4z"/>
			<path fill="#231A13" d="M657,640.5V653h194.7c0,0-14.6-72.4-12.8-101.8S689,538.6,689,538.6L657,640.5z"/>
			<path opacity="0.1" fill="#FFFFFF" enable-background="new    " d="M830,568.9c-1.2,20.2,5.3,61.1,9.5,84.1h12.2
				c0,0-14.6-72.4-12.8-101.8c1.8-29.3-150.4-12.6-150.4-12.6l-5.5,17.3C704.9,553.7,831.6,542.1,830,568.9z"/>
			<polygon fill="#C1AE9D" points="799.6,639.1 726.7,639.1 731.2,562.9 795,562.9 			"/>
			<polygon opacity="0.1" fill="#443E3B" enable-background="new    " points="799.6,639.1 726.7,639.1 731.2,562.9 795,562.9 			
				"/>
			<path fill="#C1AE9D" d="M659.2,653.6c15.2-34.1,79.1-34.6,79.1-34.6h2.8h42.7h2.8c0,0,63.9,0.5,79.1,34.6
				c15.2,34.1-85.4,123.3-85.4,123.3L755,814.6l-20-7l-40.6,4.5C694.4,812.1,644.1,687.7,659.2,653.6z"/>
			<path fill="#2BA3BF" d="M665.9,727c0,0-0.2,195.9,0.7,156.5c0.5-23.6-10.2-222.9-7.2-229.7c8.2-18.6,30.8-27.1,49.8-31l53.1,81.3
				l54.2-81.2c18.8,4,41.1,12.5,49.3,30.9c15.2,34.1,4,73.2,4,73.2H665.9z"/>
			<rect x="648.6" y="719" fill="#2BA3BF" width="210.9" height="322.1"/>
			<g opacity="5.000000e-02">
				<path d="M762,704.1l-53-81.3c-19,3.9-41.5,12-49.7,30.5c-1.1,2.5-0.3,29.7,1,64.7H649v323h113V704.1z"/>
			</g>
			<g>
				<g>
					<defs>
						<path id="SVGID_17_" d="M659.2,653.6c15.2-34.1,79.1-34.6,79.1-34.6h2.8h42.7h2.8c0,0,63.9,0.5,79.1,34.6
							c15.2,34.1-85.4,123.3-85.4,123.3L755,814.6l-20-7l-40.6,4.5C694.4,812.1,644.1,687.7,659.2,653.6z"/>
					</defs>
					<clipPath id="SVGID_18_">
						<use xlink:href="#SVGID_17_"  overflow="visible"/>
					</clipPath>
					<polyline clip-path="url(#SVGID_18_)" fill="none" stroke="#1E6A77" stroke-width="12.3546" stroke-miterlimit="10" points="
						706.8,619.4 762.3,704.1 818.9,619.4 					"/>
				</g>
			</g>
			<g>
				<g>
					<g>
						<defs>
							<polygon id="SVGID_19_" points="798.7,611.8 799.5,625.2 821,631.4 794.5,678.1 790,717 790,739.4 810.8,739.1 829.3,657.4 
								839,633.8 830.7,611.4 							"/>
						</defs>
						<clipPath id="SVGID_20_">
							<use xlink:href="#SVGID_19_"  overflow="visible"/>
						</clipPath>
						<path clip-path="url(#SVGID_20_)" fill="none" stroke="#09234C" stroke-width="7.0598" stroke-miterlimit="10" d="
							M800.8,738.2c0,0-3.4-51.2,24-93.5c10.8-16.7,14.4-29.4-60.9-29.4"/>
					</g>
				</g>
				<g>
					<path fill="none" stroke="#7C7C7C" stroke-width="3.2281" stroke-miterlimit="10" d="M800.4,739.1c0,0-33.9,6.9-33.9,43.2
						s56.9,96.8,56.9,96.8"/>
					<path fill="none" stroke="#7C7C7C" stroke-width="3.2281" stroke-miterlimit="10" d="M800.8,739.1c0,0,33.9,6.9,33.9,43.2
						s-56.9,96.8-56.9,96.8"/>
					<ellipse fill="#7C7C7C" cx="800.4" cy="738.4" rx="5" ry="2.3"/>
					<ellipse fill="#7C7C7C" cx="800.4" cy="734.9" rx="5" ry="2.3"/>
					<circle fill="#FFFFFF" stroke="#7C7C7C" stroke-width="1.6141" stroke-miterlimit="10" cx="823" cy="879.6" r="4.2"/>
					<circle fill="#FFFFFF" stroke="#7C7C7C" stroke-width="1.6141" stroke-miterlimit="10" cx="777.8" cy="879.6" r="4.2"/>
					<rect x="795.4" y="734.9" fill="#7C7C7C" width="10" height="7.5"/>
					<ellipse fill="#666666" cx="800.4" cy="740.8" rx="7.9" ry="4.2"/>
				</g>
			</g>
			<g>
				<g>
					<g>
						<defs>
							<polygon id="SVGID_21_" points="727.4,611.8 726.6,625.2 705.1,631.4 732,678.1 737,717 737,811.7 715.8,811.5 697.1,657.4 
								687.2,633.8 695.5,611.4 							"/>
						</defs>
						<clipPath id="SVGID_22_">
							<use xlink:href="#SVGID_21_"  overflow="visible"/>
						</clipPath>
						<path clip-path="url(#SVGID_22_)" fill="none" stroke="#09234C" stroke-width="7.0598" stroke-miterlimit="10" d="
							M722.7,809.2c0,0,22.9-105.1-21.4-164.5c-11.9-15.9-14.4-29.4,60.9-29.4"/>
					</g>
				</g>
			</g>
			<g>
				
					<ellipse transform="matrix(-0.208 0.9781 -0.9781 -0.208 1692.2903 280.1659)" fill="#B2B2B2" cx="732.7" cy="825.2" rx="13.9" ry="5.5"/>
				
					<ellipse transform="matrix(-0.208 0.9781 -0.9781 -0.208 1687.7766 282.4986)" fill="#B2B2B2" cx="729.5" cy="824.5" rx="12.3" ry="4.8"/>
				
					<ellipse transform="matrix(-0.208 0.9781 -0.9781 -0.208 1671.0627 290.845)" fill="#B2B2B2" cx="717.8" cy="822" rx="7.4" ry="2.9"/>
				
					<ellipse transform="matrix(-0.208 0.9781 -0.9781 -0.208 1684.2577 284.2407)" fill="#B2B2B2" cx="727.1" cy="824" rx="10.9" ry="6.8"/>
				
					<rect x="719.9" y="808.2" transform="matrix(-0.9781 -0.208 0.208 -0.9781 1261.1069 1762.698)" fill="#7C7C7C" width="6.6" height="13.6"/>
				
					<ellipse transform="matrix(-0.9781 -0.208 0.208 -0.9781 1264.9596 1750.5171)" fill="#7C7C7C" cx="724.5" cy="808.8" rx="4.6" ry="1.6"/>
				
					<ellipse transform="matrix(-0.208 0.9781 -0.9781 -0.208 1692.2903 280.1659)" fill="#7C7C7C" cx="732.7" cy="825.2" rx="10.9" ry="4.3"/>
				<polygon fill="#B2B2B2" points="719.5,814.8 727.1,813.4 722.8,833.6 716.3,829.1 				"/>
			</g>
			<circle fill="#84705B" cx="773.7" cy="499.9" r="97.1"/>
			<circle fill="#84705B" cx="773.7" cy="499.9" r="97.1"/>
			<g>
				<path fill="#C1AE9D" d="M721.8,902.6l-6.5,6.6c-1.7,1.8-1.7,4.6,0,6.4l6.6,6.5c1.8,1.7,4.6,1.7,6.4,0l6.5-6.6
					c1.7-1.8,1.7-4.6,0-6.4l-6.6-6.5C726.4,900.8,723.5,900.8,721.8,902.6z"/>
				<g>
					
						<rect x="770.8" y="865.4" transform="matrix(-0.8916 -0.4528 0.4528 -0.8916 1132.3309 2024.795)" fill="#A5A5A5" width="75.4" height="23"/>
					
						<rect x="781.5" y="871.3" transform="matrix(-0.8916 -0.4528 0.4528 -0.8916 1133.7476 2023.3633)" fill="#838484" width="55" height="9.4"/>
					<path fill="#C6C6C6" d="M837.9,866.8l-8.6-4.4l0.1-0.2c3.6-7,1.7-15.2-4.1-18.2s-13.5,0.4-17.1,7.4l-0.1,0.2l-8.8-4.4l-6,4.1
						l-7.7,15.3l45,22.8l7.7-15.3L837.9,866.8z M815.3,863.7c-3.2-1.6-4.2-6.1-2.3-9.9c2-3.9,6.1-5.7,9.3-4s4.2,6.1,2.3,9.9
						C822.7,863.5,818.5,865.3,815.3,863.7z"/>
					
						<rect x="715.7" y="856" transform="matrix(-0.8916 -0.4528 0.4528 -0.8916 1022.9298 2153.4033)" fill="#998A77" width="107" height="196.6"/>
				</g>
				<path fill="#C1AE9D" d="M716.8,915.5l-15.5,15.7c-3.8,3.8-3.7,10,0.1,13.8l29.9,29.5c3.8,3.8,10,3.7,13.8-0.1l15.5-15.7
					c3.8-3.8,3.7-10-0.1-13.8l-29.9-29.5C726.8,911.6,720.5,911.7,716.8,915.5z"/>
				<path fill="#C1AE9D" d="M723,944.1l8.4-10.6c2.8-3.5,2.3-8.8-1.3-11.6l-66.5-53.2c-3.5-2.8-8.8-2.3-11.6,1.3l-8.4,10.6
					c-2.8,3.5-2.3,8.8,1.3,11.6l66.5,53.2C714.9,948.2,720.1,947.7,723,944.1z"/>
				<path fill="#C1AE9D" d="M648.9,892.2h17c4.5,0,8.2-3.7,8.2-8.2V667.7c0-4.5-3.7-8.2-8.2-8.2h-17c-4.5,0-8.2,3.7-8.2,8.2V884
					C640.6,888.5,644.3,892.2,648.9,892.2z"/>
			</g>
			<path fill="#278FAF" d="M763.3,704.1"/>
			<path fill="#2BA3BF" d="M655.7,640h4.1c13.4,0,24.2,11.5,24.2,24.8v41.5l0,0V736h-52v-29.7l0,0v-41.5
				C632,651.5,642.3,640,655.7,640z"/>
			<circle fill="#C1AE9D" cx="773.7" cy="499.9" r="97.1"/>
			<path opacity="5.000000e-02" enable-background="new    " d="M801.9,591.7c-53.6,0-97.1-43.5-97.1-97.1
				c0-42.4,27.2-78.5,65.2-91.7c-51.9,1.9-93.4,44.6-93.4,97c0,53.6,43.5,97.1,97.1,97.1c11.2,0,21.9-1.9,31.9-5.4
				C804.4,591.7,803.2,591.7,801.9,591.7z"/>
			<g>
				<g>
					<path d="M758,487.9c0,0,0.1-0.4,0.3-1.1s0.5-1.6,1-2.7c0.2-0.5,0.5-1.1,0.8-1.7s0.7-1.2,1.1-1.9c0.4-0.6,0.9-1.3,1.4-1.9
						s1-1.2,1.6-1.8l0.9-0.8c0.3-0.3,0.6-0.5,1-0.8c0.6-0.5,1.3-0.9,2-1.3s1.4-0.6,2-0.9c0.3-0.1,0.7-0.2,1-0.3
						c0.3-0.1,0.6-0.1,0.9-0.2c0.6-0.1,1.2-0.2,1.6-0.2c0.5,0,0.9,0,1.3,0c0.7,0,1.1,0.1,1.1,0.1v0.2c0,0-0.4,0.2-1,0.4
						c-0.3,0.1-0.7,0.2-1.2,0.4c-0.5,0.1-0.9,0.4-1.5,0.6c-0.5,0.2-1.1,0.4-1.7,0.7c-0.6,0.3-1.2,0.5-1.8,0.9
						c-0.6,0.3-1.3,0.6-1.9,1.1c-0.3,0.2-0.6,0.4-0.9,0.6l-0.9,0.7c-0.6,0.5-1.1,1-1.7,1.5c-0.5,0.5-1,1.1-1.5,1.7
						c-0.4,0.6-0.9,1.1-1.2,1.7c-0.4,0.5-0.7,1.1-1,1.6c-0.6,1-1,1.9-1.3,2.5s-0.4,1-0.4,1L758,487.9z"/>
				</g>
				<path fill="#1E1A16" d="M773.6,499.7c2.8-0.2,5.4,0.2,7.6,0.9c0.7-2,1.1-4.3,1-6.8c-0.4-7-4.8-12.4-9.7-12.1s-8.6,6.2-8.2,13.1
					c0.1,2.5,0.8,4.8,1.8,6.7C768.2,500.5,770.8,499.8,773.6,499.7z"/>
				<path fill="#FFFFFF" d="M772.4,484.2c-0.3-0.1,4,0.3,5.5,4.9C777.9,489.1,774.8,485.2,772.4,484.2z"/>
				<g>
					<g>
						<path d="M847.3,482.6c0,0-0.2-0.4-0.5-0.9c-0.3-0.6-0.9-1.4-1.6-2.4c-0.3-0.5-0.7-1-1.2-1.5c-0.4-0.5-0.9-1-1.4-1.5
							s-1.1-1-1.7-1.5c-0.6-0.5-1.2-0.9-1.8-1.3l-1-0.6c-0.3-0.2-0.7-0.3-1-0.5c-0.7-0.3-1.3-0.6-2-0.8c-0.6-0.3-1.3-0.5-1.9-0.7
							c-0.6-0.2-1.2-0.4-1.8-0.5s-1.1-0.3-1.5-0.4c-0.5-0.1-0.9-0.2-1.2-0.2c-0.7-0.1-1.1-0.3-1.1-0.3v-0.2c0,0,0.4-0.1,1.1-0.2
							c0.4-0.1,0.8-0.1,1.3-0.2s1.1,0,1.7,0c0.3,0,0.6,0,1,0.1c0.3,0,0.7,0.1,1,0.2c0.7,0.2,1.4,0.3,2.1,0.6
							c0.7,0.3,1.5,0.6,2.1,1.1c0.3,0.2,0.7,0.4,1,0.6l1,0.7c0.7,0.5,1.3,1,1.8,1.6c0.6,0.5,1.1,1.1,1.6,1.7s1,1.1,1.3,1.7
							c0.4,0.6,0.7,1.1,1,1.6c0.6,1,1,1.9,1.3,2.6c0.3,0.6,0.4,1,0.4,1L847.3,482.6z"/>
					</g>
					<path fill="#1E1A16" d="M833.5,496.1c2.8-0.2,5.4,0.2,7.6,0.9c0.7-2,1.1-4.3,1-6.8c-0.4-7-4.8-12.4-9.7-12.1s-8.6,6.2-8.2,13.1
						c0.1,2.5,0.8,4.8,1.8,6.7C828.1,496.9,830.7,496.2,833.5,496.1z"/>
					<path fill="#FFFFFF" d="M832.3,480.6c-0.3-0.1,4,0.3,5.5,4.9C837.8,485.5,834.7,481.6,832.3,480.6z"/>
				</g>
				<g opacity="0.44">
					<path d="M806.3,506.8c0,0,1.7,1.7,4,4.5c1.1,1.4,2.4,3.1,3.6,5c1.2,1.9,2.4,4.1,3.2,6.5c0.4,1.2,0.6,2.5,0.7,3.8
						c0,1.3-0.3,2.7-0.9,3.8c-0.6,1.2-1.6,2.1-2.6,2.7c-0.5,0.3-1,0.6-1.5,0.8s-1,0.4-1.4,0.6c-0.9,0.2-1.8,0.5-2.6,0.6
						s-1.4,0.3-2,0.3c-1.1,0.1-1.7,0.2-1.7,0.2c-0.9,0.1-1.6-0.6-1.7-1.4c-0.1-0.9,0.6-1.9,1.4-1.9l0.1-0.2h0.1c0,0,0.6,0.2,1.6,0.2
						c0.5,0,1.1,0.1,1.8,0c0.7,0,1.4-0.1,2.2-0.3c0.4-0.1,0.8-0.2,1.2-0.3s0.8-0.3,1.2-0.5c0.7-0.5,1.5-1,2-1.8s0.8-1.7,0.9-2.8
						c0-1.1-0.1-2.2-0.3-3.3c-0.5-2.2-1.5-4.4-2.5-6.4s-2.2-3.7-3.2-5.2C807.8,508.7,806.3,506.8,806.3,506.8z"/>
				</g>
			</g>
			<g>
				<g>
					<path fill="#1E1A16" d="M825.6,548.4c0,0,0.3,0.3,0.7,0.8s0.9,1.3,1.2,2.1c0.1,0.4,0.3,0.9,0.3,1.3c0,0.2,0,0.4-0.1,0.6
						c0,0.2-0.1,0.4-0.2,0.5c-0.1,0.3-0.3,0.6-0.5,0.7c-0.1,0.2-0.2,0.2-0.2,0.2h-0.1c0,0,0-0.1-0.1-0.3c0-0.1,0-0.2-0.1-0.3
						c0-0.1,0-0.3-0.1-0.4c0-0.3-0.1-0.6-0.1-1c0-0.3,0.1-0.7,0-1.1c-0.1-0.8-0.3-1.6-0.6-2.1C825.7,548.8,825.5,548.4,825.6,548.4
						L825.6,548.4z"/>
				</g>
				<g>
					<path fill="#1E1A16" d="M790.4,551.2c0,0-0.2,0.4-0.3,1s-0.3,1.4-0.2,2.2c0,0.4,0.1,0.8,0.2,1.1c0,0.3,0,0.7,0.1,1
						c0,0.1,0,0.3,0,0.4c0,0.1,0,0.2,0,0.3c0,0.2,0,0.3,0,0.3l-0.1,0.1c0,0-0.1-0.1-0.3-0.2c-0.2-0.1-0.4-0.3-0.6-0.6
						c-0.1-0.1-0.2-0.3-0.3-0.5s-0.1-0.4-0.2-0.6c-0.1-0.4,0-0.9,0.1-1.4c0.1-0.9,0.5-1.7,0.8-2.3s0.6-0.9,0.6-0.9L790.4,551.2z"/>
				</g>
				<g>
					<path fill="#1E1A16" d="M827.1,551.5c0,0-0.5,0.4-1.4,1s-2.2,1.4-3.8,2.2c-0.8,0.4-1.7,0.9-2.7,1.3c-1,0.4-2,0.8-3.1,1.2
						c-0.5,0.2-1.1,0.4-1.7,0.5c-0.6,0.2-1.2,0.3-1.8,0.5c-1.2,0.3-2.4,0.5-3.7,0.6h-0.5h-0.5H807c-0.6,0-1.3,0-1.9,0
						c-1.2,0-2.4-0.2-3.6-0.3c-1.1-0.2-2.2-0.4-3.3-0.6c-1-0.2-2-0.5-2.9-0.8c-3.5-1.1-5.7-2.3-5.7-2.3s2.4,0.4,6,0.8
						c0.9,0.1,1.9,0.2,2.9,0.3s2.1,0.2,3.2,0.3c0.6,0,1.1,0.1,1.7,0.1c0.6,0,1.1,0,1.7,0c0.6,0,1.1,0,1.7,0c0.6,0,1.3-0.1,1.7-0.1
						c1.1-0.1,2.3-0.3,3.4-0.5c1.1-0.2,2.2-0.4,3.3-0.7s2.1-0.5,3.1-0.8s1.9-0.6,2.8-0.8C824.8,552.2,827.1,551.5,827.1,551.5z"/>
				</g>
				<g>
					<path fill="#1E1A16" d="M820.7,560.6c0,0-0.3,0.3-0.8,0.9c-0.6,0.6-1.3,1.4-2.4,2.2c-1,0.9-2.3,1.8-3.8,2.6
						c-0.8,0.4-1.5,0.8-2.4,1.1c-0.4,0.2-0.9,0.3-1.3,0.4c-0.4,0.1-0.9,0.2-1.4,0.3h-0.4h-0.4h-0.7c-0.5,0-0.9-0.1-1.4-0.1
						c-0.9-0.1-1.8-0.3-2.6-0.6c-1.6-0.5-3.1-1.2-4.2-1.9c-1.2-0.7-2.1-1.3-2.7-1.8c-0.6-0.5-1-0.8-1-0.8s0.4,0.2,1.1,0.6
						c0.7,0.4,1.7,0.8,2.9,1.3s2.7,1,4.2,1.4c0.8,0.2,1.6,0.3,2.4,0.5c0.4,0,0.8,0.1,1.2,0.1h0.7h0.3h0.3c0.4,0,0.8-0.1,1.2-0.2
						c0.4-0.1,0.8-0.2,1.2-0.4c0.8-0.3,1.6-0.6,2.3-0.9c1.5-0.7,2.8-1.5,3.9-2.2c1.1-0.7,2-1.3,2.6-1.8
						C820.4,560.8,820.7,560.6,820.7,560.6z"/>
				</g>
			</g>
			<path fill="#1E6A77" d="M685,739.4h-54.9c-1.3,0-2.3-1-2.3-2.3v-3.5c0-1.3,1-2.3,2.3-2.3H685c1.3,0,2.3,1,2.3,2.3v3.5
				C687.3,738.4,686.3,739.4,685,739.4z"/>
			<path fill="#231A13" d="M748.9,399.5c0,0-24.7-0.3-50.6,14.9c-25.8,15.2-46.1,40.7-32,90.8s-10.7,135.3-10.7,135.3
				S715.4,503.1,722,452C749.6,438.9,755.8,410.2,748.9,399.5z"/>
			<path fill="#231A13" d="M772.3,423.7c0,0,2.5,11.2,15.8,17.3c13.4,6.2,20.3,6.2,20.3,6.2s-20.8-9.9-24.5-19.4
				c13.1,9.3,38.8,17.8,46.9,17.7c8.2-0.2,33.2,19.6,33.2,19.6v-27.4l-112.5-38.2l-33.4,38.4v27.2c0,0,19.5-16.6,21.5-22.9
				C741.6,435.9,752.8,441.6,772.3,423.7z"/>
			<path fill="#231A13" d="M740.9,400.1c0,0,13.3-18.4,50.2-14.7c36.9,3.7,65.9,27,72.9,52.3c7.1,25.4,0,27.4,0,27.4L823.9,425
				L740.9,400.1z"/>
			<path opacity="0.1" fill="#FFFFFF" enable-background="new    " d="M864,437.7c-7.1-25.4-36.1-48.6-72.9-52.3
				c-24.9-2.5-39.1,5.1-45.6,10.2c7.8-4.4,20.8-8.7,40.3-6.7c36.9,3.7,65.9,27,72.9,52.3c3.1,11,3.5,17.6,3,21.6l2.3,2.3
				C864,465.1,871.1,463.1,864,437.7z"/>
			<path opacity="0.1" fill="#FFFFFF" enable-background="new    " d="M710.2,462.8c0.3,15.3-54.5,177.7-54.5,177.7
				S708,520.3,720.2,463C714.7,458.5,710.1,456.5,710.2,462.8z"/>
		</g>
		<g id="Layer_2" clip-path="url(#SVGID_2_)">
			<ellipse fill="#8ED6C8" cx="417.9" cy="1404.9" rx="187.5" ry="17.9"/>
			<rect x="305.4" y="1329.8" fill="#BCBCBC" width="41.2" height="53.7"/>
			<path fill="#84705B" d="M492.5,881.8h13c4.5,0,8.2-3.7,8.2-8.2V675.8c0-4.5-3.7-8.2-8.2-8.2h-13c-4.5,0-8.2,3.7-8.2,8.2v197.7
				C484.2,878,487.9,881.8,492.5,881.8z"/>
			<path fill="#E0D0BA" d="M545.5,895.2l-9.6,12c-3.4,4.2-2.7,10.4,1.5,13.7l25.2,20.2c4.2,3.4,10.4,2.7,13.7-1.5l9.6-12
				c3.4-4.2,2.7-10.4-1.5-13.7l-25.2-20.2C555,890.3,548.9,891,545.5,895.2z"/>
			<path fill="#84705B" d="M561.6,929.1l11.4-14.3c2.8-3.5,2.3-8.8-1.3-11.6L505.2,850c-3.5-2.8-8.8-2.3-11.6,1.3l-11.4,14.3
				c-2.8,3.5-2.3,8.8,1.3,11.6l66.5,53.2C553.5,933.2,558.7,932.7,561.6,929.1z"/>
			<g>
				
					<rect x="301.9" y="1397.6" transform="matrix(0.9974 7.168338e-02 -7.168338e-02 0.9974 101.2497 -22.5414)" fill="#EAEAEA" width="125.6" height="3.5"/>
				
					<rect x="292.3" y="1394" transform="matrix(0.9974 7.168338e-02 -7.168338e-02 0.9974 101.0352 -18.9078)" fill="#EAEAEA" width="43.2" height="8.3"/>
				<path fill="#EAEAEA" d="M316,1381.4l35.5,2.5c2.9,0.2,5.1,2.7,4.9,5.6l-0.8,10.5c-0.2,2.9-2.7,5.1-5.6,4.9l-35.5-2.5
					c-2.9-0.2-5.1-2.7-4.9-5.6l0.8-10.5C310.6,1383.4,313.1,1381.2,316,1381.4z"/>
				<path fill="#FFFFFF" d="M427.4,1402.2c0,0-10.6-33-65.9-37s-68.8,27.3-68.8,27.3L427.4,1402.2z"/>
			</g>
			<rect x="443.5" y="1329.8" fill="#BCBCBC" width="41.2" height="53.7"/>
			<rect x="298.3" y="1009.2" fill="#1E6A77" width="55.3" height="336.3"/>
			<rect x="298.3" y="1009.2" opacity="0.1" enable-background="new    " width="27.6" height="336.3"/>
			<rect x="436.4" y="1009.2" fill="#1E6A77" width="55.3" height="336.3"/>
			<rect x="436.4" y="1009.2" opacity="0.1" enable-background="new    " width="27.6" height="336.3"/>
			<polygon fill="#C1AE9D" points="432.6,626.8 358.8,626.8 363.4,549.5 428,549.5 			"/>
			<polygon fill="#756454" points="432.6,626.8 358.8,626.8 363.4,549.5 428,549.5 			"/>
			<path fill="#2BA3BF" d="M496.4,628h3.6c11.8,0,22,9.9,22,21.7v36.7l0,0V734h-46v-47.7l0,0v-36.7C476,637.9,484.6,628,496.4,628z"
				/>
			<path fill="#1E6A77" d="M522.9,735.6h-48.5c-1.3,0-2.3-1-2.3-2.3v-3.6c0-1.3,1-2.3,2.3-2.3h48.5c1.3,0,2.3,1,2.3,2.3v3.6
				C525.1,734.6,524.1,735.6,522.9,735.6z"/>
			<path fill="#84705B" d="M291.5,641.8c15.4-34.6,80.2-34.8,80.2-34.8h2.8h43.3h2.8c0,0,64.8,0.2,80.2,34.8s-86.6,124.8-86.6,124.8
				l-25.6,38.1l-20.3-7.2l-41.1,4.7C327.1,802.2,276.1,676.3,291.5,641.8z"/>
			<g>
				<ellipse fill="#84705B" cx="406" cy="487.5" rx="89.4" ry="98.4"/>
				<path opacity="0.7" fill="#756454" enable-background="new    " d="M338.2,473.8c0-27.4,8.9-52.5,23.8-71.9
					c-27.1,16.9-45.4,48.9-45.4,85.6c0,54.3,40,98.4,89.4,98.4c5.6,0,11.2-0.6,16.5-1.7C374.6,575,338.2,529.1,338.2,473.8z"/>
				<path fill="#AAAAAA" d="M354.7,470.4c0,0-1.5-30.5-29.2-25.9c-11.8,1.9-23.1,48.7-15.4,65.5c5.6,12.4,25.4,38.1,25.4,38.1
					l-2.8-63.7c0,0,10.6-12,16.3,2.1C354.8,500.7,362.8,494.9,354.7,470.4z"/>
				<g opacity="0.3">
					<path fill="#F4F4F4" d="M354.7,470.4c0,0-1.5-30.5-29.2-25.9c-1.1,0.2-2.1,0.7-3.2,1.6c26-3,27.4,26.1,27.4,26.1
						c3.3,10.1,3.9,17.1,3.1,20.7C357.5,497.3,361,489.6,354.7,470.4z"/>
				</g>
				<ellipse fill="#84705B" cx="340.1" cy="497.6" rx="12.7" ry="20.9"/>
				<g>
					<path fill="#BABABA" d="M373.9,408.2c0,0,1.2-2.7,3.9-6.1c0.7-0.9,1.5-1.8,2.3-2.7c0.9-0.9,1.8-1.8,2.9-2.7
						c1.1-0.9,2.2-1.7,3.4-2.5c1.2-0.8,2.5-1.5,3.8-2.2s2.6-1.3,4-1.8c1.3-0.5,2.7-0.9,4-1.2c0.7-0.2,1.3-0.3,2-0.4s1.3-0.2,1.9-0.2
						c1.2-0.1,2.4-0.1,3.5-0.1c0.5,0,1.1,0,1.6,0.1s1,0.1,1.4,0.2c0.9,0.2,1.6,0.3,2.2,0.4c1.2,0.3,1.9,0.5,1.9,0.5v0.2
						c0,0-0.7-0.1-1.9-0.4c-0.6-0.1-1.4-0.2-2.2-0.3c-0.4,0-0.9,0-1.4-0.1c-0.5,0-1,0-1.5,0c-1.1,0-2.2,0.1-3.4,0.3
						c-0.6,0.1-1.2,0.2-1.8,0.3c-0.6,0.2-1.3,0.3-1.9,0.5c-1.3,0.4-2.6,0.8-3.8,1.4c-1.3,0.5-2.5,1.2-3.8,1.9
						c-1.2,0.7-2.4,1.5-3.5,2.3s-2.2,1.7-3.2,2.6c-1,0.8-2,1.7-2.9,2.5s-1.7,1.6-2.5,2.4c-3,3-4.8,5.2-4.8,5.2L373.9,408.2z"/>
				</g>
				<g>
					<path fill="#BABABA" d="M380.4,408.2c0,0,0.7-2.5,2.7-5.8c1-1.6,2.3-3.5,4-5.2c0.9-0.9,1.8-1.7,2.8-2.5s2.1-1.5,3.2-2.2
						s2.3-1.2,3.4-1.8c0.6-0.3,1.2-0.5,1.7-0.7c0.6-0.2,1.2-0.4,1.8-0.5c1.2-0.3,2.3-0.5,3.4-0.7c0.5,0,1.1-0.1,1.6-0.1s1,0,1.5,0
						c1,0,1.8,0.1,2.6,0.1c0.8,0.1,1.4,0.2,2,0.3c1.1,0.2,1.7,0.3,1.7,0.3v0.2c0,0-0.6-0.1-1.7-0.2c-0.5-0.1-1.2-0.1-2-0.1
						s-1.6,0-2.5,0.1c-0.5,0-0.9,0.1-1.4,0.1c-0.5,0.1-1,0.2-1.5,0.3c-0.5,0.1-1,0.2-1.6,0.4c-0.5,0.1-1.1,0.3-1.6,0.5
						s-1.1,0.4-1.6,0.6s-1.1,0.5-1.6,0.7c-1.1,0.6-2.1,1.2-3.2,1.9c-1,0.7-2,1.5-2.9,2.2c-0.9,0.8-1.8,1.6-2.5,2.5
						c-0.8,0.8-1.6,1.6-2.3,2.4c-0.7,0.8-1.3,1.6-1.9,2.3c-2.3,2.9-3.7,5-3.7,5L380.4,408.2z"/>
				</g>
				<g>
					<path fill="#BABABA" d="M385.3,408.2c0,0,0.1-0.6,0.4-1.5c0.3-1,0.7-2.3,1.5-3.8c0.4-0.8,0.8-1.6,1.4-2.4
						c0.5-0.8,1.1-1.7,1.8-2.5c0.7-0.8,1.5-1.6,2.4-2.4c0.9-0.7,1.8-1.5,2.7-2.1c0.9-0.7,1.9-1.2,2.9-1.7s2-0.9,3.1-1.3
						c1-0.3,2-0.6,3-0.8c1-0.2,1.9-0.3,2.7-0.4c0.8,0,1.6-0.1,2.3-0.1c0.7,0,1.3,0,1.8,0.1c1,0.1,1.5,0.2,1.5,0.2v0.2
						c0,0-0.6,0-1.5,0c-0.5,0-1.1,0-1.8,0.1c-0.7,0-1.4,0.1-2.3,0.2c-0.8,0.1-1.7,0.3-2.6,0.6c-0.9,0.2-1.9,0.5-2.8,0.9
						c-1,0.4-1.9,0.9-2.8,1.4s-1.8,1.1-2.7,1.8c-0.9,0.7-1.7,1.4-2.4,2.2c-0.7,0.8-1.4,1.5-2.1,2.3c-1.3,1.5-2.5,3.1-3.4,4.4
						c-1.9,2.7-2.9,4.7-2.9,4.7L385.3,408.2z"/>
				</g>
				<g>
					<path fill="#BABABA" d="M367.4,408.1c0,0,0.4-0.7,1.2-1.9c0.8-1.2,2.1-2.8,3.8-4.6c0.8-0.9,1.8-1.8,2.9-2.8
						c1.1-0.9,2.2-1.9,3.5-2.8s2.6-1.7,4-2.5s2.9-1.5,4.4-2.1c1.5-0.7,3.1-1.2,4.6-1.7c0.8-0.2,1.6-0.4,2.3-0.6
						c0.8-0.2,1.5-0.3,2.3-0.5c0.8-0.1,1.5-0.2,2.2-0.3c0.7-0.1,1.5-0.1,2.2-0.2c0.7,0,1.4,0,2,0c0.7,0,1.3,0,1.9,0.1
						c1.2,0.1,2.3,0.2,3.3,0.3c1,0.2,1.8,0.3,2.5,0.4c1.4,0.3,2.2,0.5,2.2,0.5v0.2c0,0-0.8-0.1-2.2-0.4c-0.7-0.1-1.6-0.2-2.5-0.3
						c-1-0.1-2.1-0.1-3.3-0.1c-0.6,0-1.2,0-1.9,0c-0.6,0.1-1.3,0.1-2,0.2s-1.4,0.2-2.1,0.3c-0.7,0.1-1.4,0.3-2.2,0.4
						c-0.7,0.2-1.5,0.4-2.2,0.5c-0.7,0.2-1.5,0.5-2.2,0.7c-1.5,0.5-3,1.1-4.4,1.8c-1.4,0.7-2.8,1.5-4.2,2.3
						c-1.3,0.8-2.6,1.7-3.8,2.6c-1.2,0.8-2.4,1.8-3.4,2.6c-1.1,0.9-2.1,1.7-3,2.5c-3.6,3.2-5.8,5.5-5.8,5.5L367.4,408.1z"/>
				</g>
				<g>
					<path fill="#BABABA" d="M362.5,408.2c0,0,0.4-0.8,1.3-2.1c0.4-0.7,1-1.4,1.7-2.3c0.7-0.8,1.5-1.8,2.4-2.8s2-2,3.2-3
						s2.5-2,3.9-2.9s2.9-1.8,4.5-2.6c1.6-0.8,3.3-1.5,5-2.1s3.4-1.1,5.2-1.5c0.4-0.1,0.9-0.2,1.3-0.3c0.4-0.1,0.9-0.2,1.3-0.2
						c0.9-0.2,1.7-0.3,2.5-0.4s1.7-0.2,2.5-0.2c0.4,0,0.8,0,1.2-0.1c0.4,0,0.8,0,1.2,0c1.5,0,3,0.1,4.3,0.2c1.3,0.2,2.6,0.3,3.6,0.5
						c1.1,0.2,2,0.3,2.8,0.5c1.5,0.4,2.4,0.6,2.4,0.6v0.2c0,0-0.9-0.2-2.4-0.4c-0.8-0.2-1.7-0.2-2.8-0.4c-1.1-0.2-2.3-0.2-3.6-0.3
						c-1.3,0-2.8-0.1-4.3,0c-0.8,0-1.5,0.1-2.3,0.2s-1.6,0.2-2.4,0.3c-0.8,0.1-1.6,0.3-2.5,0.4c-0.4,0.1-0.8,0.2-1.2,0.3
						c-0.4,0.1-0.8,0.2-1.2,0.3c-1.7,0.4-3.3,1-4.9,1.7s-3.2,1.4-4.7,2.3c-1.5,0.8-2.9,1.7-4.3,2.6c-2.7,1.8-5.1,3.7-7.1,5.4
						c-1,0.9-1.9,1.7-2.7,2.4c-0.8,0.8-1.4,1.4-2,2c-1.1,1.1-1.6,1.8-1.6,1.8L362.5,408.2z"/>
				</g>
			</g>
			<path fill="#2BA3BF" d="M298.2,716c0,0-0.2,198.5,0.7,158.5c0.5-23.9-10.4-225.9-7.3-232.9c8.4-18.8,31.2-27.5,50.5-31.5
				l53.8,82.4l54.9-82.3c19.1,4,41.7,12.8,50,31.4c15.4,34.6,4,74.3,4,74.3L298.2,716L298.2,716z"/>
			<rect x="280.7" y="707.7" fill="#2BA3BF" width="213.7" height="326.4"/>
			<rect x="280.7" y="707.7" fill="#2BA3BF" width="213.7" height="326.4"/>
			<path fill="#278FAF" d="M395.9,692.6"/>
			<g opacity="5.000000e-02">
				<path d="M395,692.6l-53.4-82.4c-19.2,4-41.9,12.3-50.2,31.1c-1.1,2.5-0.2,29.7,1.1,65.7H281v327h114V692.6z"/>
			</g>
			<g>
				<g>
					<defs>
						<path id="SVGID_23_" d="M291.5,641.8c15.4-34.6,80.2-34.8,80.2-34.8h2.8h43.3h2.8c0,0,64.8,0.2,80.2,34.8
							s-86.6,124.8-86.6,124.8l-25.6,38.1l-20.3-7.2l-41.1,4.7C327.1,802.2,276.1,676.3,291.5,641.8z"/>
					</defs>
					<clipPath id="SVGID_24_">
						<use xlink:href="#SVGID_23_"  overflow="visible"/>
					</clipPath>
					<polyline clip-path="url(#SVGID_24_)" fill="none" stroke="#1E6A77" stroke-width="12.5209" stroke-miterlimit="10" points="
						339.7,606.7 395.9,692.6 453.3,606.7 					"/>
				</g>
			</g>
			<g>
				
					<rect x="439.6" y="1397.6" transform="matrix(0.9974 7.168338e-02 -7.168338e-02 0.9974 101.6043 -32.4168)" fill="#EAEAEA" width="125.6" height="3.5"/>
				
					<rect x="430.1" y="1394.1" transform="matrix(0.9974 7.168338e-02 -7.168338e-02 0.9974 101.3898 -28.7832)" fill="#EAEAEA" width="43.2" height="8.3"/>
				<path fill="#EAEAEA" d="M453.7,1381.4l35.5,2.5c2.9,0.2,5.1,2.7,4.9,5.6l-0.8,10.5c-0.2,2.9-2.7,5.1-5.6,4.9l-35.5-2.5
					c-2.9-0.2-5.1-2.7-4.9-5.6l0.8-10.5C448.3,1383.4,450.8,1381.2,453.7,1381.4z"/>
				<path fill="#FFFFFF" d="M565.2,1402.2c0,0-10.6-33-65.9-37s-68.8,27.3-68.8,27.3L565.2,1402.2z"/>
			</g>
			<g>
				<g>
					<g>
						<defs>
							<polygon id="SVGID_25_" points="361.4,599.1 360.6,612.6 338.8,619 366.1,666.3 371,705.7 371,728.4 349.6,728.1 
								330.6,645.3 320.7,621.4 329.1,598.7 							"/>
						</defs>
						<clipPath id="SVGID_26_">
							<use xlink:href="#SVGID_25_"  overflow="visible"/>
						</clipPath>
						<path clip-path="url(#SVGID_26_)" fill="none" stroke="#09234C" stroke-width="7.1548" stroke-miterlimit="10" d="
							M359.3,727.2c0,0,3.5-51.9-24.3-94.8c-11-16.9-14.6-29.8,61.7-29.8"/>
					</g>
				</g>
				<g>
					<path fill="none" stroke="#7C7C7C" stroke-width="3.2716" stroke-miterlimit="10" d="M359.7,728.1c0,0,34.4,7,34.4,43.8
						S336.4,870,336.4,870"/>
					<path fill="none" stroke="#7C7C7C" stroke-width="3.2716" stroke-miterlimit="10" d="M359.3,728.1c0,0-34.4,7-34.4,43.8
						s57.7,98.1,57.7,98.1"/>
					<ellipse fill="#7C7C7C" cx="359.7" cy="727.4" rx="5.1" ry="2.3"/>
					<ellipse fill="#7C7C7C" cx="359.7" cy="723.9" rx="5.1" ry="2.3"/>
					<circle fill="#FFFFFF" stroke="#7C7C7C" stroke-width="1.6358" stroke-miterlimit="10" cx="336.8" cy="870.5" r="4.2"/>
					<circle fill="#FFFFFF" stroke="#7C7C7C" stroke-width="1.6358" stroke-miterlimit="10" cx="382.6" cy="870.5" r="4.2"/>
					<rect x="354.6" y="723.9" fill="#7C7C7C" width="10.2" height="7.6"/>
					<ellipse fill="#666666" cx="359.7" cy="729.8" rx="8.1" ry="4.2"/>
				</g>
			</g>
			<g>
				<g>
					<g>
						<defs>
							<polygon id="SVGID_27_" points="430.9,599.1 431.7,612.6 453.5,619 426.6,666.3 422,705.7 422,801.7 443.1,801.5 
								461.9,645.3 471.8,621.4 463.3,598.7 							"/>
						</defs>
						<clipPath id="SVGID_28_">
							<use xlink:href="#SVGID_27_"  overflow="visible"/>
						</clipPath>
						<path clip-path="url(#SVGID_28_)" fill="none" stroke="#09234C" stroke-width="7.1548" stroke-miterlimit="10" d="
							M435.6,799.1c0,0-23.3-106.5,21.7-166.7c12.1-16.2,14.6-29.8-61.7-29.8"/>
					</g>
				</g>
			</g>
			<g>
				
					<ellipse transform="matrix(-0.208 -0.9781 0.9781 -0.208 -281.3471 1402.8063)" fill="#B2B2B2" cx="427.3" cy="815.3" rx="14.1" ry="5.5"/>
				
					<ellipse transform="matrix(-0.208 -0.9781 0.9781 -0.208 -276.6686 1405.1709)" fill="#B2B2B2" cx="430.6" cy="814.6" rx="12.4" ry="4.9"/>
				
					<ellipse transform="matrix(-0.208 -0.9781 0.9781 -0.208 -259.977 1413.7218)" fill="#B2B2B2" cx="442.4" cy="812.1" rx="7.5" ry="2.9"/>
				
					<ellipse transform="matrix(-0.208 -0.9781 0.9781 -0.208 -273.1532 1407.0238)" fill="#B2B2B2" cx="433.1" cy="814.1" rx="11" ry="6.9"/>
				
					<rect x="433.6" y="798.2" transform="matrix(0.9781 -0.208 0.208 0.9781 -157.9036 108.4982)" fill="#7C7C7C" width="6.7" height="13.8"/>
				
					<ellipse transform="matrix(-0.9781 0.208 -0.208 -0.9781 1027.6835 1489.501)" fill="#7C7C7C" cx="435.5" cy="798.8" rx="4.7" ry="1.6"/>
				
					<ellipse transform="matrix(-0.208 -0.9781 0.9781 -0.208 -281.3471 1402.8063)" fill="#7C7C7C" cx="427.3" cy="815.3" rx="11" ry="4.3"/>
				<polygon fill="#B2B2B2" points="440.7,804.8 433,803.4 437.3,823.9 444,819.4 				"/>
			</g>
			<g>
				<path fill="#84705B" d="M338,877l-5.7,4.2c-2,1.5-2.4,4.3-0.9,6.3l4.2,5.7c1.5,2,4.3,2.4,6.3,0.9l5.7-4.2c2-1.5,2.4-4.3,0.9-6.3
					l-4.2-5.7C342.8,876,340,875.6,338,877z"/>
				<g>
					
						<rect x="331.2" y="860.8" transform="matrix(-0.8418 -0.5398 0.5398 -0.8418 128.5667 1853.1842)" fill="#3E72CE" width="9.3" height="93.9"/>
					
						<rect x="331.6" y="859.5" transform="matrix(-0.8418 -0.5398 0.5398 -0.8418 125.7196 1849.7675)" fill="#4266A7" width="4.6" height="93.9"/>
					<polygon fill="#999999" points="304.5,956.7 306.6,944.7 311.6,945.6 314.4,949.7 					"/>
					<polygon fill="#C6C6C6" points="305.1,952 304.2,957 308.4,954.1 					"/>
				</g>
				<path fill="#84705B" d="M220.6,867.5l22.7,6.7c4.4,1.3,9-1.2,10.3-5.6l56.2-189.5c1.3-4.4-1.2-9-5.6-10.3l-22.7-6.7
					c-4.4-1.3-9,1.2-10.3,5.6L215,857.2C213.7,861.6,216.2,866.2,220.6,867.5z"/>
				<path fill="#84705B" d="M331.9,888l-18.2,13.5c-4.3,3.2-5.2,9.3-2,13.7l25.7,34.6c3.2,4.3,9.3,5.2,13.7,2l18.2-13.5
					c4.3-3.2,5.2-9.3,2-13.7L345.6,890C342.4,885.7,336.2,884.8,331.9,888z"/>
				<path fill="#2BA3BF" d="M301.7,627.1l4.2,1.2c13.8,4.1,23.3,17,19.9,28.3l-10.4,35.2l0,0l-13.5,45.4L247.4,721l13.5-45.4l0,0
					l10.4-35.2C274.7,629.1,287.9,623,301.7,627.1z"/>
				<path fill="#1E6A77" d="M299.6,738.5l-51.8-15.4c-1.2-0.4-1.9-1.6-1.5-2.8l1-3.5c0.4-1.2,1.6-1.9,2.8-1.5l51.8,15.4
					c1.2,0.4,1.9,1.6,1.5,2.8l-1,3.5C302.1,738.1,300.8,738.8,299.6,738.5z"/>
				<path fill="#84705B" d="M336.5,907.9l6.4-14.7c1.8-4.2-0.1-9-4.3-10.8L237,838.5c-4.2-1.8-9,0.1-10.8,4.3l-6.4,14.7
					c-1.8,4.2,0.1,9,4.3,10.8l101.5,43.9C329.8,914,334.7,912.1,336.5,907.9z"/>
			</g>
			<g>
				
					<rect x="545.3" y="832" transform="matrix(-0.8916 -0.4528 0.4528 -0.8916 711.4705 2030.8411)" fill="#998A77" width="107" height="196.6"/>
				
					<rect x="551.9" y="844.1" transform="matrix(-0.8916 -0.4528 0.4528 -0.8916 711.5966 2030.6929)" fill="#FFFFFF" width="93.8" height="172.2"/>
				
					<rect x="600.4" y="841.4" transform="matrix(-0.8916 -0.4528 0.4528 -0.8916 820.8716 1902.2327)" fill="#A5A5A5" width="75.4" height="23"/>
				
					<rect x="611.1" y="847.3" transform="matrix(-0.8916 -0.4528 0.4528 -0.8916 822.2883 1900.8008)" fill="#838484" width="55" height="9.4"/>
				<path fill="#C6C6C6" d="M667.5,842.8l-8.6-4.4l0.1-0.2c3.6-7,1.7-15.2-4.1-18.2s-13.5,0.4-17.1,7.4l-0.1,0.2l-8.8-4.4l-6,4.1
					l-7.7,15.3l45,22.8l7.7-15.3L667.5,842.8z M644.9,839.7c-3.2-1.6-4.2-6.1-2.3-9.9c2-3.9,6.1-5.7,9.3-4s4.2,6.1,2.3,9.9
					C652.3,839.5,648.1,841.3,644.9,839.7z"/>
				
					<rect x="581" y="881.5" transform="matrix(-0.8916 -0.4528 0.4528 -0.8916 777.215 1953.6104)" opacity="0.5" fill="#3E72CE" enable-background="new    " width="82.8" height="4.6"/>
				
					<rect x="576.4" y="890.6" transform="matrix(-0.8916 -0.4528 0.4528 -0.8916 764.369 1968.7372)" opacity="0.5" fill="#3E72CE" enable-background="new    " width="82.8" height="4.6"/>
				
					<rect x="566.3" y="904" transform="matrix(-0.8916 -0.4528 0.4528 -0.8916 687.9588 1977.2239)" opacity="0.5" fill="#3E72CE" enable-background="new    " width="28.6" height="4.6"/>
				
					<rect x="559.7" y="923.5" transform="matrix(-0.8916 -0.4528 0.4528 -0.8916 717.9239 2023.4792)" opacity="0.5" fill="#3E72CE" enable-background="new    " width="82.8" height="4.6"/>
				
					<rect x="555.7" y="931.5" transform="matrix(-0.8916 -0.4528 0.4528 -0.8916 706.738 2036.7898)" opacity="0.5" fill="#3E72CE" enable-background="new    " width="82.8" height="4.6"/>
				
					<rect x="551.4" y="939.9" transform="matrix(-0.8916 -0.4528 0.4528 -0.8916 694.7763 2050.6526)" opacity="0.5" fill="#3E72CE" enable-background="new    " width="82.8" height="4.6"/>
			</g>
			<path fill="#84705B" d="M553,885.4l-4.4,5.5c-1.5,1.9-1.2,4.8,0.7,6.3l5.5,4.4c1.9,1.5,4.8,1.2,6.3-0.7l4.4-5.5
				c1.5-1.9,1.2-4.8-0.7-6.3l-5.5-4.4C557.4,883.2,554.6,883.5,553,885.4z"/>
			<g>
				<g opacity="0.44">
					<path d="M420.1,557.3c0,0,0.3-0.3,0.8-0.6c0.5-0.4,1.2-0.9,2.2-1.5c0.5-0.3,1-0.6,1.5-0.9c0.5-0.3,1.2-0.5,1.8-0.8
						c0.6-0.2,1.3-0.5,2-0.7s1.4-0.4,2.2-0.5l1.1-0.2c0.4,0,0.7,0,1.1-0.1c0.7-0.1,1.5,0,2.2,0.1c0.7,0,1.4,0.3,2,0.4
						c0.3,0.1,0.6,0.2,0.9,0.3s0.5,0.3,0.8,0.4c0.5,0.3,1,0.5,1.3,0.7c0.4,0.3,0.7,0.5,0.9,0.7c0.5,0.4,0.8,0.7,0.8,0.7l-0.1,0.2
						c0,0-0.4-0.1-1-0.2c-0.3-0.1-0.7-0.2-1.1-0.3s-0.9-0.2-1.4-0.3s-1-0.3-1.6-0.3c-0.6-0.1-1.2-0.2-1.8-0.3
						c-0.6-0.1-1.3-0.2-1.9-0.2c-0.3,0-0.7,0-1-0.1h-1c-0.7,0-1.4,0.1-2,0.2c-0.7,0.1-1.3,0.3-2,0.4c-0.6,0.2-1.2,0.4-1.8,0.6
						c-0.6,0.2-1.1,0.4-1.6,0.6c-1,0.4-1.7,0.9-2.3,1.2c-0.5,0.3-0.8,0.5-0.8,0.5L420.1,557.3z"/>
				</g>
				<g>
					<g>
						<path d="M389.7,463.6c0,0,0.1-0.4,0.3-1c0.2-0.7,0.6-1.6,1.2-2.7c0.3-0.5,0.6-1.1,1-1.7c0.3-0.6,0.8-1.2,1.2-1.8
							c0.5-0.6,1-1.2,1.5-1.8c0.6-0.6,1.1-1.2,1.8-1.7l0.9-0.8c0.3-0.2,0.7-0.5,1-0.7c0.6-0.5,1.4-0.9,2.1-1.2
							c0.7-0.4,1.4-0.6,2.1-0.8c0.3-0.1,0.7-0.2,1-0.3c0.3,0,0.7-0.1,1-0.1c0.6-0.1,1.2-0.2,1.7-0.1c0.5,0,0.9,0.1,1.3,0.1
							c0.7,0.1,1.1,0.1,1.1,0.1v0.2c0,0-0.4,0.1-1.1,0.3c-0.3,0.1-0.7,0.2-1.2,0.3c-0.5,0.1-1,0.3-1.5,0.5c-0.6,0.2-1.1,0.3-1.7,0.6
							c-0.6,0.3-1.3,0.5-1.9,0.8s-1.3,0.6-2,1c-0.3,0.2-0.7,0.4-1,0.5l-0.9,0.7c-0.6,0.4-1.2,1-1.8,1.4c-0.6,0.5-1.1,1.1-1.6,1.6
							c-0.5,0.6-0.9,1.1-1.3,1.6s-0.8,1.1-1.1,1.5c-0.7,1-1.1,1.9-1.4,2.5s-0.5,1-0.5,1H389.7z"/>
					</g>
					<path fill="#1E1A16" d="M404.7,476.5c2.8,0,5.4,0.5,7.6,1.4c0.9-2,1.4-4.3,1.4-6.8c0-7.1-4.1-12.8-9.1-12.8s-9.1,5.7-9.1,12.8
						c0,2.5,0.5,4.9,1.4,6.8C399.2,477,401.8,476.5,404.7,476.5z"/>
					<path fill="#FFFFFF" d="M404.4,460.7c-0.3-0.1,4,0.6,5.3,5.3C409.7,466,406.8,461.9,404.4,460.7z"/>
					<g>
						<g>
							<path d="M480.3,463.7c0,0-0.1-0.4-0.5-1c-0.3-0.6-0.8-1.5-1.4-2.5c-0.3-0.5-0.7-1-1.1-1.5s-0.9-1.1-1.3-1.6
								c-0.5-0.5-1-1.1-1.6-1.6s-1.1-1-1.8-1.4l-0.9-0.7c-0.3-0.2-0.7-0.4-1-0.5c-0.6-0.4-1.3-0.7-2-1c-0.6-0.3-1.3-0.5-1.9-0.8
								s-1.2-0.5-1.7-0.6c-0.6-0.2-1.1-0.4-1.5-0.5c-0.5-0.1-0.9-0.2-1.2-0.3c-0.7-0.2-1.1-0.3-1.1-0.3v-0.2c0,0,0.4-0.1,1.1-0.1
								c0.4,0,0.8-0.1,1.3-0.1s1.1,0.1,1.7,0.1c0.3,0,0.6,0.1,1,0.1c0.3,0.1,0.7,0.2,1,0.3c0.7,0.2,1.4,0.4,2.1,0.8s1.4,0.7,2.1,1.2
								c0.3,0.2,0.7,0.5,1,0.7l0.9,0.8c0.6,0.5,1.2,1.1,1.8,1.7c0.6,0.6,1,1.2,1.5,1.8c0.4,0.6,0.9,1.2,1.2,1.8
								c0.4,0.6,0.7,1.2,1,1.7c0.5,1.1,0.9,2,1.2,2.7c0.2,0.7,0.3,1,0.3,1H480.3z"/>
						</g>
						<path fill="#1E1A16" d="M465.5,476.5c2.8,0,5.4,0.5,7.6,1.4c0.9-2,1.4-4.3,1.4-6.8c0-7.1-4.1-12.8-9.1-12.8s-9.1,5.7-9.1,12.8
							c0,2.5,0.5,4.9,1.4,6.8C460,477,462.7,476.5,465.5,476.5z"/>
						<path fill="#FFFFFF" d="M465.2,460.7c-0.3-0.1,4,0.6,5.3,5.3C470.5,466,467.6,461.9,465.2,460.7z"/>
					</g>
					<g opacity="0.44">
						<path d="M437.3,485.7c0,0,1.6,1.8,3.7,4.8c1.1,1.5,2.2,3.3,3.4,5.3c1.1,2,2.2,4.3,2.8,6.7c0.3,1.2,0.5,2.5,0.5,3.8
							s-0.4,2.7-1.1,3.8c-0.7,1.2-1.8,2-2.8,2.6c-0.5,0.2-1,0.5-1.6,0.7c-0.5,0.2-1,0.3-1.5,0.5c-1,0.2-1.9,0.4-2.6,0.5
							c-0.8,0.1-1.5,0.2-2,0.2c-1.1,0-1.8,0-1.8,0c-0.9,0-1.6-0.7-1.6-1.5c0-0.9,0.7-1.6,1.5-1.6h0.1h0.1c0,0,0.6,0,1.6,0.1
							c0.5,0,1.1,0,1.8,0c0.7,0,1.5-0.1,2.3-0.2c0.4-0.1,0.8-0.2,1.2-0.3c0.4-0.1,0.8-0.3,1.2-0.5c0.8-0.4,1.6-0.9,2.1-1.7
							c0.5-0.8,0.9-1.7,1.1-2.8c0.1-1.1,0.1-2.2-0.1-3.4c-0.4-2.3-1.2-4.6-2.2-6.6c-0.9-2.1-2-3.9-2.9-5.5
							C438.8,487.7,437.3,485.7,437.3,485.7z"/>
					</g>
				</g>
				<path d="M416,517c0,0,2.1,9.8,12.4,10c10.1,0.2,25.6,0.9,25.6,0.9s-3.7,1.8-2.1,12.5C451.9,540.3,415.5,552.6,416,517z"/>
				<path fill="#7F2000" d="M423.2,535.2c-0.2-0.2,3.4-4.7,13.1,0c0,0,8.5-1.8,11.7,4C448,539.2,431.9,544.4,423.2,535.2z"/>
				<path d="M410.2,521.9c0,0,3.4-4.9,10.6-6.6C420.8,515.3,413.8,514.2,410.2,521.9z"/>
			</g>
		</g>
		<g clip-path="url(#SVGID_2_)">
			<rect x="1074.2" y="479.9" fill="none" width="579.6" height="623"/>
			<g enable-background="new    ">
				<path fill="#5B5B5B" d="M1093.4,512.8l-0.7,0c-4.6,0-8.4-1.5-11.5-4.6s-4.7-6.8-4.7-11.4c0-4.5,1.6-8.3,4.7-11.4s7-4.6,11.5-4.6
					s8.4,1.5,11.5,4.6s4.7,6.8,4.7,11.3c0,3.4-0.9,6.5-2.8,9.1c-1.8,2.7-4.3,4.6-7.4,5.7c1,1.3,2.3,2,3.8,2c1.1,0,2.2-0.3,3.3-0.9
					c1.1-0.6,1.9-1.3,2.4-2.3l2.9,4.1c-2.6,2.7-5.5,4-8.8,4c-1.9,0-3.7-0.5-5.4-1.6S1094.1,514.6,1093.4,512.8z M1100.4,489
					c-2.1-2.2-4.7-3.3-7.7-3.3c-3.1,0-5.6,1.1-7.7,3.3c-2.1,2.2-3.1,4.8-3.1,7.9s1,5.7,3.1,7.9c2.1,2.2,4.7,3.3,7.7,3.3
					c3,0,5.6-1.1,7.7-3.3c2.1-2.2,3.1-4.8,3.1-7.9S1102.5,491.2,1100.4,489z"/>
				<path fill="#5B5B5B" d="M1131.1,501.8v-12.7h4.9v23.4h-4.9v-4.3c-0.8,1.4-1.9,2.6-3.3,3.4c-1.4,0.8-2.9,1.2-4.5,1.2
					c-2.6,0-4.8-0.8-6.4-2.4c-1.6-1.6-2.4-3.9-2.4-7v-14.3h4.9V502c0,4.3,1.8,6.5,5.4,6.5c1.7,0,3.2-0.6,4.4-1.7
					C1130.5,505.6,1131.1,504,1131.1,501.8z"/>
				<path fill="#5B5B5B" d="M1165,503h-18.3c0.1,1.7,0.9,3.1,2.3,4.1c1.4,1,3.1,1.6,4.9,1.6c2.9,0,5.2-0.9,6.7-2.8l2.8,3.1
					c-2.5,2.6-5.8,3.9-9.9,3.9c-3.3,0-6.1-1.1-8.4-3.3c-2.3-2.2-3.5-5.1-3.5-8.8c0-3.7,1.2-6.6,3.5-8.8s5.1-3.3,8.3-3.3
					s5.9,1,8.1,2.9c2.2,1.9,3.3,4.6,3.3,7.9V503z M1146.6,499.1h13.4c0-2-0.6-3.5-1.8-4.5c-1.2-1.1-2.8-1.6-4.6-1.6
					c-1.8,0-3.4,0.5-4.9,1.7C1147.3,495.7,1146.6,497.2,1146.6,499.1z"/>
				<path fill="#5B5B5B" d="M1187,505.5c0,2.2-0.8,4-2.4,5.3c-1.6,1.3-3.7,2-6.2,2c-1.7,0-3.5-0.3-5.3-0.9s-3.5-1.5-4.9-2.6l2.4-3.8
					c2.7,2.1,5.4,3.1,7.9,3.1c1.1,0,2-0.3,2.6-0.8c0.6-0.5,1-1.2,1-2c0-1.2-1.6-2.2-4.7-3.2c-0.2-0.1-0.4-0.1-0.5-0.2
					c-4.9-1.3-7.3-3.5-7.3-6.6c0-2.2,0.8-3.9,2.5-5.2c1.7-1.3,3.9-2,6.6-2c2.7,0,5.2,0.8,7.7,2.4l-1.8,3.7c-1.9-1.3-4-1.9-6.2-1.9
					c-1.2,0-2.1,0.2-2.9,0.6c-0.7,0.4-1.1,1.1-1.1,1.9c0,0.8,0.4,1.3,1.1,1.7c0.5,0.3,1.3,0.5,2.2,0.7c1,0.2,1.8,0.5,2.5,0.7
					c0.7,0.2,1.4,0.5,2.1,0.8c0.7,0.3,1.4,0.7,2.2,1.2C1186.2,501.6,1187,503.3,1187,505.5z"/>
				<path fill="#5B5B5B" d="M1198.7,493.1v11.9c0,1.1,0.3,2,0.9,2.7s1.4,1,2.5,1c1.1,0,2.1-0.5,3-1.5l2,3.5
					c-1.7,1.6-3.6,2.3-5.7,2.3c-2.1,0-3.9-0.7-5.4-2.2c-1.5-1.5-2.2-3.4-2.2-5.9v-11.7h-2.9v-4h2.9v-7.3h4.9v7.3h6.2v4H1198.7z"/>
				<path fill="#5B5B5B" d="M1211.3,484.4c-0.6-0.6-0.9-1.3-0.9-2.2c0-0.8,0.3-1.6,0.9-2.2c0.6-0.6,1.3-0.9,2.2-0.9
					c0.9,0,1.6,0.3,2.2,0.9c0.6,0.6,0.9,1.3,0.9,2.2c0,0.9-0.3,1.6-0.9,2.2s-1.3,0.9-2.2,0.9
					C1212.7,485.4,1211.9,485.1,1211.3,484.4z M1215.9,512.5h-4.9v-23.4h4.9V512.5z"/>
				<path fill="#5B5B5B" d="M1242.7,509.4c-2.3,2.3-5.3,3.5-8.8,3.5s-6.5-1.2-8.8-3.5c-2.3-2.3-3.5-5.2-3.5-8.6
					c0-3.4,1.2-6.2,3.5-8.6c2.3-2.3,5.3-3.5,8.8-3.5s6.5,1.2,8.8,3.5s3.5,5.2,3.5,8.6C1246.2,504.2,1245,507,1242.7,509.4z
					 M1228.6,506.3c1.4,1.4,3.2,2.1,5.3,2.1c2.1,0,3.9-0.7,5.3-2.1s2.1-3.3,2.1-5.5s-0.7-4.1-2.1-5.5s-3.2-2.1-5.3-2.1
					c-2.1,0-3.9,0.7-5.3,2.1c-1.4,1.4-2.1,3.3-2.1,5.5S1227.2,504.9,1228.6,506.3z"/>
				<path fill="#5B5B5B" d="M1256.7,499.8v12.7h-4.9v-23.4h4.9v4.3c0.8-1.4,1.9-2.6,3.3-3.4c1.4-0.8,2.9-1.2,4.5-1.2
					c2.6,0,4.8,0.8,6.4,2.4s2.4,3.9,2.4,7v14.3h-4.9v-12.8c0-4.3-1.8-6.5-5.4-6.5c-1.7,0-3.2,0.6-4.4,1.7
					C1257.3,496,1256.7,497.7,1256.7,499.8z"/>
				<path fill="#5B5B5B" d="M1285.1,499.8v12.7h-4.9v-23.4h4.9v4.3c0.8-1.4,1.9-2.6,3.3-3.4c1.4-0.8,2.9-1.2,4.5-1.2
					c2.6,0,4.8,0.8,6.4,2.4s2.4,3.9,2.4,7v14.3h-4.9v-12.8c0-4.3-1.8-6.5-5.4-6.5c-1.7,0-3.2,0.6-4.4,1.7
					C1285.7,496,1285.1,497.7,1285.1,499.8z"/>
				<path fill="#5B5B5B" d="M1327.6,512.5h-4.5v-3.1c-1.9,2.3-4.5,3.5-7.8,3.5c-2.4,0-4.5-0.7-6-2.1s-2.4-3.2-2.4-5.5
					c0-2.3,0.8-4,2.6-5.2c1.7-1.1,4-1.7,6.9-1.7h6.4v-0.9c0-3.1-1.7-4.7-5.2-4.7c-2.2,0-4.4,0.8-6.8,2.4l-2.2-3.1
					c2.8-2.3,6.1-3.4,9.7-3.4c2.8,0,5,0.7,6.8,2.1c1.7,1.4,2.6,3.6,2.6,6.6V512.5z M1322.6,503.8v-2h-5.5c-3.5,0-5.3,1.1-5.3,3.3
					c0,1.1,0.4,2,1.3,2.6c0.9,0.6,2.1,0.9,3.7,0.9c1.6,0,2.9-0.4,4.1-1.3C1322.1,506.5,1322.6,505.3,1322.6,503.8z"/>
				<path fill="#5B5B5B" d="M1334.7,484.4c-0.6-0.6-0.9-1.3-0.9-2.2c0-0.8,0.3-1.6,0.9-2.2c0.6-0.6,1.3-0.9,2.2-0.9
					c0.9,0,1.6,0.3,2.2,0.9c0.6,0.6,0.9,1.3,0.9,2.2c0,0.9-0.3,1.6-0.9,2.2s-1.3,0.9-2.2,0.9
					C1336.1,485.4,1335.4,485.1,1334.7,484.4z M1339.4,512.5h-4.9v-23.4h4.9V512.5z"/>
				<path fill="#5B5B5B" d="M1358.8,493.7c-2.4,0-4.3,0.8-5.5,2.4c-1.2,1.6-1.8,3.7-1.8,6.4v10h-4.9v-23.4h4.9v4.7
					c0.8-1.5,1.9-2.7,3.2-3.6c1.4-0.9,2.8-1.4,4.3-1.5l0,5C1358.9,493.7,1358.9,493.7,1358.8,493.7z"/>
				<path fill="#5B5B5B" d="M1385.7,503h-18.3c0.1,1.7,0.9,3.1,2.3,4.1c1.4,1,3.1,1.6,4.9,1.6c2.9,0,5.2-0.9,6.7-2.8l2.8,3.1
					c-2.5,2.6-5.8,3.9-9.9,3.9c-3.3,0-6.1-1.1-8.4-3.3s-3.5-5.1-3.5-8.8c0-3.7,1.2-6.6,3.5-8.8c2.3-2.2,5.1-3.3,8.3-3.3
					c3.2,0,5.9,1,8.1,2.9c2.2,1.9,3.3,4.6,3.3,7.9V503z M1367.4,499.1h13.4c0-2-0.6-3.5-1.8-4.5c-1.2-1.1-2.8-1.6-4.6-1.6
					s-3.4,0.5-4.9,1.7C1368.1,495.7,1367.4,497.2,1367.4,499.1z"/>
			</g>
			<g enable-background="new    ">
				<path fill="#5B5B5B" d="M1087.8,575.8c-1.5,0-2.8,0.3-3.7,0.9s-1.5,1.5-1.5,2.8c0,1.2,0.5,2.2,1.5,2.9s3,1.4,6.2,2.1
					c3.2,0.8,5.5,1.8,7.1,3.2c1.6,1.4,2.4,3.4,2.4,6.1c0,2.7-1,4.9-3,6.5c-2,1.7-4.7,2.5-8,2.5c-4.8,0-9.1-1.7-12.8-5l3.3-3.9
					c3.1,2.7,6.3,4,9.7,4c1.7,0,3-0.4,4-1.1c1-0.7,1.5-1.7,1.5-2.9c0-1.2-0.5-2.1-1.4-2.8c-0.9-0.7-2.5-1.3-4.8-1.8s-4-1-5.1-1.5
					c-1.2-0.5-2.2-1-3.1-1.8c-1.8-1.4-2.7-3.5-2.7-6.3c0-2.8,1-5,3.1-6.6c2.1-1.5,4.6-2.3,7.7-2.3c2,0,3.9,0.3,5.9,1
					c1.9,0.6,3.6,1.6,5,2.7l-2.8,3.9c-0.9-0.8-2.1-1.5-3.7-2S1089.3,575.8,1087.8,575.8z"/>
				<path fill="#5B5B5B" d="M1110.4,589.8v12.7h-4.9v-32.6h4.9v13.5c0.7-1.4,1.8-2.6,3.2-3.4c1.4-0.8,3-1.2,4.6-1.2
					c2.6,0,4.8,0.8,6.4,2.4s2.4,3.9,2.4,7v14.3h-4.9v-12.8c0-4.3-1.8-6.5-5.4-6.5c-1.7,0-3.2,0.6-4.4,1.7
					C1111.1,586,1110.4,587.7,1110.4,589.8z"/>
				<path fill="#5B5B5B" d="M1153.5,599.4c-2.3,2.3-5.3,3.5-8.8,3.5c-3.5,0-6.5-1.2-8.8-3.5c-2.3-2.3-3.5-5.2-3.5-8.6
					c0-3.4,1.2-6.2,3.5-8.6s5.3-3.5,8.8-3.5c3.5,0,6.5,1.2,8.8,3.5c2.3,2.3,3.5,5.2,3.5,8.6C1157,594.2,1155.9,597,1153.5,599.4z
					 M1139.4,596.3c1.4,1.4,3.2,2.1,5.3,2.1c2.1,0,3.9-0.7,5.3-2.1c1.4-1.4,2.1-3.3,2.1-5.5s-0.7-4.1-2.1-5.5
					c-1.4-1.4-3.2-2.1-5.3-2.1c-2.1,0-3.9,0.7-5.3,2.1s-2.1,3.3-2.1,5.5S1138,594.9,1139.4,596.3z"/>
				<path fill="#5B5B5B" d="M1174.9,583.7c-2.4,0-4.3,0.8-5.5,2.4c-1.2,1.6-1.8,3.7-1.8,6.4v10h-4.9v-23.4h4.9v4.7
					c0.8-1.5,1.9-2.7,3.2-3.6c1.4-0.9,2.8-1.4,4.3-1.5l0,5C1175.1,583.7,1175,583.7,1174.9,583.7z"/>
				<path fill="#5B5B5B" d="M1186.2,583.1v11.9c0,1.1,0.3,2,0.9,2.7s1.4,1,2.5,1c1.1,0,2.1-0.5,3-1.5l2,3.5
					c-1.7,1.6-3.6,2.3-5.7,2.3c-2.1,0-3.9-0.7-5.4-2.2c-1.5-1.5-2.2-3.4-2.2-5.9v-11.7h-2.9v-4h2.9v-7.3h4.9v7.3h6.2v4H1186.2z"/>
				<path fill="#5B5B5B" d="M1232.8,571.8v4.9h-16.4v8.1h14.7v4.6h-14.7v8.2h16.9v4.9h-22.1v-30.8H1232.8z"/>
				<path fill="#5B5B5B" d="M1241.1,599.5c-2.2-2.2-3.3-5.2-3.3-8.8c0-3.6,1.1-6.5,3.4-8.7s5-3.3,8.1-3.3s5.6,1.3,7.5,4v-12.8h4.9
					v32.6h-4.9V599c-1.8,2.6-4.5,3.9-8,3.9C1245.9,602.9,1243.3,601.8,1241.1,599.5z M1242.7,590.9c0,2.2,0.7,4.1,2.2,5.5
					c1.4,1.4,3.1,2.1,5.1,2.1c1.9,0,3.6-0.7,4.9-2.1c1.3-1.4,2-3.2,2-5.5c0-2.2-0.7-4.1-2-5.6c-1.3-1.5-3-2.2-5-2.2
					s-3.7,0.7-5.1,2.2S1242.7,588.7,1242.7,590.9z"/>
				<path fill="#5B5B5B" d="M1285.2,591.8v-12.7h4.9v23.4h-4.9v-4.3c-0.8,1.4-1.9,2.6-3.3,3.4s-2.9,1.2-4.5,1.2
					c-2.6,0-4.8-0.8-6.4-2.4c-1.6-1.6-2.4-3.9-2.4-7v-14.3h4.9V592c0,4.3,1.8,6.5,5.4,6.5c1.7,0,3.2-0.6,4.4-1.7
					C1284.6,595.6,1285.2,594,1285.2,591.8z"/>
				<path fill="#5B5B5B" d="M1307.7,602.9c-3.3,0-6.1-1.1-8.4-3.3c-2.3-2.2-3.5-5.1-3.5-8.7c0-3.6,1.2-6.5,3.7-8.7
					c2.4-2.2,5.4-3.4,9-3.4c3.5,0,6.5,1.2,8.9,3.7l-2.9,3.6c-2-1.8-4.1-2.6-6.1-2.6c-2.1,0-3.8,0.7-5.3,2c-1.5,1.4-2.3,3.1-2.3,5.3
					c0,2.2,0.7,4,2.2,5.5c1.5,1.5,3.3,2.2,5.5,2.2c2.2,0,4.2-1,6.2-3l2.9,3.2C1314.7,601.4,1311.4,602.9,1307.7,602.9z"/>
				<path fill="#5B5B5B" d="M1341.4,602.5h-4.5v-3.1c-1.9,2.3-4.5,3.5-7.8,3.5c-2.4,0-4.5-0.7-6-2.1s-2.4-3.2-2.4-5.5
					c0-2.3,0.8-4,2.6-5.2c1.7-1.1,4-1.7,6.9-1.7h6.4v-0.9c0-3.1-1.7-4.7-5.2-4.7c-2.2,0-4.4,0.8-6.8,2.4l-2.2-3.1
					c2.8-2.3,6.1-3.4,9.7-3.4c2.8,0,5,0.7,6.8,2.1c1.7,1.4,2.6,3.6,2.6,6.6V602.5z M1336.5,593.8v-2h-5.5c-3.5,0-5.3,1.1-5.3,3.3
					c0,1.1,0.4,2,1.3,2.6c0.9,0.6,2.1,0.9,3.7,0.9c1.6,0,2.9-0.4,4.1-1.3C1335.9,596.5,1336.5,595.3,1336.5,593.8z"/>
				<path fill="#5B5B5B" d="M1354.1,583.1v11.9c0,1.1,0.3,2,0.9,2.7s1.4,1,2.5,1c1.1,0,2.1-0.5,3-1.5l2,3.5
					c-1.7,1.6-3.6,2.3-5.7,2.3c-2.1,0-3.9-0.7-5.4-2.2c-1.5-1.5-2.2-3.4-2.2-5.9v-11.7h-2.9v-4h2.9v-7.3h4.9v7.3h6.2v4H1354.1z"/>
				<path fill="#5B5B5B" d="M1366.7,574.4c-0.6-0.6-0.9-1.3-0.9-2.2c0-0.8,0.3-1.6,0.9-2.2c0.6-0.6,1.3-0.9,2.2-0.9
					c0.9,0,1.6,0.3,2.2,0.9c0.6,0.6,0.9,1.3,0.9,2.2c0,0.9-0.3,1.6-0.9,2.2s-1.3,0.9-2.2,0.9
					C1368.1,575.4,1367.3,575.1,1366.7,574.4z M1371.4,602.5h-4.9v-23.4h4.9V602.5z"/>
				<path fill="#5B5B5B" d="M1398.1,599.4c-2.3,2.3-5.3,3.5-8.8,3.5s-6.5-1.2-8.8-3.5c-2.3-2.3-3.5-5.2-3.5-8.6
					c0-3.4,1.2-6.2,3.5-8.6c2.3-2.3,5.3-3.5,8.8-3.5s6.5,1.2,8.8,3.5s3.5,5.2,3.5,8.6C1401.6,594.2,1400.4,597,1398.1,599.4z
					 M1384,596.3c1.4,1.4,3.2,2.1,5.3,2.1c2.1,0,3.9-0.7,5.3-2.1s2.1-3.3,2.1-5.5s-0.7-4.1-2.1-5.5s-3.2-2.1-5.3-2.1
					c-2.1,0-3.9,0.7-5.3,2.1c-1.4,1.4-2.1,3.3-2.1,5.5S1382.6,594.9,1384,596.3z"/>
				<path fill="#5B5B5B" d="M1412.1,589.8v12.7h-4.9v-23.4h4.9v4.3c0.8-1.4,1.9-2.6,3.3-3.4c1.4-0.8,2.9-1.2,4.5-1.2
					c2.6,0,4.8,0.8,6.4,2.4s2.4,3.9,2.4,7v14.3h-4.9v-12.8c0-4.3-1.8-6.5-5.4-6.5c-1.7,0-3.2,0.6-4.4,1.7
					C1412.7,586,1412.1,587.7,1412.1,589.8z"/>
				<path fill="#5B5B5B" d="M1454.6,602.5h-4.5v-3.1c-1.9,2.3-4.5,3.5-7.8,3.5c-2.4,0-4.5-0.7-6-2.1s-2.4-3.2-2.4-5.5
					c0-2.3,0.8-4,2.6-5.2c1.7-1.1,4-1.7,6.9-1.7h6.4v-0.9c0-3.1-1.7-4.7-5.2-4.7c-2.2,0-4.4,0.8-6.8,2.4l-2.2-3.1
					c2.8-2.3,6.1-3.4,9.7-3.4c2.8,0,5,0.7,6.8,2.1c1.7,1.4,2.6,3.6,2.6,6.6V602.5z M1449.6,593.8v-2h-5.5c-3.5,0-5.3,1.1-5.3,3.3
					c0,1.1,0.4,2,1.3,2.6c0.9,0.6,2.1,0.9,3.7,0.9c1.6,0,2.9-0.4,4.1-1.3C1449,596.5,1449.6,595.3,1449.6,593.8z"/>
				<path fill="#5B5B5B" d="M1466.3,602.5h-4.9v-32.6h4.9V602.5z"/>
				<path fill="#5B5B5B" d="M1500.3,602.5h-5.8l-12.4-30.8h5.8l9.5,23l9.5-23h5.8L1500.3,602.5z"/>
				<path fill="#5B5B5B" d="M1516.6,574.4c-0.6-0.6-0.9-1.3-0.9-2.2c0-0.8,0.3-1.6,0.9-2.2c0.6-0.6,1.3-0.9,2.2-0.9
					c0.9,0,1.6,0.3,2.2,0.9c0.6,0.6,0.9,1.3,0.9,2.2c0,0.9-0.3,1.6-0.9,2.2s-1.3,0.9-2.2,0.9C1518,575.4,1517.3,575.1,1516.6,574.4z
					 M1521.3,602.5h-4.9v-23.4h4.9V602.5z"/>
				<path fill="#5B5B5B" d="M1530.2,599.5c-2.2-2.2-3.3-5.2-3.3-8.8c0-3.6,1.1-6.5,3.4-8.7c2.3-2.2,4.9-3.3,8.1-3.3s5.6,1.3,7.5,4
					v-12.8h4.9v32.6h-4.9V599c-1.8,2.6-4.5,3.9-8,3.9C1535,602.9,1532.4,601.8,1530.2,599.5z M1531.8,590.9c0,2.2,0.7,4.1,2.2,5.5
					s3.1,2.1,5.1,2.1c1.9,0,3.6-0.7,4.9-2.1c1.3-1.4,2-3.2,2-5.5c0-2.2-0.7-4.1-2-5.6c-1.3-1.5-3-2.2-5-2.2c-2,0-3.7,0.7-5.1,2.2
					C1532.5,586.8,1531.8,588.7,1531.8,590.9z"/>
				<path fill="#5B5B5B" d="M1579.7,593h-18.3c0.1,1.7,0.9,3.1,2.3,4.1c1.4,1,3.1,1.6,4.9,1.6c2.9,0,5.2-0.9,6.7-2.8l2.8,3.1
					c-2.5,2.6-5.8,3.9-9.9,3.9c-3.3,0-6.1-1.1-8.4-3.3c-2.3-2.2-3.5-5.1-3.5-8.8c0-3.7,1.2-6.6,3.5-8.8s5.1-3.3,8.3-3.3
					s5.9,1,8.1,2.9c2.2,1.9,3.3,4.6,3.3,7.9V593z M1561.4,589.1h13.4c0-2-0.6-3.5-1.8-4.5c-1.2-1.1-2.8-1.6-4.6-1.6
					c-1.8,0-3.4,0.5-4.9,1.7C1562.1,585.7,1561.4,587.2,1561.4,589.1z"/>
				<path fill="#5B5B5B" d="M1604.7,599.4c-2.3,2.3-5.3,3.5-8.8,3.5s-6.5-1.2-8.8-3.5c-2.3-2.3-3.5-5.2-3.5-8.6
					c0-3.4,1.2-6.2,3.5-8.6c2.3-2.3,5.3-3.5,8.8-3.5s6.5,1.2,8.8,3.5s3.5,5.2,3.5,8.6C1608.2,594.2,1607.1,597,1604.7,599.4z
					 M1590.6,596.3c1.4,1.4,3.2,2.1,5.3,2.1c2.1,0,3.9-0.7,5.3-2.1s2.1-3.3,2.1-5.5s-0.7-4.1-2.1-5.5s-3.2-2.1-5.3-2.1
					c-2.1,0-3.9,0.7-5.3,2.1c-1.4,1.4-2.1,3.3-2.1,5.5S1589.2,594.9,1590.6,596.3z"/>
			</g>
			<g enable-background="new    ">
				<path fill="#5B5B5B" d="M1093.4,692.8l-0.7,0c-4.6,0-8.4-1.5-11.5-4.6s-4.7-6.8-4.7-11.4c0-4.5,1.6-8.3,4.7-11.4s7-4.6,11.5-4.6
					s8.4,1.5,11.5,4.6s4.7,6.8,4.7,11.3c0,3.4-0.9,6.5-2.8,9.1c-1.8,2.7-4.3,4.6-7.4,5.7c1,1.3,2.3,2,3.8,2c1.1,0,2.2-0.3,3.3-0.9
					c1.1-0.6,1.9-1.3,2.4-2.3l2.9,4.1c-2.6,2.7-5.5,4-8.8,4c-1.9,0-3.7-0.5-5.4-1.6S1094.1,694.6,1093.4,692.8z M1100.4,669
					c-2.1-2.2-4.7-3.3-7.7-3.3c-3.1,0-5.6,1.1-7.7,3.3c-2.1,2.2-3.1,4.8-3.1,7.9s1,5.7,3.1,7.9c2.1,2.2,4.7,3.3,7.7,3.3
					c3,0,5.6-1.1,7.7-3.3c2.1-2.2,3.1-4.8,3.1-7.9S1102.5,671.2,1100.4,669z"/>
				<path fill="#5B5B5B" d="M1131.1,681.8v-12.7h4.9v23.4h-4.9v-4.3c-0.8,1.4-1.9,2.6-3.3,3.4c-1.4,0.8-2.9,1.2-4.5,1.2
					c-2.6,0-4.8-0.8-6.4-2.4c-1.6-1.6-2.4-3.9-2.4-7v-14.3h4.9V682c0,4.3,1.8,6.5,5.4,6.5c1.7,0,3.2-0.6,4.4-1.7
					C1130.5,685.6,1131.1,684,1131.1,681.8z"/>
				<path fill="#5B5B5B" d="M1165,683h-18.3c0.1,1.7,0.9,3.1,2.3,4.1c1.4,1,3.1,1.6,4.9,1.6c2.9,0,5.2-0.9,6.7-2.8l2.8,3.1
					c-2.5,2.6-5.8,3.9-9.9,3.9c-3.3,0-6.1-1.1-8.4-3.3c-2.3-2.2-3.5-5.1-3.5-8.8c0-3.7,1.2-6.6,3.5-8.8s5.1-3.3,8.3-3.3
					s5.9,1,8.1,2.9c2.2,1.9,3.3,4.6,3.3,7.9V683z M1146.6,679.1h13.4c0-2-0.6-3.5-1.8-4.5c-1.2-1.1-2.8-1.6-4.6-1.6
					c-1.8,0-3.4,0.5-4.9,1.7C1147.3,675.7,1146.6,677.2,1146.6,679.1z"/>
				<path fill="#5B5B5B" d="M1187,685.5c0,2.2-0.8,4-2.4,5.3c-1.6,1.3-3.7,2-6.2,2c-1.7,0-3.5-0.3-5.3-0.9s-3.5-1.5-4.9-2.6l2.4-3.8
					c2.7,2.1,5.4,3.1,7.9,3.1c1.1,0,2-0.3,2.6-0.8c0.6-0.5,1-1.2,1-2c0-1.2-1.6-2.2-4.7-3.2c-0.2-0.1-0.4-0.1-0.5-0.2
					c-4.9-1.3-7.3-3.5-7.3-6.6c0-2.2,0.8-3.9,2.5-5.2c1.7-1.3,3.9-2,6.6-2c2.7,0,5.2,0.8,7.7,2.4l-1.8,3.7c-1.9-1.3-4-1.9-6.2-1.9
					c-1.2,0-2.1,0.2-2.9,0.6c-0.7,0.4-1.1,1.1-1.1,1.9c0,0.8,0.4,1.3,1.1,1.7c0.5,0.3,1.3,0.5,2.2,0.7c1,0.2,1.8,0.5,2.5,0.7
					c0.7,0.2,1.4,0.5,2.1,0.8c0.7,0.3,1.4,0.7,2.2,1.2C1186.2,681.6,1187,683.3,1187,685.5z"/>
				<path fill="#5B5B5B" d="M1198.7,673.1v11.9c0,1.1,0.3,2,0.9,2.7s1.4,1,2.5,1c1.1,0,2.1-0.5,3-1.5l2,3.5
					c-1.7,1.6-3.6,2.3-5.7,2.3c-2.1,0-3.9-0.7-5.4-2.2c-1.5-1.5-2.2-3.4-2.2-5.9v-11.7h-2.9v-4h2.9v-7.3h4.9v7.3h6.2v4H1198.7z"/>
				<path fill="#5B5B5B" d="M1211.3,664.4c-0.6-0.6-0.9-1.3-0.9-2.2c0-0.8,0.3-1.6,0.9-2.2c0.6-0.6,1.3-0.9,2.2-0.9
					c0.9,0,1.6,0.3,2.2,0.9c0.6,0.6,0.9,1.3,0.9,2.2c0,0.9-0.3,1.6-0.9,2.2s-1.3,0.9-2.2,0.9
					C1212.7,665.4,1211.9,665.1,1211.3,664.4z M1215.9,692.5h-4.9v-23.4h4.9V692.5z"/>
				<path fill="#5B5B5B" d="M1242.7,689.4c-2.3,2.3-5.3,3.5-8.8,3.5s-6.5-1.2-8.8-3.5c-2.3-2.3-3.5-5.2-3.5-8.6
					c0-3.4,1.2-6.2,3.5-8.6c2.3-2.3,5.3-3.5,8.8-3.5s6.5,1.2,8.8,3.5s3.5,5.2,3.5,8.6C1246.2,684.2,1245,687,1242.7,689.4z
					 M1228.6,686.3c1.4,1.4,3.2,2.1,5.3,2.1c2.1,0,3.9-0.7,5.3-2.1s2.1-3.3,2.1-5.5s-0.7-4.1-2.1-5.5s-3.2-2.1-5.3-2.1
					c-2.1,0-3.9,0.7-5.3,2.1c-1.4,1.4-2.1,3.3-2.1,5.5S1227.2,684.9,1228.6,686.3z"/>
				<path fill="#5B5B5B" d="M1256.7,679.8v12.7h-4.9v-23.4h4.9v4.3c0.8-1.4,1.9-2.6,3.3-3.4c1.4-0.8,2.9-1.2,4.5-1.2
					c2.6,0,4.8,0.8,6.4,2.4s2.4,3.9,2.4,7v14.3h-4.9v-12.8c0-4.3-1.8-6.5-5.4-6.5c-1.7,0-3.2,0.6-4.4,1.7
					C1257.3,676,1256.7,677.7,1256.7,679.8z"/>
				<path fill="#5B5B5B" d="M1285.1,679.8v12.7h-4.9v-23.4h4.9v4.3c0.8-1.4,1.9-2.6,3.3-3.4c1.4-0.8,2.9-1.2,4.5-1.2
					c2.6,0,4.8,0.8,6.4,2.4s2.4,3.9,2.4,7v14.3h-4.9v-12.8c0-4.3-1.8-6.5-5.4-6.5c-1.7,0-3.2,0.6-4.4,1.7
					C1285.7,676,1285.1,677.7,1285.1,679.8z"/>
				<path fill="#5B5B5B" d="M1327.6,692.5h-4.5v-3.1c-1.9,2.3-4.5,3.5-7.8,3.5c-2.4,0-4.5-0.7-6-2.1s-2.4-3.2-2.4-5.5
					c0-2.3,0.8-4,2.6-5.2c1.7-1.1,4-1.7,6.9-1.7h6.4v-0.9c0-3.1-1.7-4.7-5.2-4.7c-2.2,0-4.4,0.8-6.8,2.4l-2.2-3.1
					c2.8-2.3,6.1-3.4,9.7-3.4c2.8,0,5,0.7,6.8,2.1c1.7,1.4,2.6,3.6,2.6,6.6V692.5z M1322.6,683.8v-2h-5.5c-3.5,0-5.3,1.1-5.3,3.3
					c0,1.1,0.4,2,1.3,2.6c0.9,0.6,2.1,0.9,3.7,0.9c1.6,0,2.9-0.4,4.1-1.3C1322.1,686.5,1322.6,685.3,1322.6,683.8z"/>
				<path fill="#5B5B5B" d="M1334.7,664.4c-0.6-0.6-0.9-1.3-0.9-2.2c0-0.8,0.3-1.6,0.9-2.2c0.6-0.6,1.3-0.9,2.2-0.9
					c0.9,0,1.6,0.3,2.2,0.9c0.6,0.6,0.9,1.3,0.9,2.2c0,0.9-0.3,1.6-0.9,2.2s-1.3,0.9-2.2,0.9
					C1336.1,665.4,1335.4,665.1,1334.7,664.4z M1339.4,692.5h-4.9v-23.4h4.9V692.5z"/>
				<path fill="#5B5B5B" d="M1358.8,673.7c-2.4,0-4.3,0.8-5.5,2.4c-1.2,1.6-1.8,3.7-1.8,6.4v10h-4.9v-23.4h4.9v4.7
					c0.8-1.5,1.9-2.7,3.2-3.6c1.4-0.9,2.8-1.4,4.3-1.5l0,5C1358.9,673.7,1358.9,673.7,1358.8,673.7z"/>
				<path fill="#5B5B5B" d="M1385.7,683h-18.3c0.1,1.7,0.9,3.1,2.3,4.1c1.4,1,3.1,1.6,4.9,1.6c2.9,0,5.2-0.9,6.7-2.8l2.8,3.1
					c-2.5,2.6-5.8,3.9-9.9,3.9c-3.3,0-6.1-1.1-8.4-3.3s-3.5-5.1-3.5-8.8c0-3.7,1.2-6.6,3.5-8.8c2.3-2.2,5.1-3.3,8.3-3.3
					c3.2,0,5.9,1,8.1,2.9c2.2,1.9,3.3,4.6,3.3,7.9V683z M1367.4,679.1h13.4c0-2-0.6-3.5-1.8-4.5c-1.2-1.1-2.8-1.6-4.6-1.6
					s-3.4,0.5-4.9,1.7C1368.1,675.7,1367.4,677.2,1367.4,679.1z"/>
			</g>
			<g enable-background="new    ">
				<path fill="#5B5B5B" d="M1083.7,756.6v8.4h13.6v4.8h-13.6v12.7h-5.2v-30.8h20.5l0,4.8H1083.7z"/>
				<path fill="#5B5B5B" d="M1104.7,754.4c-0.6-0.6-0.9-1.3-0.9-2.2c0-0.8,0.3-1.6,0.9-2.2c0.6-0.6,1.3-0.9,2.2-0.9s1.6,0.3,2.2,0.9
					c0.6,0.6,0.9,1.3,0.9,2.2c0,0.9-0.3,1.6-0.9,2.2s-1.3,0.9-2.2,0.9S1105.3,755.1,1104.7,754.4z M1109.3,782.5h-4.9v-23.4h4.9
					V782.5z"/>
				<path fill="#5B5B5B" d="M1121.3,769.8v12.7h-4.9v-23.4h4.9v4.3c0.8-1.4,1.9-2.6,3.3-3.4c1.4-0.8,2.9-1.2,4.5-1.2
					c2.6,0,4.8,0.8,6.4,2.4s2.4,3.9,2.4,7v14.3h-4.9v-12.8c0-4.3-1.8-6.5-5.4-6.5c-1.7,0-3.2,0.6-4.4,1.7
					C1122,766,1121.3,767.7,1121.3,769.8z"/>
				<path fill="#5B5B5B" d="M1145.1,754.4c-0.6-0.6-0.9-1.3-0.9-2.2c0-0.8,0.3-1.6,0.9-2.2c0.6-0.6,1.3-0.9,2.2-0.9
					c0.9,0,1.6,0.3,2.2,0.9c0.6,0.6,0.9,1.3,0.9,2.2c0,0.9-0.3,1.6-0.9,2.2s-1.3,0.9-2.2,0.9
					C1146.5,755.4,1145.8,755.1,1145.1,754.4z M1149.8,782.5h-4.9v-23.4h4.9V782.5z"/>
				<path fill="#5B5B5B" d="M1173.6,775.5c0,2.2-0.8,4-2.4,5.3c-1.6,1.3-3.7,2-6.2,2c-1.7,0-3.5-0.3-5.3-0.9
					c-1.8-0.6-3.5-1.5-4.9-2.6l2.4-3.8c2.7,2.1,5.4,3.1,7.9,3.1c1.1,0,2-0.3,2.6-0.8c0.6-0.5,1-1.2,1-2c0-1.2-1.6-2.2-4.7-3.2
					c-0.2-0.1-0.4-0.1-0.5-0.2c-4.9-1.3-7.3-3.5-7.3-6.6c0-2.2,0.8-3.9,2.5-5.2c1.7-1.3,3.9-2,6.6-2c2.7,0,5.3,0.8,7.7,2.4l-1.8,3.7
					c-1.9-1.3-4-1.9-6.2-1.9c-1.2,0-2.1,0.2-2.9,0.6c-0.7,0.4-1.1,1.1-1.1,1.9c0,0.8,0.4,1.3,1.1,1.7c0.5,0.3,1.3,0.5,2.2,0.7
					c1,0.2,1.8,0.5,2.5,0.7c0.7,0.2,1.4,0.5,2.1,0.8c0.7,0.3,1.4,0.7,2.2,1.2C1172.8,771.6,1173.6,773.3,1173.6,775.5z"/>
				<path fill="#5B5B5B" d="M1184.1,769.8v12.7h-4.9v-32.6h4.9v13.5c0.7-1.4,1.8-2.6,3.2-3.4c1.4-0.8,3-1.2,4.6-1.2
					c2.6,0,4.8,0.8,6.4,2.4s2.4,3.9,2.4,7v14.3h-4.9v-12.8c0-4.3-1.8-6.5-5.4-6.5c-1.7,0-3.2,0.6-4.4,1.7
					C1184.7,766,1184.1,767.7,1184.1,769.8z"/>
				<path fill="#5B5B5B" d="M1238.6,782.5h-4.5v-3.1c-1.9,2.3-4.5,3.5-7.8,3.5c-2.4,0-4.5-0.7-6-2.1s-2.4-3.2-2.4-5.5
					c0-2.3,0.8-4,2.6-5.2c1.7-1.1,4-1.7,6.9-1.7h6.4v-0.9c0-3.1-1.7-4.7-5.2-4.7c-2.2,0-4.4,0.8-6.8,2.4l-2.2-3.1
					c2.8-2.3,6.1-3.4,9.7-3.4c2.8,0,5,0.7,6.8,2.1c1.7,1.4,2.6,3.6,2.6,6.6V782.5z M1233.7,773.8v-2h-5.5c-3.5,0-5.3,1.1-5.3,3.3
					c0,1.1,0.4,2,1.3,2.6c0.9,0.6,2.1,0.9,3.7,0.9c1.6,0,2.9-0.4,4.1-1.3C1233.1,776.5,1233.7,775.3,1233.7,773.8z"/>
				<path fill="#5B5B5B" d="M1250.4,769.8v12.7h-4.9v-23.4h4.9v4.3c0.8-1.4,1.9-2.6,3.3-3.4c1.4-0.8,2.9-1.2,4.5-1.2
					c2.6,0,4.8,0.8,6.4,2.4s2.4,3.9,2.4,7v14.3h-4.9v-12.8c0-4.3-1.8-6.5-5.4-6.5c-1.7,0-3.2,0.6-4.4,1.7
					C1251,766,1250.4,767.7,1250.4,769.8z"/>
				<path fill="#5B5B5B" d="M1275.7,779.5c-2.2-2.2-3.3-5.2-3.3-8.8c0-3.6,1.1-6.5,3.4-8.7s5-3.3,8.1-3.3s5.6,1.3,7.5,4v-12.8h4.9
					v32.6h-4.9V779c-1.8,2.6-4.5,3.9-8,3.9C1280.5,782.9,1277.9,781.8,1275.7,779.5z M1277.3,770.9c0,2.2,0.7,4.1,2.2,5.5
					c1.4,1.4,3.1,2.1,5.1,2.1c1.9,0,3.6-0.7,4.9-2.1c1.3-1.4,2-3.2,2-5.5c0-2.2-0.7-4.1-2-5.6c-1.3-1.5-3-2.2-5-2.2
					s-3.7,0.7-5.1,2.2S1277.3,768.7,1277.3,770.9z"/>
				<path fill="#5B5B5B" d="M1327.8,763.7c-2.4,0-4.3,0.8-5.5,2.4c-1.2,1.6-1.8,3.7-1.8,6.4v10h-4.9v-23.4h4.9v4.7
					c0.8-1.5,1.9-2.7,3.2-3.6s2.8-1.4,4.3-1.5l0,5C1328,763.7,1327.9,763.7,1327.8,763.7z"/>
				<path fill="#5B5B5B" d="M1354.8,773h-18.3c0.1,1.7,0.9,3.1,2.3,4.1c1.4,1,3.1,1.6,4.9,1.6c2.9,0,5.2-0.9,6.7-2.8l2.8,3.1
					c-2.5,2.6-5.8,3.9-9.9,3.9c-3.3,0-6.1-1.1-8.4-3.3c-2.3-2.2-3.5-5.1-3.5-8.8c0-3.7,1.2-6.6,3.5-8.8s5.1-3.3,8.3-3.3
					s5.9,1,8.1,2.9c2.2,1.9,3.3,4.6,3.3,7.9V773z M1336.4,769.1h13.4c0-2-0.6-3.5-1.8-4.5c-1.2-1.1-2.8-1.6-4.6-1.6
					c-1.8,0-3.4,0.5-4.9,1.7C1337.1,765.7,1336.4,767.2,1336.4,769.1z"/>
				<path fill="#5B5B5B" d="M1366.1,763.1v11.9c0,1.1,0.3,2,0.9,2.7s1.4,1,2.5,1c1.1,0,2.1-0.5,3-1.5l2,3.5
					c-1.7,1.6-3.6,2.3-5.7,2.3c-2.1,0-3.9-0.7-5.4-2.2c-1.5-1.5-2.2-3.4-2.2-5.9v-11.7h-2.9v-4h2.9v-7.3h4.9v7.3h6.2v4H1366.1z"/>
				<path fill="#5B5B5B" d="M1394.8,771.8v-12.7h4.9v23.4h-4.9v-4.3c-0.8,1.4-1.9,2.6-3.3,3.4c-1.4,0.8-2.9,1.2-4.5,1.2
					c-2.6,0-4.8-0.8-6.4-2.4c-1.6-1.6-2.4-3.9-2.4-7v-14.3h4.9V772c0,4.3,1.8,6.5,5.4,6.5c1.7,0,3.2-0.6,4.4-1.7
					C1394.1,775.6,1394.8,774,1394.8,771.8z"/>
				<path fill="#5B5B5B" d="M1419.1,763.7c-2.4,0-4.3,0.8-5.5,2.4c-1.2,1.6-1.8,3.7-1.8,6.4v10h-4.9v-23.4h4.9v4.7
					c0.8-1.5,1.9-2.7,3.2-3.6c1.4-0.9,2.8-1.4,4.3-1.5l0,5C1419.3,763.7,1419.2,763.7,1419.1,763.7z"/>
				<path fill="#5B5B5B" d="M1429.2,769.8v12.7h-4.9v-23.4h4.9v4.3c0.8-1.4,1.9-2.6,3.3-3.4c1.4-0.8,2.9-1.2,4.5-1.2
					c2.6,0,4.8,0.8,6.4,2.4s2.4,3.9,2.4,7v14.3h-4.9v-12.8c0-4.3-1.8-6.5-5.4-6.5c-1.7,0-3.2,0.6-4.4,1.7
					C1429.8,766,1429.2,767.7,1429.2,769.8z"/>
				<path fill="#5B5B5B" d="M1465.1,754.4c-0.6-0.6-0.9-1.3-0.9-2.2c0-0.8,0.3-1.6,0.9-2.2c0.6-0.6,1.3-0.9,2.2-0.9
					c0.9,0,1.6,0.3,2.2,0.9c0.6,0.6,0.9,1.3,0.9,2.2c0,0.9-0.3,1.6-0.9,2.2s-1.3,0.9-2.2,0.9
					C1466.4,755.4,1465.7,755.1,1465.1,754.4z M1469.7,782.5h-4.9v-23.4h4.9V782.5z"/>
				<path fill="#5B5B5B" d="M1498.3,754.4c2.1,1.8,3.2,4.5,3.2,8.3c0,3.7-1.1,6.5-3.3,8.2c-2.2,1.7-5.5,2.6-10.1,2.6h-5.5v9h-5.2
					v-30.8h10.6C1492.7,751.8,1496.1,752.7,1498.3,754.4z M1494.6,767.1c1-1.1,1.6-2.7,1.6-4.8s-0.7-3.6-2-4.5
					c-1.3-0.9-3.4-1.3-6.2-1.3h-5.3v12.3h6C1491.6,768.8,1493.6,768.2,1494.6,767.1z"/>
				<path fill="#5B5B5B" d="M1525.4,782.5h-4.5v-3.1c-1.9,2.3-4.5,3.5-7.8,3.5c-2.4,0-4.5-0.7-6-2.1c-1.6-1.4-2.4-3.2-2.4-5.5
					c0-2.3,0.9-4,2.6-5.2c1.7-1.1,4-1.7,6.9-1.7h6.4v-0.9c0-3.1-1.7-4.7-5.2-4.7c-2.2,0-4.4,0.8-6.8,2.4l-2.2-3.1
					c2.8-2.3,6.1-3.4,9.7-3.4c2.8,0,5,0.7,6.8,2.1c1.7,1.4,2.6,3.6,2.6,6.6V782.5z M1520.5,773.8v-2h-5.5c-3.5,0-5.3,1.1-5.3,3.3
					c0,1.1,0.4,2,1.3,2.6c0.9,0.6,2.1,0.9,3.7,0.9s2.9-0.4,4.1-1.3C1519.9,776.5,1520.5,775.3,1520.5,773.8z"/>
				<path fill="#5B5B5B" d="M1534.1,779.5c-2.2-2.2-3.3-5.2-3.3-8.8c0-3.6,1.1-6.5,3.4-8.7s5-3.3,8.1-3.3s5.6,1.3,7.5,4v-12.8h4.9
					v32.6h-4.9V779c-1.8,2.6-4.5,3.9-8,3.9C1538.9,782.9,1536.3,781.8,1534.1,779.5z M1535.7,770.9c0,2.2,0.7,4.1,2.2,5.5
					c1.4,1.4,3.1,2.1,5.1,2.1c1.9,0,3.6-0.7,4.9-2.1c1.3-1.4,2-3.2,2-5.5c0-2.2-0.7-4.1-2-5.6c-1.3-1.5-3-2.2-5-2.2
					s-3.7,0.7-5.1,2.2S1535.7,768.7,1535.7,770.9z"/>
			</g>
		</g>
		<g clip-path="url(#SVGID_2_)">
			<rect x="987.5" y="479.9" fill="none" width="73.1" height="328.9"/>
			<g enable-background="new    ">
				<path fill="#FFFFFF" d="M1017,481.8h11.2v30.8h-4.9v-26.1h-6.2V481.8z"/>
			</g>
			<g enable-background="new    ">
				<path fill="#FFFFFF" d="M1027.4,583.8c0.9-1.2,1.3-2.4,1.3-3.7c0-1.2-0.5-2.3-1.4-3.1s-2.1-1.3-3.6-1.3c-2.5,0-4.6,1.3-6.3,3.9
					l-4.2-2.4c1.3-2,2.8-3.5,4.5-4.6c1.6-1,3.7-1.5,6.3-1.5c2.6,0,4.8,0.8,6.8,2.4c1.9,1.6,2.9,3.8,2.9,6.7c0,1.6-0.4,3.1-1.2,4.5
					c-0.8,1.4-2.3,3.3-4.5,5.5l-7.2,7.3h13.9v5h-21v-4.4l9.3-9.4C1025.1,586.6,1026.5,585,1027.4,583.8z"/>
			</g>
			<g enable-background="new    ">
				<path fill="#FFFFFF" d="M1014.8,666.4v-4.6h18v4l-7.4,8.3c2.8,0.1,5,1,6.6,2.7c1.6,1.7,2.4,3.7,2.4,6.1c0,3.1-1.1,5.6-3.2,7.4
					c-2.1,1.8-4.9,2.7-8.2,2.7c-3.3,0-6.6-1.1-9.8-3.2l2.2-4.2c2.5,1.8,5.2,2.6,7.9,2.6c1.8,0,3.3-0.4,4.4-1.3
					c1.2-0.8,1.7-2,1.7-3.6s-0.6-2.8-1.9-3.8c-1.3-0.9-3.1-1.4-5.4-1.4c-1.1,0-2.2,0.2-3.3,0.5v-4l7.1-8.3H1014.8z"/>
			</g>
			<g enable-background="new    ">
				<path fill="#FFFFFF" d="M1026.3,770.1v-5.6h4.9v5.6h3.7v4.7h-3.7v7.7h-4.9v-7.7h-13.2v-4.6l11.3-18.4h5.7l-11.1,18.3H1026.3z"/>
			</g>
		</g>
		<rect x="1074.2" y="346.9" clip-path="url(#SVGID_2_)" fill="none" width="643" height="86.9"/>
		<g clip-path="url(#SVGID_2_)" enable-background="new    ">
			<path fill="#5B5B5B" d="M1098.5,382.5l9.9-32.2h13l9.8,32.2l11.1-32.2h13.5l-19.5,55.9h-9.3l-12.2-38.9l-12.2,38.9h-9.3
				l-19.5-55.9h13.5L1098.5,382.5z"/>
			<path fill="#5B5B5B" d="M1198.7,400c-4.9,4.6-10.5,6.9-17.1,6.9s-11.9-2-16.2-6c-4.3-4-6.4-9.4-6.4-16.2c0-6.8,2.2-12.2,6.5-16.2
				c4.3-4,9.5-6,15.4-6s10.9,1.8,15.1,5.4c4.1,3.6,6.2,8.5,6.2,14.7v6.4h-31.4c0.4,2.3,1.6,4.3,3.7,5.8s4.4,2.2,7,2.2
				c4.2,0,7.7-1.4,10.4-4.2L1198.7,400z M1187.2,374.5c-1.7-1.4-3.7-2.1-6-2.1s-4.5,0.7-6.5,2.2c-2,1.4-3.1,3.4-3.4,5.8h18.9
				C1189.8,377.8,1188.8,375.9,1187.2,374.5z"/>
			<path fill="#5B5B5B" d="M1222.9,406.2h-12v-59.4h12V406.2z"/>
			<path fill="#5B5B5B" d="M1254.9,396.2c4,0,7.6-2,10.8-6l7.1,8c-5.5,5.8-11.5,8.6-18,8.6c-6.5,0-11.9-2-16.4-6.1
				c-4.5-4.1-6.7-9.4-6.7-16c0-6.6,2.3-11.9,6.8-16.1c4.5-4.1,9.9-6.2,16-6.2c3.1,0,6.2,0.6,9.4,1.9c3.2,1.3,6,3.2,8.4,5.7l-6.2,8.2
				c-1.4-1.7-3.1-2.9-5.1-3.8c-2-0.9-4-1.4-6-1.4c-3.1,0-5.9,1-8.1,3.1c-2.3,2.1-3.4,4.9-3.4,8.6s1.1,6.5,3.4,8.5
				C1249.2,395.2,1251.8,396.2,1254.9,396.2z"/>
			<path fill="#5B5B5B" d="M1323.1,384.7c0,6.2-2.2,11.5-6.5,15.8c-4.3,4.3-9.7,6.4-16.3,6.4s-12-2.1-16.3-6.4
				c-4.3-4.3-6.5-9.5-6.5-15.8c0-6.2,2.2-11.5,6.5-15.8c4.3-4.3,9.7-6.4,16.3-6.4s12,2.1,16.3,6.4
				C1320.9,373.2,1323.1,378.5,1323.1,384.7z M1289.7,384.7c0,3.5,1,6.4,3,8.6c2,2.2,4.6,3.3,7.7,3.3c3.1,0,5.7-1.1,7.7-3.3
				c2-2.2,3-5.1,3-8.6c0-3.5-1-6.4-3-8.6s-4.6-3.4-7.7-3.4c-3.1,0-5.7,1.1-7.7,3.4S1289.7,381.2,1289.7,384.7z"/>
			<path fill="#5B5B5B" d="M1371.5,383v23.2h-12.1v-23.5c0-3.4-0.5-5.9-1.6-7.5s-2.7-2.4-5-2.4s-4.4,0.9-6.2,2.6
				c-1.8,1.7-2.7,4.3-2.7,7.6v23.2h-12v-43h12v4.9c3.3-3.7,7.1-5.6,11.4-5.6c2.7,0,5.2,0.8,7.4,2.4c2.2,1.6,3.9,3.5,5,5.8
				c1.7-2.6,3.9-4.6,6.7-6.1c2.8-1.4,5.6-2.2,8.4-2.2c5.1,0,9.1,1.5,12.2,4.5c3.1,3,4.6,7.4,4.6,13.1v26.2h-12.1v-23.5
				c0-6.6-2.4-9.9-7.3-9.9c-2.4,0-4.5,0.9-6.2,2.6C1372.4,377.1,1371.5,379.7,1371.5,383z"/>
			<path fill="#5B5B5B" d="M1447.9,400c-4.9,4.6-10.5,6.9-17.1,6.9s-11.9-2-16.2-6c-4.3-4-6.4-9.4-6.4-16.2c0-6.8,2.2-12.2,6.5-16.2
				c4.3-4,9.5-6,15.4-6s10.9,1.8,15.1,5.4c4.1,3.6,6.2,8.5,6.2,14.7v6.4h-31.4c0.4,2.3,1.6,4.3,3.7,5.8s4.4,2.2,7,2.2
				c4.2,0,7.7-1.4,10.4-4.2L1447.9,400z M1436.4,374.5c-1.7-1.4-3.7-2.1-6-2.1s-4.5,0.7-6.5,2.2c-2,1.4-3.1,3.4-3.4,5.8h18.9
				C1439,377.8,1438,375.9,1436.4,374.5z"/>
		</g>
	</g>
</g>
</svg>
