<?xml version="1.0" encoding="utf-8"?>
<!-- Generator: Adobe Illustrator 18.1.1, SVG Export Plug-In . SVG Version: 6.00 Build 0)  -->
<svg version="1.1" id="Partner" xmlns="http://www.w3.org/2000/svg" xmlns:xlink="http://www.w3.org/1999/xlink" x="0px" y="0px"
	 viewBox="0 0 2048 1536" enable-background="new 0 0 2048 1536" xml:space="preserve">
<rect fill="#F0F7F7" width="2048" height="1536"/>
<g>
	<ellipse fill="#C3E5DF" cx="1611.9" cy="467.3" rx="166.1" ry="7.8"/>
	<rect x="1597.7" y="452.9" fill="#CECDA3" width="28.6" height="1270.2"/>
	<path opacity="0.15" fill="#5B5B5B" enable-background="new    " d="M1597.7,776.5v28.6l0,0c0,0.7,6.4,1.3,14.3,1.3
		s14.3-0.6,14.3-1.3v-28.6H1597.7z"/>
	<rect x="1570.8" y="721.4" fill="#CECDA3" width="82.3" height="68"/>
	<path opacity="0.15" fill="#5B5B5B" enable-background="new    " d="M1570.8,717.3v58c0,2.1,18.4,3.8,41.2,3.8
		c22.7,0,41.2-1.7,41.2-3.8v-58H1570.8z"/>
	<rect x="1667" y="748.2" fill="#A09F97" width="8.2" height="106.5"/>
	<path fill="#92EFDF" d="M1778.2,467.3h-0.2c0,4.3-74.4,7.8-166.1,7.8s-166.1-3.5-166.1-7.8l-50,277.6c0,0,123.2,19.3,216.2,19.3
		s216.2-19.3,216.2-19.3L1778.2,467.3z"/>
	<polygon opacity="5.000000e-02" fill="#5B5B5B" enable-background="new    " points="1432.1,749.9 1395.8,744.9 1445.8,467.3 
		1466.5,471 	"/>
	<polygon opacity="5.000000e-02" fill="#5B5B5B" enable-background="new    " points="1828.2,744.9 1762.1,749.9 1755,471 
		1778.2,467.3 	"/>
	<rect x="364.6" y="1155.3" opacity="0.7" fill="#FEFDFC" enable-background="new    " width="560.9" height="202.6"/>
	<rect x="593.8" y="1251.2" opacity="0.3" fill="#302B2A" enable-background="new    " width="94.6" height="21.4"/>
	<rect x="597.7" y="1245.9" fill="#C6C5A3" width="94.6" height="21.4"/>
	<rect x="364.6" y="1357.9" opacity="0.7" fill="#F9F3EB" enable-background="new    " width="560.9" height="202.6"/>
	<rect x="593.8" y="1443.1" opacity="0.3" fill="#302B2A" enable-background="new    " width="94.6" height="21.4"/>
	<rect x="1248.1" y="1168.7" opacity="0.7" fill="#DDD7D0" enable-background="new    " width="161.3" height="411.9"/>
	<rect x="1086.8" y="1168.7" opacity="0.7" fill="#FEFDFC" enable-background="new    " width="161.3" height="411.9"/>
	<rect x="925.5" y="1168.7" opacity="0.7" fill="#DDD7D0" enable-background="new    " width="161.3" height="411.9"/>
	<rect x="597.7" y="1437.8" fill="#C6C5A3" width="94.6" height="21.4"/>
	<rect x="1409.3" y="1166.6" opacity="0.7" fill="#79463E" enable-background="new    " width="52" height="430.7"/>
	<rect x="321" y="1166.6" opacity="0.7" fill="#79463E" enable-background="new    " width="52" height="430.7"/>
	<rect x="1409.3" y="1166.6" opacity="0.1" fill="#302B2A" enable-background="new    " width="52" height="25.5"/>
	<rect x="321" y="1166.6" opacity="0.1" fill="#302B2A" enable-background="new    " width="52" height="25.5"/>
	<rect x="321" y="1116.7" opacity="0.7" fill="#BB8453" enable-background="new    " width="1140.3" height="52"/>
	<polygon opacity="0.7" fill="#775C3E" enable-background="new    " points="1461.3,1116.7 1461.3,1116.7 1309.9,1072 472.5,1072 
		321,1116.7 	"/>
	<rect x="991.1" y="1310.5" opacity="0.3" fill="#302B2A" enable-background="new    " width="21.4" height="94.6"/>
	<rect x="1152.4" y="1310.5" opacity="0.3" fill="#302B2A" enable-background="new    " width="21.4" height="94.6"/>
	<rect x="1309.9" y="1310.5" opacity="0.3" fill="#302B2A" enable-background="new    " width="21.4" height="94.6"/>
	<rect x="995.4" y="1303.9" fill="#C6C5A3" width="21.4" height="94.6"/>
	<rect x="1156.7" y="1303.9" fill="#C6C5A3" width="21.4" height="94.6"/>
	<rect x="1314.2" y="1303.9" fill="#C6C5A3" width="21.4" height="94.6"/>
	<circle fill="#BFC1C1" cx="1671.1" cy="854.7" r="6.9"/>
	<ellipse fill="#B5B38A" cx="1612" cy="452.9" rx="14.3" ry="2.6"/>
	<ellipse fill="#CECDA3" cx="1612" cy="789.4" rx="41.2" ry="3.8"/>
</g>
<g>
	<polygon fill="#998674" points="1156.9,731.2 1249.4,731.2 1243.6,634.5 1162.7,634.5 	"/>
	<polygon opacity="0.1" fill="#443E3B" enable-background="new    " points="1156.9,731.2 1249.4,731.2 1243.6,634.5 1162.7,634.5 	
		"/>
	<ellipse fill="#998674" cx="1191.4" cy="552.8" rx="115.5" ry="127.1"/>
	<path opacity="5.000000e-02" enable-background="new    " d="M1278.8,535.1c0-35.4-11.5-67.8-30.7-92.9
		c35,21.8,58.7,63.2,58.7,110.6c0,70.2-51.7,127.1-115.5,127.1c-7.3,0-14.4-0.8-21.3-2.2C1231.8,665.8,1278.8,606.5,1278.8,535.1z"
		/>
	<path fill="#636363" d="M1317.9,538.6c0-68.5-52.1-124-116.3-124c-38.3,0-72.2,19.7-93.4,50.2c29.6-11.1,69.7-12.5,93.4-8.1
		c44.7,8.3,57.8,53.4,54.9,85s25.6,7.2,25.6,7.2l14,58.8C1308.6,587.9,1317.9,564.2,1317.9,538.6z"/>
	<path opacity="0.59" fill="#BDCAD6" enable-background="new    " d="M1181.2,546.3h31.1c9.7,0,17.7-8,17.7-17.7v-10.5
		c0-9.7-8-17.7-17.7-17.7h-31.1c-9.7,0-17.7,8-17.7,17.7v10.5C1163.5,538.3,1171.4,546.3,1181.2,546.3z"/>
	<path opacity="0.59" fill="#BDCAD6" enable-background="new    " d="M1091.5,546.3h32.3c9.4,0,17.1-7.7,17.1-17.1v-11.7
		c0-9.4-7.7-17.1-17.1-17.1h-32.3c-9.4,0-17.1,7.7-17.1,17.1v11.7C1074.4,538.6,1082.1,546.3,1091.5,546.3z"/>
	<path fill="none" stroke="#000000" stroke-width="9.2737" stroke-linecap="round" stroke-miterlimit="10" d="M1274,546.3"/>
	<path fill="none" stroke="#000000" stroke-width="9.2737" stroke-linecap="round" stroke-miterlimit="10" d="M1232.2,511.5"/>
	<g>
		<path fill="#3A3125" d="M1237.7,507.1c0,0,0.8,0.5,2.2,1.5c1.4,1,3.4,2.4,5.9,4c2.4,1.7,5.2,3.7,8.2,5.8s6.1,4.5,9.3,6.8
			c1.6,1.2,3.1,2.3,4.7,3.5c1.6,1.1,3.1,2.3,4.4,3.5c1.4,1.2,2.7,2.5,3.9,3.6c1.2,1.2,2.4,2.2,3.5,3.3c1.1,1,2.1,1.9,3,2.8
			c0.9,0.8,1.6,1.5,2.3,2.2c1.2,1.2,1.9,1.9,1.9,1.9c1.8,1.8,1.9,4.8,0.1,6.6c-1.5,1.5-3.7,1.8-5.5,0.9c0,0-0.9-0.5-2.4-1.3
			c-0.8-0.4-1.7-0.9-2.7-1.5c-1.1-0.6-2.2-1.2-3.5-2c-1.3-0.7-2.7-1.5-4.2-2.4c-1.5-0.8-3.1-1.7-4.6-2.6c-1.6-0.9-3.2-2-4.7-3.1
			c-1.6-1.1-3.2-2.3-4.8-3.4c-3.2-2.3-6.3-4.6-9.3-6.8s-5.7-4.3-8-6c-2.3-1.8-4.3-3.3-5.6-4.4c-1.3-1.1-2.1-1.7-2.1-1.7
			c-3-2.4-3.5-6.8-1.1-9.8C1230.7,505.7,1234.8,505.1,1237.7,507.1z"/>
	</g>
	<g>
		<g opacity="0.44">
			<path d="M1173,643.2c0,0-0.4-0.3-1.1-0.7c-0.3-0.2-0.8-0.4-1.3-0.7c-0.5-0.2-1-0.6-1.7-0.8c-0.6-0.3-1.3-0.6-2-0.8
				c-0.7-0.3-1.5-0.5-2.3-0.8c-0.8-0.2-1.7-0.4-2.5-0.6c-0.9-0.1-1.7-0.3-2.6-0.3l-1.3-0.1c-0.4,0-0.9,0.1-1.3,0.1
				c-0.9,0-1.7,0.2-2.5,0.3c-0.8,0-1.6,0.3-2.3,0.4c-0.8,0.1-1.4,0.3-2.1,0.4c-0.6,0.2-1.3,0.2-1.8,0.4s-1,0.3-1.4,0.4
				c-0.8,0.2-1.3,0.3-1.3,0.3l-0.1-0.2c0,0,0.3-0.3,1-0.8c0.3-0.3,0.7-0.6,1.2-0.9c0.5-0.3,1.1-0.6,1.7-0.9c0.3-0.2,0.7-0.3,1-0.5
				c0.4-0.2,0.8-0.2,1.2-0.4c0.8-0.2,1.6-0.5,2.6-0.6c0.9-0.1,1.8-0.2,2.8-0.1c0.5,0,1,0.1,1.4,0.1l1.4,0.2c1,0.1,1.9,0.4,2.8,0.6
				c0.9,0.2,1.8,0.6,2.6,0.9c0.8,0.4,1.6,0.6,2.3,1c0.7,0.4,1.4,0.7,2,1.1c0.6,0.4,1.1,0.7,1.6,1s0.9,0.6,1.2,0.9
				c0.6,0.5,1,0.8,1,0.8L1173,643.2z"/>
		</g>
		<g>
			<g>
				<path d="M1212.2,522.1c0,0-0.2-0.5-0.6-1.3c-0.2-0.4-0.5-0.9-0.8-1.4s-0.7-1.1-1.1-1.8c-0.4-0.6-0.9-1.3-1.4-2s-1.1-1.4-1.7-2.1
					c-0.7-0.7-1.3-1.4-2-2.1c-0.8-0.6-1.5-1.3-2.3-1.9l-1.2-0.9c-0.4-0.2-0.9-0.5-1.3-0.7c-0.8-0.5-1.7-0.8-2.6-1.2
					c-0.8-0.4-1.7-0.7-2.4-1c-0.8-0.4-1.5-0.6-2.3-0.8c-0.7-0.2-1.4-0.5-2-0.6s-1.1-0.3-1.6-0.4c-0.9-0.2-1.4-0.4-1.4-0.4v-0.2
					c0,0,0.5-0.1,1.4-0.2c0.5,0,1-0.1,1.7-0.1c0.3,0,0.7,0,1,0c0.4,0,0.7,0.1,1.1,0.1s0.8,0.1,1.2,0.2c0.4,0.1,0.9,0.2,1.3,0.3
					c0.9,0.3,1.8,0.5,2.7,1c0.9,0.5,1.8,0.9,2.7,1.6c0.4,0.3,0.9,0.6,1.3,0.9l1.2,1c0.8,0.7,1.6,1.5,2.3,2.2c0.7,0.8,1.3,1.6,2,2.3
					c0.6,0.8,1.2,1.6,1.6,2.3c0.5,0.8,0.9,1.5,1.2,2.2c0.4,0.7,0.6,1.4,0.9,1.9c0.2,0.6,0.5,1.1,0.6,1.5c0.3,0.9,0.4,1.4,0.4,1.4
					L1212.2,522.1z"/>
			</g>
			<path fill="#1E1A16" d="M1193,538.6c-3.6,0-7,0.7-9.8,1.8c-1.1-2.5-1.8-5.5-1.8-8.8c0-9.1,5.3-16.5,11.7-16.5s11.7,7.4,11.7,16.5
				c0,3.3-0.7,6.3-1.8,8.8C1200.1,539.3,1196.7,538.6,1193,538.6z"/>
			<path fill="#FFFFFF" d="M1193.4,518.3c0.3-0.2-5.2,0.7-6.9,6.8C1186.5,525.1,1190.3,519.7,1193.4,518.3z"/>
			<g>
				<g>
					<path d="M1097.1,512c0,0,0.1-0.5,0.4-1.4c0.1-0.4,0.4-0.9,0.6-1.5c0.3-0.6,0.5-1.2,0.9-1.9c0.4-0.7,0.8-1.4,1.2-2.2
						c0.4-0.8,1-1.5,1.6-2.3s1.2-1.6,2-2.3c0.7-0.7,1.4-1.5,2.3-2.2l1.2-1c0.4-0.3,0.9-0.6,1.3-0.9c0.8-0.7,1.8-1.1,2.7-1.6
						c0.9-0.5,1.9-0.7,2.7-1c0.4-0.1,0.9-0.3,1.3-0.3c0.4-0.1,0.8-0.1,1.2-0.2c0.4-0.1,0.8-0.1,1.1-0.1c0.4,0,0.7-0.1,1,0
						c0.7,0,1.2,0.1,1.7,0.1c0.9,0.1,1.4,0.2,1.4,0.2v0.2c0,0-0.5,0.2-1.4,0.4c-0.4,0.1-1,0.3-1.6,0.4s-1.2,0.4-2,0.6
						c-0.7,0.2-1.5,0.5-2.3,0.8c-0.8,0.4-1.6,0.6-2.4,1s-1.7,0.7-2.6,1.2c-0.4,0.2-0.9,0.5-1.3,0.7l-1.2,0.9
						c-0.8,0.5-1.6,1.2-2.3,1.9c-0.7,0.7-1.4,1.4-2,2.1s-1.2,1.4-1.7,2.1s-1,1.4-1.4,2s-0.8,1.2-1.1,1.8c-0.3,0.5-0.6,1-0.8,1.4
						c-0.4,0.8-0.6,1.3-0.6,1.3L1097.1,512z"/>
				</g>
				<path fill="#1E1A16" d="M1114.4,538.6c-3.6,0-7,0.7-9.8,1.8c-1.1-2.5-1.8-5.5-1.8-8.8c0-9.1,5.3-16.5,11.7-16.5
					c6.5,0,11.7,7.4,11.7,16.5c0,3.3-0.7,6.3-1.8,8.8C1121.6,539.3,1118.1,538.6,1114.4,538.6z"/>
				<path fill="#FFFFFF" d="M1114.8,518.3c0.3-0.2-5.2,0.7-6.9,6.8C1107.9,525.1,1111.8,519.7,1114.8,518.3z"/>
			</g>
			<g opacity="0.44">
				<path d="M1150.9,550.5c0,0-1.9,2.5-4.3,6.6c-1.2,2-2.5,4.4-3.7,7.1c-0.6,1.3-1.2,2.7-1.6,4.2c-0.5,1.4-0.9,2.9-1.1,4.4
					c-0.3,1.5-0.3,3-0.2,4.3c0.2,1.4,0.7,2.6,1.4,3.6c0.7,1,1.7,1.6,2.7,2.2c0.6,0.2,1.1,0.4,1.6,0.6c0.6,0.1,1.1,0.3,1.6,0.4
					c1.1,0.1,2,0.3,3,0.3c0.9,0,1.7,0.1,2.3,0c1.3-0.1,2.1-0.1,2.1-0.1h0.1c1.1-0.1,2.1,0.8,2.2,1.9c0.1,1.1-0.8,2.1-1.9,2.2
					c-0.1,0-0.1,0-0.2,0c0,0-0.8,0-2.3-0.1c-0.7,0-1.6-0.1-2.6-0.2c-1-0.1-2.2-0.4-3.4-0.6c-0.6-0.2-1.3-0.4-1.9-0.6
					c-0.7-0.2-1.3-0.6-2-0.9c-1.3-0.8-2.7-1.8-3.6-3.4c-0.9-1.5-1.4-3.2-1.5-4.9c0-1.7,0.2-3.4,0.6-5s1-3.1,1.6-4.6s1.3-2.8,2-4.1
					c1.4-2.6,3-4.9,4.3-6.8C1148.8,552.9,1150.9,550.5,1150.9,550.5z"/>
			</g>
		</g>
	</g>
	<g>
		<path fill="#3A3125" d="M1071.6,524.1L1071.6,524.1L1071.6,524.1L1071.6,524.1c0,13.4,10.7,24.3,23.7,24.3h24.8
			c13,0,23.7-10.9,23.7-24.3l0,0l0,0V516c0-8.9-8.1-16.2-18.1-16.2h-9.1l0,0h-17.8l0,0h-18.1c-5,0-9.1,3.7-9.1,8.1V524.1z
			 M1076.3,524.1L1076.3,524.1v-6.9c0-7.6,7.1-13.8,15.8-13.8h4.9h3h15.5h3h4.9c8.7,0,15.8,6.2,15.8,13.8v6.9l0,0
			c0,11.3-9.3,20.6-20.6,20.6H1097C1085.6,544.8,1076.3,535.5,1076.3,524.1z"/>
		<ellipse fill="#FFFFFF" cx="1078.5" cy="505" rx="2.7" ry="1.2"/>
	</g>
	<g>
		<path fill="#3A3125" d="M1232.2,508c0-4.5-4.1-8.1-9.1-8.1H1205l0,0h-17.8l0,0h-9.1c-10,0-18.1,7.3-18.1,16.2v8.1l0,0l0,0
			c0,13.4,10.7,24.3,23.7,24.3h24.8c13,0,23.7-10.9,23.7-24.3l0,0l0,0l0,0V508z M1206.9,544.8h-21.6c-11.3,0-20.6-9.3-20.6-20.6l0,0
			v-6.9c0-7.6,7.1-13.8,15.8-13.8h4.9h3h15.5h3h4.9c8.7,0,15.8,6.2,15.8,13.8v6.9l0,0C1227.5,535.5,1218.2,544.8,1206.9,544.8z"/>
		<ellipse fill="#FFFFFF" cx="1225.8" cy="505" rx="2.7" ry="1.2"/>
	</g>
	<path fill="none" stroke="#3A3125" stroke-width="5.5642" stroke-miterlimit="10" d="M1161.9,515.9c0,0-9.9-9.9-19.8,0"/>
	<path opacity="0.2" fill="#F4F4F4" enable-background="new    " d="M1201.6,414.6c-33.1,0-63,14.8-84.2,38.5
		c20.2-18,46.2-28.9,74.6-28.9c64.2,0,116.3,55.5,116.3,124c0,19.5-4.3,38-11.8,54.5l-0.3,5c12.5-19.7,21.7-43.5,21.7-69.1
		C1317.9,470.1,1265.8,414.6,1201.6,414.6z"/>
	<ellipse fill="#998674" cx="1276.4" cy="565.9" rx="16.4" ry="27"/>
</g>
<g display="none">
	<path display="inline" fill="#D8C8BC" d="M1172.1,691.1l-19.9-26.5c-2.7-3.6-7.9-4.4-11.6-1.6l-138.5,103.9
		c-3.6,2.7-4.4,7.9-1.6,11.6l19.9,26.5c2.7,3.6,7.9,4.4,11.6,1.6l138.5-103.9C1174.1,699.9,1174.9,694.7,1172.1,691.1z"/>
	<g display="inline">
		<path fill="#756151" d="M571.8,607.2c-28.9,43.7,310.8,36.3,290.7-2.1c-9.9-19-21.8-13.5-19.4-57c2.4-43.5-246.6-25-246.6-25
			S598.8,566.4,571.8,607.2z"/>
		<path opacity="0.3" fill="#FFFFFF" enable-background="new    " d="M862.5,605.1c0,0-29.3-25.6-19.4-57
			c13-41.6-223.2-16.9-223.2-16.9l5.2-6.9c32.7-3.5,209.5,28.4,207.3,68.1L862.5,605.1z"/>
		<polygon fill="#D8C8BC" points="785.7,679.2 677.7,680 683.6,566.8 778.2,566.1 		"/>
		<polygon opacity="0.1" fill="#443E3B" enable-background="new    " points="785.7,679.2 677.7,680 683.6,566.8 778.2,566.1 		"/>
		<circle fill="#84705B" cx="745.9" cy="473" r="144"/>
		<circle fill="#84705B" cx="745.9" cy="473" r="144"/>
		<circle fill="#D8C8BC" cx="745.9" cy="473" r="144"/>
		<path opacity="5.000000e-02" enable-background="new    " d="M788.8,608.8c-79.5,0.6-144.4-63.4-145-142.9
			c-0.5-62.9,39.6-116.7,95.7-136.7c-77,3.4-138.1,67.1-137.5,144.8c0.6,79.5,65.5,143.5,145,142.9c16.6-0.1,32.5-3.1,47.2-8.3
			C792.4,608.7,790.6,608.8,788.8,608.8z"/>
		<path fill="#756151" d="M708.1,324.3c0,0-36.7-0.1-74.8,22.7c-38.1,22.8-68,60.8-46.4,135.1c21.5,74.2,2.9,113.6,2.9,113.6
			s69.9-117.2,79.1-193.1C709.6,382.7,718.5,340.1,708.1,324.3z"/>
		<g opacity="0.3">
			<path fill="#FFFFFF" d="M572.6,682.1c-0.1,0.4-0.2,0.7-0.2,0.7s0-0.1,0.1-0.3C572.6,682.4,572.6,682.3,572.6,682.1z"/>
			<path fill="#FFFFFF" d="M708.1,324.3c0,0-2.9,0-8,0.5c5.6,18.6-5.2,54.8-41.8,72.6c-8.8,72.8-65.4,177.7-71.1,193.4
				c6.6-15.5,72.7-115.5,81.6-188.2C709.6,382.7,718.5,340.1,708.1,324.3z"/>
		</g>
		<path fill="#756151" d="M695.6,325.2c0,0,19.9-27.4,74.6-22.3c54.7,5.1,98.1,39.3,108.9,76.8s0.1,40.7,0.1,40.7
			s-160.3-73.8-201.3-36.2C645.2,414.2,695.6,325.2,695.6,325.2z"/>
		<path opacity="0.3" fill="#FFFFFF" enable-background="new    " d="M879.2,379.8c-10.8-37.5-54-71.7-108.8-76.8
			c-37-3.4-57.9,7.9-67.6,15.7c11.6-6.6,30.7-13.1,59.8-10.4c54.7,5.1,98,39.3,108.8,76.8c4.7,16.3,5.4,26,4.6,31.9l3.5,3.4
			C879.5,420.4,890,417.3,879.2,379.8z"/>
		
			<rect x="802.5" y="1443.2" transform="matrix(1 -7.208726e-03 7.208726e-03 1 -11.5302 6.0547)" fill="#D8C8BC" width="63.3" height="318.5"/>
		
			<rect x="603.4" y="1444.7" transform="matrix(1 -7.208726e-03 7.208726e-03 1 -11.546 4.6196)" fill="#D8C8BC" width="63.3" height="318.5"/>
		<path fill="#D8C8BC" d="M640.3,1061.2l-18.2,0.1c-2.5,0-4.5,2.1-4.5,4.5l0.1,18.2c0,2.5,2.1,4.5,4.5,4.5l18.2-0.1
			c2.5,0,4.5-2.1,4.5-4.5l-0.1-18.2C644.8,1063.2,642.7,1061.2,640.3,1061.2z"/>
		<path fill="#86C9EA" d="M768.9,649.3h-4l-61.6,0.4h-4c0,0-92.3,0.4-113.8,51.8c-8.1,19.3-2.7,55.2,7.2,97.1l-22.5,0.2l3.2,447.6
			l0.3,36.1l1.6,219.9l305.2-2.2l-1.6-219.9l-0.3-36.1l-3.2-447.5l-0.7-100.6C862.8,648.5,768.9,649.3,768.9,649.3z"/>
		<path fill="#D8C8BC" d="M581.1,1120.6l33.1-0.2c4.5,0,8.2-3.8,8.2-8.3l-2.6-366.9c0-4.5-3.8-8.2-8.3-8.2l-33.1,0.2
			c-4.5,0-8.2,3.8-8.2,8.3l2.6,366.9C572.9,1117,576.6,1120.7,581.1,1120.6z"/>
		<path fill="#D8C8BC" d="M621.5,1074.9l-39.2,0.3c-5.4,0-9.7,4.5-9.7,9.8l0.4,54.3c0,5.4,4.5,9.7,9.8,9.7l39.2-0.3
			c5.4,0,9.7-4.5,9.7-9.8l-0.4-54.3C631.3,1079.2,626.9,1074.9,621.5,1074.9z"/>
		<path fill="#278FAF" d="M734.6,771.8"/>
		<path fill="#86C9EA" d="M591.3,679.9h6c19.8-0.1,36.4,14.6,36.5,31.4l0.4,52.2l0,0l0.3,43.3l-79.7,0.6l-0.3-43.3l0,0l-0.4-52.2
			C554,695.1,571.5,680.1,591.3,679.9z"/>
		<path fill="#6597B0" d="M679.2,658.1l112.2-0.8c1.7,0,3.1-1.4,3.1-3.1l-0.1-9.7c0-1.7-1.4-3.1-3.1-3.1L679,642.2
			c-1.7,0-3.1,1.4-3.1,3.1l0.1,9.7C676,656.8,677.4,658.1,679.2,658.1z"/>
		
			<rect x="556.3" y="797.4" transform="matrix(1 -7.208726e-03 7.208726e-03 1 -5.8357 4.3126)" fill="#6597B0" width="78.1" height="28.6"/>
		<path fill="#278FAF" d="M947.5,1281.1"/>
		<path fill="#86C9EA" d="M906.3,969.8c44.5,96-10.8,262.5-90.4,267.7s-146.3-73.6-139.9-223.3c8.2-189.7,46.5-164.1,111.1-218.7
			C873.2,722.8,840.4,827.7,906.3,969.8z"/>
		<g>
			<g opacity="0.44">
				<path d="M788.8,581.1c0,0,0.3-0.3,0.9-0.9c0.3-0.3,0.7-0.6,1.1-1c0.5-0.3,1-0.7,1.6-1.1c0.6-0.4,1.2-0.8,2-1.2
					c0.7-0.4,1.5-0.8,2.3-1.2c0.8-0.3,1.7-0.7,2.6-1c0.9-0.3,1.8-0.6,2.8-0.7l1.4-0.3c0.5-0.1,1-0.1,1.4-0.2c1-0.2,1.9-0.1,2.8-0.1
					c0.9,0,1.8,0.3,2.6,0.5c0.4,0.1,0.8,0.2,1.2,0.3c0.4,0.2,0.7,0.3,1.1,0.4c0.7,0.3,1.3,0.5,1.8,0.9c0.5,0.3,0.9,0.6,1.3,0.9
					c0.7,0.5,1.1,0.8,1.1,0.8l-0.1,0.2c0,0-0.5-0.1-1.3-0.3c-0.4-0.1-0.9-0.2-1.4-0.4s-1.2-0.2-1.8-0.3c-0.7-0.1-1.4-0.3-2.1-0.3
					c-0.8-0.1-1.5-0.2-2.4-0.2c-0.8-0.1-1.7-0.2-2.6-0.2c-0.4,0-0.9,0-1.3,0l-1.3,0.1c-0.9,0.1-1.8,0.3-2.7,0.4
					c-0.9,0.2-1.7,0.5-2.5,0.7c-0.8,0.3-1.6,0.6-2.3,0.9c-0.7,0.3-1.4,0.6-2,0.9c-0.6,0.3-1.2,0.6-1.7,0.9c-0.5,0.3-0.9,0.6-1.2,0.8
					c-0.7,0.4-1,0.7-1,0.7L788.8,581.1z"/>
			</g>
			<g>
				<g>
					<path d="M743.2,460.5c0,0,0.1-0.5,0.4-1.4c0.1-0.4,0.3-1,0.5-1.6s0.5-1.3,0.8-2s0.7-1.5,1.1-2.3c0.4-0.8,1-1.6,1.5-2.5
						c0.6-0.8,1.2-1.7,1.9-2.5s1.4-1.6,2.2-2.3l1.2-1.1c0.4-0.3,0.9-0.7,1.3-1c0.8-0.7,1.7-1.2,2.6-1.7c0.9-0.5,1.8-0.8,2.7-1.1
						c0.4-0.1,0.9-0.3,1.3-0.4c0.4-0.1,0.9-0.1,1.3-0.2c0.4-0.1,0.8-0.1,1.2-0.2c0.4,0,0.7-0.1,1-0.1c0.7,0,1.2,0,1.7,0
						c0.9,0,1.5,0.1,1.5,0.1v0.2c0,0-0.5,0.2-1.4,0.5c-0.4,0.1-1,0.3-1.6,0.5s-1.2,0.5-2,0.7c-0.7,0.3-1.5,0.5-2.2,0.9
						c-0.8,0.4-1.6,0.7-2.4,1.2c-0.8,0.4-1.7,0.8-2.5,1.4c-0.4,0.3-0.8,0.5-1.3,0.8l-1.2,0.9c-0.8,0.6-1.5,1.3-2.2,2s-1.3,1.5-2,2.2
						c-0.6,0.8-1.2,1.5-1.6,2.2c-0.5,0.7-1,1.4-1.3,2.1c-0.4,0.7-0.7,1.3-1,1.9s-0.5,1.1-0.7,1.5c-0.4,0.8-0.5,1.3-0.5,1.3H743.2z"
						/>
				</g>
				<path fill="#1E1A16" d="M763.7,476.3c3.7-0.2,7.1,0.3,10.1,1.4c1-2.6,1.6-5.7,1.4-9c-0.4-9.2-6.1-16.5-12.7-16.2
					c-6.6,0.3-11.5,8.1-11.1,17.3c0.2,3.3,1,6.3,2.3,8.9C756.5,477.4,759.9,476.5,763.7,476.3z"/>
				<path fill="#FFFFFF" d="M762.3,455.8c-0.3-0.1,5.3,0.5,7.3,6.5C769.6,462.3,765.5,457.1,762.3,455.8z"/>
				<g>
					<g>
						<path d="M861.8,454.9c0,0-0.2-0.5-0.7-1.3c-0.2-0.4-0.5-0.9-0.8-1.4c-0.4-0.5-0.7-1.1-1.2-1.7s-1-1.3-1.5-2s-1.2-1.4-1.8-2.1
							c-0.7-0.7-1.4-1.4-2.2-2s-1.6-1.3-2.4-1.8l-1.3-0.8c-0.4-0.2-0.9-0.4-1.3-0.7c-0.9-0.5-1.8-0.8-2.6-1.1
							c-0.8-0.4-1.7-0.6-2.5-0.9s-1.6-0.5-2.3-0.7s-1.4-0.4-2-0.5s-1.1-0.2-1.6-0.3c-0.9-0.2-1.4-0.4-1.4-0.4V437
							c0,0,0.5-0.1,1.4-0.2c0.5-0.1,1-0.1,1.7-0.2c0.3-0.1,0.7,0,1,0c0.4,0,0.8,0,1.2,0.1c0.4,0,0.8,0.1,1.3,0.1
							c0.4,0.1,0.9,0.2,1.3,0.3c0.9,0.2,1.9,0.4,2.8,0.9c0.9,0.4,1.9,0.8,2.8,1.5c0.5,0.3,0.9,0.6,1.4,0.9l1.3,1
							c0.9,0.6,1.6,1.4,2.4,2.1c0.8,0.7,1.4,1.5,2.1,2.3c0.6,0.8,1.2,1.5,1.7,2.3c0.5,0.7,1,1.5,1.4,2.2s0.7,1.3,1,1.9
							s0.5,1.1,0.7,1.5c0.4,0.8,0.5,1.4,0.5,1.4L861.8,454.9z"/>
					</g>
					<path fill="#1E1A16" d="M843.2,472.5c3.7-0.2,7.1,0.3,10.1,1.4c1-2.6,1.6-5.7,1.4-9c-0.4-9.2-6.1-16.5-12.7-16.2
						c-6.6,0.3-11.5,8.1-11.1,17.3c0.2,3.3,1,6.3,2.3,8.9C836,473.6,839.4,472.7,843.2,472.5z"/>
					<path fill="#FFFFFF" d="M841.8,452c-0.3-0.1,5.3,0.5,7.3,6.5C849.1,458.5,845,453.3,841.8,452z"/>
				</g>
				<g opacity="0.44">
					<path d="M806.9,486.4c0,0,2.2,2.3,5.2,6.1c1.5,1.9,3.1,4.2,4.7,6.7c0.8,1.3,1.6,2.6,2.3,4.1c0.7,1.4,1.3,3,1.8,4.5
						c0.5,1.6,0.8,3.3,0.8,5c0,1.7-0.4,3.5-1.2,5.1s-2.2,2.7-3.5,3.6c-0.7,0.4-1.3,0.8-2,1c-0.7,0.3-1.3,0.5-1.9,0.7
						c-1.2,0.3-2.4,0.7-3.4,0.8c-1,0.2-1.9,0.3-2.6,0.3c-1.5,0.1-2.3,0.2-2.3,0.2c-1.1,0.1-2.1-0.8-2.2-1.9s0.8-2.3,1.9-2.4
						c0.1,0,0.1-0.2,0.2-0.2h0.1c0,0,0.8,0.2,2.1,0.2c0.7,0,1.5,0,2.4,0s1.9-0.2,3-0.4c0.5-0.1,1-0.3,1.6-0.4c0.5-0.2,1-0.4,1.6-0.7
						c1-0.6,2-1.3,2.6-2.3c0.7-1,1.1-2.3,1.2-3.7c0.1-1.4,0-2.9-0.4-4.4c-0.3-1.5-0.8-3-1.4-4.4c-0.5-1.4-1.2-2.8-1.9-4.1
						c-1.3-2.6-2.8-5-4.1-7C808.9,488.8,806.9,486.4,806.9,486.4z"/>
				</g>
			</g>
		</g>
	</g>
	<path display="inline" fill="#D8C8BC" d="M1035.5,804.3l13.2-30.3c1.8-4.2-0.1-9-4.3-10.9l-158.8-69.2c-4.2-1.8-9,0.1-10.9,4.3
		l-13.2,30.3c-1.8,4.2,0.1,9,4.3,10.9l158.8,69.2C1028.8,810.4,1033.7,808.4,1035.5,804.3z"/>
	<path display="inline" fill="#86C9EA" d="M814.6,693.4l2.4-5.5c7.9-18.2,28.1-27.3,43.5-20.6l47.9,20.9l0,0l39.7,17.3l-31.8,73.1
		l-39.7-17.3l0,0l-47.9-20.9C813.2,733.7,806.6,711.6,814.6,693.4z"/>
	
		<rect x="897.5" y="729" transform="matrix(0.3994 -0.9168 0.9168 0.3994 -118.9011 1305.0079)" display="inline" fill="#6597B0" width="78.1" height="28.6"/>
	<path display="inline" d="M781,528.6c0,0,3.3,12.7,16.8,12.3c13.3-0.4,33.5-0.4,33.5-0.4s-4.8,2.6-1.9,16.5
		C829.4,556.9,782.5,575.2,781,528.6z"/>
	<path display="inline" fill="#7F2000" d="M791.5,552c-0.3-0.3,4.1-6.3,17.1-0.8c0,0,11-2.9,15.6,4.5
		C824.2,555.7,803.5,563.4,791.5,552z"/>
	<path display="inline" d="M773.7,535.3c0,0,4.1-6.6,13.4-9.3C787.1,526.1,777.8,525.1,773.7,535.3z"/>
</g>
<g>
	<rect x="287.9" y="252.9" fill="none" width="1472.7" height="228.1"/>
	<g enable-background="new    ">
		<path fill="#545454" d="M357.5,267.1v45.1H345v-45.1h-15.8v-10.8h44.2v10.8H357.5z"/>
		<path fill="#545454" d="M418.5,306c-4.9,4.6-10.5,6.9-17.1,6.9c-6.5,0-11.9-2-16.2-6c-4.3-4-6.4-9.4-6.4-16.2
			c0-6.8,2.2-12.2,6.5-16.2c4.3-4,9.5-6,15.4-6c5.9,0,10.9,1.8,15.1,5.4c4.1,3.6,6.2,8.5,6.2,14.7v6.4h-31.4
			c0.4,2.3,1.6,4.3,3.7,5.8c2.1,1.5,4.4,2.2,7,2.2c4.2,0,7.7-1.4,10.4-4.2L418.5,306z M407,280.5c-1.7-1.4-3.7-2.1-6-2.1
			c-2.4,0-4.5,0.7-6.5,2.2c-2,1.4-3.1,3.4-3.4,5.8h18.9C409.6,283.8,408.6,281.8,407,280.5z"/>
		<path fill="#545454" d="M442.7,312.2h-12v-59.4h12V312.2z"/>
		<path fill="#545454" d="M466,312.2h-12v-59.4h12V312.2z"/>
		<path fill="#545454" d="M478.4,263.7c-1.4-1.4-2-3-2-5c0-2,0.7-3.6,2-5c1.4-1.4,3-2,5-2c2,0,3.6,0.7,5,2c1.4,1.4,2,3,2,5
			c0,2-0.7,3.6-2,5c-1.4,1.4-3,2-5,2C481.4,265.7,479.8,265.1,478.4,263.7z M489.4,312.2h-12v-43h12V312.2z"/>
		<path fill="#545454" d="M512.8,288.2v24h-12v-43h12v4.8c3.6-3.7,7.7-5.5,12.2-5.5c4.5,0,8.3,1.6,11.4,4.8
			c3.1,3.2,4.6,7.5,4.6,12.8v26.2h-12v-24.3c0-6.6-2.4-9.9-7.3-9.9c-2.4,0-4.5,0.9-6.3,2.6C513.6,282.3,512.8,284.9,512.8,288.2z"/>
		<path fill="#545454" d="M583.7,304.9c-3.8,4.2-8.5,6.3-14.1,6.3c-5.6,0-10.4-1.9-14.2-5.7c-3.9-3.8-5.8-8.9-5.8-15.3
			c0-6.4,2-11.6,6-15.7c4-4.1,8.5-6.1,13.6-6.1s9.4,2.1,12.7,6.3v-5.7h12v37.5c0,3.8-0.7,7.3-2,10.2c-1.3,3-3.1,5.3-5.4,7
			c-4.4,3.5-9.7,5.3-15.7,5.3c-3.2,0-6.5-0.5-9.8-1.6c-3.3-1-6.3-2.5-8.8-4.4l4.6-9c3.9,3,8.1,4.5,12.5,4.5c4.4,0,7.9-1.1,10.4-3.3
			C582.4,313.2,583.7,309.7,583.7,304.9z M582,289.8c0-3.4-1-6.1-2.9-8.1c-1.9-2-4.3-3-7.1-3c-2.8,0-5.3,1-7.3,3
			c-2.1,2-3.1,4.7-3.1,8.1c0,3.4,1,6.2,3,8.3c2,2.1,4.4,3.2,7.3,3.2c2.9,0,5.3-1,7.2-3.1S582,293.2,582,289.8z"/>
		<path fill="#545454" d="M669.4,290.7c0,6.2-2.2,11.5-6.5,15.8c-4.3,4.3-9.7,6.4-16.3,6.4c-6.5,0-12-2.1-16.3-6.4
			c-4.3-4.3-6.5-9.5-6.5-15.8c0-6.2,2.2-11.5,6.5-15.8c4.3-4.3,9.7-6.4,16.3-6.4c6.5,0,12,2.1,16.3,6.4
			C667.2,279.2,669.4,284.5,669.4,290.7z M636,290.7c0,3.5,1,6.4,3,8.6c2,2.2,4.6,3.3,7.7,3.3s5.7-1.1,7.7-3.3c2-2.2,3-5.1,3-8.6
			c0-3.5-1-6.4-3-8.6s-4.6-3.4-7.7-3.4s-5.7,1.1-7.7,3.4S636,287.2,636,290.7z"/>
		<path fill="#545454" d="M691.8,277.8v19.3c0,1.7,0.4,2.9,1.3,3.9c0.9,0.9,1.9,1.4,3,1.4c2.2,0,4.1-1,5.7-3l4.5,8.4
			c-3.7,3.4-7.7,5.1-11.8,5.1c-4.1,0-7.6-1.4-10.5-4.1c-2.9-2.7-4.3-6.4-4.3-11.1v-19.8h-5v-8.6h5v-12.9h12.1v12.9h10.4v8.6H691.8z"
			/>
		<path fill="#545454" d="M724.7,289v23.2h-12v-59.4h12V274c3.6-3.7,7.7-5.5,12.2-5.5c4.5,0,8.3,1.6,11.4,4.8
			c3.1,3.2,4.6,7.5,4.6,12.8v26.2h-12v-23.5c0-6.6-2.4-9.9-7.3-9.9c-2.4,0-4.5,0.9-6.3,2.6C725.6,283.1,724.7,285.7,724.7,289z"/>
		<path fill="#545454" d="M801.1,306c-4.9,4.6-10.5,6.9-17.1,6.9c-6.5,0-11.9-2-16.2-6c-4.3-4-6.4-9.4-6.4-16.2
			c0-6.8,2.2-12.2,6.5-16.2c4.3-4,9.5-6,15.4-6c5.9,0,10.9,1.8,15.1,5.4c4.1,3.6,6.2,8.5,6.2,14.7v6.4h-31.4
			c0.4,2.3,1.6,4.3,3.7,5.8c2.1,1.5,4.4,2.2,7,2.2c4.2,0,7.7-1.4,10.4-4.2L801.1,306z M789.5,280.5c-1.7-1.4-3.7-2.1-6-2.1
			c-2.4,0-4.5,0.7-6.5,2.2c-2,1.4-3.1,3.4-3.4,5.8h18.9C792.2,283.8,791.2,281.8,789.5,280.5z"/>
		<path fill="#545454" d="M835.9,279.7c-3.6,0-6.2,1.3-8,3.8c-1.8,2.5-2.6,5.9-2.6,10v18.6h-12v-43h12v5.7c1.5-1.8,3.5-3.3,5.8-4.5
			c2.3-1.2,4.7-1.9,7.1-1.9l0.1,11.3H835.9z"/>
		<path fill="#545454" d="M878.2,298.8c0,4.2-1.6,7.6-4.7,10.2c-3.1,2.6-7.1,3.8-11.9,3.8c-3.2,0-6.5-0.6-10-1.7
			c-3.5-1.1-6.6-2.8-9.4-5.1l5.3-7.5c4.5,3.5,9.3,5.2,14.3,5.2c1.5,0,2.8-0.3,3.7-0.9c0.9-0.6,1.4-1.4,1.4-2.4c0-1-0.6-1.9-1.9-2.8
			c-1.3-0.9-3.1-1.7-5.4-2.4c-2.4-0.7-4.2-1.4-5.4-1.9c-1.3-0.5-2.7-1.3-4.3-2.3c-3.3-2-4.9-5-4.9-9c0-4,1.6-7.2,4.8-9.7
			c3.2-2.5,7.3-3.8,12.4-3.8c5.1,0,10.1,1.7,15.2,5.1l-4.5,8c-3.7-2.6-7.5-3.8-11.2-3.8c-3.7,0-5.6,1-5.6,3c0,1.1,0.6,2,1.8,2.6
			c1.2,0.6,3.1,1.4,5.8,2.2c2.7,0.9,4.7,1.5,5.8,2c1.1,0.5,2.5,1.2,4.1,2.1C876.7,291.6,878.2,294.6,878.2,298.8z"/>
		<path fill="#545454" d="M922.8,277.8v19.3c0,1.7,0.4,2.9,1.3,3.9c0.9,0.9,1.9,1.4,3,1.4c2.2,0,4.1-1,5.7-3l4.5,8.4
			c-3.7,3.4-7.7,5.1-11.8,5.1c-4.1,0-7.6-1.4-10.5-4.1c-2.9-2.7-4.3-6.4-4.3-11.1v-19.8h-5v-8.6h5v-12.9h12.1v12.9h10.4v8.6H922.8z"
			/>
		<path fill="#545454" d="M955.7,289v23.2h-12v-59.4h12V274c3.6-3.7,7.7-5.5,12.2-5.5c4.5,0,8.3,1.6,11.4,4.8
			c3.1,3.2,4.6,7.5,4.6,12.8v26.2h-12v-23.5c0-6.6-2.4-9.9-7.3-9.9c-2.4,0-4.5,0.9-6.3,2.6C956.6,283.1,955.7,285.7,955.7,289z"/>
		<path fill="#545454" d="M1031.4,312.2h-11.3V307c-3.1,3.9-6.9,5.8-11.5,5.8s-8.4-1.3-11.5-4c-3.1-2.6-4.6-6.2-4.6-10.6
			c0-4.4,1.6-7.7,4.8-9.9c3.2-2.2,7.6-3.3,13.1-3.3h9v-0.2c0-4.6-2.4-6.9-7.3-6.9c-2.1,0-4.3,0.4-6.6,1.2c-2.3,0.8-4.3,1.9-5.9,3.1
			l-5.4-7.8c5.7-4.1,12.1-6.2,19.4-6.2c5.2,0,9.5,1.3,12.8,3.9c3.3,2.6,5,6.7,5,12.4V312.2z M1019.3,295.8v-2.1h-7.5
			c-4.8,0-7.2,1.5-7.2,4.5c0,1.5,0.6,2.7,1.7,3.6c1.1,0.8,2.8,1.2,4.9,1.2c2.1,0,4-0.7,5.6-2C1018.5,299.8,1019.3,298,1019.3,295.8z
			"/>
		<path fill="#545454" d="M1056.2,277.8v19.3c0,1.7,0.4,2.9,1.3,3.9c0.9,0.9,1.9,1.4,3,1.4c2.2,0,4.1-1,5.7-3l4.5,8.4
			c-3.7,3.4-7.7,5.1-11.8,5.1c-4.1,0-7.6-1.4-10.5-4.1c-2.9-2.7-4.3-6.4-4.3-11.1v-19.8h-5v-8.6h5v-12.9h12.1v12.9h10.4v8.6H1056.2z
			"/>
		<path fill="#545454" d="M1105.6,329.2c-4.2,0-8.2-1.7-11.9-5.1l5.4-8.9c2,2,4.1,3,6.2,3c1.1,0,2.1-0.5,2.9-1.6
			c0.8-1.1,1.2-2.3,1.2-3.5c0-1.2-5.5-15.8-16.6-43.8h12.8l10.5,26.8l10.5-26.8h12.8l-20,50.7c-1.2,2.9-3,5.2-5.5,6.8
			C1111.4,328.4,1108.7,329.2,1105.6,329.2z"/>
		<path fill="#545454" d="M1187.4,290.7c0,6.2-2.2,11.5-6.5,15.8c-4.3,4.3-9.7,6.4-16.3,6.4s-12-2.1-16.3-6.4
			c-4.3-4.3-6.5-9.5-6.5-15.8c0-6.2,2.2-11.5,6.5-15.8c4.3-4.3,9.7-6.4,16.3-6.4s12,2.1,16.3,6.4
			C1185.2,279.2,1187.4,284.5,1187.4,290.7z M1153.9,290.7c0,3.5,1,6.4,3,8.6c2,2.2,4.6,3.3,7.7,3.3s5.7-1.1,7.7-3.3
			c2-2.2,3-5.1,3-8.6c0-3.5-1-6.4-3-8.6s-4.6-3.4-7.7-3.4s-5.7,1.1-7.7,3.4S1153.9,287.2,1153.9,290.7z"/>
		<path fill="#545454" d="M1224,292.4v-23.2h12.1v43H1224v-5.7c-3,4.2-6.8,6.3-11.6,6.3c-4.7,0-8.7-1.5-11.9-4.4s-4.8-7.3-4.8-13.2
			v-26.1h12.1v23.4c0,6.6,2.4,9.9,7.3,9.9c2.4,0,4.5-0.9,6.2-2.6C1223.1,298.2,1224,295.7,1224,292.4z"/>
		<path fill="#545454" d="M1280.6,289v23.2h-12v-59.4h12V274c3.6-3.7,7.7-5.5,12.2-5.5s8.3,1.6,11.4,4.8c3.1,3.2,4.6,7.5,4.6,12.8
			v26.2h-12v-23.5c0-6.6-2.4-9.9-7.3-9.9c-2.4,0-4.5,0.9-6.3,2.6C1281.5,283.1,1280.6,285.7,1280.6,289z"/>
		<path fill="#545454" d="M1356.3,312.2H1345V307c-3.1,3.9-6.9,5.8-11.5,5.8c-4.6,0-8.4-1.3-11.5-4c-3.1-2.6-4.6-6.2-4.6-10.6
			c0-4.4,1.6-7.7,4.8-9.9c3.2-2.2,7.6-3.3,13.1-3.3h9v-0.2c0-4.6-2.4-6.9-7.3-6.9c-2.1,0-4.3,0.4-6.6,1.2c-2.3,0.8-4.3,1.9-5.9,3.1
			l-5.4-7.8c5.7-4.1,12.1-6.2,19.4-6.2c5.2,0,9.5,1.3,12.8,3.9c3.3,2.6,5,6.7,5,12.4V312.2z M1344.2,295.8v-2.1h-7.5
			c-4.8,0-7.2,1.5-7.2,4.5c0,1.5,0.6,2.7,1.7,3.6c1.1,0.8,2.8,1.2,4.9,1.2c2.1,0,4-0.7,5.6-2C1343.4,299.8,1344.2,298,1344.2,295.8z
			"/>
		<path fill="#545454" d="M1378.3,312.2l-17-43.1h12.5l10.7,27.1l10.7-27.1h12.5l-17,43.1H1378.3z"/>
		<path fill="#545454" d="M1450.8,306c-4.9,4.6-10.5,6.9-17.1,6.9c-6.5,0-11.9-2-16.2-6c-4.3-4-6.4-9.4-6.4-16.2
			c0-6.8,2.2-12.2,6.5-16.2c4.3-4,9.5-6,15.4-6s10.9,1.8,15.1,5.4c4.1,3.6,6.2,8.5,6.2,14.7v6.4H1423c0.4,2.3,1.6,4.3,3.7,5.8
			s4.4,2.2,7,2.2c4.2,0,7.7-1.4,10.4-4.2L1450.8,306z M1439.3,280.5c-1.7-1.4-3.7-2.1-6-2.1c-2.4,0-4.5,0.7-6.5,2.2
			c-2,1.4-3.1,3.4-3.4,5.8h18.9C1441.9,283.8,1441,281.8,1439.3,280.5z"/>
		<path fill="#545454" d="M1520,256.3h12.5v55.9H1520v-22h-22.2v22h-12.5v-55.9h12.5v23.4h22.2V256.3z"/>
		<path fill="#545454" d="M1582.3,306c-4.9,4.6-10.5,6.9-17.1,6.9c-6.5,0-11.9-2-16.2-6c-4.3-4-6.4-9.4-6.4-16.2
			c0-6.8,2.2-12.2,6.5-16.2c4.3-4,9.5-6,15.4-6s10.9,1.8,15.1,5.4c4.1,3.6,6.2,8.5,6.2,14.7v6.4h-31.4c0.4,2.3,1.6,4.3,3.7,5.8
			s4.4,2.2,7,2.2c4.2,0,7.7-1.4,10.4-4.2L1582.3,306z M1570.8,280.5c-1.7-1.4-3.7-2.1-6-2.1c-2.4,0-4.5,0.7-6.5,2.2
			c-2,1.4-3.1,3.4-3.4,5.8h18.9C1573.4,283.8,1572.5,281.8,1570.8,280.5z"/>
		<path fill="#545454" d="M1619.5,268.5c5,0,9.5,2.1,13.4,6.3c3.9,4.2,5.9,9.5,5.9,15.8c0,6.3-2,11.7-5.9,15.9
			c-3.9,4.3-8.5,6.4-13.8,6.4c-5.3,0-9.5-2.1-12.7-6.3v21.2h-12v-58.6h12v4.8C1610.2,270.3,1614.5,268.5,1619.5,268.5z
			 M1606.3,290.7c0,3.5,1,6.3,2.9,8.6c1.9,2.2,4.3,3.3,7.1,3.3s5.2-1.1,7.3-3.3c2.1-2.2,3.1-5.1,3.1-8.5c0-3.5-1-6.4-3-8.7
			c-2-2.3-4.5-3.5-7.3-3.5c-2.8,0-5.2,1.2-7.2,3.5C1607.3,284.3,1606.3,287.2,1606.3,290.7z"/>
		<path fill="#545454" d="M1694.6,312.2h-24.5v-55.9h21.8c3.8,0,7.1,0.5,9.8,1.4c2.7,0.9,4.8,2.1,6.2,3.7c2.5,2.9,3.8,6.1,3.8,9.8
			c0,4.4-1.4,7.6-4.2,9.8c-1,0.7-1.6,1.2-2,1.4c-0.4,0.2-1,0.5-2,0.9c3.5,0.7,6.2,2.3,8.3,4.7c2.1,2.4,3.1,5.3,3.1,8.8
			c0,3.9-1.3,7.3-4,10.3C1707.6,310.5,1702.3,312.2,1694.6,312.2z M1682.6,278.9h5.9c3.5,0,6-0.4,7.7-1.1c1.7-0.7,2.5-2.4,2.5-4.8
			c0-2.5-0.8-4.1-2.3-4.9c-1.5-0.8-4.2-1.2-7.8-1.2h-6V278.9z M1682.6,301.7h8.6c3.6,0,6.3-0.4,8-1.3c1.8-0.9,2.7-2.6,2.7-5.2
			c0-2.6-0.9-4.3-2.8-5.1c-1.9-0.8-4.9-1.2-9.1-1.2h-7.4V301.7z"/>
	</g>
</g>
<g>
	<path fill="#203451" d="M1117.7,739.9l-4.5-3.2c-14.8-10.4-34-7.3-42.8,5.3l-27.4,39l0,0l-73,103.7c-6.2,8.9-4.1,21.1,4.8,27.4
		l24.3,17.1c8.9,6.2,21.1,4.1,27.4-4.8l72.9-103.7l0,0l27.4-38.9C1135.6,769.2,1132.5,750.3,1117.7,739.9z"/>
	<g>
		<path fill="#998674" d="M815.9,768.9l17.1-23.1c2.7-3.6,7.9-4.4,11.5-1.7L997,857.3c3.6,2.7,4.4,7.9,1.7,11.5l-17.1,23.1
			c-2.7,3.6-7.9,4.4-11.5,1.7L817.6,780.5C813.9,777.8,813.2,772.6,815.9,768.9z"/>
		<path fill="#998674" d="M870.3,765.1L850,792.4c-3.2,4.3-9.3,5.2-13.7,2L798,766c-4.3-3.2-5.2-9.3-2-13.7l20.3-27.3
			c3.2-4.3,9.3-5.2,13.7-2l38.4,28.5C872.6,754.7,873.5,760.8,870.3,765.1z"/>
		<path fill="#203451" d="M1030.3,913.8l3.3-4.4c10.8-14.5,8.1-33.8-4.2-42.9l-23-17.1l0,0l-111.9-83.1l-41.1,55.4l111.9,83.1l0,0
			l23,17.1C1000.5,931,1019.5,928.4,1030.3,913.8z"/>
		
			<rect x="841.8" y="787.7" transform="matrix(0.5961 -0.8029 0.8029 0.5961 -285.4236 1026.2716)" fill="#F2F2F2" width="71.2" height="18.2"/>
		<path fill="#998674" d="M881.6,762.3l-9,12.1c-1.5,2-4.3,2.4-6.3,0.9l-12-8.9c-2-1.5-2.4-4.3-0.9-6.3l9-12.1
			c1.5-2,4.3-2.4,6.3-0.9l12,8.9C882.7,757.5,883.1,760.4,881.6,762.3z"/>
	</g>
	<rect x="1267.4" y="1215" fill="#253B60" width="76.1" height="427"/>
	<rect x="1305.5" y="1215" opacity="0.1" enable-background="new    " width="38.1" height="427"/>
	<rect x="1090.7" y="1215" fill="#253B60" width="76.1" height="427"/>
	<rect x="1128.8" y="1215" opacity="0.1" enable-background="new    " width="38.1" height="427"/>
	<path fill="#FFFFFF" d="M1091,838.3V1235h262V838h-18.5c8.3-36,12.7-67.9,5.6-84.8c-18.9-44.9-98.6-44.2-98.6-44.2h-3.5l-31.4,16.3
		l-24.1-10.4l-5.3-3.4c0,0-76.1-3.3-86.1,38.5L1091,838.3L1091,838.3z"/>
	<polyline fill="#B26D12" points="1199.9,734.7 1176.5,901 1207.5,957.4 1232.5,901 1213.8,734.7 	"/>
	<g>
		<path fill="#203451" d="M1340.7,838.3c8.7-34.8,13.4-68.5,5.9-85.3c-11.7-26.2-44-38.8-80.2-43.1L1205.9,949l-61-237.6
			c-25.2,4.3-56.1,14.5-62.1,38.6v88.3v409.3h278.8V838.3H1340.7z"/>
	</g>
	<path opacity="0.1" enable-background="new    " d="M1242.6,708.2h3.7c0,0,84.8,0,96.4,41.8v88.3V1071h18.6v176.6h-18.6h-60.9
		h-76.2V724.9L1242.6,708.2z"/>
	
		<rect x="1247.9" y="1112.1" transform="matrix(-0.6549 -0.7557 0.7557 -0.6549 1287.819 2821.2244)" opacity="7.000000e-02" enable-background="new    " width="80.4" height="9"/>
	<polygon opacity="7.000000e-02" enable-background="new    " points="1082.5,1121.5 1115.7,1083.2 1122.6,1089.2 1082.5,1135.3 	
		"/>
	<path fill="#278FAF" d="M1211,819.7"/>
	<polygon opacity="3.000000e-02" enable-background="new    " points="1138.5,712.6 1112.2,768.6 1169.1,805.9 1144.9,711.4 	"/>
	<polygon fill="#253B60" points="1144.9,711.4 1118.4,768.6 1169.1,805.9 	"/>
	<polygon opacity="3.000000e-02" enable-background="new    " points="1205.9,949 1136.2,808.2 1163.5,771.8 1160.1,758.5 
		1126.8,805.9 1205.9,957.4 	"/>
	<polygon fill="#253B60" points="1205.9,949 1131.5,805.9 1159.5,768.6 	"/>
	<polygon opacity="3.000000e-02" enable-background="new    " points="1272.9,711.1 1301.2,768.6 1244.3,805.9 1266.4,709.9 	"/>
	<polygon fill="#253B60" points="1266.4,709.9 1295,768.6 1244.3,805.9 	"/>
	<polygon opacity="3.000000e-02" enable-background="new    " points="1207.5,949 1277.2,808.2 1249.8,771.8 1253.2,758.5 
		1286.5,805.9 1207.5,957.4 	"/>
	<polygon fill="#253B60" points="1207.5,949 1281.9,805.9 1253.8,768.6 	"/>
	<circle fill="#0C1D38" cx="1221.9" cy="995.5" r="9.7"/>
	<path opacity="0.3" fill="#FFFFFF" enable-background="new    " d="M1227.1,996.9h-10.4c-0.3,0-0.6-0.3-0.6-0.6v-1.5
		c0-0.3,0.3-0.6,0.6-0.6h10.4c0.3,0,0.6,0.3,0.6,0.6v1.5C1227.7,996.6,1227.5,996.9,1227.1,996.9z"/>
	<circle fill="#0C1D38" cx="1221.9" cy="1071" r="9.7"/>
	<path opacity="0.3" fill="#FFFFFF" enable-background="new    " d="M1227.1,1072.3h-10.4c-0.3,0-0.6-0.3-0.6-0.6v-1.5
		c0-0.3,0.3-0.6,0.6-0.6h10.4c0.3,0,0.6,0.3,0.6,0.6v1.5C1227.7,1072.1,1227.5,1072.3,1227.1,1072.3z"/>
	<path opacity="3.000000e-02" enable-background="new    " d="M1143.7,852.8v19.7c0,10.6-8.6,19.3-19.3,19.3h-15.6
		c-10.6,0-19.3-8.6-19.3-19.3v-19.7H1143.7z"/>
	<rect x="1089.6" y="852.8" opacity="7.000000e-02" enable-background="new    " width="54.2" height="9"/>
	<path fill="#998674" d="M1361.8,1199.5h-28.7c-4.5,0-8.2-3.7-8.2-8.2V795.4c0-4.5,3.7-8.2,8.2-8.2h28.7c4.5,0,8.2,3.7,8.2,8.2
		v395.8C1370,1195.8,1366.3,1199.5,1361.8,1199.5z"/>
	<path fill="#998674" d="M1326.3,1158.1h34c5.4,0,9.8,4.4,9.8,9.8v47.8c0,5.4-4.4,9.8-9.8,9.8h-34c-5.4,0-9.8-4.4-9.8-9.8v-47.8
		C1316.5,1162.5,1320.9,1158.1,1326.3,1158.1z"/>
	<path fill="#203451" d="M1350.3,735h-5.5c-18.1,0-31.8,13.6-31.8,29v47.6l0,0V1138h68V811.6l0,0V764
		C1381,748.6,1368.4,735,1350.3,735z"/>
	<rect x="1312" y="1124.4" fill="#F2F2F2" width="71.2" height="18.2"/>
	<path fill="#998674" d="M1317.3,1150.7h15c2.5,0,4.5,2,4.5,4.5v15c0,2.5-2,4.5-4.5,4.5h-15c-2.5,0-4.5-2-4.5-4.5v-15
		C1312.8,1152.7,1314.8,1150.7,1317.3,1150.7z"/>
	<path fill="#9B5F18" d="M1201.1,724.8h9.1c6.6,0,12,5.4,12,12v9.1c0,6.6-5.4,12-12,12h-9.1c-6.6,0-12-5.4-12-12v-9.1
		C1189.1,730.2,1194.5,724.8,1201.1,724.8z"/>
	<polygon fill="#F2F2F2" points="1205.7,724.9 1234.9,749.6 1259.3,709.3 1249.2,695.9 	"/>
	<polygon fill="#F2F2F2" points="1205.7,724.9 1180.2,752.5 1150,712.4 1158,697.1 	"/>
</g>
<g>
	<path d="M1177.9,613.5c0,0-3.5-1.7-16.7-3.9c-12.9-2.1-31.4-0.8-31.4-0.8s2.1,2.6,0.5,11.9C1130.3,620.7,1171.1,638.6,1177.9,613.5
		z"/>
	<path fill="#7F2000" d="M1168.9,621.8c0.4-0.3-3.2-6.8-16.6-3c0,0-10.4-4.3-15.9,2.4C1136.4,621.2,1155.7,631.5,1168.9,621.8z"/>
	<path d="M1178.9,607c0,0-1.7,5.7,1.5,12.3C1180.4,619.3,1175.2,614.5,1178.9,607z"/>
</g>
<g>
	<path fill="#D8C8BC" d="M835.3,1187.9h26.9c4.5,0,8.2-3.7,8.2-8.2V829.4c0-4.5-3.7-8.2-8.2-8.2h-26.9c-4.5,0-8.2,3.7-8.2,8.2v350.2
		C827.1,1184.1,830.8,1187.9,835.3,1187.9z"/>
	<path fill="#D8C8BC" d="M834.1,1239.2l30.3-0.5c5.4-0.1,9.7-4.5,9.6-9.9l-0.7-43.1c-0.1-5.4-4.5-9.7-9.9-9.6l-30.3,0.5
		c-5.4,0.1-9.7,4.5-9.6,9.9l0.7,43.1C824.3,1234.9,828.8,1239.3,834.1,1239.2z"/>
	<path fill="#86C9EA" d="M846,771h5.3c17.4,0,30.7,13.1,30.7,27.9v45.7l0,0V882h-70v-37.4l0,0v-45.7C812,784.1,828.6,771,846,771z"
		/>
	<rect x="812" y="873.9" fill="#6597B0" width="70.8" height="25"/>
	<path fill="#D8C8BC" d="M860,1168.7h15c2.5,0,4.5,2,4.5,4.5v15c0,2.5-2,4.5-4.5,4.5h-15c-2.5,0-4.5-2-4.5-4.5v-15
		C855.5,1170.7,857.5,1168.7,860,1168.7z"/>
	<g>
		<path fill="#756151" d="M587.4,707.3c-25.6,38.1,271.7,33.7,254.4,0c-8.6-16.7-19-11.9-16.7-50s-215.6-23.4-215.6-23.4
			S611.2,671.9,587.4,707.3z"/>
		<path opacity="0.3" fill="#FFFFFF" enable-background="new    " d="M841.8,707.3c0,0-25.5-22.6-16.7-50
			c11.7-36.3-195.2-16.2-195.2-16.2l4.6-6c28.7-2.9,183.1,26.1,181,60.9L841.8,707.3z"/>
		<polygon fill="#D8C8BC" points="774.1,771.7 679.5,771.7 685.5,672.7 768.2,672.7 		"/>
		<polygon opacity="0.1" fill="#443E3B" enable-background="new    " points="774.1,771.7 679.5,771.7 685.5,672.7 768.2,672.7 		
			"/>
		<circle fill="#84705B" cx="740.6" cy="591" r="126"/>
		<circle fill="#84705B" cx="740.6" cy="591" r="126"/>
		<circle fill="#D8C8BC" cx="740.6" cy="591" r="126"/>
		<path opacity="5.000000e-02" enable-background="new    " d="M777.2,710.1c-69.6,0-126-56.4-126-126c0-55.1,35.4-101.9,84.6-119
			C668.5,467.6,614.6,523,614.6,591c0,69.6,56.4,126,126,126c14.5,0,28.4-2.5,41.4-7C780.4,710.1,778.8,710.1,777.2,710.1z"/>
		<path fill="#756151" d="M708.4,460.7c0,0-32.1-0.4-65.6,19.4c-33.5,19.7-59.9,52.8-41.5,117.9s1.8,99.4,1.8,99.4
			s61.9-102.2,70.4-168.5C709.4,511.7,717.4,474.6,708.4,460.7z"/>
		<g opacity="0.3">
			<path fill="#FFFFFF" d="M587.6,772.9c-0.1,0.4-0.2,0.6-0.2,0.6s0-0.1,0.1-0.2C587.6,773.2,587.6,773.1,587.6,772.9z"/>
			<path fill="#FFFFFF" d="M708.4,460.7c0,0-2.6,0-7,0.4c4.8,16.4-4.9,47.9-37,63.3c-8.2,63.6-58.3,155.1-63.4,168.8
				c5.9-13.5,64.4-100.6,72.6-164.2C709.4,511.7,717.4,474.6,708.4,460.7z"/>
		</g>
		<path fill="#756151" d="M697.4,461.4c0,0,17.6-23.8,65.4-19c47.9,4.8,85.6,35,94.8,67.9s-0.2,35.6-0.2,35.6s-139.8-65.6-176-32.9
			C652.8,538.9,697.4,461.4,697.4,461.4z"/>
		<path opacity="0.3" fill="#FFFFFF" enable-background="new    " d="M857.8,510.3c-9.2-32.9-46.8-63.1-94.7-67.9
			c-32.3-3.2-50.7,6.6-59.2,13.3c10.2-5.7,27-11.2,52.4-8.7c47.9,4.8,85.5,35,94.7,67.9c4,14.3,4.5,22.8,3.8,28l3,3
			C857.8,545.9,867,543.2,857.8,510.3z"/>
		<rect x="782.9" y="1440.6" fill="#D8C8BC" width="55.4" height="278.7"/>
		<rect x="608.7" y="1440.6" fill="#D8C8BC" width="55.4" height="278.7"/>
		<path fill="#D8C8BC" d="M643.8,1105.1H629c-2.5,0-4.5,2-4.5,4.5v14.8c0,2.5,2,4.5,4.5,4.5h14.8c2.5,0,4.5-2,4.5-4.5v-14.8
			C648.3,1107.1,646.3,1105.1,643.8,1105.1z"/>
		<path fill="#86C9EA" d="M759.6,745.4H756h-53.9h-3.5c0,0-80.8-0.2-99.9,44.6c-7.2,16.8-2.7,48.3,5.7,85h-19.7v391.7v31.6v192.5
			h267.1v-192.5v-31.6V875.1V787C841.7,745.3,759.6,745.4,759.6,745.4z"/>
		<path fill="#D8C8BC" d="M593.3,1187.9h26.9c4.5,0,8.2-3.7,8.2-8.2V829.4c0-4.5-3.7-8.2-8.2-8.2h-26.9c-4.5,0-8.2,3.7-8.2,8.2
			v350.2C585.1,1184.1,588.8,1187.9,593.3,1187.9z"/>
		<path fill="#278FAF" d="M728.8,852.4"/>
		<path fill="#86C9EA" d="M604,771h5.3c17.4,0,30.7,13.1,30.7,27.9v45.7l0,0V882h-70v-37.4l0,0v-45.7C570,784.1,586.6,771,604,771z"
			/>
		<path fill="#6597B0" d="M681.4,752.6h97.4c1.7,0,3.1-1.4,3.1-3.1v-7.7c0-1.7-1.4-3.1-3.1-3.1h-97.4c-1.7,0-3.1,1.4-3.1,3.1v7.7
			C678.3,751.2,679.7,752.6,681.4,752.6z"/>
		<rect x="570" y="873.9" fill="#6597B0" width="70.8" height="25"/>
		<path fill="#278FAF" d="M911.9,1299.4"/>
		<g>
			<g opacity="0.44">
				<path d="M768.4,681.1c0,0,0.3-0.3,0.9-0.8c0.3-0.2,0.7-0.5,1.1-0.8c0.4-0.3,0.9-0.6,1.5-1c0.6-0.3,1.2-0.7,1.8-1
					c0.7-0.4,1.4-0.6,2.2-1c0.8-0.3,1.6-0.6,2.4-0.8c0.8-0.2,1.7-0.4,2.6-0.5l1.3-0.2c0.4,0,0.9-0.1,1.3-0.1c0.9-0.1,1.8,0,2.6,0.1
					s1.6,0.3,2.4,0.5c0.4,0.1,0.7,0.2,1.1,0.3c0.3,0.2,0.6,0.3,0.9,0.5c0.6,0.3,1.2,0.5,1.6,0.9c0.4,0.3,0.8,0.6,1.1,0.8
					c0.6,0.5,0.9,0.8,0.9,0.8L794,679c0,0-0.4-0.1-1.2-0.3c-0.4-0.1-0.8-0.2-1.3-0.4s-1.1-0.2-1.7-0.4c-0.6-0.2-1.2-0.3-1.9-0.4
					c-0.7-0.1-1.4-0.3-2.2-0.3c-0.8-0.1-1.5-0.3-2.3-0.3c-0.4,0-0.8-0.1-1.2-0.1l-1.2,0.1c-0.8,0-1.6,0.2-2.5,0.3
					c-0.8,0.1-1.6,0.3-2.3,0.5s-1.5,0.4-2.2,0.7c-0.7,0.2-1.3,0.5-1.9,0.8c-1.2,0.5-2.1,1-2.7,1.4
					C768.8,681,768.4,681.2,768.4,681.1L768.4,681.1z"/>
			</g>
			<g>
				<g>
					<path d="M732,560.8c0,0,0.1-0.5,0.4-1.3c0.1-0.4,0.3-0.9,0.6-1.4c0.2-0.5,0.5-1.1,0.8-1.8c0.3-0.6,0.7-1.3,1.1-2
						c0.4-0.7,1-1.4,1.5-2.2c0.6-0.7,1.2-1.5,1.8-2.2c0.7-0.7,1.3-1.4,2.1-2l1.1-1c0.4-0.3,0.8-0.6,1.2-0.9c0.8-0.6,1.6-1,2.5-1.5
						c0.8-0.4,1.7-0.7,2.5-0.9c0.4-0.1,0.8-0.2,1.2-0.3c0.4,0,0.8-0.1,1.2-0.1c0.7-0.1,1.4-0.2,2-0.2s1.1,0.1,1.6,0.1
						c0.9,0.1,1.3,0.2,1.3,0.2v0.2c0,0-0.5,0.2-1.3,0.4c-0.4,0.1-0.9,0.2-1.4,0.4c-0.6,0.1-1.2,0.4-1.8,0.6
						c-0.7,0.2-1.4,0.4-2.1,0.8c-0.7,0.3-1.5,0.5-2.3,1c-0.8,0.4-1.6,0.7-2.4,1.1c-0.4,0.2-0.8,0.4-1.2,0.7l-1.1,0.8
						c-0.8,0.5-1.4,1.1-2.1,1.7c-0.7,0.6-1.3,1.3-1.9,1.9c-0.6,0.7-1.1,1.3-1.6,2c-0.5,0.6-0.9,1.3-1.3,1.9c-0.4,0.6-0.7,1.2-1,1.6
						c-0.3,0.5-0.5,0.9-0.7,1.3C732.3,560.4,732.1,560.9,732,560.8L732,560.8z"/>
				</g>
				<path fill="#1E1A16" d="M750,584.2c3.4,0,6.5,0.6,9.1,1.7c1.1-2.4,1.7-5.1,1.7-8.1c0-8.5-4.9-15.3-10.9-15.3
					s-10.9,6.9-10.9,15.3c0,3,0.6,5.8,1.7,8.2C743.3,584.9,746.5,584.2,750,584.2z"/>
				<path fill="#FFFFFF" d="M749.6,565.4c-0.3-0.1,4.8,0.7,6.4,6.3C756,571.7,752.4,566.7,749.6,565.4z"/>
				<g>
					<g>
						<path d="M842.2,566.4c0,0-0.3-0.4-0.8-1c-0.3-0.3-0.6-0.7-1-1.1c-0.4-0.4-0.8-0.9-1.3-1.4s-1.1-1-1.7-1.5
							c-0.6-0.5-1.3-1-2-1.6c-0.7-0.5-1.5-1-2.3-1.5c-0.8-0.4-1.6-0.9-2.5-1.3l-1.3-0.5c-0.4-0.1-0.9-0.3-1.3-0.4
							c-0.9-0.3-1.7-0.4-2.6-0.6c-0.8-0.3-1.6-0.3-2.4-0.5c-0.8-0.2-1.5-0.2-2.2-0.3c-0.7,0-1.3-0.2-1.9-0.2c-0.6,0-1.1,0-1.5-0.1
							c-0.8-0.1-1.3-0.1-1.3-0.1v-0.2c0,0,0.5-0.2,1.3-0.4c0.4-0.1,0.9-0.3,1.5-0.4c0.6-0.2,1.3-0.2,2-0.3c0.4,0,0.8-0.1,1.2-0.1
							s0.8,0,1.2,0.1c0.9,0.1,1.8,0.1,2.7,0.4c0.9,0.2,1.8,0.5,2.7,0.9c0.4,0.2,0.9,0.4,1.4,0.6l1.3,0.7c0.9,0.4,1.7,1,2.5,1.6
							c0.8,0.5,1.5,1.2,2.2,1.7c0.7,0.6,1.3,1.2,1.9,1.8c0.6,0.6,1.1,1.2,1.5,1.8c0.5,0.6,0.8,1.1,1.2,1.6c0.3,0.5,0.6,0.9,0.8,1.3
							C841.9,566.1,842.2,566.5,842.2,566.4L842.2,566.4z"/>
					</g>
					<path fill="#1E1A16" d="M822.9,584.2c3.4,0,6.5,0.6,9.1,1.7c1.1-2.4,1.7-5.1,1.7-8.1c0-8.5-4.9-15.3-10.9-15.3
						s-10.9,6.9-10.9,15.3c0,3,0.6,5.8,1.7,8.2C816.2,584.9,819.4,584.2,822.9,584.2z"/>
					<path fill="#FFFFFF" d="M822.5,565.4c-0.3-0.1,4.8,0.7,6.4,6.3C828.9,571.7,825.3,566.7,822.5,565.4z"/>
				</g>
				<g opacity="0.44">
					<path d="M789.1,595.3c0,0,1.9,2.2,4.5,5.8c1.3,1.8,2.7,3.9,4,6.4c0.7,1.2,1.3,2.5,1.9,3.8c0.6,1.3,1.1,2.8,1.5,4.2
						c0.4,1.5,0.6,3,0.5,4.6c0,1.6-0.5,3.2-1.4,4.6c-0.8,1.4-2.1,2.4-3.3,3.1c-0.6,0.3-1.3,0.6-1.9,0.9c-0.6,0.2-1.2,0.4-1.8,0.6
						c-1.2,0.2-2.2,0.5-3.2,0.6c-0.9,0.1-1.8,0.2-2.4,0.2c-1.3,0-2.1,0.1-2.1,0.1c-1.1,0-1.9-0.8-2-1.9c0-1.1,0.8-1.9,1.9-2
						c0.1,0,0.1,0,0.1,0h0.1c0,0,0.7,0,1.9,0.1c0.6,0.1,1.3,0,2.2,0c0.8,0,1.7-0.1,2.7-0.2c0.5-0.1,1-0.2,1.5-0.3s1-0.4,1.5-0.5
						c0.9-0.5,1.9-1.1,2.5-2s1.1-2,1.3-3.3c0.1-1.3,0.1-2.7-0.2-4c-0.2-1.4-0.6-2.7-1.1-4.1c-0.4-1.3-1-2.6-1.5-3.9
						c-1.1-2.5-2.3-4.7-3.4-6.6C790.8,597.6,789.1,595.3,789.1,595.3z"/>
				</g>
			</g>
		</g>
	</g>
	<g>
		<g>
			<path fill="#1E1A16" d="M766.1,650.1c0,0-0.2,0.6-0.4,1.4c-0.2,0.8-0.3,2-0.2,3.1c0,0.5,0.2,1.1,0.2,1.6c0,0.2,0.1,0.5,0.1,0.7
				s0,0.5,0,0.7s0,0.4,0,0.6c0,0.2,0,0.3,0,0.5c0,0.3,0,0.4,0,0.4l-0.1,0.1c0,0-0.1-0.1-0.4-0.3c-0.2-0.2-0.5-0.5-0.7-0.9
				c-0.1-0.2-0.2-0.4-0.3-0.7s-0.2-0.5-0.2-0.8s0-0.6,0-0.9c0-0.3,0.1-0.6,0.1-0.9c0.2-1.2,0.6-2.4,1-3.2s0.8-1.3,0.8-1.3
				L766.1,650.1z"/>
		</g>
		<g>
			<path fill="#1E1A16" d="M809.7,645.9c0,0,0.4,0.4,1,1.1c0.5,0.7,1.1,1.8,1.5,3c0.1,0.3,0.2,0.6,0.3,0.9c0.1,0.3,0.1,0.6,0.1,0.9
				c0,0.3,0,0.6-0.1,0.9c0,0.3-0.1,0.5-0.2,0.7c-0.2,0.4-0.4,0.8-0.6,1c-0.2,0.2-0.3,0.3-0.3,0.3h-0.2c0,0-0.1-0.2-0.1-0.4
				c0-0.1-0.1-0.3-0.1-0.5s-0.1-0.4-0.1-0.6c0-0.2,0-0.4-0.1-0.7c0-0.2,0-0.5,0-0.7c0-0.5,0.1-1,0-1.6c-0.1-1.1-0.4-2.2-0.7-3
				s-0.6-1.3-0.6-1.3L809.7,645.9z"/>
		</g>
		<g>
			<path fill="#1E1A16" d="M764.9,654.7c0,0,0.7-0.3,1.9-0.7s2.9-1,5.1-1.6c1.1-0.3,2.2-0.6,3.4-0.9c1.2-0.3,2.5-0.6,3.9-0.9
				c2.7-0.6,5.6-1,8.5-1.3c0.7-0.1,1.5-0.1,2.2-0.2c0.7-0.1,1.5-0.1,2.2-0.1c1.5-0.1,2.9-0.1,4.3,0c2.8,0.1,5.3,0.3,7.5,0.6
				s4,0.6,5.3,0.9c1.3,0.3,2,0.5,2,0.5s-0.7,0.1-2,0.2c-1.3,0.1-3.1,0.2-5.3,0.3s-4.7,0.3-7.4,0.5c-1.3,0.1-2.7,0.2-4.1,0.3
				c-0.7,0.1-1.4,0.1-2.1,0.2c-0.7,0.1-1.4,0.1-2.1,0.2c-1.4,0.1-2.9,0.3-4.3,0.5c-1.4,0.2-2.8,0.3-4.1,0.5
				c-2.7,0.3-5.2,0.6-7.4,0.8s-4,0.3-5.3,0.4C765.6,654.7,764.9,654.7,764.9,654.7z"/>
		</g>
		<g>
			<path fill="#1E1A16" d="M774.4,665.7c0,0,2,0.4,5,1c1.5,0.3,3.3,0.5,5.1,0.7c0.9,0.1,1.9,0.2,2.9,0.2c0.5,0,1,0,1.5,0
				s1,0,1.5-0.1c0.2,0,0.5,0,0.7,0l0.8-0.1c0.5,0,1-0.1,1.5-0.2c1-0.2,1.9-0.4,2.8-0.6c0.9-0.2,1.8-0.5,2.6-0.7
				c0.8-0.3,1.6-0.5,2.3-0.8c2.9-1,4.8-1.8,4.8-1.8s-1.6,1.3-4.4,2.7c-0.7,0.3-1.5,0.7-2.3,1s-1.7,0.7-2.6,1
				c-0.9,0.3-1.9,0.6-2.9,0.8c-0.5,0.1-1.1,0.2-1.5,0.3l-0.8,0.1c-0.3,0-0.5,0-0.8,0.1c-0.5,0-1.1,0-1.6,0s-1,0-1.6-0.1
				c-1-0.1-2-0.2-3-0.4s-1.9-0.4-2.8-0.6c-0.9-0.2-1.7-0.4-2.4-0.7C776.3,666.7,774.4,665.7,774.4,665.7z"/>
		</g>
	</g>
</g>
<path fill="#D8C8BC" d="M593.9,1239.2l30.3-0.5c5.4-0.1,9.7-4.5,9.6-9.9l-0.7-43.1c-0.1-5.4-4.5-9.7-9.9-9.6l-30.3,0.5
	c-5.4,0.1-9.7,4.5-9.6,9.9l0.7,43.1C584.1,1234.9,588.6,1239.3,593.9,1239.2z"/>
<path fill="#D8C8BC" d="M617,1168.7h15c2.5,0,4.5,2,4.5,4.5v15c0,2.5-2,4.5-4.5,4.5h-15c-2.5,0-4.5-2-4.5-4.5v-15
	C612.5,1170.7,614.6,1168.7,617,1168.7z"/>
</svg>
