<?xml version="1.0" encoding="utf-8"?>
<!-- Generator: Adobe Illustrator 18.1.1, SVG Export Plug-In . SVG Version: 6.00 Build 0)  -->
<svg version="1.1" id="Ultrasound" xmlns="http://www.w3.org/2000/svg" xmlns:xlink="http://www.w3.org/1999/xlink" x="0px" y="0px"
	 viewBox="0 0 2048 1536" enable-background="new 0 0 2048 1536" xml:space="preserve">
<g id="Layer_3_copy_7">
</g>
<g id="Layer_2_copy_7">
</g>
<g>
	<g>
		<defs>
			<rect id="SVGID_1_" width="2048" height="1536"/>
		</defs>
		<clipPath id="SVGID_2_">
			<use xlink:href="#SVGID_1_"  overflow="visible"/>
		</clipPath>
		<g clip-path="url(#SVGID_2_)">
			<g>
				<g>
					<defs>
						<rect id="SVGID_3_" x="-540.3" y="-257" width="2620.1" height="1887.5"/>
					</defs>
					<defs>
						<rect id="SVGID_4_" x="-540.3" y="-257" width="2620.1" height="1887.5"/>
					</defs>
					<clipPath id="SVGID_5_">
						<use xlink:href="#SVGID_3_"  overflow="visible"/>
					</clipPath>
					<clipPath id="SVGID_6_" clip-path="url(#SVGID_5_)">
						<use xlink:href="#SVGID_4_"  overflow="visible"/>
					</clipPath>
					<rect x="-2212.7" y="1274.6" clip-path="url(#SVGID_6_)" fill="#9AE5D7" width="5683.6" height="566.7"/>
					<rect x="-541.6" y="-254.5" clip-path="url(#SVGID_6_)" fill="#F0F7F7" width="2620.1" height="1887.5"/>
				</g>
				<rect x="-1148.8" y="1254.7" fill="#9AE5D7" width="3843.1" height="711.5"/>
				<g>
					<polygon fill="#BCBCBC" points="1101.4,1265.6 1118.6,1285.5 1120.4,1249.7 					"/>
					<rect x="1118.9" y="1245.3" fill="#BCBCBC" width="237.6" height="30.9"/>
					<rect x="1118.9" y="1254.9" fill="#D8D8D8" width="237.6" height="30.9"/>
					<rect x="1101.4" y="1038.2" fill="#BCBCBC" width="46.4" height="227.3"/>
					<polygon fill="#D8D8D8" points="1356.6,1254.9 1413.6,1302.6 1392.4,1317.1 1333.2,1265.6 					"/>
					<rect x="1118.6" y="1056.2" fill="#D8D8D8" width="30.5" height="229.3"/>
					<rect x="1169.4" y="1295.7" fill="#BCBCBC" width="250.7" height="30.9"/>
					<polygon fill="#BCBCBC" points="1152.2,1316.4 1169.4,1336.3 1171.2,1300.5 					"/>
					<rect x="1152.2" y="1089" fill="#BCBCBC" width="46.4" height="227.3"/>
					<rect x="1169.4" y="1096.1" fill="#D8D8D8" width="30.5" height="240.2"/>
					<rect x="1169.4" y="1305.4" fill="#D8D8D8" width="250.7" height="30.9"/>
					<rect x="118" y="1084.3" fill="#D8D8D8" width="39.2" height="256.4"/>
					<rect x="118" y="1084.3" fill="#B5B5B5" width="746.6" height="256.4"/>
					<rect x="86.6" y="1068.7" fill="#D8D8D8" width="156.2" height="31.2"/>
					<rect x="233.5" y="1068.7" fill="#D8D8D8" width="662.4" height="31.2"/>
					<polygon fill="#EFEFEF" points="835,1014.4 835,1014 834.8,1014 834.7,1014 834.2,1014 242.8,1014 246.3,1014 148.1,1014 
						147.5,1014 86.6,1068 245.7,1068 242.8,1068 896,1068 					"/>
					<rect x="1142.8" y="1068.7" fill="#727272" width="282.9" height="31.2"/>
					<polygon fill="#606060" points="1347.3,1015 1283.5,1015 1287,1015 1084.3,1015 1083.7,1015 1143.3,1068 1302.4,1068 
						1299.5,1068 1425.7,1067.5 					"/>
					<polygon fill="#727272" points="1144,1099.9 1084.1,1041.3 1085.2,1016.3 1144,1068.7 					"/>
					<polygon fill="#BCBCBC" points="1356.8,1245.2 1420.1,1295.7 1395.3,1296.8 1336.1,1245.3 					"/>
				</g>
			</g>
			<g>
				<defs>
					<rect id="SVGID_7_" width="2048" height="1536"/>
				</defs>
				<clipPath id="SVGID_8_">
					<use xlink:href="#SVGID_7_"  overflow="visible"/>
				</clipPath>
				<g clip-path="url(#SVGID_8_)">
					<path fill="#84705B" d="M751.9,1044.8h11.7c4.5,0,8.2-3.7,8.2-8.2V813.7c0-4.5-3.7-8.2-8.2-8.2h-11.7c-4.5,0-8.2,3.7-8.2,8.2
						v222.8C743.6,1041.1,747.4,1044.8,751.9,1044.8z"/>
					<path fill="#84705B" d="M767.3,1018.9h-13.9c-5.4,0-9.8,4.4-9.8,9.8v22.5c0,5.4,4.4,9.8,9.8,9.8h13.9c5.4,0,9.8-4.4,9.8-9.8
						v-22.5C777.1,1023.3,772.7,1018.9,767.3,1018.9z"/>
					<path fill="#364E72" d="M756,774h3.4c11.3,0,18.6,7.4,18.6,17v29.8l0,0V1006h-43V820.7l0,0V791C735,781.4,744.7,774,756,774z"
						/>
					<rect x="735.4" y="980.3" fill="#1E3450" width="44.5" height="26.1"/>
				</g>
			</g>
			<g>
				<defs>
					<rect id="SVGID_9_" width="2048" height="1536"/>
				</defs>
				<clipPath id="SVGID_10_">
					<use xlink:href="#SVGID_9_"  overflow="visible"/>
				</clipPath>
				<g clip-path="url(#SVGID_10_)">
					<polygon fill="#84705B" points="716.2,775.3 664.6,775.3 667.8,721.2 712.9,721.2 					"/>
					<polygon opacity="0.1" fill="#443E3B" enable-background="new    " points="716.2,775.3 664.6,775.3 667.8,721.2 712.9,721.2 
											"/>
					<ellipse fill="#84705B" cx="697.5" cy="677.9" rx="62.5" ry="68.8"/>
					<path opacity="5.000000e-02" enable-background="new    " d="M650.2,668.3c0-19.1,6.2-36.7,16.6-50.3
						c-19,11.8-31.8,34.2-31.8,59.9c0,38,28,68.8,62.5,68.8c3.9,0,7.8-0.4,11.5-1.2C675.6,739,650.2,707,650.2,668.3z"/>
					<path fill="#211B15" d="M627.8,664.9c2-9.4,5.5-41.2,19-36.6c-0.1-19.2,29.2-23.1,40.7-29.3s34.1,8.6,40.3,12.3
						s14.8,13.1,30,12.7c-0.8,14-34.1,15.6-49.3,14.4c-15.2-1.2-37.4-6.2-44.9,0s-4,20.6-4,20.6l0,0c1.2,3.4,1.4,6.3,1.4,6.3
						c6.1,16.9,0.1,20.8-4.3,11.1c-4.4-9.7-12.4-1.5-12.4-1.5l2.1,43.9c0,0-15-17.7-19.3-26.3C624.1,686.5,625,674.9,627.8,664.9z"
						/>
					<g opacity="0.3">
						<path fill="#F4F4F4" d="M630.1,687.6c-3-6-2.1-17.7,0.7-27.7c1.2-5.6,2.9-19.5,7.1-28.6c-6.4,7.8-8.7,26.8-10.1,33.6
							c-2.8,10-3.7,21.6-0.7,27.7c4.3,8.6,19.3,26.3,19.3,26.3l-0.4-9.2C641.3,703.9,633.1,693.5,630.1,687.6z"/>
					</g>
					<path opacity="0.59" fill="#BDCAD6" enable-background="new    " d="M703.3,674.3h-17.4c-5.1,0-9.3-4.2-9.3-9.3v-6.2
						c0-5.1,4.2-9.3,9.3-9.3h17.4c5.1,0,9.3,4.2,9.3,9.3v6.2C712.6,670.2,708.5,674.3,703.3,674.3z"/>
					<path opacity="0.59" fill="#BDCAD6" enable-background="new    " d="M751.5,674.3h-17.4c-5.1,0-9.3-4.2-9.3-9.3v-6.2
						c0-5.1,4.2-9.3,9.3-9.3h17.4c5.1,0,9.3,4.2,9.3,9.3v6.2C760.8,670.2,756.6,674.3,751.5,674.3z"/>
					<path fill="none" stroke="#000000" stroke-width="5.0181" stroke-linecap="round" stroke-miterlimit="10" d="M652.8,674.3"/>
					<path fill="none" stroke="#000000" stroke-width="5.0181" stroke-linecap="round" stroke-miterlimit="10" d="M675.5,655.5"/>
					<g>
						<path d="M676.9,659.2c0,0-0.4,0.3-1.1,0.9c-0.7,0.6-1.8,1.4-3,2.4c-1.3,1-2.8,2.1-4.3,3.3c-1.6,1.2-3.3,2.4-5,3.7
							c-1.7,1.2-3.4,2.5-5.1,3.5c-0.9,0.5-1.7,1-2.5,1.4c-0.8,0.5-1.6,0.9-2.3,1.3c-2.8,1.6-4.7,2.6-4.7,2.6
							c-1.2,0.6-2.8,0.1-3.4-1.1c-0.5-1-0.3-2.2,0.5-2.9c0,0,1.5-1.5,3.9-3.7c0.6-0.5,1.2-1.1,1.9-1.8c0.7-0.6,1.4-1.3,2.1-2
							c1.5-1.3,3.2-2.5,4.9-3.8s3.4-2.5,5-3.7s3.1-2.2,4.4-3.2c1.3-0.9,2.4-1.7,3.2-2.2s1.2-0.8,1.2-0.8c1.7-1.2,4.1-0.7,5.2,1
							C678.8,655.8,678.4,658,676.9,659.2z"/>
					</g>
					<ellipse fill="#84705B" cx="651.5" cy="685" rx="8.9" ry="14.6"/>
					<g>
						<g opacity="0.44">
							<path d="M707.4,726.7c0,0,0.7-0.7,2-1.5c0.3-0.2,0.7-0.4,1.1-0.6c0.4-0.2,0.8-0.4,1.3-0.6c0.5-0.2,0.9-0.3,1.4-0.5
								c0.5-0.1,1-0.3,1.5-0.3l0.8-0.1c0.3,0,0.5,0,0.8,0c0.5-0.1,1,0,1.5,0s1,0.2,1.4,0.3s0.8,0.3,1.2,0.5c0.3,0.2,0.7,0.3,0.9,0.5
								c0.3,0.2,0.5,0.4,0.7,0.5c0.4,0.3,0.5,0.5,0.5,0.5l-0.1,0.1c0,0-0.3-0.1-0.7-0.2c-0.2-0.1-0.5-0.1-0.8-0.2
								c-0.3-0.1-0.6-0.1-1-0.2c-0.4-0.1-0.7-0.2-1.1-0.2c-0.4-0.1-0.8-0.2-1.3-0.2c-0.4-0.1-0.9-0.1-1.4-0.2h-0.7h-0.7
								c-0.5,0-1,0.1-1.4,0.2c-0.5,0.1-0.9,0.2-1.4,0.3c-0.9,0.3-1.7,0.5-2.4,0.9C708.3,726.2,707.5,726.8,707.4,726.7L707.4,726.7z
								"/>
						</g>
						<g>
							<g>
								<path d="M686.2,661.2c0,0,0.3-1.1,1.1-2.6c0.2-0.4,0.4-0.8,0.7-1.2c0.2-0.4,0.6-0.8,0.9-1.3c0.3-0.4,0.7-0.9,1.1-1.3
									c0.4-0.4,0.8-0.8,1.2-1.2l0.7-0.6l0.7-0.5c0.5-0.4,1-0.6,1.5-0.9c0.5-0.3,1-0.4,1.5-0.5c0.2-0.1,0.5-0.1,0.7-0.2
									c0.2,0,0.5-0.1,0.7-0.1c0.4,0,0.8-0.1,1.2-0.1s0.7,0,0.9,0.1c0.5,0,0.8,0.1,0.8,0.1v0.1c0,0-0.3,0.1-0.7,0.2
									c-0.2,0.1-0.5,0.1-0.8,0.2c-0.3,0.1-0.7,0.2-1.1,0.3c-0.4,0.1-0.8,0.2-1.2,0.4s-0.9,0.3-1.3,0.6c-0.5,0.2-0.9,0.4-1.4,0.7
									l-0.7,0.4l-0.7,0.5c-0.5,0.3-0.8,0.7-1.3,1c-0.4,0.4-0.8,0.7-1.1,1.1c-0.7,0.8-1.3,1.5-1.7,2.2c-0.9,1.4-1.3,2.4-1.3,2.4
									L686.2,661.2z"/>
							</g>
							<path fill="#1E1A16" d="M696.7,670.2c2,0,3.8,0.4,5.3,1c0.6-1.4,1-3,1-4.7c0-4.9-2.8-8.9-6.4-8.9s-6.4,4-6.4,8.9
								c0,1.8,0.4,3.4,1,4.8C692.8,670.6,694.7,670.2,696.7,670.2z"/>
							<path fill="#FFFFFF" d="M696.5,659.2c-0.2-0.1,2.8,0.4,3.7,3.7C700.2,662.9,698.1,660,696.5,659.2z"/>
							<g>
								<g>
									<path d="M749.5,661.3c0,0-0.4-1-1.3-2.4c-0.4-0.7-1-1.5-1.7-2.2c-0.4-0.4-0.7-0.8-1.1-1.1c-0.4-0.3-0.8-0.7-1.3-1l-0.7-0.5
										l-0.7-0.4c-0.5-0.3-0.9-0.5-1.4-0.7c-0.4-0.2-0.9-0.4-1.3-0.6c-0.4-0.2-0.8-0.3-1.2-0.4c-0.4-0.1-0.7-0.3-1.1-0.3
										c-0.3-0.1-0.6-0.1-0.8-0.2c-0.5-0.1-0.7-0.2-0.7-0.2v-0.1c0,0,0.3,0,0.8-0.1c0.3,0,0.6,0,0.9-0.1c0.4,0,0.7,0,1.2,0.1
										c0.2,0,0.4,0.1,0.7,0.1c0.2,0,0.5,0.1,0.7,0.2c0.5,0.1,1,0.3,1.5,0.5c0.5,0.3,1,0.5,1.5,0.9l0.7,0.5l0.7,0.6
										c0.5,0.4,0.8,0.8,1.2,1.2s0.7,0.8,1.1,1.3c0.3,0.4,0.6,0.8,0.9,1.3c0.3,0.4,0.5,0.8,0.7,1.2c0.8,1.5,1.1,2.6,1.1,2.6
										L749.5,661.3z"/>
								</g>
								<path fill="#1E1A16" d="M739.2,670.2c2,0,3.8,0.4,5.3,1c0.6-1.4,1-3,1-4.7c0-4.9-2.8-8.9-6.4-8.9s-6.4,4-6.4,8.9
									c0,1.8,0.4,3.4,1,4.8C735.3,670.6,737.2,670.2,739.2,670.2z"/>
								<path fill="#FFFFFF" d="M739,659.2c-0.2-0.1,2.8,0.4,3.7,3.7C742.7,662.9,740.6,660,739,659.2z"/>
							</g>
							<g opacity="0.44">
								<path d="M719.5,676.6c0,0,1.1,1.3,2.6,3.4c0.7,1,1.6,2.3,2.3,3.7c0.8,1.4,1.5,3,2,4.7c0.2,0.9,0.3,1.8,0.3,2.7
									s-0.3,1.9-0.8,2.7s-1.2,1.4-1.9,1.8c-0.4,0.2-0.7,0.4-1.1,0.5c-0.4,0.1-0.7,0.2-1,0.3c-0.7,0.1-1.3,0.3-1.8,0.3
									c-0.5,0.1-1,0.1-1.4,0.1c-0.8,0-1.2,0-1.2,0c-0.6,0-1.1-0.5-1.1-1.1s0.5-1.1,1.1-1.1h0.1h0.1c0,0,0.4,0,1.1,0.1
									c0.4,0,0.8,0,1.3,0s1-0.1,1.6-0.1c0.3-0.1,0.6-0.1,0.9-0.2c0.3-0.1,0.6-0.2,0.9-0.3c0.5-0.3,1.1-0.6,1.5-1.2
									c0.4-0.5,0.7-1.2,0.7-1.9c0.1-0.7,0.1-1.5-0.1-2.3c-0.3-1.6-0.9-3.2-1.5-4.6c-0.6-1.4-1.4-2.7-2-3.8
									C720.5,678,719.5,676.6,719.5,676.6z"/>
							</g>
						</g>
					</g>
					<g>
						<g>
							<path fill="#1E1A16" d="M731.8,707.2c0,0,0.2,0.2,0.5,0.6c0.3,0.4,0.6,0.9,0.8,1.5c0.1,0.3,0.2,0.6,0.2,0.9
								c0,0.3-0.1,0.6-0.2,0.8c-0.1,0.2-0.2,0.4-0.3,0.5s-0.2,0.2-0.2,0.2h-0.1c0,0,0-0.1-0.1-0.2c0-0.1,0-0.3-0.1-0.5
								c0-0.2-0.1-0.4-0.1-0.7c0-0.2,0-0.5,0-0.8c0-0.6-0.2-1.1-0.4-1.5C731.9,707.5,731.7,707.3,731.8,707.2L731.8,707.2z"/>
						</g>
						<g>
							<path fill="#1E1A16" d="M706.8,709.2c0,0-0.1,0.3-0.2,0.7c-0.1,0.4-0.2,1-0.2,1.6c0,0.3,0.1,0.5,0.1,0.8c0,0.2,0,0.5,0,0.7
								s0,0.4,0,0.5s0,0.2,0,0.2h-0.1c0,0-0.1,0-0.2-0.1c-0.1-0.1-0.3-0.2-0.4-0.5c-0.1-0.2-0.2-0.5-0.3-0.8c0-0.3,0-0.6,0.1-1
								c0.1-0.6,0.3-1.2,0.6-1.6C706.5,709.4,706.7,709.2,706.8,709.2L706.8,709.2z"/>
						</g>
						<g>
							<path fill="#1E1A16" d="M732.8,709.4c0,0-1.4,1.1-3.7,2.2c-0.6,0.3-1.2,0.6-1.9,0.9c-0.7,0.3-1.4,0.6-2.2,0.8
								c-0.8,0.3-1.6,0.5-2.4,0.7c-0.8,0.2-1.7,0.3-2.6,0.4c-0.5,0.1-0.9,0-1.3,0.1c-0.4,0-0.9,0-1.3,0c-0.9,0-1.7-0.1-2.5-0.2
								c-1.6-0.2-3.1-0.6-4.3-1c-2.5-0.8-4-1.6-4-1.6s1.7,0.3,4.2,0.6c0.6,0.1,1.3,0.2,2,0.2c0.7,0.1,1.5,0.1,2.3,0.2
								c0.8,0.1,1.6,0.1,2.4,0.1c0.4,0,0.8,0,1.2,0s0.9,0,1.2-0.1c0.8-0.1,1.6-0.2,2.4-0.3c0.8-0.2,1.6-0.3,2.3-0.5
								c0.8-0.2,1.5-0.4,2.2-0.6c0.7-0.2,1.4-0.4,2-0.6C731.1,709.9,732.8,709.4,732.8,709.4z"/>
						</g>
						<g>
							<path fill="#1E1A16" d="M728.3,715.8c0,0-0.8,1-2.3,2.2c-0.7,0.6-1.6,1.3-2.7,1.9c-0.5,0.3-1.1,0.6-1.7,0.8
								c-0.6,0.2-1.2,0.4-1.9,0.5h-0.2h-0.3h-0.5c-0.3,0-0.7,0-1-0.1c-0.6-0.1-1.3-0.2-1.8-0.4c-1.2-0.4-2.2-0.9-3-1.3
								c-0.8-0.5-1.5-0.9-1.9-1.3c-0.4-0.3-0.7-0.5-0.7-0.5s0.3,0.1,0.8,0.4c0.5,0.3,1.2,0.6,2.1,0.9c0.9,0.4,1.9,0.7,3,1
								c0.6,0.2,1.1,0.2,1.7,0.3c0.3,0,0.6,0,0.9,0.1h0.5h0.2h0.2c0.6-0.1,1.2-0.2,1.7-0.4c0.6-0.2,1.1-0.4,1.6-0.7
								c1-0.5,2-1.1,2.8-1.6s1.4-1,1.9-1.3C728,716,728.3,715.8,728.3,715.8z"/>
						</g>
					</g>
					<g>
						<path d="M762.3,653.6c0-2.4-2.2-4.4-4.9-4.4h-9.8l0,0H738l0,0h-4.9c-5.4,0-9.8,3.9-9.8,8.8v4.4l0,0l0,0
							c0,7.2,5.8,13.2,12.8,13.2h13.4c7.1,0,12.8-5.9,12.8-13.2l0,0l0,0l0,0V653.6z M748.7,673.5H737c-6.1,0-11.2-5-11.2-11.2l0,0
							v-3.7c0-4.1,3.8-7.4,8.5-7.4h2.6h1.6h8.4h1.6h2.6c4.7,0,8.5,3.3,8.5,7.4v3.7l0,0C759.8,668.5,754.8,673.5,748.7,673.5z"/>
						<ellipse fill="#FFFFFF" cx="758.6" cy="652" rx="1.5" ry="0.6"/>
					</g>
					<g>
						<path d="M675.5,662.4L675.5,662.4L675.5,662.4L675.5,662.4c0,7.2,5.8,13.2,12.8,13.2h13.4c7,0,12.8-5.9,12.8-13.2l0,0l0,0V658
							c0-4.8-4.4-8.8-9.8-8.8h-4.9l0,0h-9.7l0,0h-9.8c-2.7,0-4.9,2-4.9,4.4v8.8H675.5z M678,662.4L678,662.4v-3.7
							c0-4.1,3.8-7.4,8.5-7.4h2.6h1.6h8.4h1.6h2.6c4.7,0,8.5,3.3,8.5,7.4v3.7l0,0c0,6.1-5,11.2-11.2,11.2h-11.7
							C683,673.5,678,668.5,678,662.4z"/>
						<ellipse fill="#FFFFFF" cx="678.9" cy="652" rx="1.5" ry="0.6"/>
					</g>
					<path fill="none" stroke="#000000" stroke-width="3.0109" stroke-miterlimit="10" d="M713.5,657.9c0,0,5.3-5.4,10.7,0"/>
					<path opacity="0.3" fill="#F4F4F4" enable-background="new    " d="M711.5,633.5c-15.2-1.2-37.4-6.2-44.9,0
						c-1.8,1.5-3,3.5-3.8,5.7c0.2-0.2,0.5-0.5,0.7-0.7c7.5-6.2,29.7-1.2,44.9,0c14.7,1.2,46.4-0.3,49.1-13.1
						C748.8,633.5,724,634.5,711.5,633.5z"/>
				</g>
			</g>
			<g>
				<defs>
					<rect id="SVGID_11_" width="2048" height="1536"/>
				</defs>
				<clipPath id="SVGID_12_">
					<use xlink:href="#SVGID_11_"  overflow="visible"/>
				</clipPath>
				<ellipse clip-path="url(#SVGID_12_)" fill="#8ED6C8" cx="1004.1" cy="1306.3" rx="112.1" ry="13.2"/>
			</g>
			<g>
				<defs>
					<rect id="SVGID_13_" width="2048" height="1536"/>
				</defs>
				<clipPath id="SVGID_14_">
					<use xlink:href="#SVGID_13_"  overflow="visible"/>
				</clipPath>
				<rect x="983.7" y="1223" clip-path="url(#SVGID_14_)" fill="#7AAF71" width="33.5" height="63.6"/>
			</g>
			<g>
				<defs>
					<rect id="SVGID_15_" width="2048" height="1536"/>
				</defs>
				<clipPath id="SVGID_16_">
					<use xlink:href="#SVGID_15_"  overflow="visible"/>
				</clipPath>
				<g clip-path="url(#SVGID_16_)">
					
						<rect x="918.4" y="1298.1" transform="matrix(-0.9974 7.168330e-02 -7.168330e-02 -0.9974 2029.3035 2526.0989)" fill="#725429" width="101.9" height="2.8"/>
					
						<rect x="993" y="1295.1" transform="matrix(-0.9974 7.168330e-02 -7.168330e-02 -0.9974 2111.4133 2521.0525)" fill="#725429" width="35" height="6.7"/>
					<path fill="#725429" d="M1007.9,1284.9l-26.8,1.9c-2.9,0.2-5.1,2.7-4.9,5.6l0.5,6.5c0.2,2.9,2.7,5.1,5.6,4.9l26.8-1.9
						c2.9-0.2,5.1-2.7,4.9-5.6l-0.5-6.5C1013.3,1286.9,1010.7,1284.7,1007.9,1284.9z"/>
					<path d="M918.4,1301.7c0,0,8.6-26.8,53.5-30s55.8,22.2,55.8,22.2L918.4,1301.7z"/>
				</g>
			</g>
			<g>
				<defs>
					<rect id="SVGID_17_" width="2048" height="1536"/>
				</defs>
				<clipPath id="SVGID_18_">
					<use xlink:href="#SVGID_17_"  overflow="visible"/>
				</clipPath>
				<ellipse clip-path="url(#SVGID_18_)" fill="#8ED6C8" cx="772.9" cy="1362.1" rx="127.1" ry="14.9"/>
			</g>
			<g>
				<defs>
					<rect id="SVGID_19_" width="2048" height="1536"/>
				</defs>
				<clipPath id="SVGID_20_">
					<use xlink:href="#SVGID_19_"  overflow="visible"/>
				</clipPath>
				<ellipse clip-path="url(#SVGID_20_)" fill="#8ED6C8" cx="1528.9" cy="1374.1" rx="188.1" ry="31.5"/>
			</g>
			<g>
				<defs>
					<rect id="SVGID_21_" width="2048" height="1536"/>
				</defs>
				<clipPath id="SVGID_22_">
					<use xlink:href="#SVGID_21_"  overflow="visible"/>
				</clipPath>
				<rect x="1050.5" y="1223" clip-path="url(#SVGID_22_)" fill="#7AAF71" width="33.5" height="63.6"/>
			</g>
			<g>
				<defs>
					<rect id="SVGID_23_" width="2048" height="1536"/>
				</defs>
				<clipPath id="SVGID_24_">
					<use xlink:href="#SVGID_23_"  overflow="visible"/>
				</clipPath>
				<path clip-path="url(#SVGID_24_)" fill="#D8C8BC" d="M1117.2,1001.2h9.7c5.4,0,9.8,4.4,9.8,9.8v17.2c0,5.4-4.4,9.8-9.8,9.8h-9.7
					c-5.4,0-9.8-4.4-9.8-9.8V1011C1107.4,1005.6,1111.8,1001.2,1117.2,1001.2z"/>
			</g>
			<g>
				<defs>
					<rect id="SVGID_25_" width="2048" height="1536"/>
				</defs>
				<clipPath id="SVGID_26_">
					<use xlink:href="#SVGID_25_"  overflow="visible"/>
				</clipPath>
				<path clip-path="url(#SVGID_26_)" fill="#D8C8BC" d="M1109.9,1004.5h4.1c2.5,0,4.5,2,4.5,4.5v4.1c0,2.5-2,4.5-4.5,4.5h-4.1
					c-2.5,0-4.5-2-4.5-4.5v-4.1C1105.4,1006.5,1107.4,1004.5,1109.9,1004.5z"/>
			</g>
			<g>
				<defs>
					<rect id="SVGID_27_" width="2048" height="1536"/>
				</defs>
				<clipPath id="SVGID_28_">
					<use xlink:href="#SVGID_27_"  overflow="visible"/>
				</clipPath>
				<g clip-path="url(#SVGID_28_)">
					
						<rect x="985.1" y="1298.1" transform="matrix(-0.9974 7.168330e-02 -7.168330e-02 -0.9974 2162.5288 2521.3274)" fill="#725429" width="101.9" height="2.8"/>
					
						<rect x="1059.7" y="1295.1" transform="matrix(-0.9974 7.168330e-02 -7.168330e-02 -0.9974 2244.6387 2516.2812)" fill="#725429" width="35" height="6.7"/>
					<path fill="#725429" d="M1074.6,1284.9l-26.8,1.9c-2.9,0.2-5.1,2.7-4.9,5.6l0.5,6.5c0.2,2.9,2.7,5.1,5.6,4.9l26.8-1.9
						c2.9-0.2,5.1-2.7,4.9-5.6l-0.5-6.5C1080,1286.9,1077.5,1284.7,1074.6,1284.9z"/>
					<path d="M985.2,1301.7c0,0,8.6-26.8,53.5-30c44.9-3.2,55.8,22.2,55.8,22.2L985.2,1301.7z"/>
				</g>
			</g>
			<g>
				<defs>
					<rect id="SVGID_29_" width="2048" height="1536"/>
				</defs>
				<clipPath id="SVGID_30_">
					<use xlink:href="#SVGID_29_"  overflow="visible"/>
				</clipPath>
				<g clip-path="url(#SVGID_30_)">
					<path fill="#5198BF" d="M1031,1241h-55v-187c0-13.3,9.5-24.7,22.7-26.6l147.5-20.9l29.4,5.5h53.4v13c0,13.3-8.6,24.7-21.8,26.6
						l-176.2,25.7V1241z"/>
				</g>
			</g>
			<g>
				<defs>
					<rect id="SVGID_31_" width="2048" height="1536"/>
				</defs>
				<clipPath id="SVGID_32_">
					<use xlink:href="#SVGID_31_"  overflow="visible"/>
				</clipPath>
				<path opacity="3.000000e-02" clip-path="url(#SVGID_32_)" enable-background="new    " d="M1002.3,1070
					c0-13.3,9.3-24.7,22.5-26.6l174.6-25.4c1.3-0.2,2.2-1.3,2.2-2.6v-0.3c0-1.4,1.2-2.6,2.6-2.6h24.8l0,0h-50.8
					c-1.4,0-2.6,1.2-2.6,2.6l0,0c0,1.4-6.8-9.4-8.2-9.4L999,1027.4c-0.1,0-0.2,0-0.3,0c-13.1,2-22.4,13.3-22.4,26.6v184.2
					c0,1.4,1.2,2.6,2.6,2.6h20.8c1.4,0,2.6-1.2,2.6-2.6L1002.3,1070L1002.3,1070z"/>
			</g>
			<g>
				<defs>
					<rect id="SVGID_33_" width="2048" height="1536"/>
				</defs>
				<clipPath id="SVGID_34_">
					<use xlink:href="#SVGID_33_"  overflow="visible"/>
				</clipPath>
				<g clip-path="url(#SVGID_34_)">
					<path fill="#5198BF" d="M1093,1241h-53v-179.7c0-13.2,10-24.4,23-26.5l155-25.3v-6.4h53v29.2c0,13.2-10,24.4-23,26.5l-155,25.3
						V1241z"/>
				</g>
			</g>
			<g>
				<defs>
					<rect id="SVGID_35_" width="2048" height="1536"/>
				</defs>
				<clipPath id="SVGID_36_">
					<use xlink:href="#SVGID_35_"  overflow="visible"/>
				</clipPath>
				<path opacity="3.000000e-02" clip-path="url(#SVGID_36_)" enable-background="new    " d="M1067,1078.7c0-13.2,10-24.4,23-26.5
					l155-25.3V1006h26v-3h-53v6.4l-155,25.3c-13,2.1-23,13.3-23,26.5V1241h27V1078.7z"/>
			</g>
			<g>
				<defs>
					<rect id="SVGID_37_" width="2048" height="1536"/>
				</defs>
				<clipPath id="SVGID_38_">
					<use xlink:href="#SVGID_37_"  overflow="visible"/>
				</clipPath>
				<rect x="779.1" y="1229.8" clip-path="url(#SVGID_38_)" fill="#E07B17" width="37.6" height="51.2"/>
			</g>
			<g>
				<defs>
					<rect id="SVGID_39_" width="2048" height="1536"/>
				</defs>
				<clipPath id="SVGID_40_">
					<use xlink:href="#SVGID_39_"  overflow="visible"/>
				</clipPath>
				<rect x="710.8" y="1229.8" clip-path="url(#SVGID_40_)" fill="#E07B17" width="37.6" height="51.2"/>
			</g>
			<g>
				<defs>
					<rect id="SVGID_41_" width="2048" height="1536"/>
				</defs>
				<clipPath id="SVGID_42_">
					<use xlink:href="#SVGID_41_"  overflow="visible"/>
				</clipPath>
				<g clip-path="url(#SVGID_42_)">
					<path fill="#A5A172" d="M822,1242h-50v-158.5l-63.1-8.9c-12.6-1.8-21.9-12.6-21.9-25.3V1015h52v12.1l62.1,8.9
						c12.6,1.8,20.9,12.6,20.9,25.3V1242z"/>
				</g>
			</g>
			<g>
				<defs>
					<rect id="SVGID_43_" width="2048" height="1536"/>
				</defs>
				<clipPath id="SVGID_44_">
					<use xlink:href="#SVGID_43_"  overflow="visible"/>
				</clipPath>
				<path opacity="0.1" clip-path="url(#SVGID_44_)" enable-background="new    " d="M797,1242v-163.7c0-12.8-8.8-23.6-21.4-25.3
					l-62.6-8.9V1032h-26v17.3c0,12.8,9.3,23.6,21.9,25.3l63.1,8.9V1242H797z"/>
			</g>
			<g>
				<defs>
					<rect id="SVGID_45_" width="2048" height="1536"/>
				</defs>
				<clipPath id="SVGID_46_">
					<use xlink:href="#SVGID_45_"  overflow="visible"/>
				</clipPath>
				<g clip-path="url(#SVGID_46_)">
					<path fill="#A5A172" d="M754,1242h-51v-162.7l-65.9-11.6c-12.2-2.2-21.1-12.8-21.1-25.2V1012h50v9l66.4,11.6
						c12.2,2.2,21.6,12.8,21.6,25.2V1242z"/>
				</g>
			</g>
			<g>
				<defs>
					<rect id="SVGID_47_" width="2048" height="1536"/>
				</defs>
				<clipPath id="SVGID_48_">
					<use xlink:href="#SVGID_47_"  overflow="visible"/>
				</clipPath>
				<path opacity="0.1" clip-path="url(#SVGID_48_)" enable-background="new    " d="M729,1242v-163.7c0-12.4-10.4-23-22.6-25.2
					l-67.4-11.6V999h-23v43.5c0,12.4,8.9,23,21.1,25.2l65.9,11.6V1242H729z"/>
			</g>
			<g>
				<defs>
					<rect id="SVGID_49_" width="2048" height="1536"/>
				</defs>
				<clipPath id="SVGID_50_">
					<use xlink:href="#SVGID_49_"  overflow="visible"/>
				</clipPath>
				<path clip-path="url(#SVGID_50_)" fill="#3E5C89" d="M760,831.5V1027H607V828h12.9c-4.7-16-7.2-35.8-3.2-44.9
					c10.7-24.1,55.8-23.1,55.8-23.1h2h30.1h2c0,0,44.3,1.8,53.3,24.2v47.3H760z"/>
			</g>
			<g>
				<defs>
					<rect id="SVGID_51_" width="2048" height="1536"/>
				</defs>
				<clipPath id="SVGID_52_">
					<use xlink:href="#SVGID_51_"  overflow="visible"/>
				</clipPath>
				<rect x="624.2" y="863.9" clip-path="url(#SVGID_52_)" fill="#EAE7D3" width="135.8" height="21.1"/>
			</g>
			<g>
				<defs>
					<rect id="SVGID_53_" width="2048" height="1536"/>
				</defs>
				<clipPath id="SVGID_54_">
					<use xlink:href="#SVGID_53_"  overflow="visible"/>
				</clipPath>
				<rect x="624.2" y="833.1" clip-path="url(#SVGID_54_)" fill="#EAE7D3" width="135.8" height="21.1"/>
			</g>
			<g>
				<defs>
					<rect id="SVGID_55_" width="2048" height="1536"/>
				</defs>
				<clipPath id="SVGID_56_">
					<use xlink:href="#SVGID_55_"  overflow="visible"/>
				</clipPath>
				<path opacity="5.000000e-02" clip-path="url(#SVGID_56_)" enable-background="new    " d="M697,760h-22.4h-2
					c0,0-45.1-1-55.8,23.1c-4,9-1.5,28.9,3.2,44.9h-13v199h90V760z"/>
			</g>
			<g>
				<defs>
					<rect id="SVGID_57_" width="2048" height="1536"/>
				</defs>
				<clipPath id="SVGID_58_">
					<use xlink:href="#SVGID_57_"  overflow="visible"/>
				</clipPath>
				<path clip-path="url(#SVGID_58_)" fill="#278FAF" d="M689.5,821.6"/>
			</g>
			<g>
				<defs>
					
						<rect id="SVGID_59_" x="-429.9" y="1037.5" transform="matrix(0.9974 7.168338e-02 -7.168338e-02 0.9974 130.9536 -37.9407)" width="2047.9" height="1536"/>
				</defs>
				<clipPath id="SVGID_60_">
					<use xlink:href="#SVGID_59_"  overflow="visible"/>
				</clipPath>
				
					<rect x="777.7" y="1293.1" transform="matrix(0.9974 7.168338e-02 -7.168338e-02 0.9974 94.9206 -56.0027)" clip-path="url(#SVGID_60_)" fill="#49310A" width="100" height="2.8"/>
			</g>
			<g>
				<defs>
					<rect id="SVGID_61_" width="2048" height="1536"/>
				</defs>
				<clipPath id="SVGID_62_">
					<use xlink:href="#SVGID_61_"  overflow="visible"/>
				</clipPath>
				<path clip-path="url(#SVGID_62_)" fill="#49310A" d="M788.9,1280.1l28.3,2c2.3,0.2,4,2.2,3.8,4.4l-0.6,8.4
					c-0.2,2.3-2.2,4-4.4,3.8l-28.3-2c-2.3-0.2-4-2.2-3.8-4.4l0.6-8.4C784.6,1281.7,786.6,1280,788.9,1280.1z"/>
			</g>
			<g>
				<defs>
					<rect id="SVGID_63_" width="2048" height="1536"/>
				</defs>
				<clipPath id="SVGID_64_">
					<use xlink:href="#SVGID_63_"  overflow="visible"/>
				</clipPath>
				<path clip-path="url(#SVGID_64_)" d="M877.6,1296.7c0,0-8.5-26.3-52.5-29.5s-54.7,21.8-54.7,21.8L877.6,1296.7z"/>
			</g>
			<g>
				<defs>
					
						<rect id="SVGID_65_" x="-486.5" y="1035.3" transform="matrix(0.9974 7.168338e-02 -7.168338e-02 0.9974 130.6453 -33.8871)" width="2047.9" height="1536"/>
				</defs>
				<clipPath id="SVGID_66_">
					<use xlink:href="#SVGID_65_"  overflow="visible"/>
				</clipPath>
				
					<rect x="782.1" y="1291.9" transform="matrix(0.9974 7.168338e-02 -7.168338e-02 0.9974 94.841 -53.9662)" clip-path="url(#SVGID_66_)" fill="#49310A" width="34.4" height="4.9"/>
			</g>
			<g>
				<defs>
					<rect id="SVGID_67_" width="2048" height="1536"/>
				</defs>
				<clipPath id="SVGID_68_">
					<use xlink:href="#SVGID_67_"  overflow="visible"/>
				</clipPath>
				<path clip-path="url(#SVGID_68_)" fill="#364E72" d="M662.7,765.8H716c1.3,0,2.3-1,2.3-2.3v-3.2c0-1.3-1-2.3-2.3-2.3h-53.4
					c-1.3,0-2.3,1-2.3,2.3v3.2C660.4,764.8,661.4,765.8,662.7,765.8z"/>
			</g>
			<g>
				<defs>
					
						<rect id="SVGID_69_" x="-573.5" y="1032.4" transform="matrix(0.9974 7.168338e-02 -7.168338e-02 0.9974 130.2148 -27.6614)" width="2047.9" height="1536"/>
				</defs>
				<clipPath id="SVGID_70_">
					<use xlink:href="#SVGID_69_"  overflow="visible"/>
				</clipPath>
				
					<rect x="705.7" y="1293.1" transform="matrix(0.9974 7.168338e-02 -7.168338e-02 0.9974 94.735 -50.8437)" clip-path="url(#SVGID_70_)" fill="#49310A" width="100" height="2.8"/>
			</g>
			<g>
				<defs>
					
						<rect id="SVGID_71_" x="-654" y="1027.5" transform="matrix(0.9974 7.168338e-02 -7.168338e-02 0.9974 129.6593 -21.8987)" width="2047.9" height="1536"/>
				</defs>
				<clipPath id="SVGID_72_">
					<use xlink:href="#SVGID_71_"  overflow="visible"/>
				</clipPath>
				
					<rect x="698.2" y="1290.2" transform="matrix(0.9974 7.168338e-02 -7.168338e-02 0.9974 94.5621 -47.9543)" clip-path="url(#SVGID_72_)" fill="#49310A" width="34.4" height="6.6"/>
			</g>
			<g>
				<defs>
					<rect id="SVGID_73_" width="2048" height="1536"/>
				</defs>
				<clipPath id="SVGID_74_">
					<use xlink:href="#SVGID_73_"  overflow="visible"/>
				</clipPath>
				<path clip-path="url(#SVGID_74_)" fill="#49310A" d="M717,1280.1l28.3,2c2.3,0.2,4,2.2,3.8,4.4l-0.6,8.4c-0.2,2.3-2.2,4-4.4,3.8
					l-28.3-2c-2.3-0.2-4-2.2-3.8-4.4l0.6-8.4C712.7,1281.7,714.7,1280,717,1280.1z"/>
			</g>
			<g>
				<defs>
					<rect id="SVGID_75_" width="2048" height="1536"/>
				</defs>
				<clipPath id="SVGID_76_">
					<use xlink:href="#SVGID_75_"  overflow="visible"/>
				</clipPath>
				<path clip-path="url(#SVGID_76_)" d="M805.7,1296.7c0,0-8.5-26.3-52.5-29.5s-54.7,21.8-54.7,21.8L805.7,1296.7z"/>
			</g>
			<g>
				<defs>
					<rect id="SVGID_77_" width="2048" height="1536"/>
				</defs>
				<clipPath id="SVGID_78_">
					<use xlink:href="#SVGID_77_"  overflow="visible"/>
				</clipPath>
				<path clip-path="url(#SVGID_78_)" fill="#278FAF" d="M548.5,1063.8"/>
			</g>
			<g>
				<defs>
					<rect id="SVGID_79_" width="2048" height="1536"/>
				</defs>
				<clipPath id="SVGID_80_">
					<use xlink:href="#SVGID_79_"  overflow="visible"/>
				</clipPath>
				<g clip-path="url(#SVGID_80_)">
					<path fill="#D8C8BC" d="M1128.4,1006.5h-8.2c-4.5,0-8.2-3.7-8.2-8.2v-200c0-4.5,3.7-8.2,8.2-8.2h8.2c4.5,0,8.2,3.7,8.2,8.2v200
						C1136.6,1002.8,1132.9,1006.5,1128.4,1006.5z"/>
					<path fill="#F2F2F2" d="M1125.9,760h-3c-9.9,0-17.9,9.4-17.9,18.3v27.5l0,0V994h38V805.8l0,0v-27.5
						C1143,769.4,1135.7,760,1125.9,760z"/>
					<rect x="1104.9" y="991.7" fill="#CECCA6" width="38.9" height="9.9"/>
					<polygon fill="#D8C8BC" points="1162.4,762.4 1214.8,762.4 1211.6,707.6 1165.7,707.6 					"/>
					<polygon opacity="0.1" fill="#443E3B" enable-background="new    " points="1162.4,762.4 1214.8,762.4 1211.6,707.6 
						1165.7,707.6 					"/>
					<ellipse fill="#D8C8BC" cx="1181.3" cy="663.6" rx="63.4" ry="69.8"/>
					<path opacity="0.59" fill="#BDCAD6" enable-background="new    " d="M1176.3,660h16c5.6,0,10.3-4.6,10.3-10.3V645
						c0-5.6-4.6-10.3-10.3-10.3h-16c-5.6,0-10.3,4.6-10.3,10.3v4.7C1166,655.4,1170.6,660,1176.3,660z"/>
					<path opacity="0.59" fill="#BDCAD6" enable-background="new    " d="M1127.4,660h16c5.6,0,10.3-4.6,10.3-10.3V645
						c0-5.6-4.6-10.3-10.3-10.3h-16c-5.6,0-10.3,4.6-10.3,10.3v4.7C1117.1,655.4,1121.8,660,1127.4,660z"/>
					<path fill="none" stroke="#000000" stroke-width="5.092" stroke-linecap="round" stroke-miterlimit="10" d="M1226.7,660"/>
					<path fill="none" stroke="#000000" stroke-width="5.092" stroke-linecap="round" stroke-miterlimit="10" d="M1203.8,640.9"/>
					<path opacity="5.000000e-02" enable-background="new    " d="M1229.4,653.8c0-19.4-6.3-37.2-16.9-51
						c19.2,12,32.2,34.7,32.2,60.7c0,38.5-28.4,69.8-63.4,69.8c-4,0-7.9-0.4-11.7-1.2C1203.6,725.6,1229.4,693.1,1229.4,653.8z"/>
					<path fill="#846534" d="M1217.7,651.4c0,0,1-21.6,20.7-18.4c8.4,1.4,16.4,34.5,11,46.4c-4,8.8-18,27-18,27l2-45.1
						c0,0-7.5-8.5-11.6,1.5S1212,668.8,1217.7,651.4z"/>
					<g opacity="0.3">
						<path fill="#F4F4F4" d="M1217.7,651.4c0,0,1-21.6,20.7-18.4c0.8,0.1,1.5,0.5,2.2,1.1c-18.4-2.1-19.5,18.5-19.5,18.5
							c-2.4,7.2-2.8,12.1-2.2,14.7C1215.7,670.5,1213.2,665.1,1217.7,651.4z"/>
					</g>
					<g>
						<path d="M1206.8,638.5c0,0,0.4,0.3,1.2,0.8c0.8,0.5,1.9,1.3,3.2,2.2c1.3,0.9,2.9,2,4.5,3.2s3.4,2.4,5.1,3.7s3.5,2.5,5,3.9
							c0.8,0.7,1.5,1.4,2.2,2s1.3,1.2,1.9,1.8c2.4,2.2,3.9,3.8,3.9,3.8c1,1,1,2.6,0,3.6c-0.8,0.8-2,1-3,0.5c0,0-1.9-1-4.8-2.6
							c-0.7-0.4-1.5-0.8-2.3-1.3s-1.7-0.9-2.5-1.4c-1.7-1-3.4-2.4-5.2-3.6c-1.7-1.3-3.5-2.5-5.1-3.7s-3.1-2.3-4.4-3.3
							s-2.3-1.8-3.1-2.4c-0.7-0.6-1.2-0.9-1.2-0.9c-1.6-1.3-1.9-3.7-0.6-5.4C1202.9,637.7,1205.2,637.4,1206.8,638.5z"/>
					</g>
					<ellipse fill="#D8C8BC" cx="1228" cy="670.8" rx="9" ry="14.8"/>
					<g>
						<g opacity="0.44">
							<path d="M1171.3,713.2c0,0-0.8-0.6-2.2-1.2c-0.7-0.3-1.5-0.6-2.4-0.9c-0.4-0.1-0.9-0.2-1.4-0.3s-1-0.2-1.4-0.2h-0.7h-0.7
								c-0.5,0-0.9,0.1-1.4,0.2c-0.5,0-0.9,0.1-1.3,0.2c-0.4,0-0.8,0.1-1.1,0.2c-0.4,0.1-0.7,0.1-1,0.2c-0.3,0.1-0.5,0.2-0.8,0.2
								c-0.4,0.1-0.7,0.2-0.7,0.2l-0.1-0.1c0,0,0.2-0.2,0.5-0.5c0.2-0.1,0.4-0.3,0.7-0.5c0.3-0.2,0.6-0.3,0.9-0.5
								c0.2-0.1,0.4-0.2,0.6-0.3s0.4-0.1,0.6-0.2c0.4-0.1,0.9-0.3,1.4-0.3s1-0.1,1.5,0c0.3,0,0.5,0,0.8,0l0.8,0.1
								c0.5,0.1,1,0.2,1.5,0.3s1,0.3,1.4,0.5s0.9,0.4,1.3,0.6c0.4,0.2,0.8,0.4,1.1,0.6C1170.6,712.4,1171.3,713.1,1171.3,713.2
								L1171.3,713.2z"/>
						</g>
						<g>
							<g>
								<path d="M1192.8,646.7c0,0-0.4-1.1-1.3-2.5c-0.5-0.7-1.1-1.5-1.7-2.3c-0.4-0.4-0.7-0.8-1.1-1.1c-0.4-0.4-0.8-0.7-1.3-1
									l-0.7-0.5l-0.7-0.4c-0.5-0.3-0.9-0.5-1.4-0.7c-0.4-0.2-0.9-0.4-1.3-0.6c-0.4-0.2-0.8-0.3-1.2-0.4c-0.4-0.1-0.7-0.3-1.1-0.3
									c-0.3-0.1-0.6-0.2-0.9-0.2c-0.5-0.1-0.8-0.2-0.8-0.2v-0.1c0,0,0.3,0,0.8-0.1c0.3,0,0.6,0,0.9-0.1c0.4,0,0.8,0,1.2,0.1
									c0.2,0,0.4,0.1,0.7,0.1c0.2,0,0.5,0.1,0.7,0.2c0.5,0.1,1,0.3,1.5,0.5c0.5,0.3,1,0.5,1.5,0.9l0.7,0.5l0.7,0.6
									c0.5,0.4,0.9,0.8,1.3,1.2s0.7,0.9,1.1,1.3c0.3,0.4,0.6,0.9,0.9,1.3c0.3,0.4,0.5,0.8,0.7,1.2c0.8,1.5,1.1,2.6,1.1,2.6H1192.8
									z"/>
							</g>
							<path fill="#1E1A16" d="M1182.2,655.8c-2,0-3.9,0.4-5.4,1c-0.6-1.4-1-3-1-4.8c0-5,2.9-9.1,6.4-9.1s6.4,4.1,6.4,9.1
								c0,1.8-0.4,3.4-1,4.9C1186.2,656.1,1184.3,655.8,1182.2,655.8z"/>
							<path fill="#FFFFFF" d="M1182.4,644.6c0.2-0.1-2.9,0.4-3.8,3.7C1178.7,648.3,1180.8,645.4,1182.4,644.6z"/>
							<g>
								<g>
									<path d="M1128.5,646.6c0,0,0.3-1.1,1.1-2.6c0.2-0.4,0.4-0.8,0.7-1.2c0.2-0.4,0.6-0.8,0.9-1.3c0.3-0.4,0.7-0.9,1.1-1.3
										c0.4-0.4,0.8-0.8,1.3-1.2l0.7-0.6l0.7-0.5c0.5-0.4,1-0.6,1.5-0.9c0.5-0.3,1-0.4,1.5-0.5c0.2-0.1,0.5-0.1,0.7-0.2
										c0.2,0,0.5-0.1,0.7-0.1c0.4,0,0.8-0.1,1.2-0.1c0.4,0,0.7,0,0.9,0.1c0.5,0,0.8,0.1,0.8,0.1v0.1c0,0-0.3,0.1-0.8,0.2
										c-0.2,0.1-0.5,0.1-0.9,0.2c-0.3,0.1-0.7,0.2-1.1,0.3s-0.8,0.2-1.2,0.4c-0.4,0.2-0.9,0.3-1.3,0.6c-0.5,0.2-0.9,0.4-1.4,0.7
										l-0.7,0.4l-0.7,0.5c-0.5,0.3-0.9,0.7-1.3,1c-0.4,0.4-0.8,0.8-1.1,1.1c-0.7,0.8-1.3,1.6-1.7,2.3c-0.9,1.4-1.3,2.5-1.3,2.5
										H1128.5z"/>
								</g>
								<path fill="#1E1A16" d="M1139.1,655.8c-2,0-3.9,0.4-5.4,1c-0.6-1.4-1-3-1-4.8c0-5,2.9-9.1,6.4-9.1s6.4,4.1,6.4,9.1
									c0,1.8-0.4,3.4-1,4.9C1143,656.1,1141.1,655.8,1139.1,655.8z"/>
								<path fill="#FFFFFF" d="M1139.3,644.6c0.2-0.1-2.9,0.4-3.8,3.7C1135.5,648.3,1137.6,645.4,1139.3,644.6z"/>
							</g>
							<g opacity="0.44">
								<path d="M1159.1,662.3c0,0-1,1.4-2.4,3.6c-0.7,1.1-1.4,2.4-2,3.9s-1.3,3.1-1.5,4.7c-0.1,0.8-0.2,1.6-0.1,2.4
									c0.1,0.8,0.4,1.4,0.7,2c0.4,0.6,1,0.9,1.5,1.2c0.3,0.1,0.6,0.2,0.9,0.3s0.6,0.1,0.9,0.2c0.6,0.1,1.1,0.2,1.6,0.1
									c0.5,0,0.9,0,1.3,0c0.7,0,1.1-0.1,1.1-0.1h0.1c0.6,0,1.2,0.4,1.2,1.1c0,0.6-0.4,1.2-1.1,1.2h-0.1c0,0-0.5,0-1.2,0
									c-0.4,0-0.9-0.1-1.4-0.1c-0.6,0-1.2-0.2-1.9-0.3c-0.3-0.1-0.7-0.2-1.1-0.3s-0.7-0.3-1.1-0.5c-0.7-0.5-1.5-1-2-1.9
									c-0.5-0.8-0.8-1.8-0.8-2.7s0.1-1.9,0.3-2.7c0.5-1.7,1.2-3.3,2-4.8c0.8-1.4,1.6-2.7,2.4-3.8
									C1158,663.6,1159.1,662.3,1159.1,662.3z"/>
							</g>
						</g>
					</g>
					<g>
						<g>
							<path fill="#1E1A16" d="M1146.7,693.4c0,0-0.2,0.3-0.3,0.7c-0.2,0.4-0.4,1-0.4,1.5c0,0.3,0,0.6,0,0.8c0,0.3,0,0.5-0.1,0.7
								c0,0.2-0.1,0.4-0.1,0.5s-0.1,0.2-0.1,0.2h-0.1c0,0-0.1-0.1-0.2-0.2c-0.1-0.1-0.2-0.3-0.3-0.5c-0.1-0.2-0.2-0.5-0.2-0.8
								s0.1-0.6,0.2-0.9c0.2-0.6,0.5-1.2,0.8-1.5C1146.4,693.5,1146.6,693.3,1146.7,693.4L1146.7,693.4z"/>
						</g>
						<g>
							<path fill="#1E1A16" d="M1172,695.3c0,0,0.2,0.2,0.4,0.6c0.2,0.4,0.5,1,0.6,1.6c0.1,0.3,0.1,0.7,0.1,1s-0.2,0.6-0.3,0.8
								c-0.1,0.2-0.3,0.4-0.4,0.5s-0.2,0.1-0.2,0.1h-0.1c0,0,0-0.1,0-0.2c0-0.1,0-0.3,0-0.6c0-0.2,0-0.5,0-0.7s0.1-0.5,0.1-0.8
								c0-0.6-0.1-1.1-0.2-1.6C1172.1,695.6,1172,695.4,1172,695.3L1172,695.3z"/>
						</g>
						<g>
							<path fill="#1E1A16" d="M1145.6,695.6c0,0,1.7,0.5,4.1,1.3c0.6,0.2,1.3,0.4,2,0.6c0.7,0.2,1.5,0.4,2.2,0.6
								c0.8,0.2,1.6,0.4,2.4,0.5c0.8,0.2,1.6,0.3,2.5,0.4c0.4,0.1,0.8,0.1,1.3,0.1c0.4,0,0.8,0,1.2,0c0.8,0,1.6,0,2.4-0.1
								s1.6-0.1,2.3-0.2c0.7-0.1,1.4-0.2,2.1-0.2c2.6-0.3,4.3-0.6,4.3-0.6s-1.5,0.9-4.1,1.6c-1.3,0.4-2.8,0.8-4.4,1
								c-0.8,0.1-1.7,0.2-2.6,0.2c-0.4,0-0.9,0-1.4,0c-0.4,0-0.8,0-1.3-0.1c-0.9-0.1-1.8-0.2-2.6-0.4c-0.9-0.2-1.7-0.4-2.5-0.7
								s-1.5-0.6-2.2-0.9c-0.7-0.3-1.3-0.6-1.9-0.9C1147,696.7,1145.6,695.6,1145.6,695.6z"/>
						</g>
						<g>
							<path fill="#1E1A16" d="M1150.2,702.1c0,0,0.3,0.2,0.7,0.5c0.4,0.3,1.1,0.8,1.9,1.3s1.7,1.1,2.8,1.6c0.5,0.3,1.1,0.5,1.7,0.7
								s1.2,0.3,1.8,0.4h0.2h0.2h0.5c0.3,0,0.6,0,0.9-0.1c0.6-0.1,1.2-0.2,1.7-0.3c1.1-0.3,2.2-0.7,3-1c0.9-0.4,1.6-0.7,2.1-1
								s0.8-0.4,0.8-0.4s-0.2,0.2-0.7,0.6c-0.5,0.3-1.1,0.8-2,1.3c-0.8,0.5-1.9,1-3,1.3c-0.6,0.2-1.2,0.3-1.9,0.4
								c-0.3,0-0.7,0.1-1,0.1h-0.5h-0.3h-0.3c-0.7-0.1-1.3-0.3-1.9-0.5s-1.2-0.5-1.7-0.8c-1.1-0.6-2-1.3-2.7-1.9
								C1151,703.1,1150.2,702.1,1150.2,702.1z"/>
						</g>
					</g>
					<path fill="#E5E1B5" d="M1122,817.9v148l134.1,48.8l17.2-196.7h-11.9c4.8-19,7.3-37.9,3.2-47.1c-10.9-24.5-56.9-24.9-56.9-24.9
						h-2H1175h-2c0,0-46.1,0.9-51.1,23.7v48.2H1122z"/>
					<rect x="1130.6" y="833.7" fill="#014F82" width="136" height="8.4"/>
					<rect x="1130.6" y="820.7" fill="#014F82" width="136" height="8.4"/>
					<rect x="1130.6" y="846.8" fill="#014F82" width="136" height="8.4"/>
					<rect x="1129.9" y="807.5" fill="#014F82" width="136" height="8.4"/>
					<rect x="1129.9" y="794.5" fill="#014F82" width="136" height="8.4"/>
					<rect x="1130.6" y="859.9" fill="#014F82" width="136" height="8.4"/>
					<path fill="#F2F2F2" d="M1272.1,1041.9l-151.6-36.3V817.9v-48.2c3.3-13.1,20.2-18.7,33.9-21.1l33.3,129.8l33.1-130.6
						c19.8,2.4,37.4,9.2,43.8,23.5c4.1,9.2,1.5,27.6-3.2,46.6h11.3L1272.1,1041.9z"/>
					
						<rect x="1210.7" y="967.4" transform="matrix(-0.6549 -0.7557 0.7557 -0.6549 1307.0684 2536.4973)" opacity="7.000000e-02" enable-background="new    " width="43.9" height="4.9"/>
					<polygon opacity="7.000000e-02" enable-background="new    " points="1120.4,962.4 1138.6,941.4 1142.3,944.7 1120.4,969.9 
											"/>
					<path fill="#278FAF" d="M1190.6,807.8"/>
					<polygon opacity="3.000000e-02" enable-background="new    " points="1151,749.3 1136.6,779.8 1167.7,800.2 1154.5,748.6 					
						"/>
					<polygon fill="#F5F6F7" points="1154.5,748.6 1140,779.8 1167.7,800.2 					"/>
					<polygon opacity="3.000000e-02" enable-background="new    " points="1187.8,878.4 1149.7,801.5 1164.7,781.6 1162.8,774.4 
						1144.6,800.2 1187.8,882.9 					"/>
					<polygon fill="#F5F6F7" points="1187.8,878.4 1147.2,800.2 1162.5,779.8 					"/>
					<polygon opacity="3.000000e-02" enable-background="new    " points="1224.4,748.5 1239.9,779.8 1208.8,800.2 1220.9,747.8 
											"/>
					<polygon fill="#F5F6F7" points="1220.9,747.8 1236.5,779.8 1208.8,800.2 					"/>
					<polygon opacity="3.000000e-02" enable-background="new    " points="1188.7,878.4 1226.7,801.5 1211.8,781.6 1213.7,774.4 
						1231.8,800.2 1188.7,882.9 					"/>
					<polygon fill="#F5F6F7" points="1188.7,878.4 1229.3,800.2 1214,779.8 					"/>
					<circle fill="#F5F6F7" cx="1196.6" cy="903.8" r="5.3"/>
					<path opacity="0.1" enable-background="new    " d="M1199.1,904.5h-5.2c-0.3,0-0.6-0.3-0.6-0.6v-0.3c0-0.3,0.3-0.6,0.6-0.6h5.2
						c0.3,0,0.6,0.3,0.6,0.6v0.3C1199.7,904.2,1199.5,904.5,1199.1,904.5z"/>
					<circle fill="#F5F6F7" cx="1196.6" cy="945" r="5.3"/>
					<path opacity="0.1" enable-background="new    " d="M1199.1,945.7h-5.2c-0.3,0-0.6-0.3-0.6-0.6v-0.3c0-0.3,0.3-0.6,0.6-0.6h5.2
						c0.3,0,0.6,0.3,0.6,0.6v0.3C1199.7,945.5,1199.5,945.7,1199.1,945.7z"/>
					<path fill="#CECCA6" d="M1216.2,751h-52.7c-1.7,0-3.1-1.4-3.1-3.1v-1.7c0-1.7,1.4-3.1,3.1-3.1h52.7c1.7,0,3.1,1.4,3.1,3.1v1.7
						C1219.3,749.6,1217.9,751,1216.2,751z"/>
					<path opacity="3.000000e-02" enable-background="new    " d="M1153.9,825.9v10.7c0,5.8-4.7,10.5-10.5,10.5h-8.5
						c-5.8,0-10.5-4.7-10.5-10.5v-10.7H1153.9z"/>
					<rect x="1124.3" y="825.9" opacity="7.000000e-02" enable-background="new    " width="29.6" height="4.9"/>
					<path opacity="3.000000e-02" enable-background="new    " d="M1187.7,1021.7V746.9h20.2h2c0,0,46.3,0,52.7,22.8v48.2l9,87.9
						l1.2,39.1l-3.3,100.2L1187.7,1021.7z"/>
					<path fill="#F2F2F2" d="M1254.5,769.1l-2.9,0.8c-9.5,2.8-16.2,10.8-14.6,16.3l5,17l0,0l34.2,116.6l22.4-6.6
						c8.5-2.5,13.2-11.9,10.5-21l-29.4-100.1l0,0l-5-17C1273.2,769.6,1264,766.3,1254.5,769.1z"/>
					<g>
						<path d="M1115.6,647.8L1115.6,647.8L1115.6,647.8L1115.6,647.8c0,7.3,5.9,13.4,13,13.4h13.6c7.2,0,13-6,13-13.4l0,0l0,0v-4.5
							c0-4.9-4.5-8.9-9.9-8.9h-5l0,0h-9.8l0,0h-9.9c-2.7,0-5,2-5,4.5L1115.6,647.8L1115.6,647.8z M1118.2,647.8L1118.2,647.8V644
							c0-4.2,3.9-7.5,8.7-7.5h2.7h1.7h8.5h1.7h2.7c4.8,0,8.7,3.4,8.7,7.5v3.8l0,0c0,6.2-5.1,11.3-11.3,11.3h-11.8
							C1123.3,659.1,1118.2,654.1,1118.2,647.8z"/>
						<ellipse fill="#FFFFFF" cx="1119.4" cy="637.3" rx="1.5" ry="0.6"/>
					</g>
					<g>
						<path d="M1203.8,638.9c0-2.5-2.2-4.5-5-4.5h-9.9l0,0h-9.8l0,0h-5c-5.5,0-9.9,4-9.9,8.9v4.5l0,0l0,0c0,7.3,5.9,13.4,13,13.4
							h13.6c7.2,0,13-6,13-13.4l0,0l0,0l0,0L1203.8,638.9L1203.8,638.9z M1189.9,659.1H1178c-6.2,0-11.3-5.1-11.3-11.3l0,0V644
							c0-4.2,3.9-7.5,8.7-7.5h2.7h1.7h8.5h1.7h2.7c4.8,0,8.7,3.4,8.7,7.5v3.8l0,0C1201.2,654.1,1196.1,659.1,1189.9,659.1z"/>
						<ellipse fill="#FFFFFF" cx="1200.2" cy="637.3" rx="1.5" ry="0.6"/>
					</g>
					<path fill="none" stroke="#000000" stroke-width="3.0552" stroke-miterlimit="10" d="M1165.1,643.3c0,0-5.4-5.4-10.9,0"/>
				</g>
			</g>
			<g>
				<defs>
					<rect id="SVGID_81_" width="2048" height="1536"/>
				</defs>
				<clipPath id="SVGID_82_">
					<use xlink:href="#SVGID_81_"  overflow="visible"/>
				</clipPath>
				<rect x="1040" y="1219.5" clip-path="url(#SVGID_82_)" fill="#BCD1DD" width="52.7" height="23.1"/>
			</g>
			<g>
				<defs>
					<rect id="SVGID_83_" width="2048" height="1536"/>
				</defs>
				<clipPath id="SVGID_84_">
					<use xlink:href="#SVGID_83_"  overflow="visible"/>
				</clipPath>
				<rect x="976.3" y="1219.5" clip-path="url(#SVGID_84_)" fill="#BCD1DD" width="54.7" height="23.1"/>
			</g>
			<g>
				<defs>
					<rect id="SVGID_85_" width="2048" height="1536"/>
				</defs>
				<clipPath id="SVGID_86_">
					<use xlink:href="#SVGID_85_"  overflow="visible"/>
				</clipPath>
				<rect x="772" y="1220.3" clip-path="url(#SVGID_86_)" fill="#7F815A" width="50.4" height="23.1"/>
			</g>
			<g>
				<defs>
					<rect id="SVGID_87_" width="2048" height="1536"/>
				</defs>
				<clipPath id="SVGID_88_">
					<use xlink:href="#SVGID_87_"  overflow="visible"/>
				</clipPath>
				<rect x="703.1" y="1220.3" clip-path="url(#SVGID_88_)" fill="#7F815A" width="50.4" height="23.1"/>
			</g>
			<g>
				<defs>
					<rect id="SVGID_89_" width="2048" height="1536"/>
				</defs>
				<clipPath id="SVGID_90_">
					<use xlink:href="#SVGID_89_"  overflow="visible"/>
				</clipPath>
				<g clip-path="url(#SVGID_90_)">
					<path fill="#84705B" d="M610.6,1044.8h11.7c4.5,0,8.2-3.7,8.2-8.2V813.7c0-4.5-3.7-8.2-8.2-8.2h-11.7c-4.5,0-8.2,3.7-8.2,8.2
						v222.8C602.3,1041.1,606,1044.8,610.6,1044.8z"/>
					<path fill="#84705B" d="M626,1018.9h-13.9c-5.4,0-9.8,4.4-9.8,9.8v22.5c0,5.4,4.4,9.8,9.8,9.8H626c5.4,0,9.8-4.4,9.8-9.8v-22.5
						C635.8,1023.3,631.4,1018.9,626,1018.9z"/>
					<path fill="#364E72" d="M614.7,774h3.4c11.3,0,18.9,7.4,18.9,17v29.8l0,0V1006h-43V820.7l0,0V791
						C594,781.4,603.4,774,614.7,774z"/>
					<rect x="594.1" y="980.3" fill="#1E3450" width="44.5" height="26.1"/>
				</g>
			</g>
		</g>
		<g clip-path="url(#SVGID_2_)">
			<rect x="316.1" y="252.9" fill="none" width="1416.7" height="198.7"/>
			<g enable-background="new    ">
				<path fill="#545454" d="M529.2,261.3c3.9,3.3,5.9,8.5,5.9,15.4c0,6.9-2,12-6,15.2c-4,3.2-10.2,4.8-18.4,4.8h-7.4v15.6h-12.5
					v-55.9h19.8C519,256.3,525.3,258,529.2,261.3z M520,283.3c1.5-1.7,2.2-4.1,2.2-7.4c0-3.2-1-5.5-2.9-6.9c-1.9-1.4-5-2-9.1-2h-7.1
					v18.8h8.4C515.7,285.8,518.5,285,520,283.3z"/>
				<path fill="#545454" d="M580.9,306c-4.9,4.6-10.5,6.9-17.1,6.9c-6.5,0-11.9-2-16.2-6c-4.3-4-6.4-9.4-6.4-16.2
					c0-6.8,2.2-12.2,6.5-16.2c4.3-4,9.5-6,15.4-6c5.9,0,10.9,1.8,15.1,5.4c4.1,3.6,6.2,8.5,6.2,14.7v6.4h-31.4
					c0.4,2.3,1.6,4.3,3.7,5.8c2.1,1.5,4.4,2.2,7,2.2c4.2,0,7.7-1.4,10.4-4.2L580.9,306z M569.4,280.5c-1.7-1.4-3.7-2.1-6-2.1
					c-2.4,0-4.5,0.7-6.5,2.2c-2,1.4-3.1,3.4-3.4,5.8h18.9C572,283.8,571,281.8,569.4,280.5z"/>
				<path fill="#545454" d="M636.1,290.7c0,6.2-2.2,11.5-6.5,15.8c-4.3,4.3-9.7,6.4-16.3,6.4c-6.5,0-12-2.1-16.3-6.4
					c-4.3-4.3-6.5-9.5-6.5-15.8c0-6.2,2.2-11.5,6.5-15.8c4.3-4.3,9.7-6.4,16.3-6.4c6.5,0,12,2.1,16.3,6.4
					C633.9,279.2,636.1,284.5,636.1,290.7z M602.7,290.7c0,3.5,1,6.4,3,8.6c2,2.2,4.6,3.3,7.7,3.3s5.7-1.1,7.7-3.3
					c2-2.2,3-5.1,3-8.6c0-3.5-1-6.4-3-8.6s-4.6-3.4-7.7-3.4s-5.7,1.1-7.7,3.4S602.7,287.2,602.7,290.7z"/>
				<path fill="#545454" d="M670,268.5c5,0,9.5,2.1,13.4,6.3c3.9,4.2,5.9,9.5,5.9,15.8c0,6.3-2,11.7-5.9,15.9
					c-3.9,4.3-8.5,6.4-13.8,6.4c-5.3,0-9.5-2.1-12.7-6.3v21.2h-12v-58.6h12v4.8C660.7,270.3,665,268.5,670,268.5z M656.8,290.7
					c0,3.5,1,6.3,2.9,8.6c1.9,2.2,4.3,3.3,7.1,3.3c2.8,0,5.2-1.1,7.3-3.3c2.1-2.2,3.1-5.1,3.1-8.5c0-3.5-1-6.4-3-8.7
					c-2-2.3-4.5-3.5-7.3-3.5c-2.8,0-5.2,1.2-7.2,3.5C657.8,284.3,656.8,287.2,656.8,290.7z"/>
				<path fill="#545454" d="M710.3,312.2h-12v-59.4h12V312.2z"/>
				<path fill="#545454" d="M758.9,306c-4.9,4.6-10.5,6.9-17.1,6.9c-6.5,0-11.9-2-16.2-6c-4.3-4-6.4-9.4-6.4-16.2
					c0-6.8,2.2-12.2,6.5-16.2c4.3-4,9.5-6,15.4-6c5.9,0,10.9,1.8,15.1,5.4c4.1,3.6,6.2,8.5,6.2,14.7v6.4h-31.4
					c0.4,2.3,1.6,4.3,3.7,5.8c2.1,1.5,4.4,2.2,7,2.2c4.2,0,7.7-1.4,10.4-4.2L758.9,306z M747.4,280.5c-1.7-1.4-3.7-2.1-6-2.1
					c-2.4,0-4.5,0.7-6.5,2.2c-2,1.4-3.1,3.4-3.4,5.8h18.9C750,283.8,749,281.8,747.4,280.5z"/>
				<path fill="#545454" d="M814.6,312.2h-12.4l-14.6-43h12.4l8.4,26l8.4-26h11.6l8.4,26l8.4-26h12.5l-14.6,43h-12.5l-7.9-23.4
					L814.6,312.2z"/>
				<path fill="#545454" d="M865.3,263.7c-1.4-1.4-2-3-2-5c0-2,0.7-3.6,2-5c1.4-1.4,3-2,5-2c2,0,3.6,0.7,5,2c1.4,1.4,2,3,2,5
					c0,2-0.7,3.6-2,5c-1.4,1.4-3,2-5,2C868.4,265.7,866.7,265.1,865.3,263.7z M876.3,312.2h-12v-43h12V312.2z"/>
				<path fill="#545454" d="M902,277.8v19.3c0,1.7,0.4,2.9,1.3,3.9c0.9,0.9,1.9,1.4,3,1.4c2.2,0,4.1-1,5.7-3l4.5,8.4
					c-3.7,3.4-7.7,5.1-11.8,5.1c-4.1,0-7.6-1.4-10.5-4.1c-2.9-2.7-4.3-6.4-4.3-11.1v-19.8h-5v-8.6h5v-12.9H902v12.9h10.4v8.6H902z"
					/>
				<path fill="#545454" d="M934.9,289v23.2h-12v-59.4h12V274c3.6-3.7,7.7-5.5,12.2-5.5c4.5,0,8.3,1.6,11.4,4.8
					c3.1,3.2,4.6,7.5,4.6,12.8v26.2h-12v-23.5c0-6.6-2.4-9.9-7.3-9.9c-2.4,0-4.5,0.9-6.3,2.6C935.8,283.1,934.9,285.7,934.9,289z"/>
				<path fill="#545454" d="M1031.1,256.3h12.5v55.9h-12.5v-22h-22.2v22h-12.5v-55.9h12.5v23.4h22.2V256.3z"/>
				<path fill="#545454" d="M1093.4,306c-4.9,4.6-10.5,6.9-17.1,6.9s-11.9-2-16.2-6c-4.3-4-6.4-9.4-6.4-16.2
					c0-6.8,2.2-12.2,6.5-16.2s9.5-6,15.4-6s10.9,1.8,15.1,5.4c4.1,3.6,6.2,8.5,6.2,14.7v6.4h-31.4c0.4,2.3,1.6,4.3,3.7,5.8
					c2.1,1.5,4.4,2.2,7,2.2c4.2,0,7.7-1.4,10.4-4.2L1093.4,306z M1081.9,280.5c-1.7-1.4-3.7-2.1-6-2.1c-2.4,0-4.5,0.7-6.5,2.2
					c-2,1.4-3.1,3.4-3.4,5.8h18.9C1084.5,283.8,1083.5,281.8,1081.9,280.5z"/>
				<path fill="#545454" d="M1130.6,268.5c5,0,9.5,2.1,13.4,6.3c3.9,4.2,5.9,9.5,5.9,15.8c0,6.3-2,11.7-5.9,15.9
					c-3.9,4.3-8.5,6.4-13.8,6.4c-5.3,0-9.5-2.1-12.7-6.3v21.2h-12v-58.6h12v4.8C1121.2,270.3,1125.6,268.5,1130.6,268.5z
					 M1117.4,290.7c0,3.5,1,6.3,2.9,8.6c1.9,2.2,4.3,3.3,7.1,3.3c2.8,0,5.2-1.1,7.3-3.3c2.1-2.2,3.1-5.1,3.1-8.5c0-3.5-1-6.4-3-8.7
					c-2-2.3-4.5-3.5-7.3-3.5c-2.8,0-5.2,1.2-7.2,3.5C1118.4,284.3,1117.4,287.2,1117.4,290.7z"/>
				<path fill="#545454" d="M1205.6,312.2h-24.5v-55.9h21.8c3.8,0,7.1,0.5,9.8,1.4c2.7,0.9,4.8,2.1,6.2,3.7c2.5,2.9,3.8,6.1,3.8,9.8
					c0,4.4-1.4,7.6-4.2,9.8c-1,0.7-1.6,1.2-2,1.4c-0.4,0.2-1,0.5-2,0.9c3.5,0.7,6.2,2.3,8.3,4.7c2.1,2.4,3.1,5.3,3.1,8.8
					c0,3.9-1.3,7.3-4,10.3C1218.7,310.5,1213.3,312.2,1205.6,312.2z M1193.6,278.9h5.9c3.5,0,6-0.4,7.7-1.1c1.7-0.7,2.5-2.4,2.5-4.8
					c0-2.5-0.8-4.1-2.3-4.9c-1.5-0.8-4.2-1.2-7.8-1.2h-6V278.9z M1193.6,301.7h8.6c3.6,0,6.3-0.4,8-1.3c1.8-0.9,2.7-2.6,2.7-5.2
					c0-2.6-0.9-4.3-2.8-5.1c-1.9-0.8-4.9-1.2-9.1-1.2h-7.4V301.7z"/>
				<path fill="#545454" d="M1268.2,289v23.2h-12v-59.4h12V274c3.6-3.7,7.7-5.5,12.2-5.5s8.3,1.6,11.4,4.8c3.1,3.2,4.6,7.5,4.6,12.8
					v26.2h-12v-23.5c0-6.6-2.4-9.9-7.3-9.9c-2.4,0-4.5,0.9-6.3,2.6C1269.1,283.1,1268.2,285.7,1268.2,289z"/>
				<path fill="#545454" d="M1343.9,312.2h-11.3V307c-3.1,3.9-6.9,5.8-11.5,5.8c-4.6,0-8.4-1.3-11.5-4c-3.1-2.6-4.6-6.2-4.6-10.6
					c0-4.4,1.6-7.7,4.8-9.9c3.2-2.2,7.6-3.3,13.1-3.3h9v-0.2c0-4.6-2.4-6.9-7.3-6.9c-2.1,0-4.3,0.4-6.6,1.2
					c-2.3,0.8-4.3,1.9-5.9,3.1l-5.4-7.8c5.7-4.1,12.1-6.2,19.4-6.2c5.2,0,9.5,1.3,12.8,3.9c3.3,2.6,5,6.7,5,12.4V312.2z
					 M1331.8,295.8v-2.1h-7.5c-4.8,0-7.2,1.5-7.2,4.5c0,1.5,0.6,2.7,1.7,3.6c1.1,0.8,2.8,1.2,4.9,1.2c2.1,0,4-0.7,5.6-2
					C1331,299.8,1331.8,298,1331.8,295.8z"/>
				<path fill="#545454" d="M1365.9,312.2l-17-43.1h12.5l10.7,27.1l10.7-27.1h12.5l-17,43.1H1365.9z"/>
				<path fill="#545454" d="M1438.4,306c-4.9,4.6-10.5,6.9-17.1,6.9c-6.5,0-11.9-2-16.2-6c-4.3-4-6.4-9.4-6.4-16.2
					c0-6.8,2.2-12.2,6.5-16.2c4.3-4,9.5-6,15.4-6c5.9,0,10.9,1.8,15.1,5.4c4.1,3.6,6.2,8.5,6.2,14.7v6.4h-31.4
					c0.4,2.3,1.6,4.3,3.7,5.8s4.4,2.2,7,2.2c4.2,0,7.7-1.4,10.4-4.2L1438.4,306z M1426.9,280.5c-1.7-1.4-3.7-2.1-6-2.1
					s-4.5,0.7-6.5,2.2c-2,1.4-3.1,3.4-3.4,5.8h18.9C1429.5,283.8,1428.5,281.8,1426.9,280.5z"/>
				<path fill="#545454" d="M1508.3,312.2H1497V307c-3.1,3.9-6.9,5.8-11.5,5.8c-4.6,0-8.4-1.3-11.5-4c-3.1-2.6-4.6-6.2-4.6-10.6
					c0-4.4,1.6-7.7,4.8-9.9c3.2-2.2,7.6-3.3,13.1-3.3h9v-0.2c0-4.6-2.4-6.9-7.3-6.9c-2.1,0-4.3,0.4-6.6,1.2
					c-2.3,0.8-4.3,1.9-5.9,3.1l-5.4-7.8c5.7-4.1,12.1-6.2,19.4-6.2c5.2,0,9.5,1.3,12.8,3.9c3.3,2.6,5,6.7,5,12.4V312.2z
					 M1496.2,295.8v-2.1h-7.5c-4.8,0-7.2,1.5-7.2,4.5c0,1.5,0.6,2.7,1.7,3.6c1.1,0.8,2.8,1.2,4.9,1.2c2.1,0,4-0.7,5.6-2
					C1495.4,299.8,1496.2,298,1496.2,295.8z"/>
				<path fill="#545454" d="M1531.2,288.2v24h-12v-43h12v4.8c3.6-3.7,7.7-5.5,12.2-5.5c4.5,0,8.3,1.6,11.4,4.8
					c3.1,3.2,4.6,7.5,4.6,12.8v26.2h-12v-24.3c0-6.6-2.4-9.9-7.3-9.9c-2.4,0-4.5,0.9-6.3,2.6
					C1532.1,282.3,1531.2,284.9,1531.2,288.2z"/>
			</g>
			<g enable-background="new    ">
				<path fill="#545454" d="M451.6,343.7c-1.4-1.4-2-3-2-5c0-2,0.7-3.6,2-5c1.4-1.4,3-2,5-2c2,0,3.6,0.7,5,2c1.4,1.4,2,3,2,5
					c0,2-0.7,3.6-2,5c-1.4,1.4-3,2-5,2C454.6,345.7,452.9,345.1,451.6,343.7z M462.6,392.2h-12v-43h12V392.2z"/>
				<path fill="#545454" d="M485.9,368.2v24h-12v-43h12v4.8c3.6-3.7,7.7-5.5,12.2-5.5c4.5,0,8.3,1.6,11.4,4.8
					c3.1,3.2,4.6,7.5,4.6,12.8v26.2h-12v-24.3c0-6.6-2.4-9.9-7.3-9.9c-2.4,0-4.5,0.9-6.3,2.6C486.8,362.3,485.9,364.9,485.9,368.2z"
					/>
				<path fill="#545454" d="M545.7,382.2c4,0,7.6-2,10.8-6l7.1,8c-5.5,5.8-11.5,8.6-18,8.6c-6.5,0-11.9-2-16.4-6.1
					c-4.5-4.1-6.7-9.4-6.7-16c0-6.6,2.3-11.9,6.8-16.1c4.5-4.1,9.9-6.2,16-6.2c3.1,0,6.2,0.6,9.4,1.9c3.2,1.3,6,3.2,8.4,5.7
					l-6.2,8.2c-1.4-1.7-3.1-2.9-5.1-3.8c-2-0.9-4-1.4-6-1.4c-3.1,0-5.9,1-8.1,3.1c-2.3,2.1-3.4,4.9-3.4,8.6s1.1,6.5,3.4,8.5
					C540,381.2,542.6,382.2,545.7,382.2z"/>
				<path fill="#545454" d="M594.2,359.7c-3.6,0-6.2,1.3-8,3.8c-1.8,2.5-2.6,5.9-2.6,10v18.6h-12v-43h12v5.7
					c1.5-1.8,3.5-3.3,5.8-4.5c2.3-1.2,4.7-1.9,7.1-1.9l0.1,11.3H594.2z"/>
				<path fill="#545454" d="M641.8,386c-4.9,4.6-10.5,6.9-17.1,6.9c-6.5,0-11.9-2-16.2-6c-4.3-4-6.4-9.4-6.4-16.2
					c0-6.8,2.2-12.2,6.5-16.2c4.3-4,9.5-6,15.4-6c5.9,0,10.9,1.8,15.1,5.4c4.1,3.6,6.2,8.5,6.2,14.7v6.4h-31.4
					c0.4,2.3,1.6,4.3,3.7,5.8c2.1,1.5,4.4,2.2,7,2.2c4.2,0,7.7-1.4,10.4-4.2L641.8,386z M630.2,360.5c-1.7-1.4-3.7-2.1-6-2.1
					c-2.4,0-4.5,0.7-6.5,2.2c-2,1.4-3.1,3.4-3.4,5.8h18.9C632.9,363.8,631.9,361.8,630.2,360.5z"/>
				<path fill="#545454" d="M690.5,392.2h-11.3V387c-3.1,3.9-6.9,5.8-11.5,5.8s-8.4-1.3-11.5-4c-3.1-2.6-4.6-6.2-4.6-10.6
					c0-4.4,1.6-7.7,4.8-9.9c3.2-2.2,7.6-3.3,13.1-3.3h9v-0.2c0-4.6-2.4-6.9-7.3-6.9c-2.1,0-4.3,0.4-6.6,1.2
					c-2.3,0.8-4.3,1.9-5.9,3.1l-5.4-7.8c5.7-4.1,12.1-6.2,19.4-6.2c5.2,0,9.5,1.3,12.8,3.9c3.3,2.6,5,6.7,5,12.4V392.2z
					 M678.4,375.8v-2.1h-7.5c-4.8,0-7.2,1.5-7.2,4.5c0,1.5,0.6,2.7,1.7,3.6c1.1,0.8,2.8,1.2,4.9,1.2c2.1,0,4-0.7,5.6-2
					C677.6,379.8,678.4,378,678.4,375.8z"/>
				<path fill="#545454" d="M733.8,378.8c0,4.2-1.6,7.6-4.7,10.2c-3.1,2.6-7.1,3.8-11.9,3.8c-3.2,0-6.5-0.6-10-1.7
					c-3.5-1.1-6.6-2.8-9.4-5.1l5.3-7.5c4.5,3.5,9.3,5.2,14.3,5.2c1.5,0,2.8-0.3,3.7-0.9c0.9-0.6,1.4-1.4,1.4-2.4
					c0-1-0.6-1.9-1.9-2.8c-1.3-0.9-3.1-1.7-5.4-2.4c-2.4-0.7-4.2-1.4-5.4-1.9c-1.3-0.5-2.7-1.3-4.3-2.3c-3.3-2-4.9-5-4.9-9
					c0-4,1.6-7.2,4.8-9.7c3.2-2.5,7.3-3.8,12.4-3.8c5.1,0,10.1,1.7,15.2,5.1l-4.5,8c-3.7-2.6-7.5-3.8-11.2-3.8c-3.7,0-5.6,1-5.6,3
					c0,1.1,0.6,2,1.8,2.6c1.2,0.6,3.1,1.4,5.8,2.2c2.7,0.9,4.7,1.5,5.8,2c1.1,0.5,2.5,1.2,4.1,2.1
					C732.4,371.6,733.8,374.6,733.8,378.8z"/>
				<path fill="#545454" d="M780.3,386c-4.9,4.6-10.5,6.9-17.1,6.9c-6.5,0-11.9-2-16.2-6c-4.3-4-6.4-9.4-6.4-16.2
					c0-6.8,2.2-12.2,6.5-16.2c4.3-4,9.5-6,15.4-6c5.9,0,10.9,1.8,15.1,5.4c4.1,3.6,6.2,8.5,6.2,14.7v6.4h-31.4
					c0.4,2.3,1.6,4.3,3.7,5.8c2.1,1.5,4.4,2.2,7,2.2c4.2,0,7.7-1.4,10.4-4.2L780.3,386z M768.8,360.5c-1.7-1.4-3.7-2.1-6-2.1
					c-2.4,0-4.5,0.7-6.5,2.2c-2,1.4-3.1,3.4-3.4,5.8h18.9C771.4,363.8,770.5,361.8,768.8,360.5z"/>
				<path fill="#545454" d="M809.7,392.9c-5.1,0-9.6-2.2-13.6-6.5s-6-9.7-6-16.1s1.9-11.6,5.8-15.7c3.9-4.1,8.5-6.1,13.7-6.1
					c5.2,0,9.5,1.8,12.8,5.5v-21.1h12v59.4h-12v-5.7C819,390.8,814.8,392.9,809.7,392.9z M802.2,370.8c0,3.5,1,6.3,3.1,8.5
					c2.1,2.2,4.5,3.3,7.3,3.3c2.8,0,5.1-1.1,7.1-3.3c1.9-2.2,2.9-5.1,2.9-8.6c0-3.5-1-6.4-2.9-8.7c-1.9-2.3-4.3-3.5-7.2-3.5
					c-2.8,0-5.3,1.2-7.3,3.5C803.2,364.4,802.2,367.3,802.2,370.8z"/>
				<path fill="#545454" d="M889.5,359.7c-3.6,0-6.2,1.3-8,3.8c-1.8,2.5-2.6,5.9-2.6,10v18.6h-12v-43h12v5.7
					c1.5-1.8,3.5-3.3,5.8-4.5c2.3-1.2,4.7-1.9,7.1-1.9l0.1,11.3H889.5z"/>
				<path fill="#545454" d="M900.8,343.7c-1.4-1.4-2-3-2-5c0-2,0.7-3.6,2-5c1.4-1.4,3-2,5-2c2,0,3.6,0.7,5,2c1.4,1.4,2,3,2,5
					c0,2-0.7,3.6-2,5c-1.4,1.4-3,2-5,2C903.8,345.7,902.1,345.1,900.8,343.7z M911.8,392.2h-12v-43h12V392.2z"/>
				<path fill="#545454" d="M955.5,378.8c0,4.2-1.6,7.6-4.7,10.2c-3.1,2.6-7.1,3.8-11.9,3.8c-3.2,0-6.5-0.6-10-1.7
					c-3.5-1.1-6.6-2.8-9.4-5.1l5.3-7.5c4.5,3.5,9.3,5.2,14.3,5.2c1.5,0,2.8-0.3,3.7-0.9c0.9-0.6,1.4-1.4,1.4-2.4
					c0-1-0.6-1.9-1.9-2.8c-1.3-0.9-3.1-1.7-5.4-2.4c-2.4-0.7-4.2-1.4-5.4-1.9c-1.3-0.5-2.7-1.3-4.3-2.3c-3.3-2-4.9-5-4.9-9
					c0-4,1.6-7.2,4.8-9.7c3.2-2.5,7.3-3.8,12.4-3.8c5.1,0,10.1,1.7,15.2,5.1l-4.5,8c-3.7-2.6-7.5-3.8-11.2-3.8c-3.7,0-5.6,1-5.6,3
					c0,1.1,0.6,2,1.8,2.6c1.2,0.6,3.1,1.4,5.8,2.2c2.7,0.9,4.7,1.5,5.8,2c1.1,0.5,2.5,1.2,4.1,2.1
					C954,371.6,955.5,374.6,955.5,378.8z"/>
				<path fill="#545454" d="M976.7,392.2h-12v-59.4h12v30.5l13.4-14.2h15.1l-16.4,17.4l17,25.7h-14.2l-11-16.5l-3.9,4.1V392.2z"/>
				<path fill="#545454" d="M1076.5,370.7c0,6.2-2.2,11.5-6.5,15.8c-4.3,4.3-9.7,6.4-16.3,6.4c-6.5,0-12-2.1-16.3-6.4
					c-4.3-4.3-6.5-9.5-6.5-15.8c0-6.2,2.2-11.5,6.5-15.8c4.3-4.3,9.7-6.4,16.3-6.4c6.5,0,12,2.1,16.3,6.4
					C1074.3,359.2,1076.5,364.5,1076.5,370.7z M1043,370.7c0,3.5,1,6.4,3,8.6c2,2.2,4.6,3.3,7.7,3.3s5.7-1.1,7.7-3.3
					c2-2.2,3-5.1,3-8.6c0-3.5-1-6.4-3-8.6s-4.6-3.4-7.7-3.4s-5.7,1.1-7.7,3.4S1043,367.2,1043,370.7z"/>
				<path fill="#545454" d="M1099,346.7v2.9h10.4v8.6H1099v34h-12.1v-34h-5v-8.6h5v-2.6c0-4.7,1.4-8.4,4.3-11.2
					c2.9-2.7,6.4-4.1,10.6-4.1c4.2,0,8.1,1.6,11.6,4.8l-4.3,8.1c-1.8-2-3.7-3-5.8-3c-1.2,0-2.2,0.4-3,1.3
					C1099.4,343.7,1099,345,1099,346.7z"/>
				<path fill="#545454" d="M1149.9,392.2h-12v-59.4h12V392.2z"/>
				<path fill="#545454" d="M1162.3,343.7c-1.4-1.4-2-3-2-5c0-2,0.7-3.6,2-5c1.4-1.4,3-2,5-2c2,0,3.6,0.7,5,2c1.4,1.4,2,3,2,5
					c0,2-0.7,3.6-2,5c-1.4,1.4-3,2-5,2C1165.3,345.7,1163.6,345.1,1162.3,343.7z M1173.3,392.2h-12v-43h12V392.2z"/>
				<path fill="#545454" d="M1196.2,392.2l-17-43.1h12.5l10.7,27.1l10.7-27.1h12.5l-17,43.1H1196.2z"/>
				<path fill="#545454" d="M1268.8,386c-4.9,4.6-10.5,6.9-17.1,6.9c-6.5,0-11.9-2-16.2-6c-4.3-4-6.4-9.4-6.4-16.2
					c0-6.8,2.2-12.2,6.5-16.2c4.3-4,9.5-6,15.4-6c5.9,0,10.9,1.8,15.1,5.4c4.1,3.6,6.2,8.5,6.2,14.7v6.4H1241
					c0.4,2.3,1.6,4.3,3.7,5.8s4.4,2.2,7,2.2c4.2,0,7.7-1.4,10.4-4.2L1268.8,386z M1257.3,360.5c-1.7-1.4-3.7-2.1-6-2.1
					s-4.5,0.7-6.5,2.2c-2,1.4-3.1,3.4-3.4,5.8h18.9C1259.9,363.8,1258.9,361.8,1257.3,360.5z"/>
				<path fill="#545454" d="M1303.6,359.7c-3.6,0-6.2,1.3-8,3.8c-1.8,2.5-2.6,5.9-2.6,10v18.6h-12v-43h12v5.7
					c1.5-1.8,3.5-3.3,5.8-4.5c2.3-1.2,4.7-1.9,7.1-1.9l0.1,11.3H1303.6z"/>
				<path fill="#545454" d="M1355.6,382.2c4,0,7.6-2,10.8-6l7.1,8c-5.5,5.8-11.5,8.6-18,8.6c-6.5,0-11.9-2-16.4-6.1
					c-4.5-4.1-6.7-9.4-6.7-16c0-6.6,2.3-11.9,6.8-16.1c4.5-4.1,9.9-6.2,16-6.2c3.1,0,6.2,0.6,9.4,1.9c3.2,1.3,6,3.2,8.4,5.7
					l-6.2,8.2c-1.4-1.7-3.1-2.9-5.1-3.8c-2-0.9-4-1.4-6-1.4c-3.1,0-5.9,1-8.1,3.1c-2.3,2.1-3.4,4.9-3.4,8.6s1.1,6.5,3.4,8.5
					C1349.9,381.2,1352.6,382.2,1355.6,382.2z"/>
				<path fill="#545454" d="M1418.1,392.2h-11.3V387c-3.1,3.9-6.9,5.8-11.5,5.8c-4.6,0-8.4-1.3-11.5-4c-3.1-2.6-4.6-6.2-4.6-10.6
					c0-4.4,1.6-7.7,4.8-9.9c3.2-2.2,7.6-3.3,13.1-3.3h9v-0.2c0-4.6-2.4-6.9-7.3-6.9c-2.1,0-4.3,0.4-6.6,1.2
					c-2.3,0.8-4.3,1.9-5.9,3.1l-5.4-7.8c5.7-4.1,12.1-6.2,19.4-6.2c5.2,0,9.5,1.3,12.8,3.9c3.3,2.6,5,6.7,5,12.4V392.2z M1406,375.8
					v-2.1h-7.5c-4.8,0-7.2,1.5-7.2,4.5c0,1.5,0.6,2.7,1.7,3.6c1.1,0.8,2.8,1.2,4.9,1.2c2.1,0,4-0.7,5.6-2
					C1405.2,379.8,1406,378,1406,375.8z"/>
				<path fill="#545454" d="M1441,368.2v24h-12v-43h12v4.8c3.6-3.7,7.7-5.5,12.2-5.5s8.3,1.6,11.4,4.8c3.1,3.2,4.6,7.5,4.6,12.8
					v26.2h-12v-24.3c0-6.6-2.4-9.9-7.3-9.9c-2.4,0-4.5,0.9-6.3,2.6C1441.9,362.3,1441,364.9,1441,368.2z"/>
				<path fill="#545454" d="M1500.8,382.2c4,0,7.6-2,10.8-6l7.1,8c-5.5,5.8-11.5,8.6-18,8.6c-6.5,0-11.9-2-16.4-6.1
					c-4.5-4.1-6.7-9.4-6.7-16c0-6.6,2.3-11.9,6.8-16.1c4.5-4.1,9.9-6.2,16-6.2c3.1,0,6.2,0.6,9.4,1.9c3.2,1.3,6,3.2,8.4,5.7
					l-6.2,8.2c-1.4-1.7-3.1-2.9-5.1-3.8c-2-0.9-4-1.4-6-1.4c-3.1,0-5.9,1-8.1,3.1c-2.3,2.1-3.4,4.9-3.4,8.6s1.1,6.5,3.4,8.5
					C1495.1,381.2,1497.8,382.2,1500.8,382.2z"/>
				<path fill="#545454" d="M1564,386c-4.9,4.6-10.5,6.9-17.1,6.9c-6.5,0-11.9-2-16.2-6c-4.3-4-6.4-9.4-6.4-16.2
					c0-6.8,2.2-12.2,6.5-16.2c4.3-4,9.5-6,15.4-6s10.9,1.8,15.1,5.4c4.1,3.6,6.2,8.5,6.2,14.7v6.4h-31.4c0.4,2.3,1.6,4.3,3.7,5.8
					s4.4,2.2,7,2.2c4.2,0,7.7-1.4,10.4-4.2L1564,386z M1552.5,360.5c-1.7-1.4-3.7-2.1-6-2.1c-2.4,0-4.5,0.7-6.5,2.2
					c-2,1.4-3.1,3.4-3.4,5.8h18.9C1555.1,363.8,1554.1,361.8,1552.5,360.5z"/>
				<path fill="#545454" d="M1598.8,359.7c-3.6,0-6.2,1.3-8,3.8c-1.8,2.5-2.6,5.9-2.6,10v18.6h-12v-43h12v5.7
					c1.5-1.8,3.5-3.3,5.8-4.5c2.3-1.2,4.7-1.9,7.1-1.9l0.1,11.3H1598.8z"/>
			</g>
		</g>
		<g clip-path="url(#SVGID_2_)">
			<path fill="none" stroke="#59D9EF" stroke-width="6.1095" stroke-miterlimit="10" d="M1414.9,1212.8c0,0-59.7,140.2-120.5,110.2
				c-85.3-42-108.8-330.7-108.8-330.7"/>
			<path fill="#2D2D2D" d="M1473,870.1c-1.3-2-1.7-4.6-0.7-6.9l53.9-129.1c0.9-2.3,2.9-3.8,5.2-4.3l0,0l0,0c0.3-0.1,0.6-0.1,0.9-0.2
				l27.9-4.8l-68.9,166.8l-17.2-20.4C1473.6,871,1473.3,870.6,1473,870.1L1473,870.1L1473,870.1z"/>
			<path fill="#A0A09D" d="M1535.4,1076.4L1651.6,949c4.4-4.9,4.1-12.5-0.8-17l-1.2-1.1c-4.9-4.4-12.5-4.1-17,0.8l-116.2,127.4
				c-4.4,4.9-4.1,12.5,0.8,17l1.2,1.1C1523.3,1081.7,1530.9,1081.3,1535.4,1076.4z"/>
			<path fill="#A0A09D" d="M1535.6,865.4l101,53.5c5.8,3.1,13.1,0.8,16.2-5l0.8-1.5c3.1-5.8,0.8-13.1-5-16.2l-101-53.5
				c-5.8-3.1-13.1-0.8-16.2,5l-0.8,1.5C1527.5,855,1529.8,862.3,1535.6,865.4z"/>
			<path fill="#C1C1C1" d="M1561.4,756.6l-47.6,114.1c-1.6,3.7,0.2,8,3.9,9.6l0,0c3.7,1.6,8-0.2,9.6-3.9l47.6-114.1
				c1.6-3.7-0.2-8-3.9-9.6l0,0C1567.3,751.1,1563,752.9,1561.4,756.6z"/>
			<path fill="#C1C1C1" d="M1406.3,960.2l62.2,122c1.8,3.6,6.3,5,9.9,3.2l0,0c3.6-1.8,5-6.3,3.2-9.9l-62.2-122
				c-1.8-3.6-6.3-5-9.9-3.2l0,0C1405.9,952.2,1404.5,956.6,1406.3,960.2z"/>
			<path fill="#A3A3A3" d="M1556.1,746.1l-53.3,127.8c-1.6,3.7,0.2,8,3.9,9.6l0,0c3.7,1.6,8-0.2,9.6-3.9l53.3-127.8
				c1.6-3.7-0.2-8-3.9-9.6l0,0C1562,740.6,1557.7,742.4,1556.1,746.1z"/>
			<path fill="#A0A09D" d="M1554.9,729.2l-64.7,155.1c-1.6,3.7,0.2,8,3.9,9.6l0,0c3.7,1.6,8-0.2,9.6-3.9l64.7-155.1
				c1.6-3.7-0.2-8-3.9-9.6l0,0C1560.8,723.7,1556.5,725.5,1554.9,729.2z"/>
			<path fill="none" stroke="#6E94BA" stroke-width="6.1095" stroke-miterlimit="10" d="M1421.4,1206.7c0,0-9,34.2-34.3,31.9
				c-33.2-3-62.2-94.1-16.6-170.9c45.6-76.9,28.1-111.1,28.1-111.1"/>
			<path fill="none" stroke="#A3A3A3" stroke-width="6.1095" stroke-miterlimit="10" d="M1429.9,1226.9c0,0-9,34.2-34.3,31.9
				c-33.2-3-61.8-93.8-16.6-170.9c29.4-50.3,25.6-131.3,25.6-131.3"/>
			<path fill="none" stroke="#FBFFA3" stroke-width="6.1095" stroke-miterlimit="10" d="M1410.4,1213.4c0,0-9,34.2-34.3,31.9
				c-23.9-2.2-31.9-36.2-34.8-55.1c-4.3-27.8-1.6-56.6,8-83c16.2-44.4,47.2-81.7,47.1-131.2c0-7.2-0.5-14.8-2.9-21.7"/>
			<path fill="#E0E0DC" d="M1509.9,1113.3h58.7c57.9,0,105.4,47.4,105.4,105.4v19.3c0,57.9-47.4,105.4-105.4,105.4h-58.7
				c-57.9,0-105.4-47.4-105.4-105.4v-19.3C1404.6,1160.7,1452,1113.3,1509.9,1113.3z"/>
			<path fill="#E0E0DC" d="M1431.7,1125.3c9.4-6.7,17-15.8,22-26.2c12.3-25.4,38.5-43.1,68.5-43.1h34.1c30,0,56.2,17.6,68.5,43.1
				c5,10.4,12.6,19.4,22,26.2c16.4,11.7,27.1,30.9,27.1,52.4v30.9c0,74.1-60.6,134.7-134.7,134.7l0,0
				c-74.1,0-134.7-60.6-134.7-134.7v-30.9C1404.6,1156.1,1415.3,1137,1431.7,1125.3z"/>
			<rect x="1404.6" y="1323" fill="#6E94BA" width="269.4" height="28.6"/>
			<circle fill="#727272" cx="1642.7" cy="1343.3" r="46.9"/>
			<path fill="none" stroke="#BFBFBF" stroke-width="3.6657" stroke-miterlimit="10" d="M1524.3,1131.5h30
				c48.2,0,87.6,39.4,87.6,87.6l0,0c0,48.2-39.4,87.6-87.6,87.6h-30c-48.2,0-87.6-39.4-87.6-87.6l0,0
				C1436.7,1171,1476.1,1131.5,1524.3,1131.5z"/>
			<circle fill="#E2E2E2" cx="1642.7" cy="1343.3" r="37.7"/>
			<path fill="#878787" d="M1658,1291.2c24.1,8.6,42.5,21.9,47.6,33.1c-11.1,5.5-33.8,4.1-57.8-4.4s-42.5-21.9-47.6-33.1
				C1611.3,1281.3,1633.9,1282.6,1658,1291.2z"/>
			<circle fill="#727272" cx="1426.4" cy="1343.3" r="46.9"/>
			<circle fill="#E2E2E2" cx="1426.4" cy="1343.3" r="37.7"/>
			<path fill="#878787" d="M1441.8,1291.2c24.1,8.6,42.5,21.9,47.6,33.1c-11.1,5.5-33.8,4.1-57.8-4.4c-24.1-8.6-42.5-21.9-47.6-33.1
				C1395,1281.3,1417.7,1282.6,1441.8,1291.2z"/>
			<path fill="#878787" d="M1490.4,1044.4h97.7c6.4,0,11.6,5.2,11.6,11.6l0,0c0,6.4-5.2,11.6-11.6,11.6h-97.7
				c-6.4,0-11.6-5.2-11.6-11.6l0,0C1478.8,1049.6,1484,1044.4,1490.4,1044.4z"/>
			<path fill="none" stroke="#BFBFBF" stroke-width="3.6657" stroke-miterlimit="10" d="M1452.4,1223.4L1452.4,1223.4
				c2.9,0,5.3-2.4,5.3-5.3l0,0c0-2.9-2.4-5.3-5.3-5.3l0,0c-2.9,0-5.3,2.4-5.3,5.3l0,0C1447.1,1221,1449.4,1223.4,1452.4,1223.4z"/>
			<path fill="#A0A09D" d="M1449.9,933.2l-102.8,30.5c-3.9,1.1-6.1,5.2-4.9,9.1l0,0c1.1,3.9,5.2,6.1,9.1,4.9l102.8-30.5
				c3.9-1.1,6.1-5.2,4.9-9.1l0,0C1457.9,934.3,1453.8,932.1,1449.9,933.2z"/>
			<path fill="#C1C1C1" d="M1440.2,920.4l-91.6,27.2c-3.9,1.1-6.1,5.2-4.9,9.1l0,0c1.1,3.9,5.2,6.1,9.1,4.9l91.6-27.2
				c3.9-1.1,6.1-5.2,4.9-9.1l0,0C1448.1,921.5,1444,919.2,1440.2,920.4z"/>
			<polygon fill="#C1C1C1" points="1343.5,953.1 1341.9,971.2 1458.2,936.4 1447.5,922 			"/>
			<g>
				<g>
					<path fill="#878787" d="M1548.2,734.4L1489,877.8l-9.5-11.2l-0.2-0.3l-0.3-0.3l0,0l53.9-129h0.1h0.2h0.2L1548.2,734.4
						 M1560,724.9l-27.9,4.8c-0.3,0-0.6,0.1-0.9,0.2l0,0c-2.2,0.5-4.2,2-5.2,4.3l-53.9,129.1c-1,2.4-0.6,4.9,0.7,6.9l0,0l0,0
						c0.3,0.4,0.6,0.8,1,1.2l17.2,20.4L1560,724.9L1560,724.9z"/>
				</g>
			</g>
			
				<ellipse transform="matrix(0.2443 0.9697 -0.9697 0.2443 1997.1764 -687.2454)" fill="#E0E096" cx="1439.5" cy="937.7" rx="2.3" ry="5.2"/>
			<polygon fill="#E0E096" points="1444.5,936.5 1443.9,934.7 1433.9,937.2 1434.7,939.4 			"/>
			
				<ellipse transform="matrix(0.2443 0.9697 -0.9697 0.2443 1995.0073 -687.9927)" fill="#FBFFA3" cx="1438.9" cy="936" rx="2.3" ry="5.2"/>
			<g>
				
					<ellipse transform="matrix(0.2443 0.9697 -0.9697 0.2443 1991.025 -670.8627)" fill="#7A7A7A" cx="1425.9" cy="942" rx="2.3" ry="5.2"/>
				<polygon fill="#7A7A7A" points="1430.9,940.7 1430.3,938.8 1420.3,941.4 1421.1,943.6 				"/>
				
					<ellipse transform="matrix(0.2443 0.9697 -0.9697 0.2443 1988.7434 -671.6596)" fill="#A3A3A3" cx="1425.3" cy="940.1" rx="2.3" ry="5.2"/>
			</g>
			<g>
				
					<ellipse transform="matrix(0.2443 0.9697 -0.9697 0.2443 1978.0624 -656.7812)" fill="#7A7A7A" cx="1410.4" cy="940.7" rx="2.3" ry="5.2"/>
				<polygon fill="#7A7A7A" points="1415.4,939.4 1414.8,937.5 1404.8,940.1 1405.6,942.3 				"/>
				
					<ellipse transform="matrix(0.2443 0.9697 -0.9697 0.2443 1975.781 -657.578)" fill="#A3A3A3" cx="1409.8" cy="938.9" rx="2.3" ry="5.2"/>
			</g>
			<g>
				
					<ellipse transform="matrix(0.2443 0.9697 -0.9697 0.2443 1985.1425 -654.5885)" fill="#7A7A7A" cx="1412.5" cy="946.4" rx="2.3" ry="5.2"/>
				<polygon fill="#7A7A7A" points="1417.6,945 1417,943.2 1406.9,945.7 1407.7,947.9 				"/>
				
					<ellipse transform="matrix(0.2443 0.9697 -0.9697 0.2443 1982.8606 -655.3854)" fill="#A3A3A3" cx="1411.9" cy="944.5" rx="2.3" ry="5.2"/>
			</g>
			<g>
				
					<ellipse transform="matrix(0.2443 0.9697 -0.9697 0.2443 1969.8315 -658.738)" fill="#7A7A7A" cx="1407.6" cy="934.5" rx="2.3" ry="5.2"/>
				<polygon fill="#7A7A7A" points="1412.6,933.2 1412,931.4 1401.9,933.9 1402.7,936.1 				"/>
				
					<ellipse transform="matrix(0.2443 0.9697 -0.9697 0.2443 1967.6624 -659.4853)" fill="#A3A3A3" cx="1407" cy="932.7" rx="2.3" ry="5.2"/>
			</g>
			<g>
				
					<ellipse transform="matrix(0.2443 0.9697 -0.9697 0.2443 1978.9021 -637.3693)" fill="#7A7A7A" cx="1398.4" cy="951" rx="2.3" ry="5.2"/>
				<polygon fill="#7A7A7A" points="1403.4,949.7 1402.8,947.9 1392.8,950.4 1393.5,952.6 				"/>
				
					<ellipse transform="matrix(0.2443 0.9697 -0.9697 0.2443 1976.7328 -638.1163)" fill="#A3A3A3" cx="1397.8" cy="949.2" rx="2.3" ry="5.2"/>
			</g>
			<g>
				
					<ellipse transform="matrix(0.2443 0.9697 -0.9697 0.2443 1971.1056 -640.9418)" fill="#7A7A7A" cx="1396.8" cy="944.2" rx="2.3" ry="5.2"/>
				<polygon fill="#7A7A7A" points="1401.8,942.9 1401.2,941 1391.1,943.6 1391.9,945.8 				"/>
				
					<ellipse transform="matrix(0.2443 0.9697 -0.9697 0.2443 1968.8241 -641.7386)" fill="#A3A3A3" cx="1396.1" cy="942.3" rx="2.3" ry="5.2"/>
			</g>
			<g>
				
					<ellipse transform="matrix(0.2443 0.9697 -0.9697 0.2443 1963.454 -643.4537)" fill="#7A7A7A" cx="1394.6" cy="938" rx="2.3" ry="5.2"/>
				<polygon fill="#7A7A7A" points="1399.6,936.7 1398.9,934.8 1388.9,937.4 1389.7,939.6 				"/>
				
					<ellipse transform="matrix(0.2443 0.9697 -0.9697 0.2443 1961.1725 -644.2505)" fill="#A3A3A3" cx="1393.9" cy="936.1" rx="2.3" ry="5.2"/>
			</g>
			<circle fill="#878787" cx="1643.8" cy="925.9" r="9.2"/>
			<polygon fill="#A3A3A3" points="1383.2,941.2 1386.4,953.5 1352.4,963.7 1352.4,950.2 			"/>
		</g>
		<g clip-path="url(#SVGID_2_)">
			<path fill="#D8C8BC" d="M1174.2,984.1l-4.7-6.7c-2.6-3.7-1.7-8.9,1.9-11.5l96.8-68.8c3.7-2.6,8.9-1.7,11.5,1.9l4.7,6.7
				c2.6,3.7,1.7,8.9-1.9,11.5l-96.8,68.8C1182,988.6,1176.8,987.8,1174.2,984.1z"/>
			<g>
				<path fill="#C1C1C1" d="M1158.1,955.9L1158.1,955.9c-1.7,1.1-4,0.6-5.1-1.1l-9.7-14.7c-1.1-1.7-0.6-4,1.1-5.1l0,0
					c1.7-1.1,4-0.6,5.1,1.1l9.7,14.7C1160.3,952.5,1159.8,954.8,1158.1,955.9z"/>
				<circle fill="#D3D3D3" cx="1147" cy="938.3" r="9.6"/>
				<path fill="#6E94BA" d="M1174.9,963.4c-0.2-0.2-0.4-0.5-0.5-0.7c-3.9-5.2-9-9.8-13.4-14.6c-0.2-0.2-0.4-0.4-0.6-0.6
					c-0.7-0.8-2-1-2.8-0.4l-7.4,4.9c-0.9,0.6-1.2,1.8-0.8,2.8c2,4.5,4,9,6,13.5c5.5,12.3,14.4,21.4,23.4,31.1c0.7,0.8,2,1,2.8,0.4
					l7.4-4.9c0.9-0.6,1.2-1.8,0.8-2.8C1185.5,982.3,1181.3,972.1,1174.9,963.4z"/>
				<path fill="#D3D3D3" d="M1189,993.2l-8.5,5.6c-0.9,0.6-1.1,1.7-0.5,2.6l0,0c0.6,0.9,1.7,1.1,2.6,0.5l8.5-5.6
					c0.9-0.6,1.1-1.7,0.5-2.6l0,0C1191,992.9,1189.8,992.7,1189,993.2z"/>
			</g>
			<path fill="#D8C8BC" d="M1186.2,961.8l5.6,7.9c3.1,4.4,2.1,10.5-2.3,13.6l-14,10c-4.4,3.1-10.5,2.1-13.6-2.3l-5.6-7.9
				c-3.1-4.4-2.1-10.5,2.3-13.6l14-10C1176.9,956.4,1183,957.4,1186.2,961.8z"/>
			<path fill="#F2F2F2" d="M1292,897.3l-1.7-2.4c-5.7-8.1-14.3-12.7-17.8-10.2l-10.8,7.7l0,0l-74.1,52.6l22.8,32.1l74.1-52.6l0,0
				l10.8-7.7C1298.7,914.3,1297.7,905.4,1292,897.3z"/>
			
				<rect x="1183.9" y="953.5" transform="matrix(-0.579 -0.8153 0.8153 -0.579 1118.7538 2494.5088)" fill="#CECCA6" width="38.9" height="9.9"/>
			<path fill="#D8C8BC" d="M1185.2,953.5l2.4,3.4c1.4,2,1,4.8-1.1,6.3l-3.3,2.4c-2,1.4-4.8,1-6.3-1.1l-2.4-3.4c-1.4-2-1-4.8,1.1-6.3
				l3.3-2.4C1181,951,1183.8,951.5,1185.2,953.5z"/>
		</g>
	</g>
</g>
</svg>
