<?xml version="1.0" encoding="utf-8"?>
<!-- Generator: Adobe Illustrator 18.1.1, SVG Export Plug-In . SVG Version: 6.00 Build 0)  -->
<svg version="1.1" id="Discrimination" xmlns="http://www.w3.org/2000/svg" xmlns:xlink="http://www.w3.org/1999/xlink" x="0px"
	 y="0px" viewBox="0 0 2048 1536" enable-background="new 0 0 2048 1536" xml:space="preserve">
<rect fill="#F0F7F7" width="2048" height="1536"/>
<g>
	<g>
		<defs>
			<rect id="SVGID_1_" width="2048" height="1536"/>
		</defs>
		<clipPath id="SVGID_2_">
			<use xlink:href="#SVGID_1_"  overflow="visible"/>
		</clipPath>
		<rect x="-1306.2" y="1340.1" clip-path="url(#SVGID_2_)" fill="#C1DEEA" width="4442.5" height="461.2"/>
	</g>
	<g>
		<defs>
			<rect id="SVGID_3_" width="2048" height="1536"/>
		</defs>
		<clipPath id="SVGID_4_">
			<use xlink:href="#SVGID_3_"  overflow="visible"/>
		</clipPath>
		<g opacity="0.6" clip-path="url(#SVGID_4_)">
			<rect x="1596.6" y="375.7" fill="#E5E5E5" width="511.4" height="637.5"/>
			
				<polyline fill="none" stroke="#A1A5B5" stroke-width="2.5069" stroke-linecap="round" stroke-linejoin="round" stroke-miterlimit="10" points="
				2080.4,985.7 1624.2,985.7 1624.2,403.1 			"/>
			<rect x="1941.3" y="959" fill="#A1A5B5" width="139.1" height="7.9"/>
			<rect x="1941.3" y="946.5" fill="#A1A5B5" width="139.1" height="7.9"/>
			<rect x="1660.7" y="478.6" fill="#81848C" width="25.7" height="445.9"/>
			<rect x="1698" y="694.4" fill="#A1A5B5" width="25.7" height="230.1"/>
			<rect x="1735.4" y="716.7" fill="#A1A5B5" width="25.7" height="207.9"/>
			<rect x="1775.1" y="611.6" fill="#81848C" width="25.7" height="312.9"/>
			<rect x="1812.4" y="666.1" fill="#A1A5B5" width="25.7" height="258.4"/>
			<rect x="1849.8" y="716.7" fill="#A1A5B5" width="25.7" height="207.9"/>
			<rect x="1887.1" y="694.4" fill="#A1A5B5" width="25.7" height="230.1"/>
			<rect x="1924.5" y="820.6" fill="#A1A5B5" width="25.7" height="103.9"/>
			<rect x="2001.6" y="568.8" fill="#81848C" width="25.7" height="355.7"/>
			<rect x="2038.9" y="716.7" fill="#A1A5B5" width="25.7" height="207.9"/>
		</g>
	</g>
	<g>
		<defs>
			<rect id="SVGID_5_" width="2048" height="1536"/>
		</defs>
		<clipPath id="SVGID_6_">
			<use xlink:href="#SVGID_5_"  overflow="visible"/>
		</clipPath>
		<g opacity="0.6" clip-path="url(#SVGID_6_)">
			<rect x="1047" y="375.7" fill="#E5E5E5" width="511.4" height="637.5"/>
			
				<polyline fill="none" stroke="#A1A5B5" stroke-width="2.5069" stroke-linecap="round" stroke-linejoin="round" stroke-miterlimit="10" points="
				1530.9,985.7 1074.6,985.7 1074.6,403.1 			"/>
			
				<polyline fill="none" stroke="#81848C" stroke-width="2.5069" stroke-linecap="round" stroke-linejoin="round" stroke-miterlimit="10" points="
				1107.2,898.1 1197.4,775.7 1252.6,815 1347.9,567.1 1385.5,682.3 1530.9,466.7 			"/>
			
				<polyline fill="none" stroke="#A1A5B5" stroke-width="2.5069" stroke-linecap="round" stroke-linejoin="round" stroke-miterlimit="10" points="
				1162.3,951.1 1247.6,718 1319,714.7 1388,604.7 1515.8,834.8 			"/>
			<rect x="1391.7" y="959" fill="#A1A5B5" width="139.1" height="7.9"/>
			<rect x="1391.7" y="946.5" fill="#A1A5B5" width="139.1" height="7.9"/>
		</g>
	</g>
</g>
<g>
	<polygon fill="#D8C8BC" points="1329.9,744 1427.7,744.8 1422.3,642.5 1336.7,641.8 	"/>
	<polygon opacity="0.1" fill="#443E3B" enable-background="new    " points="1329.9,744 1427.7,744.8 1422.3,642.5 1336.7,641.8 	
		"/>
	<circle fill="#84705B" cx="1364.9" cy="562.2" r="118.3"/>
	<circle fill="#84705B" cx="1364.9" cy="562.2" r="118.3"/>
	<circle fill="#D8C8BC" cx="1364.9" cy="562.2" r="118.3"/>
	<path opacity="5.000000e-02" enable-background="new    " d="M1329.6,673.8c65.4,0.5,118.7-52.1,119.2-117.5
		c0.4-51.7-32.5-95.9-78.7-112.3c63.3,2.8,113.5,55.2,113,119c-0.5,65.4-53.8,117.9-119.2,117.5c-13.6-0.1-26.7-2.5-38.8-6.8
		C1326.7,673.8,1328.2,673.8,1329.6,673.8z"/>
	<g>
		<g opacity="0.44">
			<path d="M1327,655.5c0,0-0.3-0.3-0.9-0.7s-1.5-1-2.6-1.5c-0.6-0.3-1.2-0.6-1.8-0.8c-0.6-0.3-1.4-0.5-2.1-0.8
				c-0.7-0.2-1.5-0.5-2.3-0.6c-0.8-0.2-1.6-0.3-2.4-0.4l-1.2-0.1c-0.4,0-0.8,0-1.2,0c-0.8,0-1.6,0.1-2.3,0.2c-0.8,0-1.5,0.2-2.2,0.2
				s-1.3,0.2-1.9,0.3s-1.2,0.2-1.7,0.3s-0.9,0.2-1.3,0.3c-0.7,0.2-1.2,0.2-1.2,0.2l-0.1-0.2c0,0,0.3-0.3,1-0.7
				c0.3-0.2,0.7-0.5,1.1-0.8c0.5-0.3,1-0.5,1.6-0.8c0.3-0.1,0.6-0.3,1-0.4c0.3-0.1,0.7-0.2,1.1-0.3c0.7-0.2,1.5-0.4,2.4-0.4
				c0.8,0,1.7-0.1,2.6,0.1c0.4,0,0.9,0.1,1.3,0.1l1.3,0.3c0.9,0.1,1.7,0.4,2.5,0.7s1.6,0.6,2.3,0.9c0.7,0.4,1.5,0.7,2.1,1.1
				c0.6,0.4,1.2,0.7,1.8,1.1c0.5,0.3,1,0.7,1.4,1s0.8,0.6,1,0.9c0.6,0.5,0.9,0.8,0.9,0.8L1327,655.5z"/>
		</g>
		<g>
			<g>
				<path d="M1366.3,534.2c0,0-0.4-0.3-1.1-0.6c-0.4-0.2-0.8-0.4-1.3-0.7c-0.5-0.2-1.1-0.5-1.8-0.8c-0.6-0.3-1.4-0.5-2.1-0.8
					c-0.8-0.3-1.6-0.5-2.4-0.7s-1.7-0.5-2.6-0.6s-1.8-0.3-2.7-0.3h-1.4c-0.4,0-0.9,0.2-1.3,0.3c-0.9,0.1-1.7,0.3-2.6,0.5
					c-0.8,0.1-1.6,0.4-2.4,0.5s-1.5,0.4-2.1,0.6c-0.6,0.2-1.3,0.3-1.8,0.6c-0.5,0.2-1,0.4-1.4,0.5c-0.8,0.3-1.3,0.4-1.3,0.4
					l-0.1-0.2c0,0,0.3-0.3,1-0.9c0.3-0.3,0.7-0.6,1.2-1s1.1-0.7,1.7-1c0.3-0.2,0.7-0.4,1-0.5c0.4-0.2,0.8-0.3,1.2-0.4
					c0.8-0.3,1.6-0.6,2.6-0.7c0.9-0.1,1.9-0.3,2.8-0.2c0.5,0,1,0,1.5,0l1.5,0.1c1,0.1,1.9,0.3,2.9,0.4c0.9,0.2,1.8,0.5,2.7,0.7
					c0.8,0.3,1.7,0.6,2.4,0.9c0.8,0.3,1.5,0.7,2.1,1s1.2,0.7,1.7,1s0.9,0.6,1.3,0.8c0.7,0.5,1,0.8,1,0.8L1366.3,534.2z"/>
			</g>
			<path fill="#1E1A16" d="M1349.9,560.5c-3.3-0.2-6.5,0.3-9.1,1.2c-0.9-2.4-1.4-5.2-1.3-8.1c0.4-8.4,5.5-14.9,11.5-14.6
				c5.9,0.3,10.4,7.3,10,15.6c-0.1,3-0.9,5.7-2.1,8C1356.4,561.5,1353.3,560.8,1349.9,560.5z"/>
			<path fill="#FFFFFF" d="M1351.1,542c0.3-0.1-4.8,0.4-6.6,5.9C1344.5,548,1348.3,543.2,1351.1,542z"/>
			<g>
				<g>
					<path d="M1263.8,530.3c0,0,0.4-0.3,1.1-0.7c0.4-0.2,0.8-0.4,1.3-0.7c0.5-0.2,1.1-0.5,1.8-0.8c0.7-0.3,1.4-0.5,2.2-0.8
						c0.8-0.3,1.6-0.4,2.5-0.7c0.9-0.2,1.8-0.3,2.8-0.4c1-0.1,1.9-0.2,2.9-0.2h1.5c0.5,0,1,0.1,1.5,0.1c1,0,1.9,0.3,2.8,0.5
						s1.7,0.6,2.5,1c0.4,0.2,0.8,0.3,1.1,0.5c0.3,0.2,0.7,0.4,1,0.6c0.6,0.4,1.2,0.8,1.6,1.2s0.8,0.8,1.1,1.1c0.6,0.6,0.9,1,0.9,1
						l-0.1,0.2c0,0-0.5-0.2-1.2-0.5c-0.4-0.2-0.8-0.4-1.3-0.7s-1.1-0.4-1.7-0.7s-1.3-0.6-2-0.8s-1.5-0.6-2.3-0.7
						c-0.8-0.2-1.6-0.5-2.5-0.7c-0.4-0.1-0.9-0.2-1.3-0.3l-1.4-0.1c-0.9-0.1-1.8-0.1-2.7-0.1c-0.9,0-1.8,0.1-2.7,0.2
						c-0.9,0.1-1.7,0.2-2.5,0.4s-1.5,0.3-2.2,0.5s-1.3,0.4-1.8,0.6c-0.5,0.2-1,0.4-1.4,0.5c-0.8,0.3-1.2,0.5-1.2,0.5L1263.8,530.3z"
						/>
				</g>
				<path fill="#1E1A16" d="M1277.9,557.2c-3.3-0.2-6.5,0.3-9.1,1.2c-0.9-2.4-1.4-5.2-1.3-8.1c0.4-8.4,5.5-14.9,11.5-14.6
					c5.9,0.3,10.4,7.3,10,15.6c-0.1,3-0.9,5.7-2.1,8C1284.4,558.2,1281.3,557.3,1277.9,557.2z"/>
				<path fill="#FFFFFF" d="M1279.2,538.5c0.3-0.1-4.8,0.4-6.6,5.9C1272.6,544.5,1276.3,539.8,1279.2,538.5z"/>
			</g>
			<g opacity="0.44">
				<path d="M1310.8,569.7c0,0-1.8,2.2-4.2,5.8c-1.2,1.8-2.5,3.9-3.7,6.3c-0.6,1.2-1.2,2.4-1.7,3.7s-0.9,2.6-1.2,4
					c-0.3,1.3-0.4,2.7-0.3,4s0.5,2.4,1.1,3.3c0.6,1,1.5,1.6,2.4,2.1c0.5,0.2,1,0.5,1.4,0.6c0.5,0.1,1,0.3,1.5,0.4
					c1,0.1,1.9,0.4,2.7,0.4c0.8,0.1,1.5,0.3,2.1,0.3c1.2,0,1.9,0.2,1.9,0.2h0.1c1,0,1.9,0.7,1.9,1.7s-0.8,1.8-1.9,1.8
					c0,0-0.1,0-0.2,0c0,0-0.8-0.1-2.1-0.2c-0.7,0-1.5-0.2-2.4-0.3s-2-0.4-3.1-0.7c-0.6-0.2-1.1-0.4-1.7-0.7
					c-0.6-0.2-1.2-0.6-1.8-0.9c-1.2-0.8-2.4-1.8-3.1-3.3c-0.8-1.4-1.1-3-1.1-4.6s0.3-3.1,0.8-4.5c0.9-2.9,2.3-5.5,3.7-7.8
					c1.4-2.3,2.9-4.4,4.3-6.1C1308.8,571.8,1310.8,569.7,1310.8,569.7z"/>
			</g>
		</g>
	</g>
	<path d="M1334.2,607.8c0,0-3,11.5-15.2,11.2c-12-0.4-30.3-0.4-30.3-0.4s4.3,2.4,1.8,14.9C1290.4,633.5,1332.8,650,1334.2,607.8z"/>
	<path fill="#7F2000" d="M1324.7,629c0.3-0.3-3.7-5.7-15.5-0.7c0,0-9.9-2.6-14.1,4.1C1295.1,632.3,1313.9,639.3,1324.7,629z"/>
	<path d="M1340.8,614c0,0-3.7-6-12.2-8.4C1328.7,605.7,1337,604.7,1340.8,614z"/>
	<path fill="#848484" d="M1280.3,740.5l-5-3.7c-16.4-12.2-34.8-13.7-41.4-4.8l-20.5,27.8l0,0l-141,190.8l62.5,46.2l141-190.8l0,0
		l20.5-27.8C1303,769.2,1296.7,752.7,1280.3,740.5z"/>
	<path fill="#D8C8BC" d="M893.3,827l21.2-27.4c2.8-3.6,8-4.2,11.6-1.5l204.6,158.6c3.6,2.8,4.2,8,1.5,11.6l-21.2,27.4
		c-2.8,3.6-8,4.2-11.6,1.5L894.8,838.7C891.2,835.8,890.6,830.7,893.3,827z"/>
	<path fill="#848484" d="M1136.2,996.2l3.8-4.9c12.5-16.2,16.9-32.7,10.8-37.4l-18.8-14.6l0,0L1002.6,839L955,900.5l129.4,100.3l0,0
		l18.8,14.6C1109.2,1020.2,1123.7,1012.3,1136.2,996.2z"/>
	
		<rect x="942.7" y="863.1" transform="matrix(0.6127 -0.7903 0.7903 0.6127 -309.5968 1115.1038)" fill="#F2F2F2" width="80.5" height="20.6"/>
	<path fill="#D8C8BC" d="M971.7,817l-11.1,14.3c-1.5,2-4.4,2.3-6.3,0.8L940,821c-2-1.5-2.3-4.4-0.8-6.3l11.1-14.3
		c1.5-2,4.4-2.3,6.3-0.8l14.3,11.1C972.8,812.2,973.2,815,971.7,817z"/>
	<rect x="1452.2" y="1288.1" fill="#8B8B8C" width="86.1" height="482.7"/>
	<rect x="1495.2" y="1288.1" opacity="0.1" enable-background="new    " width="43" height="482.7"/>
	<rect x="1252.5" y="1288.1" fill="#8B8B8C" width="86.1" height="482.7"/>
	<rect x="1295.5" y="1288.1" opacity="0.1" enable-background="new    " width="43" height="482.7"/>
	<path fill="#FFFFFF" d="M1252,862.2v448.5h298v-449h-22c9.4-40,14.4-76.9,6.3-95.9c-21.4-50.8-111.5-50.1-111.5-50.1h-4l-35.5,18.6
		l-27.2-11.6l-6.4-3.8c0,0-84.7-3.7-97.7,43.6L1252,862.2L1252,862.2z"/>
	<polyline fill="#16356D" points="1375.9,745 1349.4,933 1384.5,996.8 1412.7,933 1391.6,745 	"/>
	<g>
		<g>
			<defs>
				<polyline id="SVGID_7_" points="1294.4,775.9 1385,942.8 1451.1,973.1 1435.9,905.1 1307,766.6 				"/>
			</defs>
			<clipPath id="SVGID_8_">
				<use xlink:href="#SVGID_7_"  overflow="visible"/>
			</clipPath>
			<polygon clip-path="url(#SVGID_8_)" fill="#446493" points="1358.1,871.5 1363.2,839 1422.8,919.5 1404,933.4 			"/>
		</g>
		<g>
			<defs>
				<polyline id="SVGID_9_" points="1319.2,770.4 1409.8,937.2 1475.9,967.5 1460.7,899.6 1331.9,761 				"/>
			</defs>
			<clipPath id="SVGID_10_">
				<use xlink:href="#SVGID_9_"  overflow="visible"/>
			</clipPath>
			<polygon clip-path="url(#SVGID_10_)" fill="#446493" points="1364.5,825.9 1367.2,807 1404.2,857 1407.3,883.8 			"/>
		</g>
	</g>
	<g>
		<path fill="#848484" d="M1535.1,862.2c9.9-39.4,15.2-77.4,6.7-96.4c-13.2-29.6-49.7-43.8-90.7-48.7l-68.5,270.4l-69-268.8
			c-28.5,4.9-63.4,16.4-70.2,43.6v99.8v462.6h315.1V862.2H1535.1z"/>
	</g>
	<path opacity="0.1" enable-background="new    " d="M1424.1,715.2h4.2c0,0,95.9,0,109,47.3v99.8v263h21v199.6h-21h-68.8h-86.1V734
		L1424.1,715.2z"/>
	<path opacity="3.000000e-02" enable-background="new    " d="M1493.9,878.7V901c0,12-9.8,21.8-21.8,21.8h-17.7
		c-12,0-21.8-9.8-21.8-21.8v-22.3H1493.9z"/>
	<rect x="1432.6" y="878.7" opacity="7.000000e-02" enable-background="new    " width="61.2" height="10.2"/>
	
		<rect x="1430.1" y="1171.6" transform="matrix(-0.6549 -0.7557 0.7557 -0.6549 1552.6289 3062.4814)" opacity="7.000000e-02" enable-background="new    " width="90.9" height="10.2"/>
	<polygon opacity="7.000000e-02" enable-background="new    " points="1243.2,1182.3 1280.7,1139.1 1288.4,1145.8 1243.2,1197.9 	
		"/>
	<path fill="#278FAF" d="M1388.4,841.2"/>
	<polygon opacity="3.000000e-02" enable-background="new    " points="1306.4,720.2 1276.7,783.3 1341.1,825.5 1313.6,718.8 	"/>
	<polygon fill="#848484" points="1313.6,718.8 1283.7,783.3 1341.1,825.5 	"/>
	<polygon opacity="3.000000e-02" enable-background="new    " points="1382.6,987.3 1303.8,828.2 1334.7,787 1330.9,772 
		1293.3,825.5 1382.6,996.8 	"/>
	<polygon fill="#848484" points="1382.6,987.3 1298.6,825.5 1330.2,783.3 	"/>
	<polygon opacity="3.000000e-02" enable-background="new    " points="1458.3,718.3 1490.4,783.3 1426,825.5 1451,717 	"/>
	<polygon fill="#848484" points="1451,717 1483.4,783.3 1426,825.5 	"/>
	<polygon opacity="3.000000e-02" enable-background="new    " points="1384.5,987.3 1463.2,828.2 1432.3,787 1436.1,772 
		1473.8,825.5 1384.5,996.8 	"/>
	<polygon fill="#848484" points="1384.5,987.3 1468.5,825.5 1436.8,783.3 	"/>
	<circle fill="#353535" cx="1360.3" cy="1039.9" r="10.9"/>
	<path opacity="0.3" fill="#FFFFFF" enable-background="new    " d="M1366.3,1041.4h-12c-0.3,0-0.6-0.3-0.6-0.6v-1.9
		c0-0.3,0.3-0.6,0.6-0.6h12c0.3,0,0.6,0.3,0.6,0.6v1.9C1366.9,1041.2,1366.6,1041.4,1366.3,1041.4z"/>
	<circle fill="#353535" cx="1360.3" cy="1125.2" r="10.9"/>
	<path opacity="0.3" fill="#FFFFFF" enable-background="new    " d="M1366.3,1126.8h-12c-0.3,0-0.6-0.3-0.6-0.6v-1.9
		c0-0.3,0.3-0.6,0.6-0.6h12c0.3,0,0.6,0.3,0.6,0.6v1.9C1366.9,1126.6,1366.6,1126.8,1366.3,1126.8z"/>
	<path fill="#D8C8BC" d="M1559.9,1270.6h-34.6c-4.5,0-8.2-3.7-8.2-8.2V812.7c0-4.5,3.7-8.2,8.2-8.2h34.6c4.5,0,8.2,3.7,8.2,8.2
		v449.6C1568.2,1266.8,1564.5,1270.6,1559.9,1270.6z"/>
	<path fill="#D8C8BC" d="M1517.4,1223.8h41c5.4,0,9.8,4.4,9.8,9.8v56.6c0,5.4-4.4,9.8-9.8,9.8h-41c-5.4,0-9.8-4.4-9.8-9.8v-56.6
		C1507.7,1228.2,1512.1,1223.8,1517.4,1223.8z"/>
	<path fill="#848484" d="M1545.9,745.8h-6.2c-20.4,0-35.7,15.1-35.7,32.4V832l0,0v369.8h78V832l0,0v-53.8
		C1582,760.8,1566.3,745.8,1545.9,745.8z"/>
	<rect x="1502.5" y="1185.7" fill="#F2F2F2" width="80.5" height="20.6"/>
	<path fill="#D8C8BC" d="M1508,1215.3h18.2c2.5,0,4.5,2,4.5,4.5v18.1c0,2.5-2,4.5-4.5,4.5H1508c-2.5,0-4.5-2-4.5-4.5v-18.1
		C1503.5,1217.3,1505.5,1215.3,1508,1215.3z"/>
	<path fill="#1A2D5D" d="M1375.6,733.8h13.4c6.6,0,12,5.4,12,12v13.4c0,6.6-5.4,12-12,12h-13.4c-6.6,0-12-5.4-12-12v-13.4
		C1363.6,739.2,1369,733.8,1375.6,733.8z"/>
	<polygon fill="#F2F2F2" points="1382.4,734 1415.4,762 1443,716.3 1431.6,701.2 	"/>
	<polygon fill="#F2F2F2" points="1382.4,734 1353.6,765.2 1319.4,719.8 1328.5,702.5 	"/>
	<path fill="#231A13" d="M1485.9,556.3c0-68.5-52.1-124-116.3-124c-38.3,0-72.2,19.7-93.4,50.2c26.7-6.2,70.1-14.2,93.4-8.1
		c35.3,9.3,46.8,32.4,43.9,64s25.6,7.2,25.6,7.2l27,79.8C1478.6,605.7,1485.9,582,1485.9,556.3z"/>
	<path opacity="0.2" fill="#F4F4F4" enable-background="new    " d="M1369.6,432.4c-33.1,0-63,14.8-84.2,38.5
		c20.2-18,46.2-28.9,74.6-28.9c64.2,0,116.3,55.5,116.3,124c0,19.5-4.3,38-11.8,54.5l1.7,5c12.5-19.7,19.7-43.5,19.7-69.1
		C1485.9,487.9,1433.8,432.4,1369.6,432.4z"/>
	
		<ellipse transform="matrix(-4.000185e-02 0.9992 -0.9992 -4.000185e-02 2066.1362 -844.2944)" fill="#D8C8BC" cx="1438.7" cy="570.4" rx="26.2" ry="16"/>
	<path fill="#D8C8BC" d="M956.4,822.2L956.4,822.2c-3.3,4.2-9.5,5-13.7,1.7l-58.6-45.4c-4.2-3.3-5-9.5-1.7-13.7l0,0
		c3.3-4.2,9.5-5,13.7-1.7l58.6,45.4C958.9,811.8,959.7,818,956.4,822.2z"/>
</g>
<g>
	<rect x="451.3" y="252.9" fill="none" width="1145.5" height="136.9"/>
	<g enable-background="new    ">
		<path fill="#545454" d="M562.2,263.6c5.3,4.9,8,11.7,8,20.4c0,8.7-2.6,15.6-7.8,20.6c-5.2,5.1-13.1,7.6-23.8,7.6h-19.1v-55.9h19.8
			C549.2,256.3,556.9,258.7,562.2,263.6z M553,296.9c3.1-2.9,4.6-7.1,4.6-12.6c0-5.5-1.5-9.7-4.6-12.7c-3.1-3-7.8-4.4-14.1-4.4h-7
			v34h7.9C545.6,301.2,550,299.7,553,296.9z"/>
		<path fill="#545454" d="M580.3,263.7c-1.4-1.4-2-3-2-5c0-2,0.7-3.6,2-5c1.4-1.4,3-2,5-2c2,0,3.6,0.7,5,2c1.4,1.4,2,3,2,5
			c0,2-0.7,3.6-2,5c-1.4,1.4-3,2-5,2C583.4,265.7,581.7,265.1,580.3,263.7z M591.3,312.2h-12v-43h12V312.2z"/>
		<path fill="#545454" d="M635.1,298.8c0,4.2-1.6,7.6-4.7,10.2c-3.1,2.6-7.1,3.8-11.9,3.8c-3.2,0-6.5-0.6-10-1.7
			c-3.5-1.1-6.6-2.8-9.4-5.1l5.3-7.5c4.5,3.5,9.3,5.2,14.3,5.2c1.5,0,2.8-0.3,3.7-0.9c0.9-0.6,1.4-1.4,1.4-2.4c0-1-0.6-1.9-1.9-2.8
			c-1.3-0.9-3.1-1.7-5.4-2.4c-2.4-0.7-4.2-1.4-5.4-1.9c-1.3-0.5-2.7-1.3-4.3-2.3c-3.3-2-4.9-5-4.9-9c0-4,1.6-7.2,4.8-9.7
			c3.2-2.5,7.3-3.8,12.4-3.8c5.1,0,10.1,1.7,15.2,5.1l-4.5,8c-3.7-2.6-7.5-3.8-11.2-3.8c-3.7,0-5.6,1-5.6,3c0,1.1,0.6,2,1.8,2.6
			c1.2,0.6,3.1,1.4,5.8,2.2c2.7,0.9,4.7,1.5,5.8,2c1.1,0.5,2.5,1.2,4.1,2.1C633.6,291.6,635.1,294.6,635.1,298.8z"/>
		<path fill="#545454" d="M664.9,302.2c4,0,7.6-2,10.8-6l7.1,8c-5.5,5.8-11.5,8.6-18,8.6c-6.5,0-11.9-2-16.4-6.1
			c-4.5-4.1-6.7-9.4-6.7-16c0-6.6,2.3-11.9,6.8-16.1c4.5-4.1,9.9-6.2,16-6.2c3.1,0,6.2,0.6,9.4,1.9c3.2,1.3,6,3.2,8.4,5.7l-6.2,8.2
			c-1.4-1.7-3.1-2.9-5.1-3.8c-2-0.9-4-1.4-6-1.4c-3.1,0-5.9,1-8.1,3.1c-2.3,2.1-3.4,4.9-3.4,8.6s1.1,6.5,3.4,8.5
			C659.2,301.2,661.9,302.2,664.9,302.2z"/>
		<path fill="#545454" d="M713.5,279.7c-3.6,0-6.2,1.3-8,3.8c-1.8,2.5-2.6,5.9-2.6,10v18.6h-12v-43h12v5.7c1.5-1.8,3.5-3.3,5.8-4.5
			c2.3-1.2,4.7-1.9,7.1-1.9l0.1,11.3H713.5z"/>
		<path fill="#545454" d="M724.7,263.7c-1.4-1.4-2-3-2-5c0-2,0.7-3.6,2-5c1.4-1.4,3-2,5-2c2,0,3.6,0.7,5,2c1.4,1.4,2,3,2,5
			c0,2-0.7,3.6-2,5c-1.4,1.4-3,2-5,2C727.8,265.7,726.1,265.1,724.7,263.7z M735.7,312.2h-12v-43h12V312.2z"/>
		<path fill="#545454" d="M786.6,289v23.2h-12.1v-23.5c0-3.4-0.5-5.9-1.6-7.5s-2.7-2.4-5-2.4s-4.4,0.9-6.2,2.6
			c-1.8,1.7-2.7,4.3-2.7,7.6v23.2h-12v-43h12v4.9c3.3-3.7,7.1-5.6,11.4-5.6c2.7,0,5.2,0.8,7.4,2.4c2.2,1.6,3.9,3.5,5,5.8
			c1.7-2.6,3.9-4.6,6.7-6.1c2.8-1.4,5.6-2.2,8.4-2.2c5.1,0,9.1,1.5,12.2,4.5c3.1,3,4.6,7.4,4.6,13.1v26.2h-12.1v-23.5
			c0-6.6-2.4-9.9-7.3-9.9c-2.4,0-4.5,0.9-6.2,2.6C787.5,283.1,786.6,285.7,786.6,289z"/>
		<path fill="#545454" d="M826.7,263.7c-1.4-1.4-2-3-2-5c0-2,0.7-3.6,2-5c1.4-1.4,3-2,5-2c2,0,3.6,0.7,5,2c1.4,1.4,2,3,2,5
			c0,2-0.7,3.6-2,5c-1.4,1.4-3,2-5,2C829.8,265.7,828.1,265.1,826.7,263.7z M837.7,312.2h-12v-43h12V312.2z"/>
		<path fill="#545454" d="M861.1,288.2v24h-12v-43h12v4.8c3.6-3.7,7.7-5.5,12.2-5.5c4.5,0,8.3,1.6,11.4,4.8
			c3.1,3.2,4.6,7.5,4.6,12.8v26.2h-12v-24.3c0-6.6-2.4-9.9-7.3-9.9c-2.4,0-4.5,0.9-6.3,2.6C862,282.3,861.1,284.9,861.1,288.2z"/>
		<path fill="#545454" d="M936.8,312.2h-11.3V307c-3.1,3.9-6.9,5.8-11.5,5.8s-8.4-1.3-11.5-4c-3.1-2.6-4.6-6.2-4.6-10.6
			c0-4.4,1.6-7.7,4.8-9.9c3.2-2.2,7.6-3.3,13.1-3.3h9v-0.2c0-4.6-2.4-6.9-7.3-6.9c-2.1,0-4.3,0.4-6.6,1.2c-2.3,0.8-4.3,1.9-5.9,3.1
			l-5.4-7.8c5.7-4.1,12.1-6.2,19.4-6.2c5.2,0,9.5,1.3,12.8,3.9c3.3,2.6,5,6.7,5,12.4V312.2z M924.7,295.8v-2.1h-7.5
			c-4.8,0-7.2,1.5-7.2,4.5c0,1.5,0.6,2.7,1.7,3.6c1.1,0.8,2.8,1.2,4.9,1.2c2.1,0,4-0.7,5.6-2C923.9,299.8,924.7,298,924.7,295.8z"/>
		<path fill="#545454" d="M961.6,277.8v19.3c0,1.7,0.4,2.9,1.3,3.9c0.9,0.9,1.9,1.4,3,1.4c2.2,0,4.1-1,5.7-3l4.5,8.4
			c-3.7,3.4-7.7,5.1-11.8,5.1c-4.1,0-7.6-1.4-10.5-4.1c-2.9-2.7-4.3-6.4-4.3-11.1v-19.8h-5v-8.6h5v-12.9h12.1v12.9H972v8.6H961.6z"
			/>
		<path fill="#545454" d="M983.4,263.7c-1.4-1.4-2-3-2-5c0-2,0.7-3.6,2-5c1.4-1.4,3-2,5-2c2,0,3.6,0.7,5,2c1.4,1.4,2,3,2,5
			c0,2-0.7,3.6-2,5c-1.4,1.4-3,2-5,2C986.5,265.7,984.8,265.1,983.4,263.7z M994.4,312.2h-12v-43h12V312.2z"/>
		<path fill="#545454" d="M1048.8,290.7c0,6.2-2.2,11.5-6.5,15.8c-4.3,4.3-9.7,6.4-16.3,6.4c-6.5,0-12-2.1-16.3-6.4
			c-4.3-4.3-6.5-9.5-6.5-15.8c0-6.2,2.2-11.5,6.5-15.8c4.3-4.3,9.7-6.4,16.3-6.4c6.5,0,12,2.1,16.3,6.4
			C1046.7,279.2,1048.8,284.5,1048.8,290.7z M1015.4,290.7c0,3.5,1,6.4,3,8.6c2,2.2,4.6,3.3,7.7,3.3s5.7-1.1,7.7-3.3
			c2-2.2,3-5.1,3-8.6c0-3.5-1-6.4-3-8.6s-4.6-3.4-7.7-3.4s-5.7,1.1-7.7,3.4S1015.4,287.2,1015.4,290.7z"/>
		<path fill="#545454" d="M1069.7,288.2v24h-12v-43h12v4.8c3.6-3.7,7.7-5.5,12.2-5.5c4.5,0,8.3,1.6,11.4,4.8
			c3.1,3.2,4.6,7.5,4.6,12.8v26.2h-12v-24.3c0-6.6-2.4-9.9-7.3-9.9c-2.4,0-4.5,0.9-6.3,2.6C1070.6,282.3,1069.7,284.9,1069.7,288.2z
			"/>
		<path fill="#545454" d="M1131,263.7c-1.4-1.4-2-3-2-5c0-2,0.7-3.6,2-5c1.4-1.4,3-2,5-2c2,0,3.6,0.7,5,2c1.4,1.4,2,3,2,5
			c0,2-0.7,3.6-2,5c-1.4,1.4-3,2-5,2C1134,265.7,1132.3,265.1,1131,263.7z M1142,312.2h-12v-43h12V312.2z"/>
		<path fill="#545454" d="M1185.7,298.8c0,4.2-1.6,7.6-4.7,10.2c-3.1,2.6-7.1,3.8-11.9,3.8c-3.2,0-6.5-0.6-10-1.7
			c-3.5-1.1-6.6-2.8-9.4-5.1l5.3-7.5c4.5,3.5,9.3,5.2,14.3,5.2c1.5,0,2.8-0.3,3.7-0.9c0.9-0.6,1.4-1.4,1.4-2.4c0-1-0.6-1.9-1.9-2.8
			c-1.3-0.9-3.1-1.7-5.4-2.4c-2.4-0.7-4.2-1.4-5.4-1.9c-1.3-0.5-2.7-1.3-4.3-2.3c-3.3-2-4.9-5-4.9-9c0-4,1.6-7.2,4.8-9.7
			c3.2-2.5,7.3-3.8,12.4-3.8c5.1,0,10.1,1.7,15.2,5.1l-4.5,8c-3.7-2.6-7.5-3.8-11.2-3.8c-3.7,0-5.6,1-5.6,3c0,1.1,0.6,2,1.8,2.6
			c1.2,0.6,3.1,1.4,5.8,2.2c2.7,0.9,4.7,1.5,5.8,2c1.1,0.5,2.5,1.2,4.1,2.1C1184.2,291.6,1185.7,294.6,1185.7,298.8z"/>
		<path fill="#545454" d="M1256.4,256.3h12.5v55.9h-12.5l-26.6-35v35h-12.5v-55.9h11.7l27.4,36V256.3z"/>
		<path fill="#545454" d="M1329.6,304.5c-5.7,5.5-12.6,8.3-20.9,8.3c-8.3,0-15.2-2.8-20.9-8.3c-5.7-5.5-8.5-12.4-8.5-20.6
			c0-8.2,2.8-15.1,8.5-20.6c5.7-5.5,12.6-8.3,20.9-8.3c8.3,0,15.2,2.8,20.9,8.3c5.7,5.5,8.5,12.4,8.5,20.6
			C1338.1,292.1,1335.3,299,1329.6,304.5z M1325.4,283.9c0-5-1.6-9.2-4.8-12.8c-3.2-3.5-7.1-5.3-11.8-5.3c-4.7,0-8.6,1.8-11.8,5.3
			c-3.2,3.5-4.8,7.8-4.8,12.8c0,5,1.6,9.2,4.8,12.7s7.1,5.2,11.8,5.2c4.7,0,8.6-1.7,11.8-5.2
			C1323.8,293.2,1325.4,288.9,1325.4,283.9z"/>
		<path fill="#545454" d="M1370.8,267.1v45.1h-12.5v-45.1h-15.8v-10.8h44.2v10.8H1370.8z"/>
		<path fill="#545454" d="M1464,304.5c-5.7,5.5-12.6,8.3-20.9,8.3c-8.3,0-15.2-2.8-20.9-8.3c-5.7-5.5-8.5-12.4-8.5-20.6
			c0-8.2,2.8-15.1,8.5-20.6c5.7-5.5,12.6-8.3,20.9-8.3c8.3,0,15.2,2.8,20.9,8.3c5.7,5.5,8.5,12.4,8.5,20.6
			C1472.4,292.1,1469.6,299,1464,304.5z M1459.7,283.9c0-5-1.6-9.2-4.8-12.8c-3.2-3.5-7.1-5.3-11.8-5.3c-4.7,0-8.6,1.8-11.8,5.3
			c-3.2,3.5-4.8,7.8-4.8,12.8c0,5,1.6,9.2,4.8,12.7c3.2,3.5,7.1,5.2,11.8,5.2c4.7,0,8.6-1.7,11.8-5.2S1459.7,288.9,1459.7,283.9z"/>
		<path fill="#545454" d="M1483,256.3h12.5v23l21.1-23h15.4l-22.2,24.7c1.9,2.7,5.5,7.6,10.6,14.9c5.2,7.3,9,12.7,11.6,16.3h-14.6
			l-16.4-22.1l-5.6,6.2v15.8H1483V256.3z"/>
	</g>
</g>
<g>
	<polygon fill="#998674" points="690.2,747.5 585.8,747.5 592.3,638.2 683.7,638.2 	"/>
	<polygon opacity="0.1" fill="#443E3B" enable-background="new    " points="690.2,747.5 585.8,747.5 592.3,638.2 683.7,638.2 	"/>
	<ellipse fill="#998674" cx="651.4" cy="545.9" rx="130.5" ry="143.6"/>
	<path opacity="5.000000e-02" enable-background="new    " d="M552.5,525.9c0-40,13-76.6,34.7-105c-39.6,24.7-66.3,71.4-66.3,125
		c0,79.3,58.4,143.6,130.5,143.6c8.2,0,16.3-0.9,24.1-2.5C605.6,673.6,552.5,606.6,552.5,525.9z"/>
	<path fill="#636363" d="M508.4,529.8c0-77.4,58.8-140.1,131.4-140.1c43.3,0,81.6,22.3,105.6,56.7c-33.5-12.6-78.7-14.2-105.6-9.2
		c-50.5,9.4-65.4,60.3-62.1,96.1c3.3,35.7-28.9,8.1-28.9,8.1l-15.9,66.4C518.9,585.6,508.4,558.7,508.4,529.8z"/>
	<path opacity="0.59" fill="#BDCAD6" enable-background="new    " d="M665.2,538.5h-39.8c-9.7,0-17.7-8-17.7-17.7v-16.5
		c0-9.7,8-17.7,17.7-17.7h39.8c9.7,0,17.7,8,17.7,17.7v16.5C682.9,530.6,674.9,538.5,665.2,538.5z"/>
	<path opacity="0.59" fill="#BDCAD6" enable-background="new    " d="M766.4,538.5h-41c-9.4,0-17.1-7.7-17.1-17.1v-17.7
		c0-9.4,7.7-17.1,17.1-17.1h41c9.4,0,17.1,7.7,17.1,17.1v17.7C783.5,530.8,775.8,538.5,766.4,538.5z"/>
	<path fill="none" stroke="#000000" stroke-width="10.4793" stroke-linecap="round" stroke-miterlimit="10" d="M558,538.5"/>
	<path fill="none" stroke="#000000" stroke-width="10.4793" stroke-linecap="round" stroke-miterlimit="10" d="M605.2,499.2"/>
	<g>
		<path fill="#3A3125" d="M608.2,506.9c0,0-0.9,0.7-2.4,1.9c-1.5,1.2-3.7,2.9-6.3,4.9c-2.6,2-5.7,4.4-9.1,6.8
			c-1.7,1.2-3.4,2.5-5.2,3.8s-3.6,2.6-5.3,3.9c-1.8,1.3-3.6,2.6-5.4,3.9c-1.8,1.3-3.5,2.5-5.3,3.6s-3.6,2-5.2,3
			c-1.7,0.9-3.2,1.8-4.7,2.7c-1.5,0.8-2.8,1.6-4,2.2c-1.2,0.7-2.2,1.2-3.1,1.7c-1.7,0.9-2.7,1.4-2.7,1.4c-2.6,1.4-5.8,0.4-7.2-2.2
			c-1.1-2.1-0.7-4.7,1-6.2c0,0,0.8-0.8,2.2-2.2c0.7-0.7,1.6-1.5,2.5-2.4c1-0.9,2.1-2,3.3-3.1s2.6-2.4,4-3.7s2.9-2.7,4.4-4.1
			c1.6-1.4,3.3-2.7,5-4s3.5-2.6,5.3-3.9c1.8-1.3,3.6-2.6,5.3-3.9c1.8-1.3,3.5-2.5,5.2-3.8c3.4-2.4,6.5-4.7,9.3-6.6
			c2.7-1.9,5-3.5,6.6-4.6s2.5-1.7,2.5-1.7c3.6-2.4,8.5-1.4,10.9,2.2C612.1,499.8,611.3,504.4,608.2,506.9z"/>
	</g>
	<g>
		<g opacity="0.44">
			<path d="M671.9,647.8c0,0,0.4-0.4,1.1-0.9c0.4-0.3,0.8-0.6,1.3-1c0.5-0.3,1.1-0.8,1.8-1.2s1.4-0.8,2.2-1.2s1.7-0.8,2.6-1.2
				c0.9-0.3,1.9-0.7,2.9-1c1-0.2,2.1-0.5,3.2-0.7l1.6-0.2c0.5,0,1.1-0.1,1.6-0.1c1.1-0.1,2.1,0,3.2,0.1c1,0.1,2,0.4,2.9,0.6
				c0.4,0.1,0.9,0.2,1.3,0.4c0.4,0.2,0.8,0.4,1.2,0.6c0.4,0.2,0.7,0.4,1,0.5c0.3,0.2,0.6,0.3,0.9,0.5c0.5,0.4,1,0.7,1.4,1
				c0.7,0.6,1.1,1,1.1,1l-0.1,0.2c0,0-0.5-0.1-1.4-0.3c-0.4-0.1-1-0.3-1.6-0.5s-1.3-0.3-2-0.5s-1.5-0.4-2.4-0.5
				c-0.8-0.1-1.7-0.4-2.6-0.4c-0.9-0.1-1.9-0.3-2.8-0.3c-0.5,0-1-0.1-1.5-0.1l-1.5,0.1c-1,0-2,0.2-3,0.3c-1,0.2-1.9,0.4-2.9,0.6
				c-0.9,0.3-1.8,0.5-2.6,0.9c-0.8,0.3-1.6,0.6-2.3,0.9c-0.7,0.3-1.3,0.6-1.9,0.9c-0.5,0.3-1,0.6-1.4,0.8
				C672.4,647.6,672,647.9,671.9,647.8L671.9,647.8z"/>
		</g>
		<g>
			<g>
				<path d="M627.6,511.1c0,0,0.1-0.6,0.5-1.5c0.2-0.5,0.4-1.1,0.7-1.7s0.6-1.4,1-2.2c0.4-0.8,0.9-1.6,1.4-2.5s1.2-1.7,1.8-2.7
					c0.7-0.9,1.4-1.8,2.2-2.6c0.8-0.8,1.6-1.7,2.6-2.5l1.4-1.2c0.5-0.3,1-0.7,1.5-1c0.9-0.7,2-1.3,3-1.8s2.1-0.8,3.1-1.1
					c0.5-0.1,1-0.3,1.5-0.4s1-0.1,1.4-0.2s0.9-0.1,1.3-0.1c0.4,0,0.8-0.1,1.2-0.1c0.7,0,1.4,0.1,1.9,0.1c1,0.1,1.6,0.2,1.6,0.2v0.3
					c0,0-0.6,0.2-1.6,0.5c-0.5,0.1-1.1,0.3-1.8,0.5c-0.7,0.1-1.4,0.5-2.2,0.7s-1.7,0.5-2.5,0.9c-0.9,0.4-1.8,0.7-2.7,1.2
					c-0.9,0.4-1.9,0.8-2.9,1.4c-0.5,0.3-1,0.5-1.5,0.8l-1.4,1c-0.9,0.6-1.8,1.4-2.6,2.1s-1.6,1.6-2.3,2.3c-0.7,0.8-1.4,1.6-1.9,2.4
					c-0.6,0.8-1.1,1.5-1.6,2.3c-0.5,0.7-0.9,1.4-1.2,2s-0.6,1.2-0.9,1.6c-0.5,0.9-0.7,1.4-0.7,1.4L627.6,511.1z"/>
			</g>
			<path fill="#1E1A16" d="M649.5,529.8c4.1,0,7.9,0.8,11.1,2c1.3-2.9,2-6.3,2-9.9c0-10.3-5.9-18.7-13.3-18.7s-13.3,8.4-13.3,18.7
				c0,3.7,0.8,7.1,2.1,10C641.5,530.6,645.3,529.8,649.5,529.8z"/>
			<path fill="#FFFFFF" d="M649.1,506.9c-0.4-0.2,5.9,0.8,7.8,7.7C656.8,514.6,652.5,508.5,649.1,506.9z"/>
			<g>
				<g>
					<path d="M759.9,511.2c0,0-0.2-0.5-0.7-1.4c-0.2-0.5-0.5-1-0.9-1.6s-0.7-1.3-1.2-2s-1-1.5-1.6-2.3s-1.3-1.6-1.9-2.4
						c-0.7-0.8-1.5-1.6-2.3-2.3c-0.8-0.7-1.7-1.5-2.6-2.1l-1.4-1c-0.5-0.3-1-0.5-1.5-0.8c-0.9-0.6-2-0.9-2.9-1.4s-1.9-0.8-2.7-1.2
						c-0.9-0.4-1.7-0.7-2.5-0.9c-0.8-0.2-1.5-0.6-2.2-0.7c-0.7-0.2-1.3-0.3-1.8-0.5c-1-0.3-1.6-0.5-1.6-0.5v-0.3
						c0,0,0.6-0.1,1.6-0.2c0.5,0,1.2-0.1,1.9-0.1c0.4,0,0.8,0,1.2,0.1c0.4,0,0.8,0.1,1.3,0.1c0.5,0.1,0.9,0.1,1.4,0.2s1,0.3,1.5,0.4
						c1,0.3,2.1,0.6,3.1,1.1s2.1,1,3,1.8c0.5,0.3,1,0.7,1.5,1l1.4,1.2c0.9,0.7,1.8,1.6,2.6,2.5s1.5,1.8,2.2,2.6
						c0.6,0.9,1.3,1.8,1.8,2.7c0.5,0.9,1,1.7,1.4,2.5s0.7,1.5,1,2.2s0.5,1.2,0.7,1.7c0.4,1,0.5,1.5,0.5,1.5L759.9,511.2z"/>
				</g>
				<path fill="#1E1A16" d="M738.3,529.8c4.1,0,7.9,0.8,11.1,2c1.3-2.9,2-6.3,2-9.9c0-10.3-5.9-18.7-13.3-18.7
					c-7.3,0-13.3,8.4-13.3,18.7c0,3.7,0.8,7.1,2.1,10C730.2,530.6,734.1,529.8,738.3,529.8z"/>
				<path fill="#FFFFFF" d="M737.9,506.9c-0.4-0.2,5.9,0.8,7.8,7.7C745.6,514.6,741.3,508.5,737.9,506.9z"/>
			</g>
			<g opacity="0.44">
				<path d="M697.1,543.3c0,0,2.4,2.7,5.4,7c1.5,2.2,3.3,4.8,4.9,7.7c0.8,1.5,1.6,3,2.3,4.7c0.7,1.6,1.3,3.4,1.8,5.2
					s0.7,3.7,0.7,5.6c-0.1,1.9-0.6,3.9-1.6,5.6c-1,1.7-2.6,2.9-4,3.8c-0.8,0.4-1.5,0.8-2.3,1.1c-0.7,0.2-1.5,0.5-2.2,0.7
					c-1.4,0.3-2.7,0.6-3.8,0.7c-1.1,0.1-2.1,0.2-3,0.2c-1.6,0-2.6,0.1-2.6,0.1c-1.3,0-2.3-1-2.4-2.3c0-1.3,1-2.3,2.3-2.4
					c0.1,0,0.1,0,0.2,0h0.2c0,0,0.8,0,2.3,0.1c0.7,0.1,1.6,0,2.6,0s2.1-0.2,3.3-0.3c0.6-0.1,1.2-0.3,1.8-0.4
					c0.6-0.2,1.2-0.4,1.8-0.7c1.1-0.6,2.3-1.3,3.1-2.4c0.8-1.1,1.4-2.5,1.5-4c0.2-1.6,0.1-3.2-0.2-4.9s-0.7-3.3-1.3-5
					c-0.5-1.6-1.2-3.2-1.9-4.7c-1.4-3-2.8-5.7-4.2-8C699.3,546.2,697.1,543.3,697.1,543.3z"/>
			</g>
		</g>
	</g>
	<g>
		<path fill="#3A3125" d="M786.7,495.2c0-5.1-4.6-9.2-10.3-9.2H756l0,0h-20.2l0,0h-10.2c-11.2,0-20.5,8.2-20.5,18.3v9.2l0,0l0,0
			c0,15.1,12,27.5,26.8,27.5h28c14.7,0,26.8-12.4,26.8-27.5l0,0l0,0l0,0L786.7,495.2L786.7,495.2z M758.1,536.8h-24.4
			c-12.8,0-23.3-10.5-23.3-23.3l0,0v-7.8c0-8.5,8-15.5,17.8-15.5h5.5h3.4h17.6h3.4h5.5c9.8,0,17.8,7,17.8,15.5v7.8l0,0
			C781.4,526.3,770.9,536.8,758.1,536.8z"/>
		<ellipse fill="#FFFFFF" cx="778.8" cy="491.8" rx="3" ry="1.3"/>
	</g>
	<g>
		<path fill="#3A3125" d="M605.2,513.5L605.2,513.5L605.2,513.5L605.2,513.5c0,15.1,12,27.5,26.8,27.5h28
			c14.7,0,26.8-12.4,26.8-27.5l0,0l0,0v-9.2c0-10.1-9.2-18.3-20.5-18.3h-10.2l0,0h-20.2l0,0h-20.4c-5.7,0-10.3,4.1-10.3,9.2
			L605.2,513.5L605.2,513.5z M610.5,513.5L610.5,513.5v-7.8c0-8.5,8-15.5,17.8-15.5h5.5h3.4h17.6h3.4h5.5c9.8,0,17.8,7,17.8,15.5
			v7.8l0,0c0,12.8-10.5,23.3-23.3,23.3h-24.4C621,536.8,610.5,526.3,610.5,513.5z"/>
		<ellipse fill="#FFFFFF" cx="612.5" cy="491.8" rx="3" ry="1.3"/>
	</g>
	<path fill="none" stroke="#3A3125" stroke-width="6.2876" stroke-miterlimit="10" d="M684.7,504.2c0,0,11.2-11.2,22.4,0"/>
	<path opacity="0.2" fill="#F4F4F4" enable-background="new    " d="M639.8,389.8c37.4,0,71.2,16.7,95.1,43.5
		c-22.8-20.4-52.2-32.6-84.3-32.6c-72.6,0-131.4,62.7-131.4,140.1c0,22.1,4.8,43,13.4,61.6l0.3,5.7c-14.1-22.3-24.5-49.2-24.5-78.1
		C508.4,452.5,567.2,389.8,639.8,389.8z"/>
	<ellipse fill="#998674" cx="555.3" cy="560.7" rx="18.6" ry="30.5"/>
	<g>
		<g>
			<path fill="#1E1A16" d="M721.3,615.8c0,0,0.2-0.5,0.4-1.2s0.4-1.7,0.3-2.6c0-0.5-0.1-0.9-0.2-1.3c0-0.2,0-0.4,0-0.6
				c0-0.2,0-0.4,0-0.6c0-0.2,0-0.4,0-0.5c0-0.2,0-0.3,0-0.4c0-0.2,0-0.4,0-0.4l0.1-0.1c0,0,0.1,0.1,0.3,0.2c0.2,0.2,0.4,0.4,0.7,0.8
				c0.1,0.2,0.2,0.4,0.3,0.6c0.1,0.2,0.2,0.5,0.2,0.7c0,0.3,0,0.5,0,0.8s-0.1,0.5-0.1,0.8c-0.2,1.1-0.6,2.1-1,2.7
				c-0.4,0.7-0.7,1.1-0.7,1.1H721.3z"/>
		</g>
		<g>
			<path fill="#1E1A16" d="M678.9,618.5c0,0-0.4-0.3-0.9-1c-0.5-0.6-1-1.6-1.3-2.6c-0.1-0.3-0.2-0.5-0.2-0.8
				c-0.1-0.3-0.1-0.5-0.1-0.8s0-0.5,0.1-0.8c0-0.2,0.1-0.5,0.2-0.6c0.2-0.4,0.4-0.7,0.6-0.9c0.2-0.2,0.3-0.3,0.3-0.3l0.1,0.1
				c0,0,0,0.2,0.1,0.4c0,0.1,0,0.3,0.1,0.4c0,0.2,0.1,0.3,0.1,0.5s0,0.4,0.1,0.6c0,0.2,0,0.4,0,0.6c0,0.4-0.1,0.9,0,1.4
				c0.1,0.9,0.4,1.9,0.6,2.6c0.3,0.7,0.5,1.1,0.5,1.1L678.9,618.5z"/>
		</g>
		<g>
			<path fill="#1E1A16" d="M722.6,611.9c0,0-2.9-0.5-7.1-1.2c-1.1-0.2-2.2-0.3-3.4-0.5s-2.5-0.3-3.8-0.5s-2.7-0.2-4.1-0.3
				c-1.4-0.1-2.8-0.1-4.1,0h-0.5h-0.5l-1.1,0.1c-0.7,0.1-1.4,0.2-2,0.2c-0.7,0.1-1.4,0.2-2,0.3c-0.7,0.1-1.3,0.3-2,0.4
				c-1.3,0.3-2.6,0.6-3.7,0.9c-1.2,0.3-2.3,0.6-3.4,0.9c-2.1,0.6-3.8,1.1-5,1.4c-1.2,0.4-1.9,0.6-1.9,0.6s0.6-0.4,1.7-1.1
				c1.1-0.7,2.7-1.6,4.7-2.5c1-0.5,2.1-1,3.3-1.4c1.2-0.5,2.4-0.9,3.8-1.3c1.3-0.4,2.7-0.7,4.2-1c0.7-0.1,1.5-0.3,2.2-0.3l1.1-0.1
				l0.5-0.1h0.6c1.5-0.1,3,0,4.5,0.1c0.7,0.1,1.5,0.1,2.2,0.3c0.7,0.1,1.4,0.2,2.1,0.3c1.4,0.2,2.7,0.6,3.9,0.9
				c1.2,0.3,2.4,0.7,3.4,1c2.1,0.7,3.8,1.4,4.9,2C721.9,611.6,722.6,611.9,722.6,611.9z"/>
		</g>
		<g>
			<path fill="#1E1A16" d="M682.5,625.3c0,0,1.9,1,4.8,2.3c1.5,0.6,3.2,1.3,5,1.9c0.9,0.3,1.9,0.5,2.9,0.7c0.5,0.1,1,0.2,1.5,0.2
				c0.5,0.1,1,0,1.5,0h0.4h0.4l0.8-0.1c0.5-0.1,1-0.2,1.4-0.3c1-0.3,1.9-0.6,2.8-1c0.9-0.4,1.7-0.8,2.5-1.2s1.5-0.9,2.2-1.3
				c2.7-1.7,4.4-3,4.4-3s-0.3,0.4-1,1.1c-0.7,0.7-1.6,1.6-2.9,2.6c-0.6,0.5-1.3,1-2.1,1.5s-1.6,1-2.5,1.5s-1.9,0.9-3,1.2
				c-0.5,0.1-1.1,0.3-1.6,0.4l-0.8,0.1l-0.4,0.1h-0.4c-0.6,0-1.1,0-1.7-0.1c-0.6,0-1.1-0.1-1.6-0.2c-1.1-0.2-2.1-0.5-3.1-0.9
				c-1.9-0.7-3.6-1.6-5-2.4C684,626.7,682.5,625.3,682.5,625.3z"/>
		</g>
	</g>
</g>
<g>
	<path fill="#998674" d="M749.1,1276.7h34.6c4.5,0,8.2-3.7,8.2-8.2V819c0-4.5-3.7-8.2-8.2-8.2h-34.6c-4.5,0-8.2,3.7-8.2,8.2v449.4
		C740.8,1273,744.5,1276.7,749.1,1276.7z"/>
	<path fill="#998674" d="M791.5,1229.9h-40.9c-5.4,0-9.8,4.4-9.8,9.8v56.5c0,5.4,4.4,9.8,9.8,9.8h40.9c5.4,0,9.8-4.4,9.8-9.8v-56.5
		C801.3,1234.3,796.9,1229.9,791.5,1229.9z"/>
	<path fill="#203451" d="M763.1,752h6.2c20.4,0,35.7,15.2,35.7,32.5v53.8l0,0V1207h-78V838.3l0,0v-53.8
		C727,767.2,742.7,752,763.1,752z"/>
	<rect x="726" y="1191.8" fill="#F2F2F2" width="80.5" height="20.6"/>
	<path fill="#998674" d="M801,1221.5h-18.1c-2.5,0-4.5,2-4.5,4.5v18.1c0,2.5,2,4.5,4.5,4.5H801c2.5,0,4.5-2,4.5-4.5V1226
		C805.5,1223.5,803.5,1221.5,801,1221.5z"/>
	<rect x="479.4" y="1294.2" fill="#253B60" width="86" height="482.6"/>
	<rect x="479.4" y="1294.2" opacity="0.1" enable-background="new    " width="43" height="482.6"/>
	<rect x="679" y="1294.2" fill="#253B60" width="86" height="482.6"/>
	<rect x="679" y="1294.2" opacity="0.1" enable-background="new    " width="43" height="482.6"/>
	<path fill="#FFFFFF" d="M764,868.5V1316H468V868h21.6c-9.4-40-14.4-76.4-6.3-95.4c21.4-50.8,111.5-49.6,111.5-49.6h3.9l35.5,18.1
		l27.2-11.9l5.6-4c0,0,85.9-3.8,96.9,43.4L764,868.5L764,868.5z"/>
	<polyline fill="#B26D12" points="641.7,751.4 668.2,939.4 633.1,1003.1 604.9,939.3 626,751.4 	"/>
	<g>
		<path fill="#203451" d="M482.6,868.5c-9.9-39.4-15.2-77.4-6.7-96.4c13.2-29.6,49.7-43.8,90.7-48.7L635,993.6l68.9-268.5
			c28.5,4.9,63.4,16.4,70.2,43.6v99.8V1331h-315V868.5H482.6z"/>
	</g>
	<path opacity="0.1" enable-background="new    " d="M593.4,721.5h-4.2c0,0-95.8,0-108.9,47.3v99.8v262.9h-21V1331h21h68.8h86.1
		V740.4L593.4,721.5z"/>
	
		<rect x="496.6" y="1177.9" transform="matrix(0.6549 -0.7557 0.7557 0.6549 -706.9621 817.854)" opacity="7.000000e-02" enable-background="new    " width="90.9" height="10.2"/>
	<polygon opacity="7.000000e-02" enable-background="new    " points="774.3,1188.6 736.8,1145.3 729.1,1152 774.3,1204.2 	"/>
	<path fill="#278FAF" d="M629.1,847.5"/>
	<polygon opacity="3.000000e-02" enable-background="new    " points="711.1,726.5 740.8,789.7 676.5,831.9 703.9,725.1 	"/>
	<polygon fill="#253B60" points="703.9,725.1 733.8,789.7 676.5,831.9 	"/>
	<polygon opacity="3.000000e-02" enable-background="new    " points="635,993.6 713.7,834.5 682.8,793.3 686.6,778.4 724.3,831.9 
		635,1003.1 	"/>
	<polygon fill="#253B60" points="635,993.6 719,831.9 687.3,789.7 	"/>
	<polygon opacity="3.000000e-02" enable-background="new    " points="559.3,724.8 527.2,789.7 591.6,831.9 566.5,723.4 	"/>
	<polygon fill="#253B60" points="566.5,723.4 534.2,789.7 591.6,831.9 	"/>
	<polygon opacity="3.000000e-02" enable-background="new    " points="633.1,993.6 554.4,834.5 585.3,793.3 581.4,778.4 
		543.8,831.9 633.1,1003.1 	"/>
	<polygon fill="#253B60" points="633.1,993.6 549.1,831.9 580.8,789.7 	"/>
	<circle fill="#0C1D38" cx="616.8" cy="1046.1" r="10.9"/>
	<path opacity="0.3" fill="#FFFFFF" enable-background="new    " d="M610.8,1047.7h12c0.3,0,0.6-0.3,0.6-0.6v-1.9
		c0-0.3-0.3-0.6-0.6-0.6h-12c-0.3,0-0.6,0.3-0.6,0.6v1.9C610.3,1047.4,610.5,1047.7,610.8,1047.7z"/>
	<circle fill="#0C1D38" cx="616.8" cy="1131.5" r="10.9"/>
	<path opacity="0.3" fill="#FFFFFF" enable-background="new    " d="M610.8,1133h12c0.3,0,0.6-0.3,0.6-0.6v-1.9
		c0-0.3-0.3-0.6-0.6-0.6h-12c-0.3,0-0.6,0.3-0.6,0.6v1.9C610.3,1132.7,610.5,1133,610.8,1133z"/>
	<path opacity="3.000000e-02" enable-background="new    " d="M705.2,884.9v22.2c0,12,9.8,21.8,21.8,21.8h17.7
		c12,0,21.8-9.8,21.8-21.8v-22.2H705.2z"/>
	<rect x="705.2" y="884.9" opacity="7.000000e-02" enable-background="new    " width="61.2" height="10.2"/>
	<path fill="#998674" d="M457.7,1276.7h34.6c4.5,0,8.2-3.7,8.2-8.2V819c0-4.5-3.7-8.2-8.2-8.2h-34.6c-4.5,0-8.2,3.7-8.2,8.2v449.4
		C449.5,1273,453.2,1276.7,457.7,1276.7z"/>
	<path fill="#998674" d="M500.2,1229.9h-40.9c-5.4,0-9.8,4.4-9.8,9.8v56.5c0,5.4,4.4,9.8,9.8,9.8h40.9c5.4,0,9.8-4.4,9.8-9.8v-56.5
		C509.9,1234.3,505.5,1229.9,500.2,1229.9z"/>
	<path fill="#203451" d="M471.7,752h6.2c20.4,0,35.1,15.2,35.1,32.5v53.8l0,0V1207h-76V838.3l0,0v-53.8
		C437,767.2,451.3,752,471.7,752z"/>
	<rect x="434.6" y="1191.8" fill="#F2F2F2" width="80.5" height="20.6"/>
	<path fill="#998674" d="M509.6,1221.5h-18.1c-2.5,0-4.5,2-4.5,4.5v18.1c0,2.5,2,4.5,4.5,4.5h18.1c2.5,0,4.5-2,4.5-4.5V1226
		C514.1,1223.5,512.1,1221.5,509.6,1221.5z"/>
	<path fill="#9B5F18" d="M641.9,740.2h-13.4c-6.6,0-12,5.4-12,12v13.4c0,6.6,5.4,12,12,12h13.4c6.6,0,12-5.4,12-12v-13.4
		C653.9,745.6,648.5,740.2,641.9,740.2z"/>
	<polygon fill="#F2F2F2" points="635.2,740.4 602.2,768.3 574.6,722.7 586,707.6 	"/>
	<polygon fill="#F2F2F2" points="635.2,740.4 664,771.5 698.1,726.3 689,709 	"/>
</g>
</svg>
