<?xml version="1.0" encoding="utf-8"?>
<!-- Generator: Adobe Illustrator 18.1.1, SVG Export Plug-In . SVG Version: 6.00 Build 0)  -->
<svg version="1.1" id="Health_copy" xmlns="http://www.w3.org/2000/svg" xmlns:xlink="http://www.w3.org/1999/xlink" x="0px"
	 y="0px" viewBox="0 0 2048 1536" enable-background="new 0 0 2048 1536" xml:space="preserve">
<g>
	<g>
		<rect id="SVGID_1_" x="-16.1" y="-16.4" fill="#DFF7F6" width="2067.3" height="1550.5"/>
	</g>
	<g>
		<defs>
			<rect id="SVGID_2_" x="-16.1" y="-16.4" width="2067.3" height="1550.5"/>
		</defs>
		<clipPath id="SVGID_3_">
			<use xlink:href="#SVGID_2_"  overflow="visible"/>
		</clipPath>
		<rect x="-1335.6" y="1241.8" clip-path="url(#SVGID_3_)" fill="#DFF7F6" width="4484.5" height="465.5"/>
	</g>
	<g>
		<defs>
			<rect id="SVGID_4_" x="-16.1" y="-16.4" width="2067.3" height="1550.5"/>
		</defs>
		<clipPath id="SVGID_5_">
			<use xlink:href="#SVGID_4_"  overflow="visible"/>
		</clipPath>
		<g opacity="0.3" clip-path="url(#SVGID_5_)">
			<g>
				<rect x="-93.9" y="231.6" fill="#DFF7F6" width="268.2" height="361.6"/>
			</g>
			<rect x="-72.9" y="255.2" fill="#DFF7F6" width="226.2" height="314.5"/>
			<circle fill="#DFF7F6" cx="40.2" cy="436.6" r="36.6"/>
			<circle fill="#DFF7F6" cx="40.2" cy="436.6" r="29.1"/>
			<path fill="#DFF7F6" d="M40.2,465.7c-16.1,0-29.1-13-29.1-29.1s13-29.1,29.1-29.1"/>
			<circle fill="#DFF7F6" cx="40.2" cy="518.5" r="36.6"/>
			<circle fill="#DFF7F6" cx="40.2" cy="518.5" r="29.1"/>
			<path fill="#DFF7F6" d="M40.2,547.6c-16.1,0-29.1-13-29.1-29.1s13-29.1,29.1-29.1"/>
			<rect x="-53" y="285.6" fill="#DFF7F6" width="184.3" height="15.2"/>
			<rect x="-53" y="310.5" fill="#DFF7F6" width="184.3" height="15.2"/>
			<rect x="-53" y="339.1" fill="#DFF7F6" width="87.6" height="7.6"/>
			<rect x="44.1" y="339.1" fill="#DFF7F6" width="87.6" height="7.6"/>
			<rect x="-53" y="353.4" fill="#DFF7F6" width="87.6" height="7.6"/>
			<rect x="44.1" y="353.4" fill="#DFF7F6" width="87.6" height="7.6"/>
			<rect x="-53" y="366.6" fill="#DFF7F6" width="87.6" height="7.6"/>
			<rect x="-53" y="380.9" fill="#DFF7F6" width="87.6" height="7.6"/>
			<rect x="44.1" y="366.6" fill="#DFF7F6" width="87.6" height="7.6"/>
		</g>
	</g>
	<g>
		<defs>
			<rect id="SVGID_6_" x="-16.1" y="-16.4" width="2067.3" height="1550.5"/>
		</defs>
		<clipPath id="SVGID_7_">
			<use xlink:href="#SVGID_6_"  overflow="visible"/>
		</clipPath>
		<rect x="-17.1" y="-14.4" clip-path="url(#SVGID_7_)" fill="#DFF7F6" width="2067.3" height="1550.5"/>
	</g>
</g>
<g>
	<ellipse fill="#D0EAC9" cx="1901.1" cy="890.5" rx="428.4" ry="146.5"/>
	<ellipse fill="#D0EAC9" cx="1345.6" cy="854.4" rx="438.8" ry="146.5"/>
	<ellipse fill="#D0EAC9" cx="622.6" cy="854.4" rx="428.4" ry="146.5"/>
	<ellipse fill="#D0EAC9" cx="63.4" cy="890.5" rx="438.8" ry="146.5"/>
	<ellipse fill="#D0EAAE" cx="966.1" cy="1047.9" rx="1216.8" ry="317.1"/>
	<path opacity="0.5" fill="#D0EAC9" enable-background="new    " d="M2245.8,992c-115.2,0-219.7,16.7-296.7,43.9
		c-73.6-42.4-213.1-71.1-373.1-71.1c-174.7,0-324.9,34.1-391.6,83c-44-60.4-203-105.1-392.5-105.1c-216.7,0-393.7,58.5-404.1,132
		C342.7,994,191.5,921.5,3.9,899c-234.5-28.1-437.1,32.7-452.5,135.6s162.2,209.1,396.8,237.2s437.1-32.7,452.5-135.6
		c0.9-6.1,1.1-12.1,0.7-18.2c46.6,59,203.8,102.5,390.5,102.5c164,0,305.1-33.5,368.7-81.6c46.9,60.6,215.1,105.5,415.4,105.5
		c105.2,0,201.5-12.4,276-32.9c65.6,56.1,217.2,95.3,393.8,95.3c236.6,0,428.4-70.5,428.4-157.4S2482.4,992,2245.8,992z"/>
</g>
<rect x="-55" y="1131.1" fill="#707070" width="2128" height="428.1"/>
<rect x="-55" y="1061.6" fill="#B1B5B1" width="2128" height="155.2"/>
<ellipse fill="#9E9E9E" cx="790.8" cy="1148.8" rx="142.8" ry="22.2"/>
<ellipse fill="#9E9E9E" cx="1148.2" cy="1155" rx="186.2" ry="22.2"/>
<g>
	<rect x="383.6" y="252.9" fill="none" width="1277.8" height="218.2"/>
	<g enable-background="new    ">
		<path fill="#545454" d="M426.9,267.1v45.1h-12.5v-45.1h-15.8v-10.8h44.2v10.8H426.9z"/>
		<path fill="#545454" d="M462.3,289v23.2h-12v-59.4h12V274c3.6-3.7,7.7-5.5,12.2-5.5c4.5,0,8.3,1.6,11.4,4.8
			c3.1,3.2,4.6,7.5,4.6,12.8v26.2h-12v-23.5c0-6.6-2.4-9.9-7.3-9.9c-2.4,0-4.5,0.9-6.3,2.6C463.2,283.1,462.3,285.7,462.3,289z"/>
		<path fill="#545454" d="M538.7,306c-4.9,4.6-10.5,6.9-17.1,6.9c-6.5,0-11.9-2-16.2-6c-4.3-4-6.4-9.4-6.4-16.2
			c0-6.8,2.2-12.2,6.5-16.2c4.3-4,9.5-6,15.4-6c5.9,0,10.9,1.8,15.1,5.4c4.1,3.6,6.2,8.5,6.2,14.7v6.4h-31.4
			c0.4,2.3,1.6,4.3,3.7,5.8c2.1,1.5,4.4,2.2,7,2.2c4.2,0,7.7-1.4,10.4-4.2L538.7,306z M527.2,280.5c-1.7-1.4-3.7-2.1-6-2.1
			c-2.4,0-4.5,0.7-6.5,2.2c-2,1.4-3.1,3.4-3.4,5.8h18.9C529.8,283.8,528.8,281.8,527.2,280.5z"/>
		<path fill="#545454" d="M573,263.7c-1.4-1.4-2-3-2-5c0-2,0.7-3.6,2-5c1.4-1.4,3-2,5-2c2,0,3.6,0.7,5,2c1.4,1.4,2,3,2,5
			c0,2-0.7,3.6-2,5c-1.4,1.4-3,2-5,2C576,265.7,574.3,265.1,573,263.7z M584,312.2h-12v-43h12V312.2z"/>
		<path fill="#545454" d="M634.9,289v23.2h-12.1v-23.5c0-3.4-0.5-5.9-1.6-7.5s-2.7-2.4-5-2.4s-4.4,0.9-6.2,2.6
			c-1.8,1.7-2.7,4.3-2.7,7.6v23.2h-12v-43h12v4.9c3.3-3.7,7.1-5.6,11.4-5.6c2.7,0,5.2,0.8,7.4,2.4c2.2,1.6,3.9,3.5,5,5.8
			c1.7-2.6,3.9-4.6,6.7-6.1c2.8-1.4,5.6-2.2,8.4-2.2c5.1,0,9.1,1.5,12.2,4.5c3.1,3,4.6,7.4,4.6,13.1v26.2H651v-23.5
			c0-6.6-2.4-9.9-7.3-9.9c-2.4,0-4.5,0.9-6.2,2.6C635.7,283.1,634.9,285.7,634.9,289z"/>
		<path fill="#545454" d="M699,268.5c5,0,9.5,2.1,13.4,6.3c3.9,4.2,5.9,9.5,5.9,15.8c0,6.3-2,11.7-5.9,15.9
			c-3.9,4.3-8.5,6.4-13.8,6.4c-5.3,0-9.5-2.1-12.7-6.3v21.2h-12v-58.6h12v4.8C689.7,270.3,694,268.5,699,268.5z M685.8,290.7
			c0,3.5,1,6.3,2.9,8.6c1.9,2.2,4.3,3.3,7.1,3.3c2.8,0,5.2-1.1,7.3-3.3c2.1-2.2,3.1-5.1,3.1-8.5c0-3.5-1-6.4-3-8.7
			c-2-2.3-4.5-3.5-7.3-3.5c-2.8,0-5.2,1.2-7.2,3.5C686.8,284.3,685.8,287.2,685.8,290.7z"/>
		<path fill="#545454" d="M770.3,290.7c0,6.2-2.2,11.5-6.5,15.8c-4.3,4.3-9.7,6.4-16.3,6.4c-6.5,0-12-2.1-16.3-6.4
			c-4.3-4.3-6.5-9.5-6.5-15.8c0-6.2,2.2-11.5,6.5-15.8c4.3-4.3,9.7-6.4,16.3-6.4c6.5,0,12,2.1,16.3,6.4
			C768.1,279.2,770.3,284.5,770.3,290.7z M736.9,290.7c0,3.5,1,6.4,3,8.6c2,2.2,4.6,3.3,7.7,3.3s5.7-1.1,7.7-3.3c2-2.2,3-5.1,3-8.6
			c0-3.5-1-6.4-3-8.6s-4.6-3.4-7.7-3.4s-5.7,1.1-7.7,3.4S736.9,287.2,736.9,290.7z"/>
		<path fill="#545454" d="M801.8,279.7c-3.6,0-6.2,1.3-8,3.8c-1.8,2.5-2.6,5.9-2.6,10v18.6h-12v-43h12v5.7c1.5-1.8,3.5-3.3,5.8-4.5
			c2.3-1.2,4.7-1.9,7.1-1.9l0.1,11.3H801.8z"/>
		<path fill="#545454" d="M826.4,277.8v19.3c0,1.7,0.4,2.9,1.3,3.9c0.9,0.9,1.9,1.4,3,1.4c2.2,0,4.1-1,5.7-3l4.5,8.4
			c-3.7,3.4-7.7,5.1-11.8,5.1c-4.1,0-7.6-1.4-10.5-4.1c-2.9-2.7-4.3-6.4-4.3-11.1v-19.8h-5v-8.6h5v-12.9h12.1v12.9h10.4v8.6H826.4z"
			/>
		<path fill="#545454" d="M883.8,312.2h-11.3V307c-3.1,3.9-6.9,5.8-11.5,5.8s-8.4-1.3-11.5-4c-3.1-2.6-4.6-6.2-4.6-10.6
			c0-4.4,1.6-7.7,4.8-9.9c3.2-2.2,7.6-3.3,13.1-3.3h9v-0.2c0-4.6-2.4-6.9-7.3-6.9c-2.1,0-4.3,0.4-6.6,1.2c-2.3,0.8-4.3,1.9-5.9,3.1
			l-5.4-7.8c5.7-4.1,12.1-6.2,19.4-6.2c5.2,0,9.5,1.3,12.8,3.9c3.3,2.6,5,6.7,5,12.4V312.2z M871.7,295.8v-2.1h-7.5
			c-4.8,0-7.2,1.5-7.2,4.5c0,1.5,0.6,2.7,1.7,3.6c1.1,0.8,2.8,1.2,4.9,1.2c2.1,0,4-0.7,5.6-2C870.9,299.8,871.7,298,871.7,295.8z"/>
		<path fill="#545454" d="M906.8,288.2v24h-12v-43h12v4.8c3.6-3.7,7.7-5.5,12.2-5.5c4.5,0,8.3,1.6,11.4,4.8
			c3.1,3.2,4.6,7.5,4.6,12.8v26.2h-12v-24.3c0-6.6-2.4-9.9-7.3-9.9c-2.4,0-4.5,0.9-6.3,2.6C907.7,282.3,906.8,284.9,906.8,288.2z"/>
		<path fill="#545454" d="M966.5,302.2c4,0,7.6-2,10.8-6l7.1,8c-5.5,5.8-11.5,8.6-18,8.6c-6.5,0-11.9-2-16.4-6.1
			c-4.5-4.1-6.7-9.4-6.7-16c0-6.6,2.3-11.9,6.8-16.1c4.5-4.1,9.9-6.2,16-6.2c3.1,0,6.2,0.6,9.4,1.9c3.2,1.3,6,3.2,8.4,5.7l-6.2,8.2
			c-1.4-1.7-3.1-2.9-5.1-3.8c-2-0.9-4-1.4-6-1.4c-3.1,0-5.9,1-8.1,3.1c-2.3,2.1-3.4,4.9-3.4,8.6s1.1,6.5,3.4,8.5
			C960.8,301.2,963.5,302.2,966.5,302.2z"/>
		<path fill="#545454" d="M1029.7,306c-4.9,4.6-10.5,6.9-17.1,6.9c-6.5,0-11.9-2-16.2-6c-4.3-4-6.4-9.4-6.4-16.2
			c0-6.8,2.2-12.2,6.5-16.2c4.3-4,9.5-6,15.4-6c5.9,0,10.9,1.8,15.1,5.4c4.1,3.6,6.2,8.5,6.2,14.7v6.4h-31.4
			c0.4,2.3,1.6,4.3,3.7,5.8c2.1,1.5,4.4,2.2,7,2.2c4.2,0,7.7-1.4,10.4-4.2L1029.7,306z M1018.2,280.5c-1.7-1.4-3.7-2.1-6-2.1
			c-2.4,0-4.5,0.7-6.5,2.2c-2,1.4-3.1,3.4-3.4,5.8h18.9C1020.8,283.8,1019.9,281.8,1018.2,280.5z"/>
		<path fill="#545454" d="M1106,290.7c0,6.2-2.2,11.5-6.5,15.8c-4.3,4.3-9.7,6.4-16.3,6.4s-12-2.1-16.3-6.4
			c-4.3-4.3-6.5-9.5-6.5-15.8c0-6.2,2.2-11.5,6.5-15.8c4.3-4.3,9.7-6.4,16.3-6.4s12,2.1,16.3,6.4
			C1103.9,279.2,1106,284.5,1106,290.7z M1072.6,290.7c0,3.5,1,6.4,3,8.6c2,2.2,4.6,3.3,7.7,3.3s5.7-1.1,7.7-3.3c2-2.2,3-5.1,3-8.6
			c0-3.5-1-6.4-3-8.6s-4.6-3.4-7.7-3.4s-5.7,1.1-7.7,3.4S1072.6,287.2,1072.6,290.7z"/>
		<path fill="#545454" d="M1128.5,266.7v2.9h10.4v8.6h-10.4v34h-12.1v-34h-5v-8.6h5v-2.6c0-4.7,1.4-8.4,4.3-11.2
			c2.9-2.7,6.4-4.1,10.6-4.1s8.1,1.6,11.6,4.8l-4.3,8.1c-1.8-2-3.7-3-5.8-3c-1.2,0-2.2,0.4-3,1.3
			C1128.9,263.7,1128.5,265,1128.5,266.7z"/>
		<path fill="#545454" d="M1207,289v23.2h-12.1v-23.5c0-3.4-0.5-5.9-1.6-7.5s-2.7-2.4-5-2.4c-2.3,0-4.4,0.9-6.2,2.6
			c-1.8,1.7-2.7,4.3-2.7,7.6v23.2h-12v-43h12v4.9c3.3-3.7,7.1-5.6,11.4-5.6c2.7,0,5.2,0.8,7.4,2.4c2.2,1.6,3.9,3.5,5,5.8
			c1.7-2.6,3.9-4.6,6.7-6.1c2.8-1.4,5.6-2.2,8.4-2.2c5.1,0,9.1,1.5,12.2,4.5c3.1,3,4.6,7.4,4.6,13.1v26.2h-12.1v-23.5
			c0-6.6-2.4-9.9-7.3-9.9c-2.4,0-4.5,0.9-6.2,2.6C1207.9,283.1,1207,285.7,1207,289z"/>
		<path fill="#545454" d="M1282.7,312.2h-11.3V307c-3.1,3.9-6.9,5.8-11.5,5.8c-4.6,0-8.4-1.3-11.5-4c-3.1-2.6-4.6-6.2-4.6-10.6
			c0-4.4,1.6-7.7,4.8-9.9c3.2-2.2,7.6-3.3,13.1-3.3h9v-0.2c0-4.6-2.4-6.9-7.3-6.9c-2.1,0-4.3,0.4-6.6,1.2c-2.3,0.8-4.3,1.9-5.9,3.1
			l-5.4-7.8c5.7-4.1,12.1-6.2,19.4-6.2c5.2,0,9.5,1.3,12.8,3.9c3.3,2.6,5,6.7,5,12.4V312.2z M1270.6,295.8v-2.1h-7.5
			c-4.8,0-7.2,1.5-7.2,4.5c0,1.5,0.6,2.7,1.7,3.6c1.1,0.8,2.8,1.2,4.9,1.2c2.1,0,4-0.7,5.6-2C1269.8,299.8,1270.6,298,1270.6,295.8z
			"/>
		<path fill="#545454" d="M1294.6,263.7c-1.4-1.4-2-3-2-5c0-2,0.7-3.6,2-5c1.4-1.4,3-2,5-2c2,0,3.6,0.7,5,2c1.4,1.4,2,3,2,5
			c0,2-0.7,3.6-2,5c-1.4,1.4-3,2-5,2C1297.7,265.7,1296,265.1,1294.6,263.7z M1305.6,312.2h-12v-43h12V312.2z"/>
		<path fill="#545454" d="M1329,288.2v24h-12v-43h12v4.8c3.6-3.7,7.7-5.5,12.2-5.5c4.5,0,8.3,1.6,11.4,4.8c3.1,3.2,4.6,7.5,4.6,12.8
			v26.2h-12v-24.3c0-6.6-2.4-9.9-7.3-9.9c-2.4,0-4.5,0.9-6.3,2.6C1329.9,282.3,1329,284.9,1329,288.2z"/>
		<path fill="#545454" d="M1381.8,277.8v19.3c0,1.7,0.4,2.9,1.3,3.9c0.9,0.9,1.9,1.4,3,1.4c2.2,0,4.1-1,5.7-3l4.5,8.4
			c-3.7,3.4-7.7,5.1-11.8,5.1c-4.1,0-7.6-1.4-10.5-4.1c-2.9-2.7-4.3-6.4-4.3-11.1v-19.8h-5v-8.6h5v-12.9h12.1v12.9h10.4v8.6H1381.8z
			"/>
		<path fill="#545454" d="M1439.2,312.2H1428V307c-3.1,3.9-6.9,5.8-11.5,5.8c-4.6,0-8.4-1.3-11.5-4c-3.1-2.6-4.6-6.2-4.6-10.6
			c0-4.4,1.6-7.7,4.8-9.9c3.2-2.2,7.6-3.3,13.1-3.3h9v-0.2c0-4.6-2.4-6.9-7.3-6.9c-2.1,0-4.3,0.4-6.6,1.2c-2.3,0.8-4.3,1.9-5.9,3.1
			l-5.4-7.8c5.7-4.1,12.1-6.2,19.4-6.2c5.2,0,9.5,1.3,12.8,3.9c3.3,2.6,5,6.7,5,12.4V312.2z M1427.2,295.8v-2.1h-7.5
			c-4.8,0-7.2,1.5-7.2,4.5c0,1.5,0.6,2.7,1.7,3.6c1.1,0.8,2.8,1.2,4.9,1.2c2.1,0,4-0.7,5.6-2C1426.3,299.8,1427.2,298,1427.2,295.8z
			"/>
		<path fill="#545454" d="M1451.2,263.7c-1.4-1.4-2-3-2-5c0-2,0.7-3.6,2-5c1.4-1.4,3-2,5-2c2,0,3.6,0.7,5,2c1.4,1.4,2,3,2,5
			c0,2-0.7,3.6-2,5c-1.4,1.4-3,2-5,2C1454.2,265.7,1452.6,265.1,1451.2,263.7z M1462.2,312.2h-12v-43h12V312.2z"/>
		<path fill="#545454" d="M1485.6,288.2v24h-12v-43h12v4.8c3.6-3.7,7.7-5.5,12.2-5.5c4.5,0,8.3,1.6,11.4,4.8
			c3.1,3.2,4.6,7.5,4.6,12.8v26.2h-12v-24.3c0-6.6-2.4-9.9-7.3-9.9c-2.4,0-4.5,0.9-6.3,2.6C1486.5,282.3,1485.6,284.9,1485.6,288.2z
			"/>
		<path fill="#545454" d="M1525.7,263.7c-1.4-1.4-2-3-2-5c0-2,0.7-3.6,2-5c1.4-1.4,3-2,5-2c2,0,3.6,0.7,5,2c1.4,1.4,2,3,2,5
			c0,2-0.7,3.6-2,5c-1.4,1.4-3,2-5,2C1528.7,265.7,1527,265.1,1525.7,263.7z M1536.7,312.2h-12v-43h12V312.2z"/>
		<path fill="#545454" d="M1560,288.2v24h-12v-43h12v4.8c3.6-3.7,7.7-5.5,12.2-5.5c4.5,0,8.3,1.6,11.4,4.8c3.1,3.2,4.6,7.5,4.6,12.8
			v26.2h-12v-24.3c0-6.6-2.4-9.9-7.3-9.9c-2.4,0-4.5,0.9-6.3,2.6C1560.9,282.3,1560,284.9,1560,288.2z"/>
		<path fill="#545454" d="M1631,304.9c-3.8,4.2-8.5,6.3-14.1,6.3c-5.6,0-10.4-1.9-14.2-5.7c-3.9-3.8-5.8-8.9-5.8-15.3
			c0-6.4,2-11.6,6-15.7c4-4.1,8.5-6.1,13.6-6.1s9.4,2.1,12.7,6.3v-5.7h12v37.5c0,3.8-0.7,7.3-2,10.2c-1.3,3-3.1,5.3-5.4,7
			c-4.4,3.5-9.7,5.3-15.7,5.3c-3.2,0-6.5-0.5-9.8-1.6c-3.3-1-6.3-2.5-8.8-4.4l4.6-9c3.9,3,8.1,4.5,12.5,4.5c4.4,0,7.9-1.1,10.4-3.3
			C1629.7,313.2,1631,309.7,1631,304.9z M1629.3,289.8c0-3.4-1-6.1-2.9-8.1c-1.9-2-4.3-3-7.1-3c-2.8,0-5.3,1-7.3,3
			c-2.1,2-3.1,4.7-3.1,8.1c0,3.4,1,6.2,3,8.3c2,2.1,4.4,3.2,7.3,3.2s5.3-1,7.2-3.1S1629.3,293.2,1629.3,289.8z"/>
	</g>
	<g enable-background="new    ">
		<path fill="#545454" d="M704.8,392.2h-11.3V387c-3.1,3.9-6.9,5.8-11.5,5.8c-4.6,0-8.4-1.3-11.5-4c-3.1-2.6-4.6-6.2-4.6-10.6
			c0-4.4,1.6-7.7,4.8-9.9c3.2-2.2,7.6-3.3,13.1-3.3h9v-0.2c0-4.6-2.4-6.9-7.3-6.9c-2.1,0-4.3,0.4-6.6,1.2c-2.3,0.8-4.3,1.9-5.9,3.1
			l-5.4-7.8c5.7-4.1,12.1-6.2,19.4-6.2c5.2,0,9.5,1.3,12.8,3.9c3.3,2.6,5,6.7,5,12.4V392.2z M692.7,375.8v-2.1h-7.5
			c-4.8,0-7.2,1.5-7.2,4.5c0,1.5,0.6,2.7,1.7,3.6c1.1,0.8,2.8,1.2,4.9,1.2c2.1,0,4-0.7,5.6-2C691.9,379.8,692.7,378,692.7,375.8z"/>
		<path fill="#545454" d="M748.9,369v23.2h-12v-59.4h12V354c3.6-3.7,7.7-5.5,12.2-5.5c4.5,0,8.3,1.6,11.4,4.8
			c3.1,3.2,4.6,7.5,4.6,12.8v26.2h-12v-23.5c0-6.6-2.4-9.9-7.3-9.9c-2.4,0-4.5,0.9-6.3,2.6C749.8,363.1,748.9,365.7,748.9,369z"/>
		<path fill="#545454" d="M825.3,386c-4.9,4.6-10.5,6.9-17.1,6.9s-11.9-2-16.2-6c-4.3-4-6.4-9.4-6.4-16.2c0-6.8,2.2-12.2,6.5-16.2
			s9.5-6,15.4-6s10.9,1.8,15.1,5.4c4.1,3.6,6.2,8.5,6.2,14.7v6.4h-31.4c0.4,2.3,1.6,4.3,3.7,5.8c2.1,1.5,4.4,2.2,7,2.2
			c4.2,0,7.7-1.4,10.4-4.2L825.3,386z M813.8,360.5c-1.7-1.4-3.7-2.1-6-2.1c-2.4,0-4.5,0.7-6.5,2.2c-2,1.4-3.1,3.4-3.4,5.8h18.9
			C816.4,363.8,815.4,361.8,813.8,360.5z"/>
		<path fill="#545454" d="M874,392.2h-11.3V387c-3.1,3.9-6.9,5.8-11.5,5.8c-4.6,0-8.4-1.3-11.5-4c-3.1-2.6-4.6-6.2-4.6-10.6
			c0-4.4,1.6-7.7,4.8-9.9c3.2-2.2,7.6-3.3,13.1-3.3h9v-0.2c0-4.6-2.4-6.9-7.3-6.9c-2.1,0-4.3,0.4-6.6,1.2c-2.3,0.8-4.3,1.9-5.9,3.1
			l-5.4-7.8c5.7-4.1,12.1-6.2,19.4-6.2c5.2,0,9.5,1.3,12.8,3.9c3.3,2.6,5,6.7,5,12.4V392.2z M861.9,375.8v-2.1h-7.5
			c-4.8,0-7.2,1.5-7.2,4.5c0,1.5,0.6,2.7,1.7,3.6c1.1,0.8,2.8,1.2,4.9,1.2c2.1,0,4-0.7,5.6-2C861.1,379.8,861.9,378,861.9,375.8z"/>
		<path fill="#545454" d="M897,392.2h-12v-59.4h12V392.2z"/>
		<path fill="#545454" d="M922.7,357.8v19.3c0,1.7,0.4,2.9,1.3,3.9c0.9,0.9,1.9,1.4,3,1.4c2.2,0,4.1-1,5.7-3l4.5,8.4
			c-3.7,3.4-7.7,5.1-11.8,5.1c-4.1,0-7.6-1.4-10.5-4.1c-2.9-2.7-4.3-6.4-4.3-11.1v-19.8h-5v-8.6h5v-12.9h12.1v12.9h10.4v8.6H922.7z"
			/>
		<path fill="#545454" d="M955.5,369v23.2h-12v-59.4h12V354c3.6-3.7,7.7-5.5,12.2-5.5s8.3,1.6,11.4,4.8c3.1,3.2,4.6,7.5,4.6,12.8
			v26.2h-12v-23.5c0-6.6-2.4-9.9-7.3-9.9c-2.4,0-4.5,0.9-6.3,2.6C956.4,363.1,955.5,365.7,955.5,369z"/>
		<path fill="#545454" d="M1002.1,409.2c-4.2,0-8.2-1.7-11.9-5.1l5.4-8.9c2,2,4.1,3,6.2,3c1.1,0,2.1-0.5,2.9-1.6
			c0.8-1.1,1.2-2.3,1.2-3.5c0-1.2-5.5-15.8-16.6-43.8h12.8l10.5,26.8l10.5-26.8h12.8l-20,50.7c-1.2,2.9-3,5.2-5.5,6.8
			C1007.9,408.4,1005.1,409.2,1002.1,409.2z"/>
		<path fill="#545454" d="M1075,392.2h-12v-59.4h12V392.2z"/>
		<path fill="#545454" d="M1087.3,343.7c-1.4-1.4-2-3-2-5c0-2,0.7-3.6,2-5c1.4-1.4,3-2,5-2c2,0,3.6,0.7,5,2c1.4,1.4,2,3,2,5
			c0,2-0.7,3.6-2,5c-1.4,1.4-3,2-5,2C1090.4,345.7,1088.7,345.1,1087.3,343.7z M1098.3,392.2h-12v-43h12V392.2z"/>
		<path fill="#545454" d="M1124,346.7v2.9h10.4v8.6H1124v34h-12.1v-34h-5v-8.6h5v-2.6c0-4.7,1.4-8.4,4.3-11.2
			c2.9-2.7,6.4-4.1,10.6-4.1c4.2,0,8.1,1.6,11.6,4.8l-4.3,8.1c-1.8-2-3.7-3-5.8-3c-1.2,0-2.2,0.4-3,1.3
			C1124.4,343.7,1124,345,1124,346.7z"/>
		<path fill="#545454" d="M1179.1,386c-4.9,4.6-10.5,6.9-17.1,6.9c-6.5,0-11.9-2-16.2-6c-4.3-4-6.4-9.4-6.4-16.2
			c0-6.8,2.2-12.2,6.5-16.2c4.3-4,9.5-6,15.4-6c5.9,0,10.9,1.8,15.1,5.4c4.1,3.6,6.2,8.5,6.2,14.7v6.4h-31.4
			c0.4,2.3,1.6,4.3,3.7,5.8s4.4,2.2,7,2.2c4.2,0,7.7-1.4,10.4-4.2L1179.1,386z M1167.6,360.5c-1.7-1.4-3.7-2.1-6-2.1
			s-4.5,0.7-6.5,2.2c-2,1.4-3.1,3.4-3.4,5.8h18.9C1170.2,363.8,1169.3,361.8,1167.6,360.5z"/>
		<path fill="#545454" d="M1223.7,378.8c0,4.2-1.6,7.6-4.7,10.2c-3.1,2.6-7.1,3.8-11.9,3.8c-3.2,0-6.5-0.6-10-1.7s-6.6-2.8-9.4-5.1
			l5.3-7.5c4.5,3.5,9.3,5.2,14.3,5.2c1.5,0,2.8-0.3,3.7-0.9c0.9-0.6,1.4-1.4,1.4-2.4c0-1-0.6-1.9-1.9-2.8c-1.3-0.9-3.1-1.7-5.4-2.4
			c-2.4-0.7-4.2-1.4-5.4-1.9c-1.3-0.5-2.7-1.3-4.3-2.3c-3.3-2-4.9-5-4.9-9c0-4,1.6-7.2,4.8-9.7c3.2-2.5,7.3-3.8,12.4-3.8
			c5.1,0,10.1,1.7,15.2,5.1l-4.5,8c-3.7-2.6-7.5-3.8-11.2-3.8c-3.7,0-5.6,1-5.6,3c0,1.1,0.6,2,1.8,2.6c1.2,0.6,3.1,1.4,5.8,2.2
			c2.7,0.9,4.7,1.5,5.8,2c1.1,0.5,2.5,1.2,4.1,2.1C1222.2,371.6,1223.7,374.6,1223.7,378.8z"/>
		<path fill="#545454" d="M1246.9,357.8v19.3c0,1.7,0.4,2.9,1.3,3.9c0.9,0.9,1.9,1.4,3,1.4c2.2,0,4.1-1,5.7-3l4.5,8.4
			c-3.7,3.4-7.7,5.1-11.8,5.1c-4.1,0-7.6-1.4-10.5-4.1c-2.9-2.7-4.3-6.4-4.3-11.1v-19.8h-5v-8.6h5v-12.9h12.1v12.9h10.4v8.6H1246.9z
			"/>
		<path fill="#545454" d="M1275.2,409.2c-4.2,0-8.2-1.7-11.9-5.1l5.4-8.9c2,2,4.1,3,6.2,3c1.1,0,2.1-0.5,2.9-1.6
			c0.8-1.1,1.2-2.3,1.2-3.5c0-1.2-5.5-15.8-16.6-43.8h12.8l10.5,26.8l10.5-26.8h12.8l-20,50.7c-1.2,2.9-3,5.2-5.5,6.8
			C1281,408.4,1278.2,409.2,1275.2,409.2z"/>
		<path fill="#545454" d="M1327,392.2h-12v-59.4h12V392.2z"/>
		<path fill="#545454" d="M1375.6,386c-4.9,4.6-10.5,6.9-17.1,6.9c-6.5,0-11.9-2-16.2-6c-4.3-4-6.4-9.4-6.4-16.2
			c0-6.8,2.2-12.2,6.5-16.2c4.3-4,9.5-6,15.4-6c5.9,0,10.9,1.8,15.1,5.4c4.1,3.6,6.2,8.5,6.2,14.7v6.4h-31.4
			c0.4,2.3,1.6,4.3,3.7,5.8s4.4,2.2,7,2.2c4.2,0,7.7-1.4,10.4-4.2L1375.6,386z M1364.1,360.5c-1.7-1.4-3.7-2.1-6-2.1
			s-4.5,0.7-6.5,2.2c-2,1.4-3.1,3.4-3.4,5.8h18.9C1366.7,363.8,1365.7,361.8,1364.1,360.5z"/>
	</g>
</g>
<rect x="1432.9" y="562.7" fill="none" width="576.6" height="296.8"/>
<g enable-background="new    ">
	<path fill="#5B5B5B" d="M1438.3,585.4c-1.1-1.1-1.7-2.4-1.7-4c0-1.6,0.6-2.9,1.7-4c1.1-1.1,2.4-1.7,4-1.7s2.9,0.6,4,1.7
		c1.1,1.1,1.7,2.5,1.7,4c0,1.6-0.6,2.9-1.7,4c-1.1,1.1-2.4,1.7-4,1.7S1439.4,586.5,1438.3,585.4z"/>
</g>
<g enable-background="new    ">
	<path fill="#5B5B5B" d="M1497.7,574.5c0,5.1-2.2,8.3-6.6,9.6l8.1,11.2h-6.6l-7.3-10.3h-6.8v10.3h-5.2v-30.8h11.4
		c4.7,0,8.1,0.8,10.1,2.4C1496.7,568.5,1497.7,571,1497.7,574.5z M1490.8,578.9c1.1-0.9,1.6-2.4,1.6-4.4c0-2-0.5-3.4-1.6-4.1
		c-1.1-0.7-3-1.1-5.8-1.1h-6.6v11h6.5C1487.7,580.3,1489.7,579.8,1490.8,578.9z"/>
	<path fill="#5B5B5B" d="M1526.2,585.8h-18.3c0.1,1.7,0.9,3.1,2.3,4.1c1.4,1,3.1,1.6,4.9,1.6c2.9,0,5.2-0.9,6.7-2.8l2.8,3.1
		c-2.5,2.6-5.8,3.9-9.9,3.9c-3.3,0-6.1-1.1-8.4-3.3c-2.3-2.2-3.5-5.1-3.5-8.8c0-3.7,1.2-6.6,3.5-8.8s5.1-3.3,8.3-3.3
		c3.2,0,5.9,1,8.1,2.9c2.2,1.9,3.3,4.6,3.3,7.9V585.8z M1507.9,581.9h13.4c0-2-0.6-3.5-1.8-4.5c-1.2-1.1-2.8-1.6-4.6-1.6
		c-1.8,0-3.4,0.5-4.9,1.7C1508.6,578.5,1507.9,580,1507.9,581.9z"/>
	<path fill="#5B5B5B" d="M1553.3,571.9v20.4c0,4.1-1.1,7.2-3.4,9.3c-2.2,2.1-5.1,3.1-8.6,3.1c-3.5,0-6.7-1.1-9.5-3.3l2.3-3.7
		c2.3,1.7,4.6,2.6,6.9,2.6s4.2-0.6,5.5-1.8c1.4-1.2,2-3.1,2-5.8v-3c-0.7,1.4-1.8,2.5-3.1,3.3c-1.4,0.8-2.9,1.2-4.6,1.2
		c-3.1,0-5.7-1.1-7.7-3.3c-2-2.2-3-4.9-3-8.1c0-3.2,1-5.9,3-8.1c2-2.2,4.5-3.3,7.6-3.3s5.6,1.3,7.5,3.8v-3.5H1553.3z M1535,582.7
		c0,1.9,0.6,3.6,1.8,5s2.8,2.1,4.8,2.1s3.6-0.7,4.9-2c1.2-1.3,1.9-3,1.9-5c0-2-0.6-3.7-1.9-5.1c-1.3-1.4-2.9-2.1-4.9-2.1
		c-2,0-3.6,0.7-4.8,2.2S1535,580.8,1535,582.7z"/>
	<path fill="#5B5B5B" d="M1576.8,584.6v-12.7h4.9v23.4h-4.9V591c-0.8,1.4-1.9,2.6-3.3,3.4c-1.4,0.8-2.9,1.2-4.5,1.2
		c-2.6,0-4.8-0.8-6.4-2.4c-1.6-1.6-2.4-3.9-2.4-7v-14.3h4.9v12.8c0,4.3,1.8,6.5,5.4,6.5c1.7,0,3.2-0.6,4.4-1.7
		C1576.2,588.4,1576.8,586.7,1576.8,584.6z"/>
	<path fill="#5B5B5B" d="M1593.8,595.3h-4.9v-32.6h4.9V595.3z"/>
	<path fill="#5B5B5B" d="M1619.9,595.3h-4.5v-3.1c-1.9,2.3-4.5,3.5-7.8,3.5c-2.4,0-4.5-0.7-6-2.1c-1.6-1.4-2.4-3.2-2.4-5.5
		c0-2.3,0.8-4,2.6-5.2c1.7-1.1,4-1.7,6.9-1.7h6.4v-0.9c0-3.1-1.7-4.7-5.2-4.7c-2.2,0-4.4,0.8-6.8,2.4l-2.2-3.1
		c2.8-2.3,6.1-3.4,9.7-3.4c2.8,0,5,0.7,6.8,2.1c1.7,1.4,2.6,3.6,2.6,6.6V595.3z M1614.9,586.6v-2h-5.5c-3.5,0-5.3,1.1-5.3,3.3
		c0,1.1,0.4,2,1.3,2.6c0.9,0.6,2.1,0.9,3.7,0.9c1.6,0,2.9-0.4,4.1-1.3C1614.3,589.3,1614.9,588.1,1614.9,586.6z"/>
	<path fill="#5B5B5B" d="M1639,576.5c-2.4,0-4.3,0.8-5.5,2.4s-1.8,3.7-1.8,6.4v10h-4.9v-23.4h4.9v4.7c0.8-1.5,1.9-2.7,3.2-3.6
		c1.4-0.9,2.8-1.4,4.3-1.5l0,5C1639.2,576.5,1639.1,576.5,1639,576.5z"/>
	<path fill="#5B5B5B" d="M1666.6,595.7c-3.3,0-6.1-1.1-8.4-3.3c-2.3-2.2-3.5-5.1-3.5-8.7c0-3.6,1.2-6.5,3.7-8.7
		c2.4-2.2,5.4-3.4,9-3.4s6.5,1.2,8.9,3.7l-2.9,3.6c-2-1.8-4.1-2.6-6.1-2.6c-2.1,0-3.8,0.7-5.3,2c-1.5,1.4-2.3,3.1-2.3,5.3
		c0,2.2,0.7,4,2.2,5.5s3.3,2.2,5.5,2.2s4.2-1,6.2-3l2.9,3.2C1673.6,594.2,1670.4,595.7,1666.6,595.7z"/>
	<path fill="#5B5B5B" d="M1686.5,582.6v12.7h-4.9v-32.6h4.9v13.5c0.7-1.4,1.8-2.6,3.2-3.4c1.4-0.8,3-1.2,4.6-1.2
		c2.6,0,4.8,0.8,6.4,2.4c1.6,1.6,2.4,3.9,2.4,7v14.3h-4.9v-12.8c0-4.3-1.8-6.5-5.4-6.5c-1.7,0-3.2,0.6-4.4,1.7
		C1687.2,578.8,1686.5,580.5,1686.5,582.6z"/>
	<path fill="#5B5B5B" d="M1731.8,585.8h-18.3c0.1,1.7,0.9,3.1,2.3,4.1c1.4,1,3.1,1.6,4.9,1.6c2.9,0,5.2-0.9,6.7-2.8l2.8,3.1
		c-2.5,2.6-5.8,3.9-9.9,3.9c-3.3,0-6.1-1.1-8.4-3.3c-2.3-2.2-3.5-5.1-3.5-8.8c0-3.7,1.2-6.6,3.5-8.8s5.1-3.3,8.3-3.3
		c3.2,0,5.9,1,8.1,2.9c2.2,1.9,3.3,4.6,3.3,7.9V585.8z M1713.5,581.9h13.4c0-2-0.6-3.5-1.8-4.5c-1.2-1.1-2.8-1.6-4.6-1.6
		c-1.8,0-3.4,0.5-4.9,1.7C1714.2,578.5,1713.5,580,1713.5,581.9z"/>
	<path fill="#5B5B5B" d="M1747.6,595.7c-3.3,0-6.1-1.1-8.4-3.3c-2.3-2.2-3.5-5.1-3.5-8.7c0-3.6,1.2-6.5,3.7-8.7
		c2.4-2.2,5.4-3.4,9-3.4s6.5,1.2,8.9,3.7l-2.9,3.6c-2-1.8-4.1-2.6-6.1-2.6c-2.1,0-3.8,0.7-5.3,2c-1.5,1.4-2.3,3.1-2.3,5.3
		c0,2.2,0.7,4,2.2,5.5s3.3,2.2,5.5,2.2s4.2-1,6.2-3l2.9,3.2C1754.6,594.2,1751.3,595.7,1747.6,595.7z"/>
	<path fill="#5B5B5B" d="M1767.5,595.3h-4.9v-32.6h4.9v19.2l9.5-9.9h6.3l-8.9,9.3l9.5,14.1h-6l-7-10.3l-3.6,3.6V595.3z"/>
	<path fill="#5B5B5B" d="M1804.5,584.6v-12.7h4.9v23.4h-4.9V591c-0.8,1.4-1.9,2.6-3.3,3.4c-1.4,0.8-2.9,1.2-4.5,1.2
		c-2.6,0-4.8-0.8-6.4-2.4c-1.6-1.6-2.4-3.9-2.4-7v-14.3h4.9v12.8c0,4.3,1.8,6.5,5.4,6.5c1.7,0,3.2-0.6,4.4-1.7
		C1803.9,588.4,1804.5,586.7,1804.5,584.6z"/>
	<path fill="#5B5B5B" d="M1829.1,571.5c3.1,0,5.8,1.1,8.1,3.3c2.2,2.2,3.3,5.1,3.3,8.7s-1.1,6.5-3.3,8.8c-2.2,2.3-4.8,3.4-7.7,3.4
		s-5.6-1.3-7.9-3.9v12.1h-4.9v-31.9h4.9v4.1C1823.4,573,1825.9,571.5,1829.1,571.5z M1821.4,583.6c0,2.2,0.7,4.1,2,5.5
		c1.3,1.4,3,2.1,4.9,2.1s3.6-0.7,5.1-2.1s2.2-3.2,2.2-5.5s-0.7-4.1-2.1-5.6s-3.1-2.2-5.1-2.2s-3.6,0.7-5,2.2
		C1822.1,579.6,1821.4,581.4,1821.4,583.6z"/>
	<path fill="#5B5B5B" d="M1862.8,588.3c0,2.2-0.8,4-2.4,5.3c-1.6,1.3-3.7,2-6.2,2c-1.7,0-3.5-0.3-5.3-0.9c-1.8-0.6-3.5-1.5-4.9-2.6
		l2.4-3.8c2.7,2.1,5.4,3.1,7.9,3.1c1.1,0,2-0.3,2.6-0.8c0.6-0.5,1-1.2,1-2c0-1.2-1.6-2.2-4.7-3.2c-0.2-0.1-0.4-0.1-0.5-0.2
		c-4.9-1.3-7.3-3.5-7.3-6.6c0-2.2,0.8-3.9,2.5-5.2c1.7-1.3,3.9-2,6.6-2s5.3,0.8,7.7,2.4l-1.8,3.7c-1.9-1.3-4-1.9-6.2-1.9
		c-1.2,0-2.1,0.2-2.9,0.6c-0.7,0.4-1.1,1.1-1.1,1.9c0,0.8,0.4,1.3,1.1,1.7c0.5,0.3,1.3,0.5,2.2,0.7c1,0.2,1.8,0.5,2.5,0.7
		c0.7,0.2,1.4,0.5,2.1,0.8c0.7,0.3,1.4,0.7,2.2,1.2C1862,584.4,1862.8,586.1,1862.8,588.3z"/>
</g>
<g enable-background="new    ">
	<path fill="#5B5B5B" d="M1438.3,649.4c-1.1-1.1-1.7-2.4-1.7-4c0-1.6,0.6-2.9,1.7-4c1.1-1.1,2.4-1.7,4-1.7s2.9,0.6,4,1.7
		c1.1,1.1,1.7,2.5,1.7,4c0,1.6-0.6,2.9-1.7,4c-1.1,1.1-2.4,1.7-4,1.7S1439.4,650.5,1438.3,649.4z"/>
</g>
<g enable-background="new    ">
	<path fill="#5B5B5B" d="M1494.7,628.5v4.9h-16.4v8.1h14.7v4.6h-14.7v8.2h16.9v4.9h-22.1v-30.8H1494.7z"/>
	<path fill="#5B5B5B" d="M1520.2,659.3h-4.5v-3.1c-1.9,2.3-4.5,3.5-7.8,3.5c-2.4,0-4.5-0.7-6-2.1c-1.6-1.4-2.4-3.2-2.4-5.5
		c0-2.3,0.8-4,2.6-5.2c1.7-1.1,4-1.7,6.9-1.7h6.4v-0.9c0-3.1-1.7-4.7-5.2-4.7c-2.2,0-4.4,0.8-6.8,2.4l-2.2-3.1
		c2.8-2.3,6.1-3.4,9.7-3.4c2.8,0,5,0.7,6.8,2.1c1.7,1.4,2.6,3.6,2.6,6.6V659.3z M1515.2,650.6v-2h-5.5c-3.5,0-5.3,1.1-5.3,3.3
		c0,1.1,0.4,2,1.3,2.6c0.9,0.6,2.1,0.9,3.7,0.9c1.6,0,2.9-0.4,4.1-1.3C1514.6,653.3,1515.2,652.1,1515.2,650.6z"/>
	<path fill="#5B5B5B" d="M1532.8,639.9v11.9c0,1.1,0.3,2,0.9,2.7s1.4,1,2.5,1c1.1,0,2.1-0.5,3-1.5l2,3.5c-1.7,1.6-3.6,2.3-5.7,2.3
		c-2.1,0-3.9-0.7-5.4-2.2c-1.5-1.5-2.2-3.4-2.2-5.9v-11.7h-2.9v-4h2.9v-7.3h4.9v7.3h6.2v4H1532.8z"/>
	<path fill="#5B5B5B" d="M1568.2,659.3h-5.6l-8.1-23.4h5.1l5.8,17.7l5.8-17.7h5.1l5.8,17.7l5.8-17.7h5.1l-8.1,23.4h-5.6l-5.5-16
		L1568.2,659.3z"/>
	<path fill="#5B5B5B" d="M1619.1,649.8h-18.3c0.1,1.7,0.9,3.1,2.3,4.1s3.1,1.6,4.9,1.6c2.9,0,5.2-0.9,6.7-2.8l2.8,3.1
		c-2.5,2.6-5.8,3.9-9.9,3.9c-3.3,0-6.1-1.1-8.4-3.3c-2.3-2.2-3.5-5.1-3.5-8.8c0-3.7,1.2-6.6,3.5-8.8c2.3-2.2,5.1-3.3,8.3-3.3
		c3.2,0,5.9,1,8.1,2.9c2.2,1.9,3.3,4.6,3.3,7.9V649.8z M1600.8,645.9h13.4c0-2-0.6-3.5-1.8-4.5s-2.8-1.6-4.6-1.6s-3.4,0.5-4.9,1.7
		C1601.5,642.5,1600.8,644,1600.8,645.9z"/>
	<path fill="#5B5B5B" d="M1629.5,659.3h-4.9v-32.6h4.9V659.3z"/>
	<path fill="#5B5B5B" d="M1641.5,659.3h-4.9v-32.6h4.9V659.3z"/>
</g>
<g enable-background="new    ">
	<path fill="#5B5B5B" d="M1438.3,713.4c-1.1-1.1-1.7-2.4-1.7-4c0-1.6,0.6-2.9,1.7-4c1.1-1.1,2.4-1.7,4-1.7s2.9,0.6,4,1.7
		c1.1,1.1,1.7,2.5,1.7,4c0,1.6-0.6,2.9-1.7,4c-1.1,1.1-2.4,1.7-4,1.7S1439.4,714.5,1438.3,713.4z"/>
</g>
<g enable-background="new    ">
	<path fill="#5B5B5B" d="M1494.7,692.5v4.9h-16.4v8.1h14.7v4.6h-14.7v8.2h16.9v4.9h-22.1v-30.8H1494.7z"/>
	<path fill="#5B5B5B" d="M1504.9,699.9l5,7.7l5.2-7.7h5.9l-8.2,11.4l8.5,12h-6.1l-5.6-7.8l-5.5,7.8h-5.8l8.3-11.9l-7.9-11.5H1504.9z
		"/>
	<path fill="#5B5B5B" d="M1547.5,713.8h-18.3c0.1,1.7,0.9,3.1,2.3,4.1c1.4,1,3.1,1.6,4.9,1.6c2.9,0,5.2-0.9,6.7-2.8l2.8,3.1
		c-2.5,2.6-5.8,3.9-9.9,3.9c-3.3,0-6.1-1.1-8.4-3.3s-3.5-5.1-3.5-8.8c0-3.7,1.2-6.6,3.5-8.8c2.3-2.2,5.1-3.3,8.3-3.3s5.9,1,8.1,2.9
		c2.2,1.9,3.3,4.6,3.3,7.9V713.8z M1529.2,709.9h13.4c0-2-0.6-3.5-1.8-4.5c-1.2-1.1-2.8-1.6-4.6-1.6c-1.8,0-3.4,0.5-4.9,1.7
		C1529.9,706.5,1529.2,708,1529.2,709.9z"/>
	<path fill="#5B5B5B" d="M1565.2,704.5c-2.4,0-4.3,0.8-5.5,2.4c-1.2,1.6-1.8,3.7-1.8,6.4v10h-4.9v-23.4h4.9v4.7
		c0.8-1.5,1.9-2.7,3.2-3.6c1.4-0.9,2.8-1.4,4.3-1.5l0,5C1565.4,704.5,1565.3,704.5,1565.2,704.5z"/>
	<path fill="#5B5B5B" d="M1580.8,723.7c-3.3,0-6.1-1.1-8.4-3.3c-2.3-2.2-3.5-5.1-3.5-8.7c0-3.6,1.2-6.5,3.7-8.7
		c2.4-2.2,5.4-3.4,9-3.4c3.5,0,6.5,1.2,8.9,3.7l-2.9,3.6c-2-1.8-4.1-2.6-6.1-2.6s-3.8,0.7-5.3,2c-1.5,1.4-2.3,3.1-2.3,5.3
		c0,2.2,0.7,4,2.2,5.5s3.3,2.2,5.5,2.2s4.2-1,6.2-3l2.9,3.2C1587.8,722.2,1584.5,723.7,1580.8,723.7z"/>
	<path fill="#5B5B5B" d="M1596.1,695.2c-0.6-0.6-0.9-1.3-0.9-2.2c0-0.8,0.3-1.6,0.9-2.2c0.6-0.6,1.3-0.9,2.2-0.9
		c0.9,0,1.6,0.3,2.2,0.9c0.6,0.6,0.9,1.3,0.9,2.2c0,0.9-0.3,1.6-0.9,2.2c-0.6,0.6-1.3,0.9-2.2,0.9
		C1597.4,696.2,1596.7,695.8,1596.1,695.2z M1600.7,723.3h-4.9v-23.4h4.9V723.3z"/>
	<path fill="#5B5B5B" d="M1624.5,716.3c0,2.2-0.8,4-2.4,5.3c-1.6,1.3-3.7,2-6.2,2c-1.7,0-3.5-0.3-5.3-0.9s-3.5-1.5-4.9-2.6l2.4-3.8
		c2.7,2.1,5.4,3.1,7.9,3.1c1.1,0,2-0.3,2.6-0.8c0.6-0.5,1-1.2,1-2c0-1.2-1.6-2.2-4.7-3.2c-0.2-0.1-0.4-0.1-0.5-0.2
		c-4.9-1.3-7.3-3.5-7.3-6.6c0-2.2,0.8-3.9,2.5-5.2c1.7-1.3,3.9-2,6.6-2c2.7,0,5.3,0.8,7.7,2.4l-1.8,3.7c-1.9-1.3-4-1.9-6.2-1.9
		c-1.2,0-2.1,0.2-2.9,0.6c-0.7,0.4-1.1,1.1-1.1,1.9c0,0.8,0.4,1.3,1.1,1.7c0.5,0.3,1.3,0.5,2.2,0.7c1,0.2,1.8,0.5,2.5,0.7
		c0.7,0.2,1.4,0.5,2.1,0.8c0.7,0.3,1.4,0.7,2.2,1.2C1623.7,712.4,1624.5,714.1,1624.5,716.3z"/>
	<path fill="#5B5B5B" d="M1651.9,713.8h-18.3c0.1,1.7,0.9,3.1,2.3,4.1c1.4,1,3.1,1.6,4.9,1.6c2.9,0,5.2-0.9,6.7-2.8l2.8,3.1
		c-2.5,2.6-5.8,3.9-9.9,3.9c-3.3,0-6.1-1.1-8.4-3.3s-3.5-5.1-3.5-8.8c0-3.7,1.2-6.6,3.5-8.8c2.3-2.2,5.1-3.3,8.3-3.3
		c3.2,0,5.9,1,8.1,2.9c2.2,1.9,3.3,4.6,3.3,7.9V713.8z M1633.5,709.9h13.4c0-2-0.6-3.5-1.8-4.5s-2.8-1.6-4.6-1.6
		c-1.8,0-3.4,0.5-4.9,1.7C1634.2,706.5,1633.5,708,1633.5,709.9z"/>
	<path fill="#5B5B5B" d="M1681.6,704.5c-2.4,0-4.3,0.8-5.5,2.4s-1.8,3.7-1.8,6.4v10h-4.9v-23.4h4.9v4.7c0.8-1.5,1.9-2.7,3.2-3.6
		c1.4-0.9,2.8-1.4,4.3-1.5l0,5C1681.8,704.5,1681.7,704.5,1681.6,704.5z"/>
	<path fill="#5B5B5B" d="M1708.6,713.8h-18.3c0.1,1.7,0.9,3.1,2.3,4.1c1.4,1,3.1,1.6,4.9,1.6c2.9,0,5.2-0.9,6.7-2.8l2.8,3.1
		c-2.5,2.6-5.8,3.9-9.9,3.9c-3.3,0-6.1-1.1-8.4-3.3s-3.5-5.1-3.5-8.8c0-3.7,1.2-6.6,3.5-8.8c2.3-2.2,5.1-3.3,8.3-3.3
		c3.2,0,5.9,1,8.1,2.9c2.2,1.9,3.3,4.6,3.3,7.9V713.8z M1690.2,709.9h13.4c0-2-0.6-3.5-1.8-4.5s-2.8-1.6-4.6-1.6
		c-1.8,0-3.4,0.5-4.9,1.7C1690.9,706.5,1690.2,708,1690.2,709.9z"/>
	<path fill="#5B5B5B" d="M1735.6,699.9v20.4c0,4.1-1.1,7.2-3.4,9.3c-2.2,2.1-5.1,3.1-8.6,3.1s-6.7-1.1-9.5-3.3l2.3-3.7
		c2.3,1.7,4.6,2.6,6.9,2.6s4.2-0.6,5.5-1.8c1.4-1.2,2-3.1,2-5.8v-3c-0.7,1.4-1.8,2.5-3.1,3.3c-1.4,0.8-2.9,1.2-4.6,1.2
		c-3.1,0-5.7-1.1-7.7-3.3c-2-2.2-3-4.9-3-8.1c0-3.2,1-5.9,3-8.1c2-2.2,4.5-3.3,7.6-3.3c3.1,0,5.6,1.3,7.5,3.8v-3.5H1735.6z
		 M1717.4,710.7c0,1.9,0.6,3.6,1.8,5c1.2,1.4,2.8,2.1,4.8,2.1c2,0,3.6-0.7,4.9-2c1.2-1.3,1.9-3,1.9-5c0-2-0.6-3.7-1.9-5.1
		c-1.3-1.4-2.9-2.1-4.9-2.1c-2,0-3.6,0.7-4.8,2.2C1718,707.1,1717.4,708.8,1717.4,710.7z"/>
	<path fill="#5B5B5B" d="M1759.1,712.6v-12.7h4.9v23.4h-4.9V719c-0.8,1.4-1.9,2.6-3.3,3.4c-1.4,0.8-2.9,1.2-4.5,1.2
		c-2.6,0-4.8-0.8-6.4-2.4c-1.6-1.6-2.4-3.9-2.4-7v-14.3h4.9v12.8c0,4.3,1.8,6.5,5.4,6.5c1.7,0,3.2-0.6,4.4-1.7
		C1758.5,716.4,1759.1,714.7,1759.1,712.6z"/>
	<path fill="#5B5B5B" d="M1776.1,723.3h-4.9v-32.6h4.9V723.3z"/>
	<path fill="#5B5B5B" d="M1802.2,723.3h-4.5v-3.1c-1.9,2.3-4.5,3.5-7.8,3.5c-2.4,0-4.5-0.7-6-2.1c-1.6-1.4-2.4-3.2-2.4-5.5
		c0-2.3,0.9-4,2.6-5.2c1.7-1.1,4-1.7,6.9-1.7h6.4v-0.9c0-3.1-1.7-4.7-5.2-4.7c-2.2,0-4.4,0.8-6.8,2.4l-2.2-3.1
		c2.8-2.3,6.1-3.4,9.7-3.4c2.8,0,5,0.7,6.8,2.1c1.7,1.4,2.6,3.6,2.6,6.6V723.3z M1797.3,714.6v-2h-5.5c-3.5,0-5.3,1.1-5.3,3.3
		c0,1.1,0.4,2,1.3,2.6c0.9,0.6,2.1,0.9,3.7,0.9s2.9-0.4,4.1-1.3C1796.7,717.3,1797.3,716.1,1797.3,714.6z"/>
	<path fill="#5B5B5B" d="M1821.3,704.5c-2.4,0-4.3,0.8-5.5,2.4c-1.2,1.6-1.8,3.7-1.8,6.4v10h-4.9v-23.4h4.9v4.7
		c0.8-1.5,1.9-2.7,3.2-3.6c1.4-0.9,2.8-1.4,4.3-1.5l0,5C1821.5,704.5,1821.4,704.5,1821.3,704.5z"/>
	<path fill="#5B5B5B" d="M1831.5,723.3h-4.9v-32.6h4.9V723.3z"/>
	<path fill="#5B5B5B" d="M1841.5,732.6c-2.1,0-4.1-0.8-5.8-2.3l2.2-4c1,1,2.1,1.5,3.2,1.5c1.1,0,2-0.4,2.7-1.2c0.7-0.8,1-1.7,1-2.6
		c0-0.4-3.2-8.4-9.5-24.1h5.3l7,17.2l7-17.2h5.3l-11.4,27.8c-0.7,1.5-1.6,2.7-2.9,3.6C1844.5,732.2,1843.1,732.6,1841.5,732.6z"/>
</g>
<g enable-background="new    ">
	<path fill="#5B5B5B" d="M1438.3,777.4c-1.1-1.1-1.7-2.4-1.7-4c0-1.6,0.6-2.9,1.7-4c1.1-1.1,2.4-1.7,4-1.7s2.9,0.6,4,1.7
		c1.1,1.1,1.7,2.5,1.7,4c0,1.6-0.6,2.9-1.7,4c-1.1,1.1-2.4,1.7-4,1.7S1439.4,778.5,1438.3,777.4z"/>
</g>
<g enable-background="new    ">
	<path fill="#5B5B5B" d="M1482.4,760.6c-1.5,0-2.8,0.3-3.7,0.9s-1.5,1.5-1.5,2.8c0,1.2,0.5,2.2,1.5,2.9s3,1.4,6.2,2.1
		c3.2,0.8,5.5,1.8,7.1,3.2c1.6,1.4,2.4,3.4,2.4,6.1s-1,4.9-3,6.5s-4.7,2.5-8,2.5c-4.8,0-9.1-1.7-12.8-5l3.3-3.9c3.1,2.7,6.3,4,9.7,4
		c1.7,0,3-0.4,4-1.1c1-0.7,1.5-1.7,1.5-2.9s-0.5-2.1-1.4-2.8c-0.9-0.7-2.5-1.3-4.8-1.8s-4-1-5.1-1.5c-1.2-0.5-2.2-1-3.1-1.8
		c-1.8-1.4-2.7-3.5-2.7-6.3c0-2.8,1-5,3.1-6.6c2.1-1.5,4.6-2.3,7.7-2.3c2,0,3.9,0.3,5.9,1c1.9,0.6,3.6,1.6,5,2.7l-2.8,3.9
		c-0.9-0.8-2.1-1.5-3.7-2S1483.9,760.6,1482.4,760.6z"/>
	<path fill="#5B5B5B" d="M1505.7,767.9v11.9c0,1.1,0.3,2,0.9,2.7c0.6,0.7,1.4,1,2.5,1c1.1,0,2.1-0.5,3-1.5l2,3.5
		c-1.7,1.6-3.6,2.3-5.7,2.3s-3.9-0.7-5.4-2.2c-1.5-1.5-2.2-3.4-2.2-5.9v-11.7h-2.9v-4h2.9v-7.3h4.9v7.3h6.2v4H1505.7z"/>
	<path fill="#5B5B5B" d="M1537.4,784.2c-2.3,2.3-5.3,3.5-8.8,3.5s-6.5-1.2-8.8-3.5c-2.3-2.3-3.5-5.2-3.5-8.6s1.2-6.2,3.5-8.6
		c2.3-2.3,5.3-3.5,8.8-3.5s6.5,1.2,8.8,3.5c2.3,2.3,3.5,5.2,3.5,8.6S1539.8,781.8,1537.4,784.2z M1523.3,781.1
		c1.4,1.4,3.2,2.1,5.3,2.1s3.9-0.7,5.3-2.1c1.4-1.4,2.1-3.3,2.1-5.5c0-2.3-0.7-4.1-2.1-5.5c-1.4-1.4-3.2-2.1-5.3-2.1
		s-3.9,0.7-5.3,2.1c-1.4,1.4-2.1,3.3-2.1,5.5C1521.2,777.9,1521.9,779.7,1523.3,781.1z"/>
	<path fill="#5B5B5B" d="M1559.1,763.5c3.1,0,5.8,1.1,8.1,3.3c2.2,2.2,3.3,5.1,3.3,8.7c0,3.6-1.1,6.5-3.3,8.8
		c-2.2,2.3-4.8,3.4-7.7,3.4s-5.6-1.3-7.9-3.9v12.1h-4.9v-31.9h4.9v4.1C1553.4,765,1555.9,763.5,1559.1,763.5z M1551.4,775.6
		c0,2.2,0.7,4.1,2,5.5c1.3,1.4,3,2.1,4.9,2.1s3.6-0.7,5.1-2.1s2.2-3.2,2.2-5.5s-0.7-4.1-2.1-5.6c-1.4-1.5-3.1-2.2-5.1-2.2
		s-3.6,0.7-5,2.2C1552,771.6,1551.4,773.4,1551.4,775.6z"/>
	<path fill="#5B5B5B" d="M1604.8,780.3c0,2.2-0.8,4-2.4,5.3c-1.6,1.3-3.7,2-6.2,2c-1.7,0-3.5-0.3-5.3-0.9c-1.8-0.6-3.5-1.5-4.9-2.6
		l2.4-3.8c2.7,2.1,5.4,3.1,7.9,3.1c1.1,0,2-0.3,2.6-0.8c0.6-0.5,1-1.2,1-2c0-1.2-1.6-2.2-4.7-3.2c-0.2-0.1-0.4-0.1-0.5-0.2
		c-4.9-1.3-7.3-3.5-7.3-6.6c0-2.2,0.8-3.9,2.5-5.2c1.7-1.3,3.9-2,6.6-2c2.7,0,5.2,0.8,7.7,2.4l-1.8,3.7c-1.9-1.3-4-1.9-6.2-1.9
		c-1.2,0-2.1,0.2-2.9,0.6c-0.7,0.4-1.1,1.1-1.1,1.9c0,0.8,0.4,1.3,1.1,1.7c0.5,0.3,1.3,0.5,2.2,0.7c1,0.2,1.8,0.5,2.5,0.7
		c0.7,0.2,1.4,0.5,2.1,0.8c0.7,0.3,1.4,0.7,2.2,1.2C1604,776.4,1604.8,778.1,1604.8,780.3z"/>
	<path fill="#5B5B5B" d="M1615.3,774.6v12.7h-4.9v-23.4h4.9v4.3c0.7-1.4,1.8-2.6,3.2-3.4c1.4-0.8,3-1.2,4.6-1.2
		c3.7,0,6.2,1.5,7.5,4.6c2.3-3.1,5.2-4.6,8.7-4.6c2.6,0,4.8,0.8,6.4,2.4s2.4,3.9,2.4,7v14.3h-4.9v-12.8c0-4.3-1.8-6.5-5.4-6.5
		c-1.7,0-3.1,0.5-4.4,1.6c-1.2,1.1-1.9,2.6-2,4.7v13h-4.9v-12.8c0-2.2-0.4-3.9-1.2-4.9c-0.8-1-2-1.6-3.7-1.6c-1.7,0-3.2,0.6-4.4,1.7
		S1615.3,772.5,1615.3,774.6z"/>
	<path fill="#5B5B5B" d="M1674.6,784.2c-2.3,2.3-5.3,3.5-8.8,3.5s-6.5-1.2-8.8-3.5c-2.3-2.3-3.5-5.2-3.5-8.6s1.2-6.2,3.5-8.6
		c2.3-2.3,5.3-3.5,8.8-3.5s6.5,1.2,8.8,3.5c2.3,2.3,3.5,5.2,3.5,8.6S1676.9,781.8,1674.6,784.2z M1660.5,781.1
		c1.4,1.4,3.2,2.1,5.3,2.1c2.1,0,3.9-0.7,5.3-2.1c1.4-1.4,2.1-3.3,2.1-5.5c0-2.3-0.7-4.1-2.1-5.5c-1.4-1.4-3.2-2.1-5.3-2.1
		c-2.1,0-3.9,0.7-5.3,2.1c-1.4,1.4-2.1,3.3-2.1,5.5C1658.4,777.9,1659.1,779.7,1660.5,781.1z"/>
	<path fill="#5B5B5B" d="M1688.6,787.3h-4.9v-32.6h4.9v19.2l9.5-9.9h6.3l-8.9,9.3l9.5,14.1h-6l-7-10.3l-3.6,3.6V787.3z"/>
	<path fill="#5B5B5B" d="M1709.6,759.2c-0.6-0.6-0.9-1.3-0.9-2.2c0-0.8,0.3-1.6,0.9-2.2c0.6-0.6,1.3-0.9,2.2-0.9
		c0.9,0,1.6,0.3,2.2,0.9c0.6,0.6,0.9,1.3,0.9,2.2c0,0.9-0.3,1.6-0.9,2.2s-1.3,0.9-2.2,0.9C1710.9,760.2,1710.2,759.8,1709.6,759.2z
		 M1714.2,787.3h-4.9v-23.4h4.9V787.3z"/>
	<path fill="#5B5B5B" d="M1726.3,774.6v12.7h-4.9v-23.4h4.9v4.3c0.8-1.4,1.9-2.6,3.3-3.4c1.4-0.8,2.9-1.2,4.5-1.2
		c2.6,0,4.8,0.8,6.4,2.4s2.4,3.9,2.4,7v14.3h-4.9v-12.8c0-4.3-1.8-6.5-5.4-6.5c-1.7,0-3.2,0.6-4.4,1.7
		C1726.9,770.8,1726.3,772.5,1726.3,774.6z"/>
	<path fill="#5B5B5B" d="M1771.4,763.9v20.4c0,4.1-1.1,7.2-3.4,9.3s-5.1,3.1-8.6,3.1c-3.5,0-6.7-1.1-9.5-3.3l2.3-3.7
		c2.3,1.7,4.6,2.6,6.9,2.6s4.2-0.6,5.5-1.8c1.4-1.2,2-3.1,2-5.8v-3c-0.7,1.4-1.8,2.5-3.1,3.3c-1.4,0.8-2.9,1.2-4.6,1.2
		c-3.1,0-5.7-1.1-7.7-3.3c-2-2.2-3-4.9-3-8.1c0-3.2,1-5.9,3-8.1c2-2.2,4.5-3.3,7.6-3.3s5.6,1.3,7.5,3.8v-3.5H1771.4z M1753.1,774.7
		c0,1.9,0.6,3.6,1.8,5c1.2,1.4,2.8,2.1,4.8,2.1s3.6-0.7,4.9-2c1.2-1.3,1.9-3,1.9-5s-0.6-3.7-1.9-5.1c-1.3-1.4-2.9-2.1-4.9-2.1
		c-2,0-3.6,0.7-4.8,2.2S1753.1,772.8,1753.1,774.7z"/>
</g>
<rect x="586.2" y="1276.3" fill="none" width="877.3" height="225"/>
<g enable-background="new    ">
	<path fill="#FFFFFF" d="M612.6,1302.2h-4.6l-9.8-24.5h4.6l7.5,18.3l7.5-18.3h4.6L612.6,1302.2z"/>
	<path fill="#FFFFFF" d="M625.6,1279.9c-0.5-0.5-0.7-1.1-0.7-1.8c0-0.7,0.2-1.3,0.7-1.8c0.5-0.5,1.1-0.7,1.8-0.7s1.3,0.2,1.8,0.7
		c0.5,0.5,0.7,1.1,0.7,1.8c0,0.7-0.2,1.3-0.7,1.8s-1.1,0.7-1.8,0.7S626.1,1280.4,625.6,1279.9z M629.3,1302.2h-3.9v-18.6h3.9V1302.2
		z"/>
	<path fill="#FFFFFF" d="M648.2,1296.7c0,1.8-0.6,3.2-1.9,4.3c-1.3,1.1-2.9,1.6-4.9,1.6c-1.4,0-2.8-0.2-4.2-0.7
		c-1.5-0.5-2.7-1.2-3.9-2.1l1.9-3c2.2,1.6,4.3,2.5,6.3,2.5c0.9,0,1.6-0.2,2.1-0.6c0.5-0.4,0.8-0.9,0.8-1.6c0-0.9-1.2-1.8-3.7-2.5
		c-0.2-0.1-0.3-0.1-0.4-0.1c-3.9-1.1-5.8-2.8-5.8-5.3c0-1.7,0.7-3.1,2-4.2c1.3-1,3.1-1.6,5.2-1.6s4.2,0.6,6.1,1.9l-1.5,2.9
		c-1.5-1-3.2-1.5-4.9-1.5c-0.9,0-1.7,0.2-2.3,0.5c-0.6,0.3-0.9,0.8-0.9,1.5c0,0.6,0.3,1.1,0.9,1.3c0.4,0.2,1,0.4,1.8,0.6
		c0.8,0.2,1.4,0.4,2,0.6c0.6,0.2,1.1,0.4,1.7,0.6c0.5,0.2,1.1,0.6,1.8,1C647.6,1293.6,648.2,1294.9,648.2,1296.7z"/>
	<path fill="#FFFFFF" d="M652.9,1279.9c-0.5-0.5-0.7-1.1-0.7-1.8c0-0.7,0.2-1.3,0.7-1.8c0.5-0.5,1.1-0.7,1.8-0.7s1.3,0.2,1.8,0.7
		c0.5,0.5,0.7,1.1,0.7,1.8c0,0.7-0.2,1.3-0.7,1.8s-1.1,0.7-1.8,0.7S653.4,1280.4,652.9,1279.9z M656.6,1302.2h-3.9v-18.6h3.9V1302.2
		z"/>
	<path fill="#FFFFFF" d="M667.1,1286.8v9.5c0,0.9,0.2,1.6,0.7,2.1c0.5,0.5,1.1,0.8,2,0.8c0.8,0,1.6-0.4,2.4-1.2l1.6,2.8
		c-1.4,1.2-2.9,1.9-4.6,1.9s-3.1-0.6-4.3-1.7c-1.2-1.2-1.8-2.7-1.8-4.7v-9.4h-2.3v-3.2h2.3v-5.8h3.9v5.8h4.9v3.2H667.1z"/>
	<path fill="#FFFFFF" d="M688.8,1309.7c-1.7,0-3.2-0.6-4.6-1.9l1.8-3.2c0.8,0.8,1.7,1.2,2.5,1.2c0.9,0,1.6-0.3,2.1-0.9
		c0.5-0.6,0.8-1.3,0.8-2.1c0-0.3-2.5-6.7-7.5-19.2h4.2l5.6,13.7l5.6-13.7h4.2l-9,22.1c-0.5,1.2-1.3,2.2-2.3,2.9
		C691.2,1309.3,690.1,1309.7,688.8,1309.7z"/>
	<path fill="#FFFFFF" d="M721.9,1299.7c-1.9,1.9-4.2,2.8-7,2.8s-5.1-0.9-7-2.8c-1.9-1.9-2.8-4.1-2.8-6.8c0-2.7,0.9-5,2.8-6.8
		c1.9-1.9,4.2-2.8,7-2.8s5.1,0.9,7,2.8c1.9,1.9,2.8,4.1,2.8,6.8C724.7,1295.6,723.7,1297.9,721.9,1299.7z M710.6,1297.3
		c1.1,1.1,2.5,1.7,4.2,1.7c1.7,0,3.1-0.6,4.2-1.7c1.1-1.1,1.7-2.6,1.7-4.4s-0.6-3.3-1.7-4.4c-1.1-1.1-2.5-1.7-4.2-1.7
		c-1.7,0-3.1,0.6-4.2,1.7c-1.1,1.1-1.7,2.6-1.7,4.4S709.5,1296.2,710.6,1297.3z"/>
	<path fill="#FFFFFF" d="M742.2,1293.7v-10.1h3.9v18.6h-3.9v-3.4c-0.6,1.1-1.5,2-2.6,2.7c-1.1,0.7-2.3,1-3.6,1
		c-2.1,0-3.8-0.6-5.1-1.9c-1.3-1.3-1.9-3.1-1.9-5.6v-11.4h3.9v10.2c0,3.4,1.4,5.1,4.3,5.1c1.4,0,2.5-0.4,3.5-1.3
		C741.6,1296.7,742.2,1295.4,742.2,1293.7z"/>
	<path fill="#FFFFFF" d="M761.5,1287.3c-1.9,0-3.4,0.6-4.4,1.9c-1,1.3-1.5,3-1.5,5.1v8h-3.9v-18.6h3.9v3.7c0.6-1.2,1.5-2.1,2.6-2.9
		s2.2-1.1,3.4-1.2l0,4C761.7,1287.3,761.6,1287.3,761.5,1287.3z"/>
	<path fill="#FFFFFF" d="M776.7,1299.9c-1.8-1.8-2.6-4.1-2.6-7s0.9-5.2,2.7-6.9c1.8-1.7,3.9-2.6,6.4-2.6s4.5,1.1,6,3.2v-10.2h3.9v26
		h-3.9v-2.8c-1.4,2.1-3.6,3.1-6.3,3.1C780.5,1302.5,778.4,1301.6,776.7,1299.9z M778,1293c0,1.8,0.6,3.2,1.7,4.4
		c1.1,1.1,2.5,1.7,4,1.7c1.5,0,2.8-0.6,3.9-1.7c1.1-1.1,1.6-2.6,1.6-4.4c0-1.8-0.5-3.3-1.6-4.4c-1.1-1.2-2.4-1.8-4-1.8
		c-1.6,0-2.9,0.6-4,1.8C778.5,1289.7,778,1291.2,778,1293z"/>
	<path fill="#FFFFFF" d="M814.4,1299.7c-1.9,1.9-4.2,2.8-7,2.8s-5.1-0.9-7-2.8c-1.9-1.9-2.8-4.1-2.8-6.8c0-2.7,0.9-5,2.8-6.8
		c1.9-1.9,4.2-2.8,7-2.8s5.1,0.9,7,2.8c1.9,1.9,2.8,4.1,2.8,6.8C817.2,1295.6,816.2,1297.9,814.4,1299.7z M803.1,1297.3
		c1.1,1.1,2.5,1.7,4.2,1.7c1.7,0,3.1-0.6,4.2-1.7c1.1-1.1,1.7-2.6,1.7-4.4s-0.6-3.3-1.7-4.4c-1.1-1.1-2.5-1.7-4.2-1.7
		c-1.7,0-3.1,0.6-4.2,1.7c-1.1,1.1-1.7,2.6-1.7,4.4S802,1296.2,803.1,1297.3z"/>
	<path fill="#FFFFFF" d="M829.9,1302.5c-2.6,0-4.8-0.9-6.7-2.6c-1.9-1.8-2.8-4.1-2.8-6.9c0-2.8,1-5.2,2.9-7s4.3-2.7,7.1-2.7
		s5.2,1,7.1,2.9l-2.3,2.8c-1.6-1.4-3.2-2.1-4.9-2.1c-1.6,0-3.1,0.5-4.3,1.6c-1.2,1.1-1.8,2.5-1.8,4.2s0.6,3.2,1.8,4.4
		c1.2,1.2,2.7,1.8,4.4,1.8c1.7,0,3.4-0.8,4.9-2.4l2.3,2.5C835.5,1301.4,832.9,1302.5,829.9,1302.5z"/>
	<path fill="#FFFFFF" d="M846.6,1286.8v9.5c0,0.9,0.2,1.6,0.7,2.1c0.5,0.5,1.1,0.8,2,0.8c0.8,0,1.6-0.4,2.4-1.2l1.6,2.8
		c-1.4,1.2-2.9,1.9-4.6,1.9s-3.1-0.6-4.3-1.7c-1.2-1.2-1.8-2.7-1.8-4.7v-9.4h-2.3v-3.2h2.3v-5.8h3.9v5.8h4.9v3.2H846.6z"/>
	<path fill="#FFFFFF" d="M871.9,1299.7c-1.9,1.9-4.2,2.8-7,2.8s-5.1-0.9-7-2.8c-1.9-1.9-2.8-4.1-2.8-6.8c0-2.7,0.9-5,2.8-6.8
		c1.9-1.9,4.2-2.8,7-2.8s5.1,0.9,7,2.8c1.9,1.9,2.8,4.1,2.8,6.8C874.7,1295.6,873.8,1297.9,871.9,1299.7z M860.7,1297.3
		c1.1,1.1,2.5,1.7,4.2,1.7c1.7,0,3.1-0.6,4.2-1.7c1.1-1.1,1.7-2.6,1.7-4.4s-0.6-3.3-1.7-4.4c-1.1-1.1-2.5-1.7-4.2-1.7
		c-1.7,0-3.1,0.6-4.2,1.7c-1.1,1.1-1.7,2.6-1.7,4.4S859.5,1296.2,860.7,1297.3z"/>
	<path fill="#FFFFFF" d="M888.9,1287.3c-1.9,0-3.4,0.6-4.4,1.9c-1,1.3-1.5,3-1.5,5.1v8h-3.9v-18.6h3.9v3.7c0.6-1.2,1.5-2.1,2.6-2.9
		s2.2-1.1,3.4-1.2l0,4C889,1287.3,889,1287.3,888.9,1287.3z"/>
	<path fill="#FFFFFF" d="M907.5,1282.1v1.5h4.9v3.2h-4.9v15.5h-3.9v-15.5h-2.3v-3.2h2.3v-1.4c0-2,0.6-3.5,1.8-4.7
		c1.2-1.2,2.6-1.7,4.3-1.7s3.2,0.6,4.6,1.9l-1.6,2.8c-0.8-0.8-1.6-1.2-2.4-1.2c-0.8,0-1.5,0.3-2,0.8
		C907.7,1280.5,907.5,1281.2,907.5,1282.1z"/>
	<path fill="#FFFFFF" d="M931.3,1299.7c-1.9,1.9-4.2,2.8-7,2.8s-5.1-0.9-7-2.8c-1.9-1.9-2.8-4.1-2.8-6.8c0-2.7,0.9-5,2.8-6.8
		c1.9-1.9,4.2-2.8,7-2.8s5.1,0.9,7,2.8c1.9,1.9,2.8,4.1,2.8,6.8C934.1,1295.6,933.2,1297.9,931.3,1299.7z M920.1,1297.3
		c1.1,1.1,2.5,1.7,4.2,1.7c1.7,0,3.1-0.6,4.2-1.7c1.1-1.1,1.7-2.6,1.7-4.4s-0.6-3.3-1.7-4.4c-1.1-1.1-2.5-1.7-4.2-1.7
		c-1.7,0-3.1,0.6-4.2,1.7c-1.1,1.1-1.7,2.6-1.7,4.4S919,1296.2,920.1,1297.3z"/>
	<path fill="#FFFFFF" d="M948.3,1287.3c-1.9,0-3.4,0.6-4.4,1.9c-1,1.3-1.5,3-1.5,5.1v8h-3.9v-18.6h3.9v3.7c0.6-1.2,1.5-2.1,2.6-2.9
		s2.2-1.1,3.4-1.2l0,4C948.5,1287.3,948.4,1287.3,948.3,1287.3z"/>
	<path fill="#FFFFFF" d="M977.1,1302.2h-3.6v-2.5c-1.5,1.8-3.6,2.8-6.2,2.8c-1.9,0-3.5-0.5-4.8-1.6c-1.3-1.1-1.9-2.6-1.9-4.4
		s0.7-3.2,2-4.1c1.4-0.9,3.2-1.4,5.5-1.4h5.1v-0.7c0-2.5-1.4-3.7-4.1-3.7c-1.7,0-3.5,0.6-5.4,1.9l-1.8-2.5c2.3-1.8,4.8-2.7,7.7-2.7
		c2.2,0,4,0.6,5.4,1.7c1.4,1.1,2.1,2.9,2.1,5.2V1302.2z M973.2,1295.3v-1.6h-4.4c-2.8,0-4.2,0.9-4.2,2.7c0,0.9,0.4,1.6,1.1,2.1
		c0.7,0.5,1.7,0.7,2.9,0.7c1.2,0,2.3-0.4,3.3-1.1C972.7,1297.4,973.2,1296.5,973.2,1295.3z"/>
	<path fill="#FFFFFF" d="M1000.5,1302.5c-2.6,0-4.8-0.9-6.7-2.6c-1.9-1.8-2.8-4.1-2.8-6.9c0-2.8,1-5.2,2.9-7s4.3-2.7,7.1-2.7
		s5.2,1,7.1,2.9l-2.3,2.8c-1.6-1.4-3.2-2.1-4.9-2.1c-1.6,0-3.1,0.5-4.3,1.6c-1.2,1.1-1.8,2.5-1.8,4.2s0.6,3.2,1.8,4.4
		c1.2,1.2,2.7,1.8,4.4,1.8c1.7,0,3.4-0.8,4.9-2.4l2.3,2.5C1006,1301.4,1003.4,1302.5,1000.5,1302.5z"/>
	<path fill="#FFFFFF" d="M1016.3,1292.2v10.1h-3.9v-26h3.9v10.7c0.6-1.1,1.4-2,2.5-2.7c1.1-0.7,2.4-1,3.7-1c2.1,0,3.8,0.6,5.1,1.9
		c1.3,1.3,1.9,3.1,1.9,5.6v11.4h-3.9V1292c0-3.4-1.4-5.1-4.3-5.1c-1.4,0-2.5,0.4-3.5,1.3C1016.8,1289.1,1016.3,1290.4,1016.3,1292.2
		z"/>
	<path fill="#FFFFFF" d="M1052.3,1294.6h-14.6c0.1,1.4,0.7,2.4,1.9,3.3c1.1,0.8,2.5,1.2,3.9,1.2c2.3,0,4.1-0.7,5.3-2.2l2.2,2.5
		c-2,2.1-4.6,3.1-7.8,3.1c-2.6,0-4.8-0.9-6.7-2.6c-1.8-1.7-2.7-4.1-2.7-7s0.9-5.3,2.8-7c1.9-1.7,4.1-2.6,6.6-2.6
		c2.5,0,4.7,0.8,6.5,2.3c1.8,1.5,2.7,3.6,2.7,6.3V1294.6z M1037.7,1291.6h10.7c0-1.6-0.5-2.8-1.5-3.6c-1-0.8-2.2-1.3-3.6-1.3
		s-2.7,0.4-3.9,1.3C1038.3,1288.9,1037.7,1290.1,1037.7,1291.6z"/>
	<path fill="#FFFFFF" d="M1064.9,1302.5c-2.6,0-4.8-0.9-6.7-2.6c-1.9-1.8-2.8-4.1-2.8-6.9c0-2.8,1-5.2,2.9-7s4.3-2.7,7.1-2.7
		s5.2,1,7.1,2.9l-2.3,2.8c-1.6-1.4-3.2-2.1-4.9-2.1s-3.1,0.5-4.3,1.6s-1.8,2.5-1.8,4.2s0.6,3.2,1.8,4.4c1.2,1.2,2.7,1.8,4.4,1.8
		c1.7,0,3.4-0.8,4.9-2.4l2.3,2.5C1070.5,1301.4,1067.9,1302.5,1064.9,1302.5z"/>
	<path fill="#FFFFFF" d="M1080.7,1302.2h-3.9v-26h3.9v15.3l7.6-7.9h5l-7.1,7.4l7.6,11.2h-4.8l-5.5-8.2l-2.8,2.9V1302.2z"/>
	<path fill="#FFFFFF" d="M1095.9,1293.6v-3.7h11.6v3.7H1095.9z"/>
	<path fill="#FFFFFF" d="M1125.9,1293.7v-10.1h3.9v18.6h-3.9v-3.4c-0.6,1.1-1.5,2-2.6,2.7c-1.1,0.7-2.3,1-3.6,1
		c-2.1,0-3.8-0.6-5.1-1.9c-1.3-1.3-1.9-3.1-1.9-5.6v-11.4h3.9v10.2c0,3.4,1.4,5.1,4.3,5.1c1.4,0,2.5-0.4,3.5-1.3
		C1125.4,1296.7,1125.9,1295.4,1125.9,1293.7z"/>
	<path fill="#FFFFFF" d="M1145.5,1283.3c2.5,0,4.6,0.9,6.4,2.6c1.8,1.7,2.7,4,2.7,6.9s-0.9,5.2-2.6,7c-1.8,1.8-3.8,2.7-6.2,2.7
		s-4.5-1-6.3-3.1v9.6h-3.9v-25.4h3.9v3.3C1140.9,1284.5,1143,1283.3,1145.5,1283.3z M1139.3,1293c0,1.8,0.5,3.2,1.6,4.4
		c1.1,1.1,2.4,1.7,3.9,1.7s2.9-0.6,4-1.7c1.1-1.1,1.7-2.6,1.7-4.4c0-1.8-0.6-3.3-1.7-4.4c-1.1-1.2-2.5-1.8-4-1.8s-2.9,0.6-4,1.8
		C1139.9,1289.7,1139.3,1291.2,1139.3,1293z"/>
	<path fill="#FFFFFF" d="M1186,1294.6h-14.6c0.1,1.4,0.7,2.4,1.9,3.3c1.1,0.8,2.5,1.2,3.9,1.2c2.3,0,4.1-0.7,5.3-2.2l2.2,2.5
		c-2,2.1-4.6,3.1-7.8,3.1c-2.6,0-4.8-0.9-6.7-2.6s-2.7-4.1-2.7-7s0.9-5.3,2.8-7c1.9-1.7,4.1-2.6,6.6-2.6c2.5,0,4.7,0.8,6.5,2.3
		c1.8,1.5,2.7,3.6,2.7,6.3V1294.6z M1171.4,1291.6h10.7c0-1.6-0.5-2.8-1.5-3.6c-1-0.8-2.2-1.3-3.6-1.3c-1.4,0-2.7,0.4-3.9,1.3
		C1171.9,1288.9,1171.4,1290.1,1171.4,1291.6z"/>
	<path fill="#FFFFFF" d="M1195,1302.2l-7.5-18.6h4.1l5.7,14.1l5.7-14.1h4.1l-7.5,18.6H1195z"/>
	<path fill="#FFFFFF" d="M1227.4,1294.6h-14.6c0.1,1.4,0.7,2.4,1.9,3.3c1.1,0.8,2.5,1.2,3.9,1.2c2.3,0,4.1-0.7,5.3-2.2l2.2,2.5
		c-2,2.1-4.6,3.1-7.8,3.1c-2.6,0-4.8-0.9-6.7-2.6c-1.8-1.7-2.7-4.1-2.7-7s0.9-5.3,2.8-7c1.9-1.7,4.1-2.6,6.6-2.6
		c2.5,0,4.7,0.8,6.5,2.3c1.8,1.5,2.7,3.6,2.7,6.3V1294.6z M1212.8,1291.6h10.7c0-1.6-0.5-2.8-1.5-3.6c-1-0.8-2.2-1.3-3.6-1.3
		s-2.7,0.4-3.9,1.3C1213.4,1288.9,1212.8,1290.1,1212.8,1291.6z"/>
	<path fill="#FFFFFF" d="M1241.5,1287.3c-1.9,0-3.4,0.6-4.4,1.9s-1.5,3-1.5,5.1v8h-3.9v-18.6h3.9v3.7c0.6-1.2,1.5-2.1,2.6-2.9
		s2.2-1.1,3.4-1.2l0,4C1241.6,1287.3,1241.6,1287.3,1241.5,1287.3z"/>
	<path fill="#FFFFFF" d="M1248,1309.7c-1.7,0-3.2-0.6-4.6-1.9l1.8-3.2c0.8,0.8,1.7,1.2,2.5,1.2s1.6-0.3,2.1-0.9
		c0.5-0.6,0.8-1.3,0.8-2.1c0-0.3-2.5-6.7-7.5-19.2h4.2l5.6,13.7l5.6-13.7h4.2l-9,22.1c-0.5,1.2-1.3,2.2-2.3,2.9
		C1250.3,1309.3,1249.2,1309.7,1248,1309.7z"/>
	<path fill="#FFFFFF" d="M1284.9,1281c-2.2,0-3.8,0.7-4.8,2.2c-1,1.5-1.6,3.5-1.6,6c0.6-0.7,1.4-1.3,2.5-1.8
		c1.1-0.6,2.3-0.9,3.6-0.9c2.2,0,4,0.7,5.5,2.2s2.2,3.4,2.2,5.8c0,2.4-0.8,4.4-2.4,5.8c-1.6,1.5-3.6,2.2-6,2.2
		c-3.9,0-6.6-1.8-8.1-5.3c-0.8-2-1.3-4.3-1.3-6.8s0.3-4.6,0.8-6.3s1.3-3,2.2-4c1.8-1.9,4.1-2.9,6.7-2.9s5,0.8,7.2,2.5l-2.1,3
		c-0.5-0.5-1.3-0.9-2.2-1.3C1286.4,1281.2,1285.6,1281,1284.9,1281z M1284.1,1290.1c-1.4,0-2.6,0.4-3.5,1.2c-0.9,0.8-1.4,1.8-1.4,3
		c0,1.2,0.5,2.3,1.4,3.2c0.9,0.9,2.1,1.3,3.4,1.3c1.4,0,2.5-0.4,3.4-1.2c0.9-0.8,1.4-1.8,1.4-3.1s-0.4-2.3-1.3-3.2
		C1286.7,1290.6,1285.6,1290.1,1284.1,1290.1z"/>
	<path fill="#FFFFFF" d="M1310.6,1292.2v10.1h-3.9v-18.6h3.9v3.4c0.6-1.1,1.4-2,2.5-2.7c1.1-0.7,2.4-1,3.7-1c2.9,0,4.9,1.2,6,3.6
		c1.8-2.4,4.1-3.6,6.9-3.6c2.1,0,3.8,0.6,5.1,1.9c1.3,1.3,1.9,3.1,1.9,5.6v11.4h-3.9V1292c0-3.4-1.4-5.1-4.3-5.1
		c-1.3,0-2.5,0.4-3.5,1.3s-1.5,2.1-1.6,3.7v10.4h-3.9V1292c0-1.8-0.3-3.1-0.9-3.9s-1.6-1.2-3-1.2c-1.4,0-2.5,0.4-3.5,1.3
		C1311.1,1289.1,1310.6,1290.4,1310.6,1292.2z"/>
	<path fill="#FFFFFF" d="M1357.8,1299.7c-1.9,1.9-4.2,2.8-7,2.8s-5.1-0.9-7-2.8c-1.9-1.9-2.8-4.1-2.8-6.8c0-2.7,0.9-5,2.8-6.8
		c1.9-1.9,4.2-2.8,7-2.8s5.1,0.9,7,2.8c1.9,1.9,2.8,4.1,2.8,6.8C1360.6,1295.6,1359.6,1297.9,1357.8,1299.7z M1346.5,1297.3
		c1.1,1.1,2.5,1.7,4.2,1.7c1.7,0,3.1-0.6,4.2-1.7s1.7-2.6,1.7-4.4s-0.6-3.3-1.7-4.4c-1.1-1.1-2.5-1.7-4.2-1.7
		c-1.7,0-3.1,0.6-4.2,1.7c-1.1,1.1-1.7,2.6-1.7,4.4S1345.4,1296.2,1346.5,1297.3z"/>
	<path fill="#FFFFFF" d="M1368.9,1292.2v10.1h-3.9v-18.6h3.9v3.4c0.6-1.1,1.5-2,2.6-2.7c1.1-0.7,2.3-1,3.6-1c2.1,0,3.8,0.6,5.1,1.9
		s1.9,3.1,1.9,5.6v11.4h-3.9V1292c0-3.4-1.4-5.1-4.3-5.1c-1.4,0-2.5,0.4-3.5,1.3C1369.4,1289.1,1368.9,1290.4,1368.9,1292.2z"/>
	<path fill="#FFFFFF" d="M1392.2,1286.8v9.5c0,0.9,0.2,1.6,0.7,2.1c0.5,0.5,1.1,0.8,2,0.8c0.8,0,1.6-0.4,2.4-1.2l1.6,2.8
		c-1.4,1.2-2.9,1.9-4.6,1.9c-1.7,0-3.1-0.6-4.3-1.7c-1.2-1.2-1.8-2.7-1.8-4.7v-9.4h-2.3v-3.2h2.3v-5.8h3.9v5.8h4.9v3.2H1392.2z"/>
	<path fill="#FFFFFF" d="M1406,1292.2v10.1h-3.9v-26h3.9v10.7c0.6-1.1,1.4-2,2.5-2.7c1.1-0.7,2.4-1,3.7-1c2.1,0,3.8,0.6,5.1,1.9
		c1.3,1.3,1.9,3.1,1.9,5.6v11.4h-3.9V1292c0-3.4-1.4-5.1-4.3-5.1c-1.4,0-2.5,0.4-3.5,1.3C1406.5,1289.1,1406,1290.4,1406,1292.2z"/>
	<path fill="#FFFFFF" d="M1437.9,1296.7c0,1.8-0.6,3.2-1.9,4.3s-2.9,1.6-4.9,1.6c-1.4,0-2.8-0.2-4.2-0.7c-1.5-0.5-2.8-1.2-3.9-2.1
		l1.9-3c2.2,1.6,4.3,2.5,6.3,2.5c0.9,0,1.6-0.2,2.1-0.6c0.5-0.4,0.8-0.9,0.8-1.6c0-0.9-1.2-1.8-3.7-2.5c-0.2-0.1-0.3-0.1-0.4-0.1
		c-3.9-1.1-5.8-2.8-5.8-5.3c0-1.7,0.7-3.1,2-4.2c1.3-1,3.1-1.6,5.2-1.6s4.2,0.6,6.1,1.9l-1.5,2.9c-1.5-1-3.2-1.5-4.9-1.5
		c-0.9,0-1.7,0.2-2.3,0.5s-0.9,0.8-0.9,1.5c0,0.6,0.3,1.1,0.9,1.3c0.4,0.2,1,0.4,1.8,0.6c0.8,0.2,1.4,0.4,2,0.6
		c0.6,0.2,1.1,0.4,1.7,0.6c0.5,0.2,1.1,0.6,1.8,1C1437.3,1293.6,1437.9,1294.9,1437.9,1296.7z"/>
	<path fill="#FFFFFF" d="M1441.9,1300c0-0.7,0.3-1.4,0.8-1.9s1.1-0.8,1.8-0.8c0.7,0,1.3,0.3,1.8,0.8s0.8,1.1,0.8,1.8
		s-0.3,1.6-0.9,2.6l-2.1,3.5h-2l1.3-3.6C1442.3,1301.8,1441.9,1301.1,1441.9,1300z"/>
</g>
<g enable-background="new    ">
	<path fill="#FFFFFF" d="M800.3,1342.3c-2.1,2-4.6,3-7.5,3c-2.9,0-5.2-0.9-7.1-2.6c-1.9-1.8-2.8-4.1-2.8-7.1c0-3,1-5.3,2.9-7.1
		c1.9-1.8,4.2-2.6,6.7-2.6s4.8,0.8,6.6,2.3s2.7,3.7,2.7,6.4v2.8h-13.7c0.2,1,0.7,1.9,1.6,2.5c0.9,0.7,1.9,1,3.1,1
		c1.8,0,3.4-0.6,4.6-1.9L800.3,1342.3z M795.3,1331.1c-0.7-0.6-1.6-0.9-2.6-0.9s-2,0.3-2.9,0.9c-0.9,0.6-1.4,1.5-1.5,2.6h8.3
		C796.4,1332.6,796,1331.7,795.3,1331.1z"/>
	<path fill="#FFFFFF" d="M810.4,1345l-7.5-18.9h5.5l4.7,11.9l4.7-11.9h5.5l-7.5,18.9H810.4z"/>
	<path fill="#FFFFFF" d="M842.2,1342.3c-2.1,2-4.6,3-7.5,3c-2.9,0-5.2-0.9-7.1-2.6c-1.9-1.8-2.8-4.1-2.8-7.1c0-3,1-5.3,2.9-7.1
		c1.9-1.8,4.2-2.6,6.7-2.6s4.8,0.8,6.6,2.3s2.7,3.7,2.7,6.4v2.8H830c0.2,1,0.7,1.9,1.6,2.5c0.9,0.7,1.9,1,3.1,1
		c1.8,0,3.4-0.6,4.6-1.9L842.2,1342.3z M837.1,1331.1c-0.7-0.6-1.6-0.9-2.6-0.9s-2,0.3-2.9,0.9c-0.9,0.6-1.4,1.5-1.5,2.6h8.3
		C838.3,1332.6,837.9,1331.7,837.1,1331.1z"/>
	<path fill="#FFFFFF" d="M852.8,1334.5v10.5h-5.3v-18.8h5.3v2.1c1.6-1.6,3.4-2.4,5.4-2.4c2,0,3.6,0.7,5,2.1c1.3,1.4,2,3.3,2,5.6
		v11.5h-5.3v-10.6c0-2.9-1.1-4.3-3.2-4.3c-1.1,0-2,0.4-2.7,1.1C853.2,1331.9,852.8,1333.1,852.8,1334.5z"/>
	<path fill="#FFFFFF" d="M879.6,1323.8c-0.6-0.6-0.9-1.3-0.9-2.2c0-0.9,0.3-1.6,0.9-2.2c0.6-0.6,1.3-0.9,2.2-0.9
		c0.9,0,1.6,0.3,2.2,0.9c0.6,0.6,0.9,1.3,0.9,2.2c0,0.9-0.3,1.6-0.9,2.2c-0.6,0.6-1.3,0.9-2.2,0.9
		C880.9,1324.7,880.2,1324.4,879.6,1323.8z M884.4,1345h-5.3v-18.8h5.3V1345z"/>
	<path fill="#FFFFFF" d="M895.6,1325.1v1.3h4.6v3.8h-4.6v14.9h-5.3v-14.9h-2.2v-3.8h2.2v-1.2c0-2.1,0.6-3.7,1.9-4.9
		c1.2-1.2,2.8-1.8,4.7-1.8s3.5,0.7,5.1,2.1l-1.9,3.5c-0.8-0.9-1.6-1.3-2.6-1.3c-0.5,0-1,0.2-1.3,0.6
		C895.8,1323.8,895.6,1324.4,895.6,1325.1z"/>
	<path fill="#FFFFFF" d="M915.9,1352.5c-1.8,0-3.6-0.7-5.2-2.2l2.4-3.9c0.9,0.9,1.8,1.3,2.7,1.3c0.5,0,0.9-0.2,1.3-0.7
		c0.4-0.5,0.5-1,0.5-1.5c0-0.5-2.4-6.9-7.3-19.2h5.6l4.6,11.7l4.6-11.7h5.6l-8.8,22.2c-0.5,1.3-1.3,2.3-2.4,3
		C918.5,1352.1,917.3,1352.5,915.9,1352.5z"/>
	<path fill="#FFFFFF" d="M951.7,1335.6c0,2.7-0.9,5-2.8,6.9s-4.3,2.8-7.1,2.8s-5.2-0.9-7.1-2.8c-1.9-1.9-2.8-4.2-2.8-6.9
		s0.9-5,2.8-6.9c1.9-1.9,4.3-2.8,7.1-2.8s5.2,0.9,7.1,2.8C950.8,1330.6,951.7,1332.9,951.7,1335.6z M937.1,1335.6
		c0,1.5,0.4,2.8,1.3,3.8s2,1.5,3.4,1.5c1.4,0,2.5-0.5,3.4-1.5c0.9-1,1.3-2.2,1.3-3.8s-0.4-2.8-1.3-3.8c-0.9-1-2-1.5-3.4-1.5
		c-1.4,0-2.5,0.5-3.4,1.5C937.5,1332.8,937.1,1334.1,937.1,1335.6z"/>
	<path fill="#FFFFFF" d="M967.8,1336.4v-10.2h5.3v18.8h-5.3v-2.5c-1.3,1.8-3,2.8-5.1,2.8s-3.8-0.6-5.2-1.9c-1.4-1.3-2.1-3.2-2.1-5.8
		v-11.4h5.3v10.3c0,2.9,1.1,4.3,3.2,4.3c1.1,0,2-0.4,2.7-1.1S967.8,1337.8,967.8,1336.4z"/>
	<path fill="#FFFFFF" d="M1003.3,1345h-4.9v-2.3c-1.4,1.7-3,2.6-5,2.6s-3.7-0.6-5-1.7c-1.4-1.2-2-2.7-2-4.6c0-1.9,0.7-3.4,2.1-4.3
		c1.4-1,3.3-1.4,5.7-1.4h3.9v-0.1c0-2-1.1-3-3.2-3c-0.9,0-1.9,0.2-2.9,0.5c-1,0.4-1.9,0.8-2.6,1.3l-2.3-3.4c2.5-1.8,5.3-2.7,8.5-2.7
		c2.3,0,4.2,0.6,5.6,1.7c1.4,1.1,2.2,3,2.2,5.4V1345z M998,1337.9v-0.9h-3.3c-2.1,0-3.2,0.7-3.2,2c0,0.7,0.3,1.2,0.8,1.6
		c0.5,0.4,1.2,0.5,2.2,0.5c0.9,0,1.8-0.3,2.5-0.9S998,1338.8,998,1337.9z"/>
	<path fill="#FFFFFF" d="M1018,1330.8c-1.6,0-2.7,0.6-3.5,1.7s-1.2,2.6-1.2,4.4v8.2h-5.3v-18.8h5.3v2.5c0.7-0.8,1.5-1.4,2.5-2
		c1-0.5,2-0.8,3.1-0.8l0,4.9H1018z"/>
	<path fill="#FFFFFF" d="M1038.8,1342.3c-2.1,2-4.6,3-7.5,3c-2.9,0-5.2-0.9-7.1-2.6c-1.9-1.8-2.8-4.1-2.8-7.1c0-3,1-5.3,2.9-7.1
		c1.9-1.8,4.2-2.6,6.7-2.6s4.8,0.8,6.6,2.3s2.7,3.7,2.7,6.4v2.8h-13.7c0.2,1,0.7,1.9,1.6,2.5c0.9,0.7,1.9,1,3.1,1
		c1.8,0,3.4-0.6,4.6-1.9L1038.8,1342.3z M1033.8,1331.1c-0.7-0.6-1.6-0.9-2.6-0.9s-2,0.3-2.9,0.9c-0.9,0.6-1.4,1.5-1.5,2.6h8.3
		C1034.9,1332.6,1034.5,1331.7,1033.8,1331.1z"/>
	<path fill="#FFFFFF" d="M1059.7,1325.1v1.3h4.6v3.8h-4.6v14.9h-5.3v-14.9h-2.2v-3.8h2.2v-1.2c0-2.1,0.6-3.7,1.9-4.9
		c1.2-1.2,2.8-1.8,4.7-1.8c1.9,0,3.5,0.7,5.1,2.1l-1.9,3.5c-0.8-0.9-1.6-1.3-2.6-1.3c-0.5,0-1,0.2-1.3,0.6
		C1059.8,1323.8,1059.7,1324.4,1059.7,1325.1z"/>
	<path fill="#FFFFFF" d="M1083.8,1342.3c-2.1,2-4.6,3-7.5,3c-2.9,0-5.2-0.9-7.1-2.6c-1.9-1.8-2.8-4.1-2.8-7.1c0-3,1-5.3,2.9-7.1
		c1.9-1.8,4.2-2.6,6.7-2.6s4.8,0.8,6.6,2.3s2.7,3.7,2.7,6.4v2.8h-13.7c0.2,1,0.7,1.9,1.6,2.5c0.9,0.7,1.9,1,3.1,1
		c1.8,0,3.4-0.6,4.6-1.9L1083.8,1342.3z M1078.7,1331.1c-0.7-0.6-1.6-0.9-2.6-0.9s-2,0.3-2.9,0.9c-0.9,0.6-1.4,1.5-1.5,2.6h8.3
		C1079.9,1332.6,1079.5,1331.7,1078.7,1331.1z"/>
	<path fill="#FFFFFF" d="M1105.4,1342.3c-2.1,2-4.6,3-7.5,3s-5.2-0.9-7.1-2.6c-1.9-1.8-2.8-4.1-2.8-7.1c0-3,1-5.3,2.9-7.1
		s4.2-2.6,6.7-2.6s4.8,0.8,6.6,2.3s2.7,3.7,2.7,6.4v2.8h-13.7c0.2,1,0.7,1.9,1.6,2.5c0.9,0.7,1.9,1,3.1,1c1.8,0,3.4-0.6,4.6-1.9
		L1105.4,1342.3z M1100.4,1331.1c-0.7-0.6-1.6-0.9-2.6-0.9s-2,0.3-2.9,0.9c-0.9,0.6-1.4,1.5-1.5,2.6h8.3
		C1101.5,1332.6,1101.1,1331.7,1100.4,1331.1z"/>
	<path fill="#FFFFFF" d="M1116,1345h-5.3v-26h5.3V1345z"/>
	<path fill="#FFFFFF" d="M1121.4,1323.8c-0.6-0.6-0.9-1.3-0.9-2.2c0-0.9,0.3-1.6,0.9-2.2c0.6-0.6,1.3-0.9,2.2-0.9
		c0.9,0,1.6,0.3,2.2,0.9c0.6,0.6,0.9,1.3,0.9,2.2c0,0.9-0.3,1.6-0.9,2.2s-1.3,0.9-2.2,0.9C1122.8,1324.7,1122,1324.4,1121.4,1323.8z
		 M1126.2,1345h-5.3v-18.8h5.3V1345z"/>
	<path fill="#FFFFFF" d="M1136.5,1334.5v10.5h-5.3v-18.8h5.3v2.1c1.6-1.6,3.4-2.4,5.4-2.4s3.6,0.7,5,2.1c1.3,1.4,2,3.3,2,5.6v11.5
		h-5.3v-10.6c0-2.9-1.1-4.3-3.2-4.3c-1.1,0-2,0.4-2.8,1.1C1136.9,1331.9,1136.5,1333.1,1136.5,1334.5z"/>
	<path fill="#FFFFFF" d="M1167.5,1341.9c-1.7,1.8-3.7,2.8-6.2,2.8c-2.5,0-4.5-0.8-6.2-2.5c-1.7-1.7-2.5-3.9-2.5-6.7s0.9-5.1,2.6-6.9
		s3.7-2.7,6-2.7s4.1,0.9,5.6,2.8v-2.5h5.3v16.4c0,1.7-0.3,3.2-0.9,4.5s-1.4,2.3-2.3,3.1c-1.9,1.5-4.2,2.3-6.9,2.3
		c-1.4,0-2.8-0.2-4.3-0.7c-1.5-0.5-2.7-1.1-3.8-1.9l2-4c1.7,1.3,3.6,2,5.5,2c1.9,0,3.4-0.5,4.6-1.4
		C1167,1345.5,1167.5,1343.9,1167.5,1341.9z M1166.8,1335.2c0-1.5-0.4-2.7-1.3-3.6c-0.8-0.9-1.9-1.3-3.1-1.3c-1.2,0-2.3,0.4-3.2,1.3
		c-0.9,0.9-1.3,2-1.3,3.5s0.4,2.7,1.3,3.6c0.9,0.9,1.9,1.4,3.2,1.4c1.3,0,2.3-0.5,3.2-1.4
		C1166.4,1337.9,1166.8,1336.7,1166.8,1335.2z"/>
	<path fill="#FFFFFF" d="M1196,1345h-5.4l-6.4-18.8h5.4l3.7,11.4l3.7-11.4h5.1l3.7,11.4l3.7-11.4h5.5l-6.4,18.8h-5.5l-3.5-10.3
		L1196,1345z"/>
	<path fill="#FFFFFF" d="M1234.1,1342.3c-2.1,2-4.6,3-7.5,3c-2.9,0-5.2-0.9-7.1-2.6c-1.9-1.8-2.8-4.1-2.8-7.1c0-3,1-5.3,2.9-7.1
		c1.9-1.8,4.2-2.6,6.7-2.6s4.8,0.8,6.6,2.3c1.8,1.6,2.7,3.7,2.7,6.4v2.8h-13.7c0.2,1,0.7,1.9,1.6,2.5c0.9,0.7,1.9,1,3.1,1
		c1.8,0,3.4-0.6,4.6-1.9L1234.1,1342.3z M1229.1,1331.1c-0.7-0.6-1.6-0.9-2.6-0.9s-2,0.3-2.9,0.9c-0.9,0.6-1.4,1.5-1.5,2.6h8.3
		C1230.2,1332.6,1229.8,1331.7,1229.1,1331.1z"/>
	<path fill="#FFFFFF" d="M1244.7,1345h-5.3v-26h5.3V1345z"/>
	<path fill="#FFFFFF" d="M1254.9,1345h-5.3v-26h5.3V1345z"/>
	<path fill="#FFFFFF" d="M1260.3,1344.4c-0.6-0.6-0.9-1.3-0.9-2.2s0.3-1.6,0.9-2.2c0.6-0.6,1.3-0.9,2.2-0.9s1.6,0.3,2.2,0.9
		s0.9,1.3,0.9,2.2s-0.3,1.6-0.9,2.2c-0.6,0.6-1.3,0.9-2.2,0.9S1260.9,1345,1260.3,1344.4z"/>
</g>
<line fill="none" stroke="#FFFFFF" stroke-width="6" stroke-miterlimit="10" x1="788.1" y1="1356" x2="1260.1" y2="1356"/>
<g>
	<path fill="#84705B" d="M1216.2,757.9l6.7,0.6c4.5,0.4,8.5-3,8.9-7.5l6.4-73.2c0.4-4.5-3-8.5-7.5-8.9l-6.7-0.6
		c-4.5-0.4-8.5,3-8.9,7.5l-6.4,73.2C1208.3,753.5,1211.7,757.5,1216.2,757.9z"/>
	<path fill="#84705B" d="M1289.7,786.6l3.1-6c2.1-4,0.5-9-3.6-11.1l-65.3-33.6c-4-2.1-9-0.5-11.1,3.6l-3.1,6c-2.1,4-0.5,9,3.6,11.1
		l65.3,33.6C1282.7,792.2,1287.7,790.6,1289.7,786.6z"/>
	<path fill="#3B4346" d="M1228.2,642.4l2.8,0.2c9.3,0.8,16.3,7.8,15.7,15.7l-2.1,24.4l0,0l-1.5,17.7l-35.8-3.1l1.5-17.7l0,0
		l2.1-24.4C1211.5,647.3,1218.9,641.6,1228.2,642.4z"/>
	<path fill="#84705B" d="M1280.3,772.1l-3.6,7.1c-2.4,4.8-0.5,10.7,4.3,13.1l13.5,6.9c4.8,2.4,10.7,0.5,13.1-4.3l3.6-7.1
		c2.4-4.8,0.5-10.7-4.3-13.1l-13.5-6.9C1288.7,765.4,1282.7,767.3,1280.3,772.1z"/>
	<path fill="#84705B" d="M1227.8,1144.8L1227.8,1144.8c6.9,0,12.4-5.6,12.4-12.4v-113.7c0-6.9-5.6-12.4-12.4-12.4l0,0
		c-6.9,0-12.4,5.6-12.4,12.4v113.7C1215.3,1139.2,1220.9,1144.8,1227.8,1144.8z"/>
	<path fill="#84705B" d="M1231.7,1032.6L1231.7,1032.6c6.6-1.7,10.6-8.5,8.9-15.2l-21.5-82.1c-1.7-6.6-8.5-10.6-15.2-8.9l0,0
		c-6.6,1.7-10.6,8.5-8.9,15.2l21.5,82.1C1218.3,1030.4,1225.1,1034.3,1231.7,1032.6z"/>
	
		<rect x="1213.5" y="1154.3" transform="matrix(0.9974 7.168338e-02 -7.168338e-02 0.9974 86.0581 -87.0293)" fill="#FFFFFF" width="84" height="2.3"/>
	<rect x="1211" y="1115.1" fill="#FFFFFF" width="33.5" height="29.6"/>
	
		<rect x="1207.3" y="1151.9" transform="matrix(0.9974 7.168338e-02 -7.168338e-02 0.9974 85.9099 -84.6019)" fill="#FFFFFF" width="28.8" height="5.5"/>
	<path fill="#FFFFFF" d="M1224.7,1143.5l20.2,1.5c2.9,0.2,5.1,2.7,4.9,5.6l-0.3,3.5c-0.2,2.9-2.7,5.1-5.6,4.9l-20.2-1.5
		c-2.9-0.2-5.1-2.7-4.9-5.6l0.3-3.5C1219.3,1145.5,1221.8,1143.3,1224.7,1143.5z"/>
	<g>
		<path fill="#76FF43" d="M1253.4,1132.5c-2.2-0.2-4.3-0.2-6.3-0.2v-5.9h-38.7v22.7c-0.7,1.1-1,1.7-1,1.7l90,6.5
			C1297.5,1157.2,1290.4,1135.2,1253.4,1132.5z"/>
	</g>
	<g>
		<g>
			<defs>
				<path id="SVGID_8_" d="M1253.4,1132.5c-2.2-0.2-4.3-0.2-6.3-0.2v-5.9h-38.7v22.7c-0.7,1.1-1,1.7-1,1.7l90,6.5
					C1297.5,1157.2,1290.4,1135.2,1253.4,1132.5z"/>
			</defs>
			<clipPath id="SVGID_9_">
				<use xlink:href="#SVGID_8_"  overflow="visible"/>
			</clipPath>
			<polygon clip-path="url(#SVGID_9_)" fill="#FF45FF" points="1225.6,1159.6 1222.3,1159.6 1258.2,1121.4 1261.5,1121.4 			"/>
		</g>
		<g>
			<defs>
				<path id="SVGID_10_" d="M1253.4,1132.5c-2.2-0.2-4.3-0.2-6.3-0.2v-5.9h-38.7v22.7c-0.7,1.1-1,1.7-1,1.7l90,6.5
					C1297.5,1157.2,1290.4,1135.2,1253.4,1132.5z"/>
			</defs>
			<clipPath id="SVGID_11_">
				<use xlink:href="#SVGID_10_"  overflow="visible"/>
			</clipPath>
			<polygon clip-path="url(#SVGID_11_)" fill="#FF45FF" points="1234.6,1159.6 1231.3,1159.6 1267.2,1121.4 1270.5,1121.4 			"/>
		</g>
		<g>
			<defs>
				<path id="SVGID_12_" d="M1253.4,1132.5c-2.2-0.2-4.3-0.2-6.3-0.2v-5.9h-38.7v22.7c-0.7,1.1-1,1.7-1,1.7l90,6.5
					C1297.5,1157.2,1290.4,1135.2,1253.4,1132.5z"/>
			</defs>
			<clipPath id="SVGID_13_">
				<use xlink:href="#SVGID_12_"  overflow="visible"/>
			</clipPath>
			<polygon clip-path="url(#SVGID_13_)" fill="#FF45FF" points="1243.6,1159.6 1240.3,1159.6 1276.1,1121.4 1279.5,1121.4 			"/>
		</g>
		<g>
			<defs>
				<path id="SVGID_14_" d="M1253.4,1132.5c-2.2-0.2-4.3-0.2-6.3-0.2v-5.9h-38.7v22.7c-0.7,1.1-1,1.7-1,1.7l90,6.5
					C1297.5,1157.2,1290.4,1135.2,1253.4,1132.5z"/>
			</defs>
			<clipPath id="SVGID_15_">
				<use xlink:href="#SVGID_14_"  overflow="visible"/>
			</clipPath>
			<polygon clip-path="url(#SVGID_15_)" fill="#FF45FF" points="1252.6,1159.6 1249.2,1159.6 1285.1,1121.4 1288.5,1121.4 			"/>
		</g>
	</g>
	
		<rect x="1187.8" y="897.8" transform="matrix(0.9722 -0.2343 0.2343 0.9722 -187.3133 309.1241)" fill="#3B4346" width="39.2" height="90.2"/>
	
		<rect x="1188.9" y="899.9" transform="matrix(0.9722 -0.2343 0.2343 0.9722 -188.0361 307.1564)" opacity="0.1" enable-background="new    " width="19.6" height="90.2"/>
	<path fill="#84705B" d="M1116.7,1034.3L1116.7,1034.3c6.8,0.9,13.1-3.9,14-10.7l11.1-84.2c0.9-6.8-3.9-13.1-10.7-14l0,0
		c-6.8-0.9-13.1,3.9-14,10.7l-11.1,84.2C1105.1,1027.2,1109.9,1033.4,1116.7,1034.3z"/>
	
		<rect x="1108.5" y="897" transform="matrix(0.9886 0.1503 -0.1503 0.9886 154.4154 -158.8574)" fill="#3B4346" width="39.2" height="90.2"/>
	
		<rect x="1109.5" y="895.7" transform="matrix(0.9886 0.1503 -0.1503 0.9886 154.1232 -157.5432)" opacity="0.1" enable-background="new    " width="19.6" height="90.2"/>
	<g>
		<polygon fill="#84705B" points="1193.2,639.9 1141.7,639.9 1144.9,586.1 1189.9,586.1 		"/>
		<polygon opacity="0.1" fill="#443A35" enable-background="new    " points="1193.2,639.9 1141.7,639.9 1144.9,586.1 1189.9,586.1 
					"/>
		<ellipse fill="#84705B" cx="1174.6" cy="542.9" rx="62.3" ry="68.5"/>
		<path opacity="5.000000e-02" enable-background="new    " d="M1127.4,533.4c0-19.1,6.2-36.5,16.5-50.1
			c-18.9,11.8-31.6,34.1-31.6,59.7c0,37.8,27.9,68.5,62.3,68.5c3.9,0,7.8-0.4,11.5-1.2C1152.8,603.9,1127.4,571.9,1127.4,533.4z"/>
		<path fill="#211B15" d="M1105.1,530c2-9.3,5.4-41.1,19-36.5c-0.1-19.1,29.1-23,40.5-29.2c11.5-6.1,34,8.6,40.1,12.3
			c6.1,3.7,14.8,13.1,29.9,12.7c-0.8,13.9-34,15.6-49.1,14.3c-15.1-1.2-37.3-6.1-44.7,0c-7.5,6.1-4,20.5-4,20.5l0,0
			c1.2,3.4,1.4,6.2,1.4,6.2c6.1,16.8,0.1,20.8-4.2,11.1c-4.4-9.7-12.3-1.5-12.3-1.5l2.1,43.7c0,0-15-17.6-19.2-26.2
			C1101.4,551.5,1102.3,539.9,1105.1,530z"/>
		<g opacity="0.3">
			<path fill="#F4F4F4" d="M1107.4,552.5c-3-6-2.1-17.6,0.7-27.6c1.2-5.6,2.9-19.4,7.1-28.5c-6.4,7.8-8.7,26.7-10.1,33.5
				c-2.8,9.9-3.7,21.5-0.7,27.6c4.3,8.5,19.2,26.2,19.2,26.2l-0.4-9.2C1118.5,568.8,1110.4,558.5,1107.4,552.5z"/>
		</g>
		<path opacity="0.59" fill="#BDCAD6" enable-background="new    " d="M1178.5,539.4h-13.6c-6.1,0-11.1-5-11.1-11.1v-2.5
			c0-6.1,5-11.1,11.1-11.1h13.6c6.1,0,11.1,5,11.1,11.1v2.5C1189.6,534.4,1184.6,539.4,1178.5,539.4z"/>
		<path opacity="0.59" fill="#BDCAD6" enable-background="new    " d="M1226.5,539.4h-13.6c-6.1,0-11.1-5-11.1-11.1v-2.5
			c0-6.1,5-11.1,11.1-11.1h13.6c6.1,0,11.1,5,11.1,11.1v2.5C1237.6,534.4,1232.6,539.4,1226.5,539.4z"/>
		<path fill="none" stroke="#000000" stroke-width="5.0007" stroke-linecap="round" stroke-miterlimit="10" d="M1130,539.4"/>
		<path fill="none" stroke="#000000" stroke-width="5.0007" stroke-linecap="round" stroke-miterlimit="10" d="M1152.6,520.6"/>
		<g>
			<path d="M1154,524.3c0,0-0.4,0.3-1.1,0.9c-0.7,0.6-1.8,1.4-3,2.4c-1.3,1-2.7,2.1-4.3,3.3c-1.6,1.2-3.3,2.4-5,3.7
				c-1.7,1.2-3.4,2.5-5.1,3.5c-0.9,0.5-1.7,1-2.5,1.4s-1.5,0.9-2.2,1.3c-2.8,1.6-4.7,2.6-4.7,2.6c-1.2,0.6-2.8,0.1-3.4-1.1
				c-0.5-1-0.3-2.2,0.5-2.9c0,0,1.5-1.5,3.9-3.7c0.6-0.5,1.2-1.1,1.9-1.8c0.7-0.6,1.4-1.3,2.1-1.9c1.5-1.3,3.2-2.5,4.9-3.8
				c1.7-1.3,3.4-2.5,5-3.7c1.6-1.1,3.1-2.2,4.4-3.1c1.3-0.9,2.4-1.6,3.2-2.2c0.8-0.5,1.2-0.8,1.2-0.8c1.7-1.1,4-0.7,5.2,1
				C1155.9,520.9,1155.5,523.1,1154,524.3z"/>
		</g>
		<ellipse fill="#84705B" cx="1128.7" cy="550" rx="8.9" ry="14.5"/>
		<g>
			<g opacity="0.44">
				<path d="M1184.4,591.5c0,0,0.7-0.7,2-1.5c0.3-0.2,0.7-0.4,1.1-0.6c0.4-0.2,0.8-0.4,1.3-0.6c0.4-0.2,0.9-0.3,1.4-0.5
					c0.5-0.1,1-0.3,1.5-0.3l0.8-0.1c0.3,0,0.5,0,0.8,0c0.5-0.1,1,0,1.5,0s0.9,0.2,1.4,0.3c0.4,0.1,0.8,0.3,1.2,0.5
					c0.3,0.2,0.7,0.3,0.9,0.5c0.3,0.2,0.5,0.4,0.7,0.5c0.4,0.3,0.5,0.5,0.5,0.5l-0.1,0.1c0,0-0.3-0.1-0.7-0.2
					c-0.2-0.1-0.5-0.1-0.7-0.2c-0.3-0.1-0.6-0.1-1-0.2c-0.3-0.1-0.7-0.2-1.1-0.2c-0.4-0.1-0.8-0.2-1.3-0.2c-0.4-0.1-0.9-0.1-1.4-0.2
					h-0.7h-0.7c-0.5,0-1,0.1-1.4,0.2c-0.5,0.1-0.9,0.2-1.4,0.3c-0.9,0.3-1.7,0.5-2.4,0.9C1185.3,591,1184.5,591.6,1184.4,591.5
					L1184.4,591.5z"/>
			</g>
			<g>
				<g>
					<path d="M1163.2,526.3c0,0,0.3-1.1,1.1-2.6c0.2-0.4,0.4-0.8,0.7-1.2c0.2-0.4,0.6-0.8,0.9-1.3c0.3-0.4,0.7-0.9,1.1-1.3
						c0.4-0.4,0.8-0.8,1.2-1.2l0.7-0.6l0.7-0.5c0.4-0.4,1-0.6,1.4-0.8c0.5-0.3,1-0.4,1.5-0.5c0.2-0.1,0.5-0.1,0.7-0.2
						c0.2,0,0.5-0.1,0.7-0.1c0.4,0,0.8-0.1,1.2-0.1c0.4,0,0.7,0,0.9,0.1c0.5,0,0.8,0.1,0.8,0.1v0.1c0,0-0.3,0.1-0.7,0.2
						c-0.2,0.1-0.5,0.1-0.8,0.2c-0.3,0.1-0.7,0.2-1.1,0.3s-0.8,0.2-1.2,0.4c-0.4,0.2-0.9,0.3-1.3,0.6c-0.5,0.2-0.9,0.4-1.4,0.7
						l-0.7,0.4l-0.7,0.5c-0.5,0.3-0.8,0.7-1.2,1c-0.4,0.4-0.8,0.7-1.1,1.1c-0.7,0.8-1.3,1.5-1.7,2.2c-0.9,1.4-1.3,2.4-1.3,2.4
						L1163.2,526.3z"/>
				</g>
				<path fill="#1E1A16" d="M1173.7,535.2c2,0,3.8,0.4,5.3,1c0.6-1.4,1-3,1-4.7c0-4.9-2.8-8.9-6.3-8.9s-6.3,4-6.3,8.9
					c0,1.8,0.4,3.4,1,4.8C1169.9,535.6,1171.7,535.2,1173.7,535.2z"/>
				<path fill="#FFFFFF" d="M1173.5,524.3c-0.2-0.1,2.8,0.4,3.7,3.7C1177.2,527.9,1175.1,525.1,1173.5,524.3z"/>
				<g>
					<g>
						<path d="M1226.4,526.3c0,0-0.4-1-1.3-2.4c-0.4-0.7-1-1.4-1.7-2.2c-0.4-0.4-0.7-0.8-1.1-1.1s-0.8-0.7-1.2-1l-0.7-0.5l-0.7-0.4
							c-0.4-0.3-0.9-0.5-1.4-0.7c-0.4-0.2-0.9-0.4-1.3-0.6c-0.4-0.2-0.8-0.3-1.2-0.4c-0.4-0.1-0.7-0.3-1.1-0.3
							c-0.3-0.1-0.6-0.1-0.8-0.2c-0.5-0.1-0.7-0.2-0.7-0.2v-0.1c0,0,0.3,0,0.8-0.1c0.2,0,0.6,0,0.9-0.1c0.4,0,0.7,0,1.2,0.1
							c0.2,0,0.4,0.1,0.7,0.1c0.2,0,0.5,0.1,0.7,0.2c0.5,0.1,1,0.3,1.5,0.5c0.5,0.3,1,0.5,1.4,0.8l0.7,0.5l0.7,0.6
							c0.5,0.4,0.8,0.8,1.2,1.2c0.4,0.4,0.7,0.8,1.1,1.3c0.3,0.4,0.6,0.8,0.9,1.3c0.3,0.4,0.5,0.8,0.7,1.2c0.8,1.5,1.1,2.6,1.1,2.6
							L1226.4,526.3z"/>
					</g>
					<path fill="#1E1A16" d="M1216.1,535.2c2,0,3.8,0.4,5.3,1c0.6-1.4,1-3,1-4.7c0-4.9-2.8-8.9-6.3-8.9s-6.3,4-6.3,8.9
						c0,1.8,0.4,3.4,1,4.8C1212.2,535.6,1214.1,535.2,1216.1,535.2z"/>
					<path fill="#FFFFFF" d="M1215.9,524.3c-0.2-0.1,2.8,0.4,3.7,3.7C1219.6,527.9,1217.5,525.1,1215.9,524.3z"/>
				</g>
				<g opacity="0.44">
					<path d="M1196.4,541.7c0,0,1.1,1.3,2.6,3.4c0.7,1,1.6,2.3,2.3,3.7c0.8,1.4,1.5,3,2,4.7c0.2,0.9,0.3,1.8,0.3,2.7
						s-0.3,1.9-0.8,2.7s-1.2,1.4-1.9,1.8c-0.4,0.2-0.7,0.4-1.1,0.5s-0.7,0.2-1,0.3c-0.7,0.1-1.3,0.3-1.8,0.3c-0.5,0.1-1,0.1-1.4,0.1
						c-0.8,0-1.2,0-1.2,0c-0.6,0-1.1-0.5-1.1-1.1s0.5-1.1,1.1-1.1h0.1h0.1c0,0,0.4,0,1.1,0.1c0.4,0,0.8,0,1.3,0s1-0.1,1.6-0.1
						c0.3-0.1,0.6-0.1,0.9-0.2c0.3-0.1,0.6-0.2,0.9-0.3c0.5-0.3,1.1-0.6,1.5-1.2c0.4-0.5,0.7-1.2,0.7-1.9c0.1-0.7,0.1-1.5-0.1-2.3
						c-0.3-1.6-0.9-3.2-1.5-4.6c-0.6-1.4-1.4-2.7-2-3.8C1197.5,543,1196.4,541.7,1196.4,541.7z"/>
				</g>
			</g>
		</g>
		<g>
			<g>
				<path fill="#1E1A16" d="M1208.7,572.1c0,0,0.2,0.2,0.5,0.6c0.3,0.4,0.6,0.9,0.8,1.5c0.1,0.3,0.2,0.6,0.2,0.9
					c0,0.3-0.1,0.6-0.2,0.8s-0.2,0.4-0.3,0.5c-0.1,0.1-0.2,0.2-0.2,0.2h-0.1c0,0,0-0.1-0.1-0.2c0-0.1,0-0.3-0.1-0.5
					c0-0.2-0.1-0.4-0.1-0.7c0-0.2,0-0.5,0-0.8c0-0.6-0.2-1.1-0.4-1.5C1208.8,572.4,1208.6,572.2,1208.7,572.1L1208.7,572.1z"/>
			</g>
			<g>
				<path fill="#1E1A16" d="M1183.8,574.1c0,0-0.1,0.3-0.2,0.7s-0.2,1-0.2,1.6c0,0.3,0.1,0.5,0.1,0.8c0,0.2,0,0.5,0,0.7s0,0.4,0,0.5
					s0,0.2,0,0.2h-0.1c0,0-0.1,0-0.2-0.1s-0.3-0.2-0.4-0.5c-0.1-0.2-0.2-0.5-0.3-0.8c0-0.3,0-0.6,0.1-1c0.1-0.6,0.3-1.2,0.6-1.6
					C1183.5,574.3,1183.7,574.1,1183.8,574.1L1183.8,574.1z"/>
			</g>
			<g>
				<path fill="#1E1A16" d="M1209.7,574.3c0,0-1.4,1.1-3.7,2.2c-0.6,0.3-1.2,0.6-1.9,0.9c-0.7,0.3-1.4,0.6-2.2,0.8
					c-0.8,0.3-1.6,0.5-2.4,0.7s-1.7,0.3-2.6,0.4c-0.5,0.1-0.9,0-1.3,0.1c-0.4,0-0.9,0-1.3,0c-0.9,0-1.7-0.1-2.5-0.2
					c-1.6-0.2-3.1-0.6-4.3-1c-2.5-0.8-4-1.6-4-1.6s1.7,0.3,4.2,0.6c0.6,0.1,1.3,0.2,2,0.2c0.7,0.1,1.5,0.1,2.3,0.2
					c0.8,0.1,1.6,0.1,2.4,0.1c0.4,0,0.8,0,1.2,0c0.4,0,0.9,0,1.2-0.1c0.8-0.1,1.6-0.2,2.4-0.3c0.8-0.2,1.6-0.3,2.3-0.5
					c0.8-0.2,1.5-0.4,2.2-0.6c0.7-0.2,1.4-0.4,2-0.6C1208.1,574.9,1209.7,574.3,1209.7,574.3z"/>
			</g>
			<g>
				<path fill="#1E1A16" d="M1205.2,580.7c0,0-0.8,1-2.3,2.2c-0.7,0.6-1.6,1.3-2.7,1.8c-0.5,0.3-1.1,0.6-1.7,0.8s-1.2,0.4-1.9,0.5
					h-0.2h-0.3h-0.5c-0.3,0-0.7,0-1-0.1c-0.6-0.1-1.2-0.2-1.8-0.4c-1.2-0.4-2.2-0.8-3-1.3s-1.5-0.9-1.9-1.2s-0.7-0.5-0.7-0.5
					s0.3,0.1,0.8,0.4c0.5,0.3,1.2,0.6,2.1,0.9c0.9,0.4,1.9,0.7,3,1c0.6,0.2,1.1,0.2,1.7,0.3c0.3,0,0.6,0,0.9,0.1h0.5h0.2h0.2
					c0.6-0.1,1.2-0.2,1.7-0.4c0.6-0.2,1.1-0.4,1.6-0.7c1-0.5,2-1.1,2.7-1.6c0.8-0.5,1.4-0.9,1.9-1.3
					C1205,580.9,1205.2,580.7,1205.2,580.7z"/>
			</g>
		</g>
		<g>
			<path d="M1239.2,518.7c0-2.4-2.2-4.4-4.9-4.4h-9.7l0,0h-9.6l0,0h-4.9c-5.4,0-9.8,3.9-9.8,8.7v4.4l0,0l0,0
				c0,7.2,5.7,13.1,12.8,13.1h13.4c7,0,12.8-5.9,12.8-13.1l0,0l0,0l0,0v-8.7H1239.2z M1225.5,538.6h-11.6c-6.1,0-11.1-5-11.1-11.1
				l0,0v-3.7c0-4.1,3.8-7.4,8.5-7.4h2.6h1.6h8.4h1.6h2.6c4.7,0,8.5,3.3,8.5,7.4v3.7l0,0C1236.6,533.6,1231.6,538.6,1225.5,538.6z"/>
			<ellipse fill="#FFFFFF" cx="1235.4" cy="517.1" rx="1.5" ry="0.6"/>
		</g>
		<g>
			<path d="M1152.6,527.4L1152.6,527.4L1152.6,527.4L1152.6,527.4c0,7.2,5.7,13.1,12.8,13.1h13.4c7,0,12.8-5.9,12.8-13.1l0,0l0,0
				V523c0-4.8-4.4-8.7-9.8-8.7h-4.9l0,0h-9.6l0,0h-9.7c-2.7,0-4.9,2-4.9,4.4v8.7H1152.6z M1155.1,527.4L1155.1,527.4v-3.7
				c0-4.1,3.8-7.4,8.5-7.4h2.6h1.6h8.4h1.6h2.6c4.7,0,8.5,3.3,8.5,7.4v3.7l0,0c0,6.1-5,11.1-11.1,11.1h-11.6
				C1160.1,538.6,1155.1,533.6,1155.1,527.4z"/>
			<ellipse fill="#FFFFFF" cx="1156" cy="517.1" rx="1.5" ry="0.6"/>
		</g>
		<path fill="none" stroke="#000000" stroke-width="3.0004" stroke-miterlimit="10" d="M1190.5,523c0,0,5.3-5.3,10.7,0"/>
		<path opacity="0.3" fill="#F4F4F4" enable-background="new    " d="M1188.5,498.6c-15.1-1.2-37.3-6.1-44.7,0
			c-1.8,1.5-3,3.5-3.7,5.7c0.2-0.2,0.5-0.5,0.7-0.7c7.5-6.1,29.6-1.2,44.7,0c14.7,1.2,46.3-0.3,49-13.1
			C1225.7,498.7,1201,499.7,1188.5,498.6z"/>
	</g>
	<path fill="#474F52" d="M1232,692.5V911h-144V693h10.9c-4.5-19-6.9-35.3-3-43.9c10.3-23.1,53.6-23.1,53.6-23.1h1.9h28.9h1.9
		c0,0,44.9-0.4,49.9,21.1v45.4H1232z"/>
	<path opacity="0.14" fill="#141414" enable-background="new    " d="M1103.3,663.4c0,0,22,9,22,29.6s3.4,70.9-4.7,84.8
		c-3.3,5.6-30.8,4.9-30.3-16.6C1090.8,739.6,1103.3,663.4,1103.3,663.4z"/>
	<path fill="#84705B" d="M1053.9,757.9l6.2,2.6c4.2,1.8,9-0.2,10.8-4.4l28.4-67.8c1.8-4.2-0.2-9-4.4-10.8l-6.2-2.6
		c-4.2-1.8-9,0.2-10.8,4.4l-28.4,67.8C1047.8,751.3,1049.8,756.1,1053.9,757.9z"/>
	<path fill="#84705B" d="M1115.2,807.7l4.8-4.8c3.2-3.2,3.2-8.5,0-11.7l-51.9-52c-3.2-3.2-8.5-3.2-11.7,0l-4.8,4.8
		c-3.2,3.2-3.2,8.5,0,11.7l51.9,52C1106.8,810.9,1112,810.9,1115.2,807.7z"/>
	<path fill="#278FAF" d="M1165.6,683"/>
	<path fill="#3B4346" d="M1100.6,651.5l2.6,1.1c8.6,3.6,13.2,12.4,10.1,19.7l-9.5,22.6l0,0l-6.9,16.4l-33.1-13.9l6.9-16.4l0,0
		l9.5-22.6C1083.3,651.1,1092,647.9,1100.6,651.5z"/>
	<path fill="#3B4346" d="M1141.7,629.5h49.3c1.7,0,3.1-1.4,3.1-3.1v-1.2c0-1.7-1.4-3.1-3.1-3.1h-49.3c-1.7,0-3.1,1.4-3.1,3.1v1.2
		C1138.5,628.1,1139.9,629.5,1141.7,629.5z"/>
	<path opacity="0.14" fill="#141414" enable-background="new    " d="M1186.3,677.7L1186.3,677.7c-4.8,0.3-8.5,4.5-8.1,9.3l0.5,7.8
		c-1.7,1.7-2.7,4.1-2.6,6.7l1.1,16.2c0.3,4.8,4.5,8.5,9.3,8.1l3-0.2c4.8-0.3,8.5-4.5,8.1-9.3l-0.9-14.3l0,0l-1.1-16.2
		C1195.2,681,1191.1,677.4,1186.3,677.7z"/>
	<path fill="#84705B" d="M1110.7,790.9l-5.6,5.7c-3.8,3.8-3.8,10,0,13.8l10.7,10.6c3.8,3.8,10,3.8,13.8,0l5.6-5.7
		c3.8-3.8,3.8-10,0-13.8l-10.7-10.6C1120.7,787.1,1114.5,787.1,1110.7,790.9z"/>
	<g>
		<path fill="#246AAB" d="M1314.6,740.6l-22-7.6c-2.9-1-6.1,0.5-7.1,3.4l-24.2,70.1c-1,2.9,0.5,6.1,3.4,7.1l22,7.6
			c2.9,1,6.1-0.5,7.1-3.4l24.2-70.1C1319,744.8,1317.5,741.6,1314.6,740.6z"/>
		<path fill="#006C93" d="M1310.5,730.1l-8.1-2.8c-0.4-0.1-0.8,0.1-0.9,0.4c-0.1,0.4,0.1,0.8,0.4,0.9l8.1,2.8
			c0.4,0.1,0.8-0.1,0.9-0.4C1311,730.7,1310.8,730.3,1310.5,730.1z"/>
		<path fill="#19B3EC" d="M1314.6,740.6l-6.9-2.4l2.3-6.8l-8.1-2.8l-2.3,6.8l-6.9-2.4c-2.9-1-6.1,0.5-7.1,3.4l-1.5,4.4l32.5,11.2
			l1.5-4.4C1319,744.8,1317.5,741.6,1314.6,740.6z"/>
	</g>
	<path fill="#84705B" d="M1273.5,760.8l-0.5,0.9c-1.3,2.5-0.3,5.7,2.3,7l0.6,0.3c2.5,1.3,5.7,0.3,7-2.3l0.5-0.9
		c1.3-2.5,0.3-5.7-2.3-7l-0.6-0.3C1277.9,757.3,1274.8,758.3,1273.5,760.8z"/>
</g>
<g>
	<path fill="#756151" d="M740.3,603.3c-13.6,20.2,144,17.9,134.8,0c-4.5-8.8-10.1-6.3-8.8-26.5S752,564.4,752,564.4
		S752.9,584.5,740.3,603.3z"/>
	<path opacity="0.3" fill="#FFFFFF" enable-background="new    " d="M875.1,603.3c0,0-13.5-12-8.8-26.5
		c6.2-19.2-103.4-8.6-103.4-8.6l2.4-3.2c15.2-1.5,97,13.8,95.9,32.3L875.1,603.3z"/>
	<polygon fill="#D8C8BC" points="839.2,637.4 789.1,637.4 792.2,584.9 836.1,584.9 	"/>
	<polygon opacity="0.1" fill="#443E3B" enable-background="new    " points="839.2,637.4 789.1,637.4 792.2,584.9 836.1,584.9 	"/>
	<circle fill="#84705B" cx="821.5" cy="541.6" r="66.8"/>
	<circle fill="#84705B" cx="821.5" cy="541.6" r="66.8"/>
	<circle fill="#D8C8BC" cx="821.5" cy="541.6" r="66.8"/>
	<path opacity="5.000000e-02" enable-background="new    " d="M840.9,604.8c-36.9,0-66.8-29.9-66.8-66.8c0-29.2,18.7-54,44.8-63.1
		c-35.7,1.3-64.2,30.7-64.2,66.7c0,36.9,29.9,66.8,66.8,66.8c7.7,0,15.1-1.3,21.9-3.7C842.5,604.7,841.7,604.8,840.9,604.8z"/>
	<path fill="#756151" d="M804.4,472.6c0,0-17-0.2-34.8,10.3s-31.7,28-22,62.5s1,52.7,1,52.7s32.8-54.1,37.3-89.3
		C804.9,499.6,809.2,479.9,804.4,472.6z"/>
	<g opacity="0.3">
		<path fill="#FFFFFF" d="M740.4,638c-0.1,0.2-0.1,0.3-0.1,0.3s0-0.1,0.1-0.1C740.4,638.2,740.4,638.1,740.4,638z"/>
		<path fill="#FFFFFF" d="M804.4,472.6c0,0-1.4,0-3.7,0.2c2.6,8.7-2.6,25.4-19.6,33.5c-4.3,33.7-30.9,82.2-33.6,89.4
			c3.1-7.2,34.1-53.3,38.5-87C804.9,499.6,809.2,479.9,804.4,472.6z"/>
	</g>
	<path fill="#756151" d="M798.6,473c0,0,9.3-12.6,34.7-10.1s45.4,18.5,50.2,36c4.9,17.4-0.1,18.9-0.1,18.9s-74.1-34.7-93.2-17.4
		C774.9,514,798.6,473,798.6,473z"/>
	<path opacity="0.3" fill="#FFFFFF" enable-background="new    " d="M883.6,498.9c-4.9-17.4-24.8-33.4-50.2-36
		c-17.1-1.7-26.9,3.5-31.4,7c5.4-3,14.3-6,27.7-4.6c25.4,2.5,45.3,18.5,50.2,36c2.1,7.6,2.4,12.1,2,14.8l1.6,1.6
		C883.6,517.7,888.5,516.3,883.6,498.9z"/>
	<g>
		<g opacity="0.44">
			<path d="M836.2,589.4c0,0,0.7-0.6,1.8-1.4c0.3-0.2,0.6-0.4,1-0.5c0.3-0.2,0.7-0.3,1.1-0.5c0.8-0.3,1.7-0.6,2.7-0.7l0.7-0.1h0.7
				c0.5-0.1,0.9,0,1.4,0c0.4,0,0.9,0.2,1.3,0.3c0.4,0.1,0.8,0.3,1.1,0.4c0.3,0.2,0.6,0.3,0.8,0.5s0.4,0.3,0.6,0.5
				c0.3,0.3,0.5,0.4,0.5,0.4l-0.1,0.1c0,0-0.2,0-0.6-0.2c-0.2,0-0.4-0.1-0.7-0.2c-0.3-0.1-0.6-0.1-0.9-0.2c-0.3-0.1-0.7-0.2-1-0.2
				c-0.4,0-0.7-0.2-1.1-0.2c-0.4,0-0.8-0.1-1.2-0.1s-0.9,0-1.3,0c-0.9,0-1.7,0.2-2.5,0.4s-1.5,0.5-2.1,0.8
				C837,588.9,836.2,589.5,836.2,589.4L836.2,589.4z"/>
		</g>
		<g>
			<g>
				<path d="M816.9,525.7c0,0,0.3-1,1-2.4c0.2-0.3,0.4-0.7,0.6-1.1c0.2-0.4,0.5-0.8,0.8-1.2s0.6-0.8,1-1.1c0.4-0.4,0.7-0.8,1.1-1.1
					l0.6-0.5l0.6-0.5c0.4-0.3,0.9-0.5,1.3-0.8c0.4-0.2,0.9-0.4,1.3-0.5c0.4-0.1,0.9-0.2,1.3-0.2c0.4,0,0.7-0.1,1.1-0.1
					c0.3,0,0.6,0,0.8,0.1c0.5,0,0.7,0.1,0.7,0.1v0.1c0,0-0.3,0.1-0.7,0.2c-0.2,0.1-0.5,0.1-0.8,0.2c-0.3,0.1-0.6,0.2-1,0.3
					s-0.7,0.2-1.1,0.4c-0.4,0.2-0.8,0.3-1.2,0.5s-0.8,0.4-1.3,0.6l-0.6,0.3l-0.6,0.4c-0.4,0.3-0.8,0.6-1.1,0.9c-0.4,0.3-0.7,0.7-1,1
					c-0.6,0.7-1.1,1.4-1.6,2c-0.8,1.3-1.2,2.2-1.2,2.2L816.9,525.7z"/>
			</g>
			<path fill="#1E1A16" d="M826.4,538c1.8,0,3.4,0.3,4.8,0.9c0.6-1.3,0.9-2.7,0.9-4.3c0-4.5-2.6-8.1-5.8-8.1s-5.8,3.6-5.8,8.1
				c0,1.6,0.3,3.1,0.9,4.3C822.9,538.4,824.6,538,826.4,538z"/>
			<path fill="#FFFFFF" d="M826.2,528.1c-0.2-0.1,2.6,0.4,3.4,3.3C829.6,531.4,827.7,528.8,826.2,528.1z"/>
			<g>
				<g>
					<path d="M875.3,528.6c0,0-0.6-0.9-1.6-1.9c-0.5-0.5-1.2-1.1-1.9-1.7c-0.4-0.3-0.8-0.5-1.2-0.8c-0.4-0.2-0.8-0.5-1.3-0.7
						l-0.7-0.3l-0.7-0.2c-0.5-0.2-0.9-0.2-1.4-0.3c-0.4-0.1-0.9-0.2-1.3-0.3c-0.4-0.1-0.8-0.1-1.2-0.2c-0.4,0-0.7-0.1-1-0.1
						s-0.6,0-0.8,0c-0.4,0-0.7-0.1-0.7-0.1v-0.1c0,0,0.2-0.1,0.7-0.2c0.2-0.1,0.5-0.1,0.8-0.2c0.3-0.1,0.7-0.1,1.1-0.1
						c0.4,0,0.8-0.1,1.3,0c0.5,0,0.9,0.1,1.4,0.2c0.5,0.1,1,0.2,1.4,0.5l0.7,0.3l0.7,0.4c0.5,0.2,0.9,0.5,1.3,0.8
						c0.4,0.3,0.8,0.6,1.2,0.9c0.4,0.3,0.7,0.6,1,1c0.3,0.3,0.6,0.6,0.8,0.9C874.9,527.6,875.4,528.5,875.3,528.6L875.3,528.6z"/>
				</g>
				<path fill="#1E1A16" d="M865,538c1.8,0,3.4,0.3,4.8,0.9c0.6-1.3,0.9-2.7,0.9-4.3c0-4.5-2.6-8.1-5.8-8.1s-5.8,3.6-5.8,8.1
					c0,1.6,0.3,3.1,0.9,4.3C861.5,538.4,863.2,538,865,538z"/>
				<path fill="#FFFFFF" d="M864.9,528.1c-0.2-0.1,2.6,0.4,3.4,3.3C868.2,531.4,866.3,528.8,864.9,528.1z"/>
			</g>
			<g opacity="0.44">
				<path d="M847.1,543.9c0,0,1,1.2,2.4,3.1c0.7,0.9,1.4,2.1,2.1,3.4c0.7,1.3,1.4,2.7,1.8,4.3c0.2,0.8,0.3,1.6,0.3,2.4
					c0,0.8-0.3,1.7-0.7,2.4c-0.4,0.8-1.1,1.3-1.8,1.7c-0.3,0.2-0.7,0.3-1,0.5c-0.3,0.1-0.6,0.2-0.9,0.3c-0.6,0.1-1.2,0.3-1.7,0.3
					c-0.5,0.1-0.9,0.1-1.3,0.1c-0.7,0-1.1,0-1.1,0c-0.6,0-1-0.4-1-1s0.4-1,1-1h0.1h0.1c0,0,0.4,0,1,0.1c0.3,0,0.7,0,1.1,0
					c0.4,0,0.9-0.1,1.5-0.1c0.3-0.1,0.5-0.1,0.8-0.2c0.3-0.1,0.5-0.2,0.8-0.3c0.5-0.3,1-0.6,1.3-1.1s0.6-1.1,0.7-1.8
					c0.1-0.7,0-1.4-0.1-2.1c-0.2-1.5-0.8-2.9-1.4-4.2c-0.6-1.3-1.2-2.5-1.8-3.5C848.1,545.1,847.1,543.9,847.1,543.9z"/>
			</g>
		</g>
	</g>
	<g>
		<path fill="#D8C8BC" d="M834.2,753.9l6.4,2.2c4.3,1.5,9-0.9,10.5-5.2l23.6-69.6c1.5-4.3-0.9-9-5.2-10.5l-6.4-2.2
			c-4.3-1.5-9,0.9-10.5,5.2L829,743.4C827.6,747.7,829.9,752.4,834.2,753.9z"/>
		<path fill="#D8C8BC" d="M898.8,799.2l4.4-5.1c3-3.4,2.6-8.7-0.8-11.6L847,734.3c-3.4-3-8.7-2.6-11.6,0.8l-4.4,5.1
			c-3,3.4-2.6,8.7,0.8,11.6l55.4,48.2C890.6,803,895.9,802.6,898.8,799.2z"/>
		<path fill="#3C508E" d="M873.3,644.5l2.7,0.9c8.8,3,14,11.5,11.5,18.9l-7.9,23.2l0,0l-5.7,16.8l-34-11.5l5.7-16.8l0,0l7.9-23.2
			C856,645.3,864.5,641.5,873.3,644.5z"/>
		<path fill="#D8C8BC" d="M893.1,782.9l-5.2,6.1c-3.5,4.1-3.1,10.3,1,13.8l11.4,9.9c4.1,3.5,10.3,3.1,13.8-1l5.2-6.1
			c3.5-4.1,3.1-10.3-1-13.8l-11.4-9.9C902.8,778.3,896.6,778.8,893.1,782.9z"/>
	</g>
	<g>
		<path fill="#D8C8BC" d="M827.1,1129.5L827.1,1129.5c6.8,1.2,13.2-3.4,14.4-10.1l19.4-112c1.2-6.8-3.4-13.2-10.1-14.4l0,0
			c-6.8-1.2-13.2,3.4-14.4,10.1l-19.4,112C815.8,1121.9,820.4,1128.3,827.1,1129.5z"/>
		<path fill="#D8C8BC" d="M850.2,1019.7L850.2,1019.7c6.8-0.6,11.9-6.6,11.3-13.4l-7.2-84.6c-0.6-6.8-6.6-11.9-13.4-11.3l0,0
			c-6.8,0.6-11.9,6.6-11.3,13.4l7.2,84.6C837.3,1015.2,843.3,1020.3,850.2,1019.7z"/>
		
			<rect x="810.7" y="1143.5" transform="matrix(0.9706 0.2406 -0.2406 0.9706 300.4684 -171.5258)" fill="#FFFFFF" width="84" height="2.3"/>
		
			<rect x="812.9" y="1100.1" transform="matrix(0.9854 0.1704 -0.1704 0.9854 202.1036 -125.0613)" fill="#FFFFFF" width="33.5" height="29.6"/>
		
			<rect x="805" y="1135.4" transform="matrix(0.9706 0.2406 -0.2406 0.9706 297.9113 -163.7245)" fill="#FFFFFF" width="28.8" height="5.5"/>
		<path fill="#FFFFFF" d="M824.3,1127.7l19.7,4.9c2.8,0.7,4.5,3.6,3.8,6.4l-0.9,3.4c-0.7,2.8-3.6,4.5-6.4,3.8l-19.7-4.9
			c-2.8-0.7-4.5-3.6-3.8-6.4l0.9-3.4C818.7,1128.7,821.5,1127,824.3,1127.7z"/>
		<g>
			<path fill="#FF45FF" d="M854.5,1121.8c-2.1-0.5-4.2-0.9-6.1-1.3l1-5.9l-38.2-6.6l-3.9,22.4c-0.8,0.9-1.2,1.5-1.2,1.5l87.6,21.7
				C893.7,1153.7,890.5,1130.7,854.5,1121.8z"/>
		</g>
		<g>
			<g>
				<defs>
					<path id="SVGID_16_" d="M854.5,1121.8c-2.1-0.5-4.2-0.9-6.1-1.3l1-5.9l-38.2-6.6l-3.9,22.4c-0.8,0.9-1.2,1.5-1.2,1.5l87.6,21.7
						C893.7,1153.7,890.5,1130.7,854.5,1121.8z"/>
				</defs>
				<clipPath id="SVGID_17_">
					<use xlink:href="#SVGID_16_"  overflow="visible"/>
				</clipPath>
				<polygon clip-path="url(#SVGID_17_)" fill="#FFFFFF" points="822.5,1143.7 819.2,1143.2 861.1,1111.7 864.4,1112.2 				"/>
			</g>
			<g>
				<defs>
					<path id="SVGID_18_" d="M854.5,1121.8c-2.1-0.5-4.2-0.9-6.1-1.3l1-5.9l-38.2-6.6l-3.9,22.4c-0.8,0.9-1.2,1.5-1.2,1.5l87.6,21.7
						C893.7,1153.7,890.5,1130.7,854.5,1121.8z"/>
				</defs>
				<clipPath id="SVGID_19_">
					<use xlink:href="#SVGID_18_"  overflow="visible"/>
				</clipPath>
				<polygon clip-path="url(#SVGID_19_)" fill="#FFFFFF" points="831.4,1145.3 828.1,1144.7 870,1113.2 873.2,1113.8 				"/>
			</g>
			<g>
				<defs>
					<path id="SVGID_20_" d="M854.5,1121.8c-2.1-0.5-4.2-0.9-6.1-1.3l1-5.9l-38.2-6.6l-3.9,22.4c-0.8,0.9-1.2,1.5-1.2,1.5l87.6,21.7
						C893.7,1153.7,890.5,1130.7,854.5,1121.8z"/>
				</defs>
				<clipPath id="SVGID_21_">
					<use xlink:href="#SVGID_20_"  overflow="visible"/>
				</clipPath>
				<polygon clip-path="url(#SVGID_21_)" fill="#FFFFFF" points="840.2,1146.8 836.9,1146.2 878.8,1114.7 882.1,1115.3 				"/>
			</g>
			<g>
				<defs>
					<path id="SVGID_22_" d="M854.5,1121.8c-2.1-0.5-4.2-0.9-6.1-1.3l1-5.9l-38.2-6.6l-3.9,22.4c-0.8,0.9-1.2,1.5-1.2,1.5l87.6,21.7
						C893.7,1153.7,890.5,1130.7,854.5,1121.8z"/>
				</defs>
				<clipPath id="SVGID_23_">
					<use xlink:href="#SVGID_22_"  overflow="visible"/>
				</clipPath>
				<polygon clip-path="url(#SVGID_23_)" fill="#FFFFFF" points="849,1148.3 845.8,1147.7 887.6,1116.3 890.9,1116.8 				"/>
			</g>
		</g>
		
			<rect x="821.9" y="882" transform="matrix(0.9979 -6.516618e-02 6.516618e-02 0.9979 -58.6298 56.8059)" fill="#868789" width="39.2" height="90.2"/>
		
			<rect x="822.8" y="882.6" transform="matrix(0.9979 -6.516618e-02 6.516618e-02 0.9979 -58.6851 56.2274)" opacity="0.1" enable-background="new    " width="19.6" height="90.2"/>
	</g>
	<g>
		<path fill="#D8C8BC" d="M717.6,1096.6L717.6,1096.6c5,4.7,12.8,4.5,17.6-0.4l78.3-82.4c4.7-5,4.5-12.8-0.4-17.6l0,0
			c-5-4.7-12.8-4.5-17.6,0.4l-78.3,82.4C712.4,1084,712.6,1091.9,717.6,1096.6z"/>
		<path fill="#D8C8BC" d="M804.4,1012.9L804.4,1012.9c6.7-1.4,11.1-8,9.7-14.7L796.9,915c-1.4-6.7-8-11.1-14.7-9.7l0,0
			c-6.7,1.4-11.1,8-9.7,14.7l17.2,83.2C791.1,1009.9,797.7,1014.3,804.4,1012.9z"/>
		
			<rect x="688.2" y="1122.3" transform="matrix(0.6735 0.7392 -0.7392 0.6735 1068.8522 -172.9906)" fill="#FFFFFF" width="84" height="2.3"/>
		
			<rect x="711.1" y="1071.1" transform="matrix(0.7247 0.6891 -0.6891 0.7247 948.6702 -202.5934)" fill="#FFFFFF" width="33.5" height="29.6"/>
		
			<rect x="691.9" y="1096.8" transform="matrix(0.6735 0.7392 -0.7392 0.6735 1043.4008 -163.0677)" fill="#FFFFFF" width="28.8" height="5.5"/>
		<path fill="#FFFFFF" d="M716.2,1093.6l13.7,15c1.9,2.1,1.8,5.5-0.3,7.4l-2.6,2.4c-2.1,1.9-5.5,1.8-7.4-0.3l-13.7-15
			c-1.9-2.1-1.8-5.5,0.3-7.4l2.6-2.4C711,1091.3,714.3,1091.5,716.2,1093.6z"/>
		<g>
			<path fill="#FF45FF" d="M744.6,1105.4c-1.5-1.6-2.9-3.1-4.4-4.5l4.1-4.3l-28.1-26.7l-15.6,16.5c-1.2,0.3-1.9,0.6-1.9,0.6
				l60.8,66.7C759.5,1153.7,769.6,1132.8,744.6,1105.4z"/>
		</g>
		<g>
			<g>
				<defs>
					<path id="SVGID_24_" d="M744.6,1105.4c-1.5-1.6-2.9-3.1-4.4-4.5l4.1-4.3l-28.1-26.7l-15.6,16.5c-1.2,0.3-1.9,0.6-1.9,0.6
						l60.8,66.7C759.5,1153.7,769.6,1132.8,744.6,1105.4z"/>
				</defs>
				<clipPath id="SVGID_25_">
					<use xlink:href="#SVGID_24_"  overflow="visible"/>
				</clipPath>
				<polygon clip-path="url(#SVGID_25_)" fill="#FFFFFF" points="705.8,1105.9 703.4,1103.6 755.7,1100.7 758.1,1103 				"/>
			</g>
			<g>
				<defs>
					<path id="SVGID_26_" d="M744.6,1105.4c-1.5-1.6-2.9-3.1-4.4-4.5l4.1-4.3l-28.1-26.7l-15.6,16.5c-1.2,0.3-1.9,0.6-1.9,0.6
						l60.8,66.7C759.5,1153.7,769.6,1132.8,744.6,1105.4z"/>
				</defs>
				<clipPath id="SVGID_27_">
					<use xlink:href="#SVGID_26_"  overflow="visible"/>
				</clipPath>
				<polygon clip-path="url(#SVGID_27_)" fill="#FFFFFF" points="712.3,1112.1 709.9,1109.8 762.2,1106.9 764.7,1109.2 				"/>
			</g>
			<g>
				<defs>
					<path id="SVGID_28_" d="M744.6,1105.4c-1.5-1.6-2.9-3.1-4.4-4.5l4.1-4.3l-28.1-26.7l-15.6,16.5c-1.2,0.3-1.9,0.6-1.9,0.6
						l60.8,66.7C759.5,1153.7,769.6,1132.8,744.6,1105.4z"/>
				</defs>
				<clipPath id="SVGID_29_">
					<use xlink:href="#SVGID_28_"  overflow="visible"/>
				</clipPath>
				<polygon clip-path="url(#SVGID_29_)" fill="#FFFFFF" points="718.9,1118.3 716.4,1116 768.7,1113.1 771.2,1115.3 				"/>
			</g>
			<g>
				<defs>
					<path id="SVGID_30_" d="M744.6,1105.4c-1.5-1.6-2.9-3.1-4.4-4.5l4.1-4.3l-28.1-26.7l-15.6,16.5c-1.2,0.3-1.9,0.6-1.9,0.6
						l60.8,66.7C759.5,1153.7,769.6,1132.8,744.6,1105.4z"/>
				</defs>
				<clipPath id="SVGID_31_">
					<use xlink:href="#SVGID_30_"  overflow="visible"/>
				</clipPath>
				<polygon clip-path="url(#SVGID_31_)" fill="#FFFFFF" points="725.4,1124.5 722.9,1122.2 775.2,1119.2 777.7,1121.5 				"/>
			</g>
		</g>
		
			<rect x="765.2" y="876.9" transform="matrix(0.9831 -0.1832 0.1832 0.9831 -155.6271 159.3837)" fill="#868789" width="39.2" height="90.2"/>
		
			<rect x="766.3" y="878.5" transform="matrix(0.9831 -0.1832 0.1832 0.9831 -156.0595 157.808)" opacity="0.1" enable-background="new    " width="19.6" height="90.2"/>
	</g>
	<path fill="#465AAF" d="M878,692.5V911H736V693h10.5c-4.5-19-6.9-35.3-3-43.9C753.7,626,797,626,797,626h1.9h28.9h1.9
		c0,0,44.3-0.4,48.3,21.1L878,692.5L878,692.5z"/>
	<path opacity="0.14" fill="#141414" enable-background="new    " d="M750.9,663.4c0,0,22,9,22,29.6s3.4,70.9-4.7,84.8
		c-3.3,5.6-30.8,4.9-30.3-16.6C738.3,739.6,750.9,663.4,750.9,663.4z"/>
	<path fill="#278FAF" d="M813.2,683"/>
	<path fill="#3C508E" d="M789.3,629.5h49.3c1.7,0,3.1-1.4,3.1-3.1v-1.2c0-1.7-1.4-3.1-3.1-3.1h-49.3c-1.7,0-3.1,1.4-3.1,3.1v1.2
		C786.1,628.1,787.5,629.5,789.3,629.5z"/>
	<g>
		<path fill="#D8C8BC" d="M752.8,767.3l6.7-0.8c4.5-0.5,7.8-4.7,7.2-9.2l-8.6-73c-0.5-4.5-4.7-7.8-9.2-7.2l-6.7,0.8
			c-4.5,0.5-7.8,4.7-7.2,9.2l8.6,73C744.2,764.6,748.3,767.8,752.8,767.3z"/>
		<path fill="#D8C8BC" d="M830.7,780.5l1.8-6.5c1.2-4.4-1.4-8.9-5.7-10.2L756,744.1c-4.4-1.2-8.9,1.4-10.2,5.7l-1.8,6.5
			c-1.2,4.4,1.4,8.9,5.7,10.2l70.8,19.7C824.9,787.4,829.5,784.9,830.7,780.5z"/>
		<path fill="#3C508E" d="M741.1,651.7l2.8-0.3c9.2-1.1,17.6,4.3,18.5,12.2l2.9,24.3l0,0l2.1,17.7l-35.6,4.2l-2.1-17.7l0,0
			l-2.9-24.3C725.9,659.9,731.9,652.8,741.1,651.7z"/>
		<path fill="#D8C8BC" d="M818.5,768.2l-2.1,7.7c-1.4,5.2,1.7,10.6,6.8,12l14.6,4c5.2,1.4,10.6-1.7,12-6.8l2.1-7.7
			c1.4-5.2-1.7-10.6-6.8-12l-14.6-4C825.3,759.9,819.9,763,818.5,768.2z"/>
	</g>
	<g>
		<g>
			<path fill="#1E1A16" d="M857.2,567.5c0,0,0.2,0.2,0.5,0.6c0.3,0.4,0.6,0.9,0.8,1.5c0.1,0.3,0.2,0.6,0.2,0.9
				c0,0.3-0.1,0.6-0.2,0.8c-0.1,0.2-0.2,0.4-0.3,0.5S858,572,858,572h-0.1c0,0,0-0.1-0.1-0.2c0-0.1,0-0.3-0.1-0.5
				c0-0.2-0.1-0.4-0.1-0.7c0-0.2,0-0.5,0-0.8c0-0.6-0.2-1.1-0.4-1.5C857.3,567.8,857.1,567.6,857.2,567.5L857.2,567.5z"/>
		</g>
		<g>
			<path fill="#1E1A16" d="M832.3,569.5c0,0-0.1,0.3-0.2,0.7c-0.1,0.4-0.2,1-0.2,1.6c0,0.3,0.1,0.5,0.1,0.8c0,0.2,0,0.5,0,0.7
				s0,0.4,0,0.5s0,0.2,0,0.2h-0.1c0,0-0.1,0-0.2-0.1c-0.1-0.1-0.3-0.2-0.4-0.5c-0.1-0.2-0.2-0.5-0.3-0.8c0-0.3,0-0.6,0.1-1
				c0.1-0.6,0.3-1.2,0.6-1.6C832,569.7,832.2,569.5,832.3,569.5L832.3,569.5z"/>
		</g>
		<g>
			<path fill="#1E1A16" d="M858.2,569.7c0,0-1.4,1.1-3.7,2.2c-0.6,0.3-1.2,0.6-1.9,0.9c-0.7,0.3-1.4,0.6-2.2,0.8
				c-0.8,0.3-1.6,0.5-2.4,0.7c-0.8,0.2-1.7,0.3-2.6,0.4c-0.5,0.1-0.9,0-1.3,0.1c-0.4,0-0.9,0-1.3,0c-0.9,0-1.7-0.1-2.5-0.2
				c-1.6-0.2-3.1-0.6-4.3-1c-2.5-0.8-4-1.6-4-1.6s1.7,0.3,4.2,0.6c0.6,0.1,1.3,0.2,2,0.2c0.7,0.1,1.5,0.1,2.3,0.2
				c0.8,0.1,1.6,0.1,2.4,0.1c0.4,0,0.8,0,1.2,0s0.9,0,1.2-0.1c0.8-0.1,1.6-0.2,2.4-0.3c0.8-0.2,1.6-0.3,2.3-0.5
				c0.8-0.2,1.5-0.4,2.2-0.6c0.7-0.2,1.4-0.4,2-0.6C856.6,570.2,858.2,569.7,858.2,569.7z"/>
		</g>
		<g>
			<path fill="#1E1A16" d="M853.7,576.1c0,0-0.8,1-2.3,2.2c-0.7,0.6-1.6,1.3-2.7,1.8c-0.5,0.3-1.1,0.6-1.7,0.8
				c-0.6,0.2-1.2,0.4-1.9,0.5h-0.2h-0.3h-0.5c-0.3,0-0.7,0-1-0.1c-0.6-0.1-1.2-0.2-1.8-0.4c-1.2-0.4-2.2-0.8-3-1.3s-1.5-0.9-1.9-1.2
				s-0.7-0.5-0.7-0.5s0.3,0.1,0.8,0.4c0.5,0.3,1.2,0.6,2.1,0.9c0.9,0.4,1.9,0.7,3,1c0.6,0.2,1.1,0.2,1.7,0.3c0.3,0,0.6,0,0.9,0.1
				h0.5h0.2h0.2c0.6-0.1,1.2-0.2,1.7-0.4c0.6-0.2,1.1-0.4,1.6-0.7c1-0.5,2-1.1,2.7-1.6c0.8-0.5,1.4-0.9,1.9-1.3
				C853.5,576.3,853.7,576.1,853.7,576.1z"/>
		</g>
	</g>
</g>
<g>
	<path fill="#84705B" d="M1002.3,1084.6L1002.3,1084.6c3.5,6.3,11.5,8.6,17.8,5.1l104.4-58.2c6.3-3.5,8.6-11.5,5.1-17.8l0,0
		c-3.5-6.3-11.5-8.6-17.8-5.1l-104.4,58.2C1001.1,1070.3,998.8,1078.2,1002.3,1084.6z"/>
	
		<rect x="962.6" y="1114.3" transform="matrix(0.4227 0.9063 -0.9063 0.4227 1592.145 -268.455)" fill="#FFFFFF" width="88.3" height="2.4"/>
	
		<rect x="998.5" y="1061.3" transform="matrix(0.4865 0.8737 -0.8737 0.4865 1462.6552 -334.7181)" fill="#FFFFFF" width="35.2" height="31.2"/>
	
		<rect x="975" y="1081" transform="matrix(0.4227 0.9063 -0.9063 0.4227 1553.969 -271.6122)" fill="#FFFFFF" width="30.3" height="5.8"/>
	<path fill="#FFFFFF" d="M1001.8,1080.8l9.2,19.8c1.2,2.6,0.1,5.8-2.5,7l-3.9,1.8c-2.6,1.2-5.8,0.1-7-2.5l-9.2-19.8
		c-1.2-2.6-0.1-5.8,2.5-7l3.9-1.8C997.5,1077.1,1000.6,1078.2,1001.8,1080.8z"/>
	<g>
		<path fill="#76FF43" d="M1026.7,1101.8c-1-2.1-2-4-3-5.9l5.5-3l-19.8-35.6l-20.9,11.6c-1.3-0.1-2.1,0-2.1,0l40.1,86
			C1026.5,1155,1043.2,1137.2,1026.7,1101.8z"/>
	</g>
	<g>
		<g>
			<defs>
				<path id="SVGID_32_" d="M1026.7,1101.8c-1-2.1-2-4-3-5.9l5.5-3l-19.8-35.6l-20.9,11.6c-1.3-0.1-2.1,0-2.1,0l40.1,86
					C1026.5,1155,1043.2,1137.2,1026.7,1101.8z"/>
			</defs>
			<clipPath id="SVGID_33_">
				<use xlink:href="#SVGID_32_"  overflow="visible"/>
			</clipPath>
			<polygon clip-path="url(#SVGID_33_)" fill="#FF45FF" points="987.7,1090.2 986,1087.1 1039.4,1100.6 1041.1,1103.6 			"/>
		</g>
		<g>
			<defs>
				<path id="SVGID_34_" d="M1026.7,1101.8c-1-2.1-2-4-3-5.9l5.5-3l-19.8-35.6l-20.9,11.6c-1.3-0.1-2.1,0-2.1,0l40.1,86
					C1026.5,1155,1043.2,1137.2,1026.7,1101.8z"/>
			</defs>
			<clipPath id="SVGID_35_">
				<use xlink:href="#SVGID_34_"  overflow="visible"/>
			</clipPath>
			<polygon clip-path="url(#SVGID_35_)" fill="#FF45FF" points="992.3,1098.4 990.6,1095.4 1044,1108.8 1045.7,1111.9 			"/>
		</g>
		<g>
			<defs>
				<path id="SVGID_36_" d="M1026.7,1101.8c-1-2.1-2-4-3-5.9l5.5-3l-19.8-35.6l-20.9,11.6c-1.3-0.1-2.1,0-2.1,0l40.1,86
					C1026.5,1155,1043.2,1137.2,1026.7,1101.8z"/>
			</defs>
			<clipPath id="SVGID_37_">
				<use xlink:href="#SVGID_36_"  overflow="visible"/>
			</clipPath>
			<polygon clip-path="url(#SVGID_37_)" fill="#FF45FF" points="996.9,1106.7 995.1,1103.6 1048.6,1117.1 1050.3,1120.1 			"/>
		</g>
		<g>
			<defs>
				<path id="SVGID_38_" d="M1026.7,1101.8c-1-2.1-2-4-3-5.9l5.5-3l-19.8-35.6l-20.9,11.6c-1.3-0.1-2.1,0-2.1,0l40.1,86
					C1026.5,1155,1043.2,1137.2,1026.7,1101.8z"/>
			</defs>
			<clipPath id="SVGID_39_">
				<use xlink:href="#SVGID_38_"  overflow="visible"/>
			</clipPath>
			<polygon clip-path="url(#SVGID_39_)" fill="#FF45FF" points="1001.4,1114.9 999.7,1111.9 1053.2,1125.3 1054.9,1128.4 			"/>
		</g>
	</g>
</g>
<g>
	<g>
		<line fill="none" stroke="#EAEAEA" stroke-width="13" stroke-miterlimit="10" x1="-55" y1="1455" x2="45" y2="1455"/>
		
			<line fill="none" stroke="#EAEAEA" stroke-width="13" stroke-miterlimit="10" stroke-dasharray="214.2222,214.2222" x1="259.2" y1="1455" x2="1865.9" y2="1455"/>
		<line fill="none" stroke="#EAEAEA" stroke-width="13" stroke-miterlimit="10" x1="1973" y1="1455" x2="2073" y2="1455"/>
	</g>
</g>
<g opacity="0.8">
	<g>
		<path fill="#FFFFFF" d="M252.3,334.9c-21.1-3.6-32.3,5.5-31.1-10.4c0.8-10.3,4.2-31.5,6.5-45.1c1.4-4,2.2-8.2,2.2-12.4
			c0-34.4-48.2-62.2-107.6-62.2S14.7,232.5,14.7,266.9c0,3.7,0.7,7.4,1.8,11c-11-17.2-36.9-29.2-67.1-29.2c-19.9,0-40.1,5.4-54.4,16
			c-16.3,12.1-16,26.6-21.3,42.5c-3.3,9.8-10.5,20.4-23.8,24.3c-13.9,4-30.9-2.4-43.6,4.6c-11.3,6.3-9.2,20.4,0.7,27.9
			s24.6,9.9,38.5,11.3c38.6,4,77.8,3.2,116.8,2.5c51.5-1,103-2,154.5-3c25.7-0.5,51.5-1,77.2-1.5c16-0.3,51,3.5,64.4-4.8
			C270.9,360.9,273.4,338.5,252.3,334.9z"/>
		<path fill="#DDE7ED" d="M252.3,334.9c-1.7-0.3-3.5-0.5-5.2-0.7c-1.7-0.1-3.5-0.2-5.2-0.3c-3.5-0.1-7,0.2-10.5,0.3
			c-1.7,0-3.5,0.1-5.3-0.2c-0.9-0.1-1.7-0.4-2.5-0.9s-1.4-1.2-1.8-2c-0.8-1.6-0.8-3.4-0.8-5.2c0.1-1.8,0.2-3.5,0.4-5.2
			c0.7-7,1.8-13.9,2.8-20.8c1.1-6.9,2.2-13.8,3.3-20.7l0,0l0,0c1-2.9,1.7-5.9,2-8.9c0.1-1.5,0.2-3.1,0.1-4.6c0-0.8,0-1.5-0.1-2.3
			l-0.3-2.3c-0.5-3-1.3-6-2.5-8.8c-0.3-0.7-0.6-1.4-0.9-2.1c-0.3-0.7-0.7-1.4-1-2c-0.8-1.3-1.5-2.7-2.4-3.9
			c-3.4-5.1-7.8-9.5-12.5-13.3c-4.8-3.8-10-7.2-15.4-10s-11.1-5.2-16.9-7.2c-5.8-2-11.7-3.6-17.7-4.9c-6-1.3-12.1-2.2-18.2-2.8
			c-6.1-0.6-12.2-1-18.4-1c-12.3,0-24.6,1-36.6,3.5s-23.8,6.2-34.8,11.7c-5.5,2.8-10.7,6-15.6,9.7c-4.8,3.8-9.2,8.1-12.9,13
			c-1.8,2.5-3.4,5.1-4.6,7.9c-0.4,0.7-0.6,1.4-0.9,2.1c-0.3,0.7-0.6,1.4-0.8,2.1l-0.7,2.2l-0.5,2.2c-0.6,3-0.9,6-0.7,9.1
			c0.2,3,0.8,6.1,1.7,9l0.7,2.1l-1.2-1.9c-2.3-3.4-5-6.5-8-9.3s-6.4-5.2-9.9-7.3c-7.1-4.2-14.9-7.3-22.9-9.3s-16.3-3-24.5-3.2
			c-8.3-0.2-16.6,0.7-24.6,2.5c-8.1,1.8-15.9,4.6-23.2,8.5c-7.2,3.9-14,9.1-18.4,16.2c-2.2,3.5-3.8,7.3-5.1,11.2
			c-1.3,3.9-2.2,8-3.3,12c-1.1,4-2.1,8-3.8,11.9c-0.8,1.9-1.8,3.8-2.9,5.5c-1.1,1.8-2.4,3.4-3.7,5c-5.5,6.3-13.4,10.4-21.8,11.2
			c-8.3,0.9-16.6-0.4-24.8,0.2c-4.1,0.3-8.2,1.1-11.8,2.9l-0.7,0.3l-0.2,0.1l-0.1,0.1l-0.3,0.2l-1.3,0.8c-0.4,0.3-0.8,0.6-1.1,1
			l-0.6,0.5c-0.2,0.2-0.3,0.4-0.5,0.6c-1.4,1.5-2.3,3.3-2.9,5.2c-0.3,1-0.4,2-0.5,3v1.5c0,0.5,0.1,1,0.2,1.5c0.3,2,0.9,3.9,1.9,5.7
			c0.1,0.2,0.2,0.5,0.3,0.7l0.4,0.6c0.3,0.4,0.5,0.9,0.8,1.3c0.6,0.8,1.2,1.6,2,2.3c1.4,1.5,3,2.7,4.8,3.8c3.4,2.2,7.3,3.8,11.2,5
			s7.9,2.2,12,2.8c8.1,1.4,16.4,2.1,24.6,2.8c16.5,1.3,33.1,1.8,49.6,2c16.6,0.1,33.1-0.2,49.7-0.5l49.7-1l49.7-1l49.7-0.9l49.7-0.8
			l24.9-0.4c8.3-0.1,16.6-0.4,24.9,0c8.3,0.3,16.6,0.6,24.8,0.4c4.1-0.1,8.3-0.3,12.4-0.8c4.1-0.5,8.2-1.2,12.1-2.6
			c1.9-0.7,3.8-1.7,5.4-2.9c1.6-1.2,3.1-2.7,4.3-4.4c2.3-3.4,3.7-7.5,3.7-11.6c0-2.1-0.4-4.1-1.2-6c-0.8-1.9-2-3.6-3.4-5.1
			C260.3,337.2,256.3,335.6,252.3,334.9z M252.3,334.8c4.1,0.7,8.1,2.3,11.1,5.2c1.5,1.4,2.7,3.2,3.5,5.1s1.2,4,1.2,6.1
			c0.1,4.2-1.3,8.3-3.7,11.7c-1.2,1.7-2.6,3.2-4.3,4.5c-1.7,1.3-3.5,2.2-5.5,3c-3.9,1.5-8,2.2-12.1,2.7s-8.3,0.7-12.4,0.8
			c-8.3,0.2-16.6-0.1-24.9-0.3c-8.3-0.4-16.5,0-24.8,0.2l-24.8,0.5l-49.7,1.1l-49.7,1.1l-49.7,1l-49.7,1
			c-16.6,0.3-33.1,0.6-49.7,0.4c-16.6-0.1-33.2-0.7-49.7-2c-8.3-0.7-16.5-1.4-24.7-2.8c-4.1-0.7-8.2-1.6-12.1-2.9
			c-4-1.3-7.8-3-11.4-5.2c-3.5-2.2-6.7-5.3-8.6-9c-1-1.9-1.7-3.9-2-6c-0.1-0.5-0.2-1.1-0.2-1.6v-1.6c0.1-1.1,0.2-2.1,0.5-3.1
			c1.1-4.1,4.4-7.5,8.2-9.3c3.8-1.9,8-2.7,12.1-3c8.3-0.5,16.6,0.8,24.8-0.1c8.2-0.7,16-4.8,21.4-10.9c1.3-1.6,2.6-3.2,3.7-4.9
			c1.1-1.8,2-3.6,2.9-5.5c1.6-3.8,2.7-7.8,3.8-11.8c1.1-4,2-8,3.3-12s2.9-7.8,5.2-11.3c2.2-3.5,5.1-6.6,8.2-9.3
			c3.2-2.7,6.7-4.9,10.3-6.9c7.3-3.9,15.2-6.7,23.3-8.5s16.4-2.6,24.7-2.5s16.6,1.1,24.7,3.1s15.9,5.1,23,9.3c3.5,2.2,7,4.6,10,7.4
			c3.1,2.8,5.8,6,8.1,9.4l-0.6,0.3c-0.9-3-1.6-6-1.7-9.1c-0.2-3.1,0.1-6.2,0.7-9.3l0.5-2.3l0.7-2.2c0.2-0.8,0.5-1.5,0.8-2.2
			s0.5-1.5,0.9-2.1c1.3-2.8,2.9-5.5,4.7-8c3.6-5,8.1-9.4,13-13.2s10.2-7,15.7-9.8c11-5.6,22.9-9.4,35-11.9c6-1.3,12.2-2.2,18.3-2.7
			c6.1-0.6,12.3-0.9,18.5-0.9s12.3,0.4,18.5,1c6.1,0.7,12.2,1.6,18.3,2.9c6,1.3,12,3,17.8,5s11.5,4.4,17,7.3
			c5.5,2.9,10.7,6.2,15.5,10.1c4.8,3.9,9.2,8.4,12.6,13.5c0.9,1.3,1.6,2.6,2.4,4c0.4,0.7,0.7,1.4,1,2.1c0.4,0.7,0.7,1.4,0.9,2.1
			c1.2,2.8,2,5.9,2.5,8.9l0.3,2.3c0.1,0.8,0.1,1.5,0.1,2.3c0.1,1.6,0,3.1-0.1,4.6c-0.3,3.1-1,6.1-2,9l0,0
			c-1.2,6.9-2.3,13.8-3.4,20.7c-1.1,6.9-2.1,13.8-2.9,20.8c-0.2,1.7-0.4,3.5-0.4,5.2s0.1,3.5,0.8,5.1c0.4,0.8,0.9,1.4,1.7,1.9
			c0.7,0.5,1.6,0.7,2.4,0.8c1.7,0.3,3.5,0.2,5.2,0.2c3.5-0.1,7-0.4,10.5-0.3c1.8,0,3.5,0.1,5.2,0.3
			C248.8,334.3,250.6,334.5,252.3,334.8z"/>
	</g>
	<g>
		<path fill="#FFFFFF" d="M-50.2,330.1c-5-6.5-7.9-13.8-7.9-21.6c0-26.4,32.6-47.7,72.8-47.7s72.8,21.4,72.8,47.7
			c0,9.7-4.4,18.8-12.1,26.3"/>
		<path fill="#DDE7ED" d="M-50.2,330.1c0,0-0.1-0.2-0.4-0.6c-0.3-0.4-0.7-0.9-1.2-1.7c-1-1.5-2.4-3.7-3.8-6.8
			c-1.3-3.1-2.5-7.1-2.7-11.7c-0.2-4.7,0.8-10,3.2-15.3c2.5-5.2,6.4-10.3,11.4-14.6c5-4.4,11-8.1,17.5-11c6.6-2.9,13.8-5.1,21.2-6.4
			c7.4-1.4,15.1-1.9,22.8-1.7c3.8,0.1,7.7,0.4,11.5,0.9s7.5,1.2,11.2,2.1c7.3,1.8,14.3,4.5,20.7,7.9c6.3,3.4,12,7.7,16.4,12.7
			c4.4,4.9,7.6,10.5,9,16.1c1.5,5.6,1.3,11.1,0.2,15.6c-1.1,4.6-3,8.2-4.8,11.1c-1.8,2.8-3.5,4.8-4.8,6.1c-0.6,0.7-1.1,1.1-1.4,1.5
			c-0.3,0.3-0.5,0.5-0.5,0.5s0.2-0.2,0.5-0.5s0.8-0.8,1.4-1.5c1.2-1.3,2.9-3.4,4.6-6.2c1.7-2.8,3.5-6.5,4.5-11s1.1-9.9-0.4-15.3
			c-1.5-5.5-4.6-11-9-15.8s-10-8.9-16.2-12.3c-6.3-3.3-13.2-6-20.5-7.7c-3.6-0.9-7.3-1.6-11.1-2.1s-7.5-0.8-11.3-0.9
			c-7.6-0.2-15.2,0.3-22.6,1.7c-7.4,1.3-14.5,3.5-21,6.3c-6.5,2.9-12.5,6.5-17.4,10.7c-4.9,4.3-8.9,9.2-11.3,14.3
			c-2.5,5.1-3.5,10.3-3.4,15c0.1,4.6,1.2,8.6,2.4,11.7c1.3,3.1,2.6,5.3,3.6,6.8c0.5,0.7,0.9,1.3,1.2,1.7
			C-50.4,329.9-50.2,330.1-50.2,330.1z"/>
	</g>
</g>
<g opacity="0.8">
	<g>
		<path fill="#FFFFFF" d="M2105.5,440.5c-17.5-3.3-26.8,5-25.7-9.4c0.7-9.4,3.5-28.5,5.4-40.8c1.2-3.6,1.8-7.4,1.8-11.3
			c0-31.1-39.9-56.4-89-56.4c-49.2,0-89,25.2-89,56.4c0,3.4,0.5,6.7,1.5,9.9c-9.1-15.5-30.5-26.5-55.5-26.5
			c-16.5,0-33.2,4.9-45,14.5c-13.5,11-13.3,24.1-17.6,38.5c-2.7,8.9-8.7,18.5-19.7,22c-11.5,3.6-25.6-2.2-36.1,4.2
			c-9.3,5.7-7.6,18.5,0.6,25.3s20.4,8.9,31.9,10.2c32,3.6,64.4,2.9,96.7,2.2c42.6-0.9,85.2-1.8,127.8-2.7
			c21.3-0.5,42.6-0.9,63.9-1.4c13.2-0.3,42.2,3.2,53.3-4.3C2121,464.1,2123,443.8,2105.5,440.5z"/>
		<path fill="#DDE7ED" d="M2105.5,440.6c-3-0.6-6.1-0.8-9.2-0.8c-3.1,0-6.1,0.2-9.2,0.3c-1.5,0-3.1,0-4.6-0.5
			c-0.7-0.3-1.4-0.8-1.8-1.4c-0.5-0.6-0.7-1.4-0.9-2.2c-0.3-1.5-0.3-3.1-0.2-4.6s0.2-3.1,0.4-4.6c0.6-6.1,1.4-12.2,2.3-18.3
			c0.8-6.1,1.7-12.2,2.7-18.2l0,0l0,0c1.6-5,2.1-10.3,1.5-15.5s-2.4-10.2-5-14.8c-2.6-4.5-6-8.6-9.8-12.2s-8.1-6.7-12.6-9.4
			c-9-5.4-19-9.1-29.2-11.6c-5.1-1.2-10.3-2.1-15.5-2.7s-10.5-0.9-15.7-0.9c-10.5,0-21,1-31.3,3.4c-10.2,2.4-20.2,6-29.3,11.2
			c-4.5,2.6-8.8,5.7-12.8,9.2c-2,1.7-3.8,3.6-5.5,5.6s-3.3,4.1-4.6,6.3c-2.8,4.4-4.7,9.4-5.6,14.6c-0.1,1.3-0.4,2.6-0.4,3.9
			c0,0.7-0.1,1.3-0.1,2s0,1.3,0.1,2c0.2,2.6,0.7,5.2,1.4,7.7l0.5,1.9l-1-1.7c-1.8-3-3.9-5.7-6.3-8.2c-2.5-2.4-5.1-4.7-8-6.6
			c-5.8-3.9-12.2-6.7-18.9-8.6c-6.7-1.9-13.6-2.8-20.6-3s-13.9,0.6-20.7,2.2c-6.8,1.6-13.3,4.2-19.3,7.8c-3,1.8-5.8,3.8-8.4,6.2
			c-2.5,2.4-4.8,5.1-6.5,8c-3.6,6-5.1,12.9-6.7,19.6c-0.8,3.4-1.6,6.8-2.7,10.1c-0.6,1.7-1.2,3.3-2,4.9c-0.7,1.6-1.6,3.1-2.6,4.6
			c-1.9,2.9-4.3,5.6-7.2,7.7c-2.8,2.1-6.1,3.6-9.5,4.4c-3.5,0.8-7,0.9-10.5,0.8s-7-0.3-10.4-0.2c-3.5,0-6.9,0.4-10.1,1.7l-1.2,0.5
			l-1.1,0.6l-0.6,0.3l-0.3,0.1l-0.3,0.2l-1.1,0.8c-1.3,1.1-2.5,2.3-3.2,3.8c-0.8,1.5-1.3,3.1-1.4,4.8c-0.1,1.7,0,3.4,0.4,5.1
			c0.2,0.8,0.5,1.6,0.8,2.4c0.4,0.8,0.7,1.6,1.1,2.3c0.8,1.5,1.9,2.8,3.1,4c0.7,0.6,1.2,1.2,1.9,1.7c0.3,0.3,0.7,0.5,1,0.8l1.1,0.7
			c0.7,0.5,1.5,0.9,2.2,1.3c0.8,0.4,1.5,0.8,2.3,1.1c3.1,1.4,6.4,2.5,9.8,3.3c6.7,1.6,13.7,2.3,20.6,3c13.9,1.3,27.8,1.9,41.7,2.1
			c13.9,0.2,27.9-0.1,41.8-0.3l41.8-0.9l41.8-0.9l41.8-0.8l41.8-0.8l20.9-0.4l10.4-0.2c3.5-0.1,7,0.1,10.5,0.2
			c7,0.3,13.9,0.5,20.9,0.3c3.5-0.1,7-0.3,10.4-0.9c3.4-0.5,6.9-1.3,10-2.8s5.6-4.1,7.3-7.2c1.6-3.1,2.5-6.5,2.3-10
			c-0.1-3.5-1.4-6.9-3.8-9.4C2112.2,442.7,2108.9,441.2,2105.5,440.6z M2105.5,440.5c3.4,0.6,6.8,2.1,9.2,4.7c2.4,2.5,3.8,6,3.9,9.5
			c0.2,3.5-0.7,7-2.3,10.1s-4.2,5.7-7.3,7.3c-3.1,1.6-6.6,2.4-10,2.9c-3.5,0.5-6.9,0.8-10.4,0.9c-7,0.2-13.9,0-20.9-0.2
			c-3.5-0.1-7-0.2-10.4-0.2l-10.4,0.2l-20.9,0.5l-41.8,1l-41.8,1l-41.8,0.9l-41.8,0.9c-13.9,0.3-27.9,0.5-41.8,0.3
			s-27.9-0.8-41.8-2.1c-6.9-0.7-13.9-1.4-20.7-3.1c-3.4-0.8-6.8-1.9-10-3.4c-0.8-0.3-1.6-0.8-2.4-1.2c-0.8-0.5-1.5-0.9-2.3-1.4
			l-1.1-0.7c-0.4-0.3-0.7-0.5-1-0.8c-0.7-0.5-1.4-1.2-2-1.7c-1.2-1.3-2.4-2.7-3.2-4.2c-0.5-0.7-0.8-1.6-1.2-2.4
			c-0.3-0.8-0.6-1.7-0.8-2.5c-0.4-1.7-0.6-3.5-0.4-5.3c0.1-1.8,0.7-3.5,1.5-5.1s2.1-2.9,3.5-4.1l1.1-0.8l0.3-0.2
			c0.1-0.1,0.2-0.1,0.3-0.2l0.6-0.3l1.2-0.6l1.2-0.5c3.3-1.3,6.9-1.6,10.4-1.7c3.5,0,7,0.2,10.5,0.3c3.5,0.1,7,0,10.3-0.8
			c3.4-0.8,6.6-2.2,9.3-4.3c2.8-2,5.2-4.6,7.1-7.5s3.4-6,4.5-9.3s1.9-6.7,2.7-10.1c1.6-6.7,3.2-13.7,6.8-19.7c1.8-3,4-5.7,6.6-8.1
			c2.5-2.4,5.4-4.4,8.4-6.2c6-3.6,12.6-6.2,19.4-7.8c6.8-1.6,13.8-2.4,20.8-2.3s13.9,1.1,20.7,2.9c6.7,1.9,13.2,4.7,19,8.6
			c2.9,1.9,5.6,4.2,8.1,6.6c2.4,2.5,4.6,5.3,6.4,8.3l-0.5,0.2c-0.7-2.5-1.2-5.2-1.4-7.8c-0.1-1.3-0.1-2.7,0-4c0-1.3,0.2-2.6,0.4-4
			c0.9-5.2,2.8-10.3,5.6-14.8c1.3-2.3,3-4.4,4.7-6.4s3.6-3.9,5.6-5.7c3.9-3.5,8.3-6.6,12.8-9.3c9.2-5.3,19.2-9,29.5-11.4
			s20.9-3.5,31.4-3.5c5.3,0,10.6,0.4,15.8,1c5.2,0.6,10.5,1.6,15.6,2.8c10.2,2.5,20.2,6.3,29.3,11.8c4.5,2.7,8.8,5.9,12.7,9.5
			c3.8,3.6,7.2,7.8,9.9,12.4c2.6,4.6,4.4,9.7,5,15c0.7,5.2,0.1,10.7-1.5,15.7l0,0c-1,6.1-1.9,12.1-2.7,18.2
			c-0.9,6.1-1.7,12.2-2.3,18.3c-0.2,1.5-0.3,3.1-0.4,4.6c-0.1,1.5-0.1,3.1,0.2,4.6c0.2,1.5,1.1,2.9,2.6,3.4c1.4,0.6,3,0.6,4.5,0.5
			c3.1-0.1,6.1-0.3,9.2-0.3C2099.4,439.6,2102.5,439.9,2105.5,440.5z"/>
	</g>
	<g>
		<path fill="#FFFFFF" d="M1855.2,436.2c-4.2-5.9-6.5-12.5-6.5-19.6c0-23.9,27-43.2,60.2-43.2c33.3,0,60.2,19.4,60.2,43.2
			c0,8.8-3.7,17-10,23.8"/>
		<path fill="#DDE7ED" d="M1855.2,436.2c0,0-0.1-0.2-0.3-0.5c-0.2-0.3-0.6-0.8-1-1.5c-0.8-1.3-2-3.3-3.1-6s-2-6.1-2.3-10.2
			c-0.2-4,0.3-8.7,2.1-13.3c1.8-4.7,4.8-9.3,8.8-13.4s8.9-7.7,14.5-10.5c2.8-1.4,5.7-2.7,8.7-3.7s6.2-1.9,9.3-2.6
			c6.4-1.4,13.1-1.9,19.7-1.7c6.6,0.2,13.2,1.2,19.5,3s12.2,4.4,17.5,7.7c5.3,3.3,9.9,7.4,13.3,11.9c3.5,4.6,5.7,9.6,6.7,14.5
			s0.7,9.6-0.2,13.5c-0.9,3.9-2.5,7.2-3.9,9.6c-1.5,2.5-2.9,4.3-3.9,5.5c-0.5,0.6-0.9,1-1.2,1.3c-0.3,0.3-0.4,0.4-0.4,0.4
			s0.1-0.2,0.4-0.5s0.7-0.7,1.1-1.3c1-1.2,2.4-3,3.8-5.5s2.9-5.7,3.7-9.6c0.8-3.9,1-8.5,0-13.3s-3.3-9.7-6.8-14.2
			c-3.4-4.5-8-8.4-13.2-11.6c-5.2-3.3-11.1-5.8-17.3-7.5c-6.2-1.8-12.7-2.7-19.3-2.9c-6.6-0.2-13.1,0.3-19.5,1.6
			c-3.2,0.7-6.3,1.5-9.2,2.5c-3,1-5.9,2.3-8.6,3.6c-5.5,2.8-10.4,6.2-14.3,10.2c-4,4-7,8.5-8.8,13c-1.8,4.6-2.4,9.1-2.3,13.1
			c0.2,4,1.1,7.4,2.1,10.1s2.1,4.7,2.9,6c0.4,0.7,0.7,1.2,1,1.5C1855.1,436.1,1855.2,436.2,1855.2,436.2z"/>
	</g>
</g>
</svg>
